<svg width="270" height="58" viewBox="0 0 270 58" fill="none" xmlns="http://www.w3.org/2000/svg">
<path d="M28.4205 22.2197C28.4205 20.1797 27.2205 18.6997 24.8905 18.6997H20.4805V25.8697H24.9705C27.1705 25.8697 28.4205 24.2597 28.4205 22.2197Z" fill="black" fill-opacity="0.8"/>
<path d="M25.4505 30.0298H20.4805V38.2398H21.3605H25.4405C28.0105 38.2398 29.4505 36.5198 29.4505 34.1198C29.4605 31.7498 27.9705 30.0298 25.4505 30.0298Z" fill="black" fill-opacity="0.8"/>
<path d="M46.2605 6.33984H1.23047V51.3698H46.2605V20.8298L42.5305 17.6298L46.2605 14.1598V6.33984ZM25.0505 42.1998H17.9605H15.2305V18.2098H12.6305V14.2498H24.9305C30.0505 14.2498 33.7405 16.8898 33.7405 21.5798C33.7405 24.7398 32.0205 26.7798 30.3005 27.6698V27.7498C33.3805 28.6698 34.8705 31.5498 34.8705 34.4398C34.8605 40.1198 30.3405 42.1998 25.0505 42.1998Z" fill="black" fill-opacity="0.8"/>
<path d="M71.23 30.08H58.04V7.02002H70.02C74.28 7.02002 77.01 9.20002 77.01 12.84C77.01 14.5 76.21 16.89 73.37 17.97C76.52 18.9 77.8 21.16 77.8 23.61C77.81 26.93 75.42 30.08 71.23 30.08ZM68.43 11.66H63.96V16.26H68.46C70.36 16.26 71.09 15.19 71.09 13.84C71.09 12.49 70.27 11.66 68.43 11.66ZM69.16 20.67H63.96V25.38H69.16C71.1 25.38 71.89 24.38 71.89 23.03C71.89 21.6 70.96 20.67 69.16 20.67Z" fill="black" fill-opacity="0.8"/>
<path d="M97.4505 30.08L91.7705 22.22H87.6505V30.08H81.7305V7.02002H94.6505C99.4605 7.02002 102.37 10.31 102.37 14.5C102.37 17.38 100.98 20.01 98.4905 21.32L104.93 30.08H97.4505ZM93.6505 11.8H87.6605V17.62H93.6505C95.1405 17.62 96.4605 16.34 96.4605 14.64C96.4505 12.94 95.2405 11.8 93.6505 11.8Z" fill="black" fill-opacity="0.8"/>
<path d="M124.32 30.08L122.76 25.75H114.93L113.34 30.08H107.49L116.04 7.02002H121.65L130.17 30.08H124.32ZM118.85 12.88L116.32 21.29H121.34L118.85 12.88Z" fill="black" fill-opacity="0.8"/>
<path d="M139.12 12.15V15.65H150.2V20.77H139.12V30.08H133.2V7.02002H151.52V12.14H139.12V12.15Z" fill="black" fill-opacity="0.8"/>
<path d="M168.65 12.29V30.09H162.73V12.29H155.25V7.02002H176.13V12.28H168.65V12.29Z" fill="black" fill-opacity="0.8"/>
<path d="M189.46 30.4599C182.81 30.4599 177.62 25.1999 177.62 18.5499C177.62 11.8999 182.81 6.66992 189.46 6.66992C196.11 6.66992 201.27 11.8999 201.27 18.5499C201.27 25.1999 196.11 30.4599 189.46 30.4599ZM189.46 11.9399C185.65 11.9399 183.54 15.0199 183.54 18.5499C183.54 22.0799 185.58 25.1999 189.46 25.1999C193.34 25.1999 195.35 22.0799 195.35 18.5499C195.34 15.0199 193.27 11.9399 189.46 11.9399Z" fill="black" fill-opacity="0.8"/>
<path d="M220.551 30.08L210.091 16.09V30.08H204.381V7.02002H210.091L220.551 20.97V7.02002H226.231V30.08H220.551Z" fill="black" fill-opacity="0.8"/>
<path d="M60.1106 36.6099V42.4599H68.8006V43.7099H60.1106V51.3899H58.6406V35.3599H69.4306V36.6099H60.1106Z" fill="black" fill-opacity="0.8"/>
<path d="M78.5009 51.6599C74.4309 51.6599 72.1709 48.8199 72.1709 45.7799V35.3599H73.6409V45.8799C73.6409 48.7699 75.6909 50.3999 78.5009 50.3999C81.3209 50.3999 83.3609 48.5699 83.3609 45.8799V35.3599H84.8009V45.7899C84.8109 48.8399 82.5709 51.6599 78.5009 51.6599Z" fill="black" fill-opacity="0.8"/>
<path d="M89.0703 51.3999V35.3599H99.7603V36.6099H90.5403V42.4599H99.1603V43.7099H90.5403V50.1399H99.7603V51.3899H89.0703V51.3999Z" fill="black" fill-opacity="0.8"/>
<path d="M103.04 51.3999V35.3599H104.49V50.1499H112.92V51.3999H103.04Z" fill="black" fill-opacity="0.8"/>
<path d="M126.781 44.8699V51.3999H125.311V44.8699L118.811 35.3599H120.401L126.061 43.5199L131.701 35.3599H133.291L126.781 44.8699Z" fill="black" fill-opacity="0.8"/>
<path d="M140.941 51.6596C136.441 51.6596 133.381 47.8996 133.381 43.3996C133.381 38.8996 136.441 35.1196 140.941 35.1196C145.441 35.1196 148.501 38.8996 148.501 43.3996C148.491 47.8996 145.441 51.6596 140.941 51.6596ZM140.941 36.3696C137.331 36.3696 134.831 39.3796 134.831 43.3996C134.831 47.4196 137.331 50.3996 140.941 50.3996C144.551 50.3996 147.061 47.4196 147.061 43.3996C147.051 39.3796 144.551 36.3696 140.941 36.3696Z" fill="black" fill-opacity="0.8"/>
<path d="M158.06 51.6599C153.99 51.6599 151.73 48.8199 151.73 45.7799V35.3599H153.2V45.8799C153.2 48.7699 155.25 50.3999 158.07 50.3999C160.88 50.3999 162.93 48.5699 162.93 45.8799V35.3599H164.37V45.7899C164.37 48.8399 162.13 51.6599 158.06 51.6599Z" fill="black" fill-opacity="0.8"/>
<path d="M180.78 51.3999L175.65 44.4399H170.06V51.3999H168.62V35.3599H175.87C178.98 35.3599 180.74 37.5499 180.74 39.9099C180.74 41.9099 179.46 43.7899 177.18 44.2899L182.43 51.3899H180.78V51.3999ZM175.87 36.6099H170.07V43.2299H175.87C178.02 43.2299 179.29 41.9099 179.29 39.9099C179.29 37.9099 177.7 36.6099 175.87 36.6099Z" fill="black" fill-opacity="0.8"/>
<path d="M197.98 51.3999H190.73V35.3599H197.18C200.64 35.3599 202.35 36.9999 202.35 39.4499C202.35 40.8999 201.48 42.3599 199.82 42.9699C201.87 43.6199 202.83 45.0899 202.83 46.9399C202.84 49.2499 201.08 51.3999 197.98 51.3999ZM197.23 36.6099H192.17V42.5099H197.13C199.15 42.5099 200.88 41.6199 200.88 39.5699C200.89 37.5299 199.4 36.6099 197.23 36.6099ZM197.83 43.7199H192.17V50.1499H197.88C199.98 50.1499 201.4 48.9899 201.4 46.9499C201.4 45.0899 200.24 43.7199 197.83 43.7199Z" fill="black" fill-opacity="0.8"/>
<path d="M218.421 51.3999L213.291 44.4399H207.701V51.3999H206.261V35.3599H213.511C216.621 35.3599 218.371 37.5499 218.371 39.9099C218.371 41.9099 217.091 43.7899 214.811 44.2899L220.061 51.3899H218.421V51.3999ZM213.511 36.6099H207.711V43.2299H213.511C215.651 43.2299 216.931 41.9099 216.931 39.9099C216.931 37.9099 215.341 36.6099 213.511 36.6099Z" fill="black" fill-opacity="0.8"/>
<path d="M234.621 51.3999L232.841 46.9199H224.971L223.191 51.3999H221.721L228.371 35.3599H229.431L236.101 51.3999H234.621V51.3999ZM228.881 37.1199L225.441 45.7399H232.351L228.881 37.1199Z" fill="black" fill-opacity="0.8"/>
<path d="M250.291 51.3999L240.001 37.5999V51.3999H238.601V35.3599H240.001L250.281 49.1299V35.3599H251.701V51.3999H250.291Z" fill="black" fill-opacity="0.8"/>
<path d="M259.331 51.3999H256.131V35.3599H259.331C264.801 35.3599 268.771 38.7599 268.771 43.3799C268.771 47.9999 264.791 51.3999 259.331 51.3999ZM259.541 36.6099H257.571V50.1399H259.541C263.421 50.1399 267.301 47.6799 267.301 43.3699C267.301 39.0699 263.421 36.6099 259.541 36.6099Z" fill="black" fill-opacity="0.8"/>
</svg>
