<svg width="173" height="28" viewBox="0 0 173 28" fill="none" xmlns="http://www.w3.org/2000/svg">
<path fill-rule="evenodd" clip-rule="evenodd" d="M47.3692 17.9969C47.3692 16.2769 46.1912 15.4169 43.8372 15.4169H42.2672V20.3949C42.7572 20.4819 43.2152 20.5249 43.6412 20.5249C46.1262 20.5249 47.3692 19.6819 47.3692 17.9969V17.9969ZM46.7792 10.2569C46.7792 9.32892 46.4532 8.68392 45.7992 8.32292C45.3242 8.08292 44.5972 7.96292 43.6162 7.96292C43.2072 7.96292 42.7582 8.00492 42.2672 8.09092V12.6309H43.7632C45.7752 12.6309 46.7802 11.8409 46.7802 10.2579L46.7792 10.2569ZM50.5322 18.2279C50.5322 21.6679 48.1622 23.3879 43.4202 23.3879C42.1282 23.3879 40.7222 23.2329 39.2012 22.9239V5.69192C40.9012 5.34792 42.3242 5.17592 43.4692 5.17592C47.7692 5.17592 49.9192 6.83592 49.9192 10.1549C49.9239 10.9653 49.68 11.7576 49.2202 12.4249C48.7768 13.0937 48.1511 13.6216 47.4172 13.9459V13.9979C48.3822 14.2389 49.1422 14.7419 49.6992 15.5079C50.2542 16.2719 50.5322 17.1799 50.5322 18.2279V18.2279ZM60.7842 10.2059L59.9012 12.8629C59.379 12.6913 58.8328 12.6042 58.2832 12.6049C57.534 12.5994 56.7888 12.7128 56.0752 12.9409C56.0912 13.0609 56.1002 13.1469 56.1002 13.1989V23.1039H53.1562V13.2759C53.1562 12.8809 53.0832 12.2359 52.9362 11.3409C55.0942 10.3959 56.9582 9.92192 58.5282 9.92192C59.3452 9.92192 60.0982 10.0169 60.7842 10.2059V10.2059ZM68.6572 20.4469C68.6298 20.2849 68.6131 20.1212 68.6072 19.9569V16.7839C68.3622 17.0419 67.8392 17.2659 67.0372 17.4539C66.0412 17.6959 65.4112 17.8759 65.1502 17.9959C64.5442 18.2889 64.2422 18.7019 64.2422 19.2349C64.2422 20.2839 65.0022 20.8079 66.5232 20.8079C67.2262 20.8079 67.9372 20.6879 68.6572 20.4469V20.4469ZM71.7232 22.3819C69.6292 23.0519 67.8882 23.3879 66.4992 23.3879C65.0592 23.3879 63.8502 23.1119 62.8692 22.5619C61.6262 21.8569 61.0052 20.8249 61.0052 19.4669C61.0052 17.9709 61.6592 16.8789 62.9672 16.1909C63.4902 15.9159 64.7172 15.5549 66.6462 15.1079C67.9542 14.7979 68.6082 14.3589 68.6082 13.7919C68.6082 13.0009 67.9212 12.6049 66.5482 12.6049C65.4192 12.6049 64.2832 12.8629 63.1382 13.3789L62.1332 11.0309C63.6383 10.2991 65.2905 9.9198 66.9642 9.92192C68.3542 9.92192 69.4502 10.2489 70.2512 10.9019C71.1172 11.6249 71.5512 12.6999 71.5512 14.1269V20.7569C71.5512 21.0829 71.6082 21.6249 71.7232 22.3819ZM85.5802 23.1039H82.6362V15.0039C82.6362 13.4219 81.8262 12.6309 80.2082 12.6309C79.5212 12.6309 78.6952 12.8209 77.7312 13.1989C77.7642 13.4389 77.7802 13.6199 77.7802 13.7399V23.1039H74.8372V13.0179C74.8372 12.6399 74.7802 12.0379 74.6652 11.2119C76.9552 10.3519 78.8102 9.92192 80.2322 9.92192C83.7972 9.92192 85.5792 11.4529 85.5792 14.5139V23.1039H85.5802ZM96.3952 20.4729C96.3684 20.3021 96.3521 20.1298 96.3462 19.9569V13.2239C95.8392 12.8119 95.1692 12.6049 94.3352 12.6049C93.2882 12.6049 92.4952 13.0009 91.9552 13.7919C91.4982 14.4969 91.2692 15.4339 91.2692 16.6029C91.2692 17.8249 91.5472 18.7959 92.1032 19.5179C92.7072 20.3099 93.5742 20.7049 94.7032 20.7049C95.4382 20.7049 96.0032 20.6279 96.3952 20.4729V20.4729ZM99.4362 22.4329C97.7682 23.0699 96.1822 23.3879 94.6782 23.3879C92.7322 23.3879 91.1302 22.7379 89.8712 21.4399C88.6112 20.1419 87.9832 18.4779 87.9832 16.4489C87.9832 14.6429 88.4572 13.1289 89.4052 11.9089C90.4352 10.5849 91.8332 9.92192 93.5992 9.92192C94.5962 9.92192 95.5122 10.1549 96.3462 10.6189V4.16992H99.2892V20.7049C99.2892 21.0489 99.3382 21.6249 99.4362 22.4329" fill="black" fill-opacity="0.2"/>
<path fill-rule="evenodd" clip-rule="evenodd" d="M115.034 22.2009C113.53 22.9749 112.034 23.3619 110.546 23.3619C108.011 23.3619 105.947 22.5189 104.353 20.8339C102.759 19.1489 101.962 16.9739 101.962 14.3079C101.962 11.6599 102.702 9.47992 104.182 7.76792C105.661 6.05792 107.652 5.20192 110.153 5.20192C111.69 5.20192 113.3 5.59792 114.985 6.38892L113.979 9.01892C112.524 8.34892 111.232 8.01392 110.104 8.01392C108.567 8.01392 107.357 8.62392 106.474 9.84492C105.656 10.9449 105.248 12.3299 105.248 13.9979C105.248 15.9579 105.722 17.5239 106.67 18.6929C107.684 19.9309 109.107 20.5499 110.938 20.5499C112.05 20.5499 113.153 20.2749 114.248 19.7249L115.034 22.2009ZM125.286 10.2059L124.403 12.8629C123.88 12.6912 123.334 12.6041 122.784 12.6049C121.999 12.6049 121.264 12.7169 120.577 12.9409C120.593 13.0609 120.601 13.1469 120.601 13.1989V23.1039H117.658V13.2759C117.658 12.8809 117.584 12.2359 117.438 11.3409C119.596 10.3959 121.46 9.92192 123.029 9.92192C123.846 9.92192 124.599 10.0169 125.286 10.2059V10.2059ZM134.826 16.6799C134.826 15.5629 134.613 14.6429 134.188 13.9199C133.681 13.0439 132.929 12.6049 131.932 12.6049C130.934 12.6049 130.182 13.0349 129.676 13.8949C129.25 14.6169 129.038 15.5449 129.038 16.6809C129.038 17.8159 129.25 18.7359 129.676 19.4409C130.182 20.3009 130.934 20.7309 131.932 20.7309C132.929 20.7309 133.682 20.3009 134.188 19.4409C134.613 18.7359 134.826 17.8159 134.826 16.6809V16.6799ZM138.088 16.6549C138.088 18.6149 137.524 20.2279 136.396 21.4919C135.267 22.7559 133.78 23.3879 131.932 23.3879C130.084 23.3879 128.588 22.7429 127.444 21.4529C126.332 20.2149 125.776 18.6159 125.776 16.6549C125.776 14.6949 126.34 13.0819 127.468 11.8179C128.597 10.5549 130.084 9.92192 131.932 9.92192C133.78 9.92192 135.267 10.5549 136.396 11.8179C137.524 13.0819 138.088 14.6939 138.088 16.6549V16.6549ZM160.063 10.2059L155.5 23.3099C154.502 23.3099 153.718 23.1299 153.146 22.7689C152.524 22.3729 152.05 21.7019 151.723 20.7569L149.565 14.4619L146.695 23.3099C145.698 23.3099 144.921 23.1379 144.365 22.7939C143.744 22.3989 143.262 21.7279 142.918 20.7819L139.117 10.2059H142.452L145.346 19.2859H145.396L145.616 18.5899L148.29 10.2059H150.963L154.053 19.2859H154.103L156.849 10.2059H160.062H160.063ZM169.505 20.4729C169.478 20.3021 169.462 20.1298 169.456 19.9569V13.2239C168.949 12.8119 168.279 12.6049 167.445 12.6049C166.399 12.6049 165.605 13.0009 165.065 13.7919C164.608 14.4969 164.379 15.4339 164.379 16.6029C164.379 17.8249 164.657 18.7959 165.213 19.5179C165.818 20.3099 166.685 20.7049 167.813 20.7049C168.549 20.7049 169.113 20.6279 169.505 20.4729V20.4729ZM172.547 22.4329C170.879 23.0699 169.292 23.3879 167.788 23.3879C165.842 23.3879 164.24 22.7379 162.981 21.4399C161.722 20.1419 161.093 18.4779 161.093 16.4489C161.093 14.6429 161.567 13.1289 162.515 11.9089C163.545 10.5849 164.943 9.92192 166.709 9.92192C167.706 9.92192 168.622 10.1549 169.456 10.6189V4.16992H172.399V20.7049C172.399 21.0489 172.449 21.6249 172.547 22.4329" fill="black" fill-opacity="0.8"/>
<mask id="mask0_680_1480" style="mask-type:alpha" maskUnits="userSpaceOnUse" x="0" y="0" width="34" height="28">
<path d="M0 0H34V28H0V0Z" fill="white"/>
</mask>
<g mask="url(#mask0_680_1480)">
<path d="M0 25.4061C0 25.4061 13.89 23.5291 15.102 9.42412C15.102 9.42412 24.042 13.3391 32.982 6.47412C33.315 19.9311 8.787 34.0951 0 25.4061Z" fill="black" fill-opacity="0.8"/>
<path d="M24.3201 21.2372C19.0801 25.4402 12.3771 28.2392 6.91309 28.0682C7.32709 27.9412 12.8701 26.1482 16.4971 20.4722C16.4971 20.4722 20.3351 23.5702 24.3211 21.2372H24.3201Z" fill="black" fill-opacity="0.9"/>
<path d="M5.5762 16.2352C5.5762 16.2352 15.0012 14.9612 15.8232 5.38921C15.8232 5.38921 21.8892 8.04621 27.9552 3.38721C28.1832 12.5192 11.5392 22.1312 5.5752 16.2352" fill="#5C5C5C"/>
<path d="M22.0786 13.4062C18.5226 16.2582 13.9746 18.1572 10.2666 18.0412C10.5486 17.9542 14.3096 16.7382 16.7706 12.8862C16.7706 12.8862 19.3746 14.9892 22.0796 13.4062H22.0786Z" fill="black" fill-opacity="0.7"/>
<path d="M8.62012 9.097C8.62012 9.097 15.2941 8.196 15.8761 1.417C15.8761 1.417 20.1721 3.299 24.4671 0C24.6281 6.467 12.8421 13.273 8.62012 9.097Z" fill="#898989"/>
<path d="M20.3064 7.09405C17.7884 9.11405 14.5674 10.4591 11.9414 10.3771C12.1394 10.3161 14.8034 9.45505 16.5464 6.72705C16.5464 6.72705 18.3914 8.21505 20.3064 7.09405Z" fill="black" fill-opacity="0.6"/>
</g>
</svg>
