<svg width="168" height="34" viewBox="0 0 168 34" fill="none" xmlns="http://www.w3.org/2000/svg">
<path d="M0 18.7402L5.024 21.7532L10.051 24.7662L15.075 27.7832L20.099 30.7972L25.123 27.7832L20.099 24.7662L15.075 21.7532L10.051 18.7392V12.7092L5.024 15.7232L0 18.7392V18.7402ZM20.099 12.7102V6.68018L15.075 9.69618L10.051 12.7092L15.075 15.7232L20.099 18.7392L25.123 21.7532L30.147 18.7392L25.123 15.7232L20.099 12.7092V12.7102Z" fill="black" fill-opacity="0.8"/>
<path d="M34.5797 8.63881C34.2897 7.89881 33.2137 6.97481 31.3547 5.87081C29.4257 4.72181 27.8437 4.10581 26.6077 4.01781C25.3707 3.92981 24.2827 4.16781 23.3477 4.73481L20.0977 6.68481L30.1627 12.6718L33.1697 10.8658C34.3997 10.1198 34.8687 9.37781 34.5797 8.63881V8.63881Z" fill="black" fill-opacity="0.8"/>
<path d="M53.717 24.7761H45V10.2461H53.379V12.9101H48.274V16.1441H53.028V18.8001H48.274V22.1261H53.717V24.7761ZM69.117 24.7761H65.551L64.518 21.5411H59.348L58.322 24.7761H54.775L60.063 10.2461H63.947L69.117 24.7761ZM63.765 19.0281L62.206 14.1441C62.0787 13.7188 61.9982 13.2808 61.966 12.8381H61.881C61.8482 13.2691 61.7633 13.6945 61.628 14.1051L60.05 19.0281H63.765ZM70.267 24.2171V20.9771C70.8339 21.459 71.4829 21.835 72.183 22.0871C72.8513 22.3302 73.5568 22.4554 74.268 22.4571C74.677 22.4571 75.041 22.4181 75.346 22.3471C75.651 22.2751 75.911 22.1711 76.119 22.0351C76.3097 21.9204 76.4682 21.7594 76.58 21.5671C76.684 21.3861 76.73 21.1971 76.73 20.9831C76.73 20.6971 76.651 20.4431 76.49 20.2231C76.306 19.9809 76.0817 19.7722 75.827 19.6061C75.5097 19.3961 75.1752 19.2134 74.827 19.0601C74.415 18.8713 73.9989 18.6916 73.579 18.5211C72.443 18.0471 71.599 17.4691 71.039 16.7871C70.481 16.1051 70.202 15.2801 70.202 14.3131C70.202 13.5591 70.352 12.9031 70.656 12.3641C70.9552 11.8229 71.3806 11.3618 71.896 11.0201C72.4515 10.6556 73.068 10.3938 73.716 10.2471C74.4336 10.0801 75.1682 9.9972 75.905 10.0001C76.658 10.0001 77.333 10.0461 77.918 10.1361C78.4704 10.2195 79.0125 10.3613 79.535 10.5591V13.5851C79.2854 13.4116 79.0203 13.2616 78.743 13.1371C78.4551 13.008 78.1575 12.9016 77.853 12.8191C77.2783 12.6554 76.6836 12.5723 76.086 12.5721C75.716 12.5721 75.378 12.6041 75.073 12.6761C74.8011 12.7342 74.5402 12.8351 74.3 12.9751C74.1055 13.0903 73.9391 13.2474 73.813 13.4351C73.6984 13.6157 73.6396 13.8262 73.644 14.0401C73.644 14.2801 73.709 14.5001 73.839 14.6961C73.969 14.8911 74.151 15.0731 74.385 15.2411C74.618 15.4111 74.911 15.5861 75.249 15.7481C75.586 15.9101 75.969 16.0861 76.392 16.2611C76.97 16.5011 77.496 16.7611 77.957 17.0341C78.418 17.3071 78.814 17.6191 79.146 17.9631C79.476 18.3071 79.73 18.7031 79.906 19.1451C80.081 19.5861 80.172 20.0991 80.172 20.6911C80.172 21.5021 80.016 22.1841 79.711 22.7301C79.4101 23.2729 78.9792 23.7327 78.457 24.0681C77.931 24.4121 77.314 24.6521 76.619 24.8021C75.918 24.9521 75.183 25.0221 74.404 25.0221C73.605 25.0221 72.852 24.9581 72.131 24.8221C71.4838 24.711 70.856 24.5073 70.267 24.2171V24.2171ZM93.52 10.2401L88.785 19.6061V24.7761H85.51V19.6701L80.9 10.2471H84.642L86.98 15.6701C87.019 15.7741 87.13 16.1631 87.311 16.8581H87.351C87.441 16.3711 87.545 15.9881 87.662 15.7151L90.046 10.2531H93.521V10.2401H93.52Z" fill="black" fill-opacity="0.4"/>
<path d="M95.4033 24.776V10.246H99.4173C104.536 10.246 107.101 12.611 107.101 17.333C107.101 19.573 106.393 21.379 104.971 22.736C103.548 24.1 101.645 24.776 99.2613 24.776H95.4033V24.776ZM97.1123 11.78V23.23H99.2813C101.184 23.23 102.672 22.717 103.73 21.697C104.789 20.677 105.322 19.229 105.322 17.359C105.322 13.637 103.341 11.773 99.3853 11.773H97.1123V11.78V11.78ZM124.775 24.776H123.08V15.026C123.08 14.254 123.125 13.312 123.223 12.202H123.184C123.021 12.858 122.878 13.325 122.748 13.612L117.78 24.776H116.948L111.992 13.689C111.849 13.364 111.706 12.871 111.557 12.202H111.518C111.57 12.78 111.603 13.735 111.603 15.046V24.776H109.959V10.246H112.207L116.662 20.379C117.007 21.159 117.227 21.736 117.331 22.119H117.39C117.682 21.32 117.916 20.729 118.091 20.333L122.644 10.24H124.775V24.776V24.776ZM139.844 24.776H137.96L136.421 20.703H130.257L128.808 24.776H126.912L132.485 10.246H134.245L139.844 24.776ZM135.862 19.171L133.583 12.981C133.482 12.6633 133.408 12.3374 133.362 12.007H133.323C133.277 12.3385 133.199 12.6648 133.089 12.981L130.829 19.171H135.862ZM152.399 24.776H150.373L147.944 20.703C147.749 20.3668 147.532 20.0438 147.294 19.736C147.109 19.491 146.893 19.2706 146.651 19.08C146.439 18.9154 146.2 18.79 145.943 18.71C145.665 18.6285 145.376 18.5891 145.086 18.593H143.689V24.776H141.987V10.246H146.326C146.963 10.246 147.547 10.325 148.086 10.487C148.626 10.643 149.087 10.89 149.483 11.214C149.879 11.539 150.184 11.942 150.412 12.422C150.633 12.903 150.743 13.468 150.743 14.118C150.743 14.624 150.665 15.092 150.516 15.514C150.366 15.936 150.146 16.313 149.866 16.644C149.587 16.975 149.249 17.254 148.853 17.489C148.438 17.7319 147.989 17.9131 147.521 18.027V18.067C147.762 18.177 147.976 18.3 148.158 18.437C148.34 18.573 148.509 18.742 148.671 18.93C148.833 19.119 148.996 19.333 149.152 19.573C149.333 19.8499 149.511 20.1293 149.684 20.411L152.399 24.776V24.776ZM143.683 11.78V17.047H145.995C146.424 17.047 146.813 16.982 147.177 16.852C147.541 16.722 147.853 16.54 148.112 16.3C148.379 16.06 148.58 15.767 148.73 15.417C148.879 15.066 148.95 14.677 148.95 14.247C148.95 13.468 148.697 12.864 148.197 12.429C147.697 11.994 146.963 11.773 146.015 11.773H143.683V11.78V11.78ZM163.993 24.165C162.922 24.73 161.584 25.016 159.979 25.016C157.914 25.016 156.258 24.354 155.017 23.022C153.776 21.691 153.153 19.944 153.153 17.781C153.153 15.456 153.854 13.579 155.251 12.15C156.647 10.72 158.421 10 160.57 10C161.947 10 163.091 10.201 163.993 10.598V12.41C162.954 11.831 161.805 11.54 160.551 11.54C158.882 11.54 157.531 12.098 156.491 13.209C155.452 14.326 154.939 15.813 154.939 17.677C154.939 19.45 155.426 20.859 156.394 21.905C157.362 22.957 158.635 23.483 160.207 23.483C161.668 23.483 162.928 23.159 164 22.509V24.165H163.993Z" fill="black" fill-opacity="0.8"/>
</svg>
