<?xml version="1.0" encoding="utf-8"?>
<!-- Generator: Adobe Illustrator 24.1.2, SVG Export Plug-In . SVG Version: 6.00 Build 0)  -->
<svg version="1.1" id="Layer_1" xmlns="http://www.w3.org/2000/svg" xmlns:xlink="http://www.w3.org/1999/xlink" x="0px" y="0px"
	 viewBox="0 0 1045.1 180.4" style="enable-background:new 0 0 1045.1 180.4;" xml:space="preserve">
<style type="text/css">
	.st0{fill:#323232;}
</style>
<g>
	<g>
		<g>
			<path class="st0" d="M656.7,82.8c0,0-8.9,2.1-16.4,3.9l-11.4,2.6c0,0-0.1,0-0.1,0c0-3.1,0.2-6.4,1-9.4c1-3.9,3-8.4,6.6-10.3
				c3.9-2.2,8.7-2.4,12.9-0.7c4.3,1.7,6.3,5.9,7.1,10.2c0.2,1.2,0.4,2.4,0.5,3.7L656.7,82.8z M686.5,89.3c0-30-18.8-42.9-42.8-42.9
				c-27.1,0-44.1,18.9-44.1,43.1c0,26.3,14.5,43.4,45.6,43.4c16.8,0,26.4-3,37.7-8.7l-4.3-19.7c-8.7,3.9-16.7,6.3-27.4,6.3
				c-11.8,0-18.5-4.5-21-12.9h55.6C686.2,95.6,686.5,93.1,686.5,89.3z"/>
			<path class="st0" d="M407.1,82.8c0,0-8.9,2.1-16.4,3.9l-11.4,2.6c0,0-0.1,0-0.1,0c0-3.1,0.2-6.4,1-9.4c1-3.9,3-8.4,6.6-10.3
				c3.9-2.2,8.7-2.4,12.9-0.7c4.3,1.7,6.3,5.9,7.1,10.2c0.2,1.2,0.4,2.4,0.5,3.7L407.1,82.8z M436.9,89.3c0-30-18.8-42.9-42.8-42.9
				C367,46.4,350,65.3,350,89.5c0,26.3,14.5,43.4,45.6,43.4c16.9,0,26.4-3,37.7-8.7l-4.3-19.7c-8.6,3.9-16.7,6.3-27.4,6.3
				c-11.8,0-18.5-4.5-21-12.9h55.6C436.6,95.6,436.9,93.1,436.9,89.3z"/>
			<path class="st0" d="M338.3,24.4h-27.5v105.5h27.5V24.4z"/>
			<path class="st0" d="M692.3,49.1h28.9l6.1,18.7c3.8-9.2,12.4-21,27.6-21c20.9,0,32.2,10.7,32.2,38.1v45h-28.9
				c0-9.4,0-18.8,0-28.1c0-4.3-0.1-8.6,0-12.9c0-4,0.3-8.1-1.8-11.6c-1.4-2.4-3.8-4.2-6.3-5.4c-5.1-2.5-10.6-2.4-15.6,0.2
				c-1.2,0.7-7.2,3.9-7.2,5.4v52.4h-28.9v-59L692.3,49.1z"/>
			<path class="st0" d="M809,70.3h-13.3V49.1H809V35.9l28.9-6.9v20.1H867v21.2h-29.1V94c0,9.3,4.5,13.7,11.2,13.7
				c6.9,0,10.7-0.9,16.5-2.8l3.4,21.9c-7.9,3.5-17.7,5.1-27.7,5.1c-21,0-32.4-10-32.4-29.6L809,70.3L809,70.3L809,70.3z"/>
			<path class="st0" d="M921.1,108.8c10.6,0,16.8-7.7,16.8-20s-6-19.4-16.4-19.4c-10.6,0-16.7,7-16.7,19.8
				C904.8,101.4,910.8,108.8,921.1,108.8z M921.4,46c27.1,0,47,17.1,47,43.7c0,26.7-19.8,42.8-47.3,42.8
				c-27.3,0-46.7-16.5-46.7-42.8C874.4,63.1,893.7,46,921.4,46z"/>
			<path class="st0" d="M573.6,48.9c-5.1-2.1-10.9-2.9-16.4-2.1c-2.8,0.4-5.6,1.2-8.1,2.5c-7,3.5-12.5,11.4-15.4,18.5
				c-1.9-8.2-7.5-15.5-15.7-18.9c-5.1-2.1-10.9-2.9-16.4-2.1c-2.8,0.4-5.6,1.2-8.1,2.5c-7,3.5-12.4,11.4-15.4,18.5v-0.5l-5.9-18.1
				h-28.9l6.1,21.8v59H478V77.2c0.1-0.4,1.4-1.1,1.6-1.3c3.4-2.4,7.3-4.9,11.5-5.2c4.3-0.3,8.5,1.9,11.1,5.3
				c0.3,0.4,0.5,0.8,0.8,1.2c2.1,3.6,1.8,7.7,1.8,11.6c0,4.3,0,8.6,0,12.9c0,9.4,0,18.8,0,28.1h28.9v-45c0-0.2,0-0.5,0-0.7v-7
				c0.1-0.4,1.4-1.1,1.6-1.3c3.4-2.4,7.3-4.9,11.5-5.2c4.3-0.3,8.5,1.9,11.1,5.3c0.3,0.4,0.5,0.8,0.8,1.2c2.1,3.6,1.8,7.7,1.8,11.6
				c0,4.3,0,8.6,0,12.9c0,9.4,0,18.8,0,28.1h28.9v-45C589.4,71.6,587.5,54.6,573.6,48.9z"/>
			<path class="st0" d="M1036.8,46.7c-15.2,0-23.8,11.8-27.6,21l-6.1-18.7h-28.9l6.1,21.8v59h28.9V75.4c4.1-0.7,26.5,3.4,30.7,5
				V46.8C1038.9,46.8,1037.8,46.7,1036.8,46.7z"/>
			<path class="st0" d="M269.3,82.8c0,0-8.9,2.1-16.4,3.9l-11.4,2.6c0,0-0.1,0-0.1,0c0-3.1,0.2-6.4,1-9.4c1-3.9,3-8.4,6.6-10.3
				c3.9-2.2,8.7-2.4,12.9-0.7c4.3,1.7,6.3,5.9,7.1,10.2c0.2,1.2,0.4,2.4,0.5,3.7L269.3,82.8z M299.1,89.3c0-30-18.8-42.9-42.8-42.9
				c-27.1,0-44.1,18.9-44.1,43.1c0,26.3,14.5,43.4,45.6,43.4c16.9,0,26.4-3,37.7-8.7l-4.3-19.7c-8.6,3.9-16.7,6.3-27.4,6.3
				c-11.8,0-18.5-4.5-21-12.9h55.6C298.8,95.6,299.1,93.1,299.1,89.3z"/>
			<path class="st0" d="M87.8,7.5C42.2,7.5,5.2,44.8,5.2,90.7c0,45.9,37,83.2,82.6,83.2s82.6-37.2,82.6-83.2
				C170.4,44.8,133.5,7.5,87.8,7.5z M67.2,125.3H53.4V56h13.8V125.3z M122.2,125.3H80.9v-13.8h41.3V125.3z M122.2,97.6H80.9V83.7
				h41.3V97.6z M122.2,69.9H80.9V56h41.3V69.9z"/>
		</g>
	</g>
</g>
</svg>
