<?xml version="1.0" encoding="utf-8"?>
<!-- Generator: Adobe Illustrator 24.1.2, SVG Export Plug-In . SVG Version: 6.00 Build 0)  -->
<svg version="1.1" id="Layer_1" xmlns="http://www.w3.org/2000/svg" xmlns:xlink="http://www.w3.org/1999/xlink" x="0px" y="0px"
	 viewBox="0 0 1200 1200" style="enable-background:new 0 0 1200 1200;" xml:space="preserve">
<style type="text/css">
	.st0{fill:#323232;}
</style>
<g>
	<g>
		<g>
			<path class="st0" d="M734.11,592.58c0,0-8.89,2.13-16.41,3.94l-11.43,2.62c-0.03,0-0.08,0-0.11,0c0-3.1,0.22-6.37,0.96-9.39
				c0.95-3.86,3.02-8.37,6.63-10.35c3.93-2.15,8.71-2.41,12.86-0.74c4.3,1.71,6.27,5.89,7.12,10.22c0.24,1.21,0.39,2.42,0.51,3.65
				L734.11,592.58z M763.93,599.13c0-30.02-18.79-42.92-42.79-42.92c-27.13,0-44.13,18.91-44.13,43.07
				c0,26.27,14.47,43.37,45.62,43.37c16.85,0,26.38-3,37.72-8.71l-4.32-19.66c-8.65,3.91-16.7,6.3-27.44,6.3
				c-11.78,0-18.49-4.5-21.03-12.9h55.61C763.63,605.43,763.93,602.87,763.93,599.13z"/>
			<path class="st0" d="M484.55,592.58c0,0-8.89,2.13-16.41,3.94l-11.43,2.62c-0.03,0-0.07,0-0.11,0c0-3.1,0.23-6.37,0.96-9.39
				c0.95-3.86,3.02-8.37,6.63-10.35c3.92-2.15,8.71-2.41,12.86-0.74c4.3,1.71,6.27,5.89,7.12,10.22c0.24,1.21,0.39,2.42,0.51,3.65
				L484.55,592.58z M514.37,599.13c0-30.02-18.79-42.92-42.8-42.92c-27.13,0-44.13,18.91-44.13,43.07
				c0,26.27,14.47,43.37,45.62,43.37c16.85,0,26.38-3,37.72-8.71l-4.32-19.66c-8.65,3.91-16.7,6.3-27.44,6.3
				c-11.78,0-18.49-4.5-21.03-12.9h55.61C514.06,605.43,514.37,602.87,514.37,599.13z"/>
			<path class="st0" d="M415.76,534.16h-27.54v105.48h27.54V534.16z"/>
			<path class="st0" d="M769.73,558.91h28.93l6.09,18.65c3.8-9.2,12.38-21.04,27.59-21.04c20.88,0,32.21,10.66,32.21,38.12v45.02
				h-28.93c0-9.39,0.02-18.76,0.03-28.14c0-4.3-0.08-8.6-0.02-12.9c0.04-3.96,0.33-8.07-1.77-11.62c-1.43-2.41-3.76-4.18-6.27-5.39
				c-5.1-2.45-10.63-2.39-15.64,0.24c-1.24,0.65-7.19,3.89-7.19,5.39v52.42h-28.93v-58.96L769.73,558.91z"/>
			<path class="st0" d="M886.41,580.07h-13.27v-21.16h13.27v-13.23l28.93-6.86v20.09h29.07v21.16h-29.07v23.71
				c0,9.31,4.47,13.65,11.18,13.65c6.86,0,10.74-0.91,16.54-2.85l3.43,21.9c-7.9,3.45-17.74,5.1-27.74,5.1
				c-21.03,0-32.36-10.05-32.36-29.57v-31.95H886.41z"/>
			<path class="st0" d="M998.53,618.63c10.59,0,16.85-7.66,16.85-19.95s-5.96-19.36-16.4-19.36c-10.59,0-16.7,7.05-16.7,19.8
				C982.29,611.14,988.25,618.63,998.53,618.63z M998.84,555.76c27.13,0,46.96,17.11,46.96,43.66c0,26.7-19.83,42.77-47.26,42.77
				c-27.29,0-46.68-16.5-46.68-42.77C951.86,572.87,971.1,555.76,998.84,555.76z"/>
			<path class="st0" d="M651.08,558.67c-5.12-2.12-10.91-2.91-16.44-2.1c-2.81,0.41-5.56,1.23-8.12,2.5
				c-7.01,3.48-12.47,11.43-15.4,18.52c-1.92-8.16-7.54-15.49-15.73-18.89c-5.11-2.12-10.9-2.91-16.44-2.1
				c-2.81,0.41-5.57,1.22-8.12,2.5c-6.99,3.47-12.44,11.38-15.39,18.45v-0.51l-5.9-18.07h-28.93l6.09,21.78v58.95h28.73v-52.7
				c0.11-0.39,1.38-1.12,1.61-1.29c3.37-2.41,7.32-4.89,11.53-5.19c4.3-0.32,8.54,1.88,11.1,5.31c0.27,0.38,0.53,0.76,0.77,1.15
				c2.11,3.56,1.82,7.66,1.77,11.63c-0.04,4.3,0.02,8.6,0.02,12.9c-0.02,9.39-0.03,18.76-0.03,28.14h28.93v-45.01
				c0-0.23,0-0.45,0-0.67v-6.95c0.06-0.38,1.38-1.14,1.62-1.3c3.37-2.41,7.33-4.89,11.54-5.19c4.3-0.32,8.54,1.88,11.1,5.31
				c0.27,0.38,0.53,0.76,0.77,1.15c2.1,3.56,1.82,7.66,1.77,11.63c-0.04,4.3,0.02,8.6,0.02,12.9c-0.02,9.39-0.03,18.76-0.03,28.14
				h28.93v-45.02C666.85,581.42,664.97,564.42,651.08,558.67z"/>
			<path class="st0" d="M1114.21,556.52c-15.21,0-23.77,11.85-27.59,21.04l-6.09-18.65h-28.93l6.09,21.78v58.95h28.93v-54.47
				c4.12-0.73,26.49,3.42,30.73,4.98v-33.53C1116.33,556.56,1115.29,556.52,1114.21,556.52z"/>
			<path class="st0" d="M346.74,592.58c0,0-8.89,2.13-16.41,3.94l-11.43,2.62c-0.03,0-0.07,0-0.11,0c0-3.1,0.23-6.37,0.96-9.39
				c0.95-3.86,3.02-8.37,6.63-10.35c3.92-2.15,8.71-2.41,12.86-0.74c4.3,1.71,6.27,5.89,7.12,10.22c0.24,1.21,0.39,2.42,0.51,3.65
				L346.74,592.58z M376.55,599.13c0-30.02-18.79-42.92-42.79-42.92c-27.13,0-44.13,18.91-44.13,43.07
				c0,26.27,14.47,43.37,45.62,43.37c16.85,0,26.38-3,37.73-8.71l-4.32-19.66c-8.65,3.91-16.7,6.3-27.44,6.3
				c-11.78,0-18.49-4.5-21.03-12.9h55.61C376.25,605.43,376.55,602.87,376.55,599.13z"/>
			<path class="st0" d="M165.27,517.31c-45.64,0-82.63,37.23-82.63,83.15c0,45.91,36.99,83.15,82.63,83.15s82.63-37.23,82.63-83.15
				C247.88,554.54,210.9,517.31,165.27,517.31z M144.62,635.1h-13.76v-69.29h13.76V635.1z M199.69,635.1h-41.3v-13.85h41.3V635.1z
				 M199.69,607.38h-41.3v-13.85h41.3V607.38z M199.69,579.66h-41.3v-13.85h41.3V579.66z"/>
		</g>
	</g>
</g>
</svg>
