<svg width="360" height="80" viewBox="0 0 360 80" fill="none" xmlns="http://www.w3.org/2000/svg">
<g clip-path="url(#clip0_680_1530)">
<path fill-rule="evenodd" clip-rule="evenodd" d="M79.1682 56.1492C72.5549 56.1492 69.6536 53.0346 69.0562 49.2799H72.6829C73.1949 51.8399 75.3283 53.1626 79.1256 53.1626C83.5203 53.1626 86.2936 51.0719 86.2936 46.2932V43.0506C85.0136 45.2266 81.9842 47.2746 78.7416 47.2746C72.8962 47.2746 68.5869 42.8372 68.5869 36.6932V36.3946C68.5869 30.3359 72.8536 25.3012 78.9976 25.3012C82.7096 25.3012 85.0136 27.0932 86.2936 29.2692V25.6852H89.8349V46.5066C89.7922 52.9919 85.3976 56.1492 79.1682 56.1492ZM79.1256 44.3306C83.2643 44.3306 86.4216 41.4292 86.4216 36.4372V36.1386C86.4216 31.1466 83.6909 28.2452 79.3389 28.2452C74.9016 28.2452 72.2563 31.5306 72.2563 36.2239V36.5652C72.2563 41.4292 75.3709 44.3306 79.1256 44.3306ZM97.0029 47.9999V25.6852H100.544V29.6959C101.952 27.1786 103.872 25.4292 107.883 25.3012V28.6292C103.403 28.8426 100.544 30.2506 100.544 35.7546V47.9999H97.0029ZM122.347 45.4399C126.827 45.4399 129.643 42.0692 129.643 37.0346V36.7359C129.643 31.5732 126.784 28.2452 122.347 28.2452C117.867 28.2452 115.051 31.5732 115.051 36.6932V37.0346C115.051 42.1119 117.824 45.4399 122.347 45.4399ZM122.304 48.3839C115.947 48.3839 111.382 43.5626 111.382 37.0346V36.6932C111.382 29.9946 116.032 25.3012 122.347 25.3012C128.662 25.3012 133.312 29.9519 133.312 36.6506V36.9919C133.312 43.7332 128.662 48.3839 122.304 48.3839ZM143.296 47.9999L136.427 25.6852H140.267L145.472 43.6479L150.891 25.6852H153.963L159.04 43.6479L164.288 25.6852H167.915L160.96 47.9999H157.035L152.384 31.2746L147.179 47.9999H143.296ZM179.478 48.2986C175.424 48.2986 173.462 45.9092 173.462 42.4106V28.6719H170.262V25.6852H173.462V20.6079H177.003V25.6852H182.208V28.6719H177.003V42.0692C177.003 44.2452 177.984 45.3119 179.776 45.3119C180.886 45.3119 181.739 45.1412 182.507 44.8426V47.8292C181.782 48.0852 180.928 48.2986 179.478 48.2986ZM187.84 47.9999V15.0186H191.382V29.2266C192.406 27.1359 194.88 25.3012 198.55 25.3012C203.158 25.3012 206.4 27.8186 206.4 34.3039V47.9999H202.859V34.0479C202.859 30.1226 201.195 28.3732 197.611 28.3732C194.326 28.3732 191.382 30.4639 191.382 34.4746V47.9999H187.84ZM212.502 47.9999V25.6852H218.688V29.0986C219.798 27.0079 222.187 25.1732 225.515 25.1732C228.459 25.1732 230.678 26.4106 231.744 29.0559C233.536 26.3679 236.438 25.1732 239.254 25.1732C243.392 25.1732 246.592 27.7759 246.592 33.7066V47.9999H240.448V34.3892C240.448 31.5306 239.168 30.2506 236.95 30.2506C234.56 30.2506 232.64 31.7866 232.64 34.8159V47.9999H226.496V34.3892C226.496 31.5306 225.174 30.2506 222.998 30.2506C220.608 30.2506 218.688 31.7866 218.688 34.8159V47.9999H212.502ZM262.166 48.4692C255.424 48.4692 250.518 44.2452 250.518 37.1199V36.7786C250.518 29.7386 255.51 25.1732 261.995 25.1732C267.755 25.1732 272.875 28.5439 272.875 36.5226V38.2292H256.79C256.96 41.9412 258.966 44.0746 262.336 44.0746C265.195 44.0746 266.603 42.8372 266.987 40.9599H272.832C272.107 45.7812 268.267 48.4692 262.166 48.4692ZM256.875 34.4319H266.859C266.646 31.0612 264.939 29.4399 261.995 29.4399C259.222 29.4399 257.344 31.2746 256.875 34.4319ZM276.928 47.9999V25.6852H283.115V29.2266C284.224 27.0079 286.656 25.1732 290.368 25.1732C294.763 25.1732 297.878 27.8186 297.878 33.7919V47.9999H291.691V34.6879C291.691 31.6586 290.496 30.2079 287.766 30.2079C285.12 30.2079 283.115 31.8292 283.115 35.1146V47.9999H276.928ZM311.318 48.4266C306.624 48.4266 304.107 46.0372 304.107 41.3866V30.0799H301.248V25.6852H304.107V20.8639H310.251V25.6852H314.944V30.0799H310.251V40.8319C310.251 42.6239 311.147 43.4772 312.726 43.4772C313.664 43.4772 314.347 43.3492 315.072 43.0506V47.8292C314.219 48.1279 312.982 48.4266 311.318 48.4266ZM329.664 43.7759C333.12 43.7759 335.126 41.2159 335.126 36.9919V36.6932C335.126 32.4266 333.12 29.8666 329.664 29.8666C326.251 29.8666 324.203 32.3412 324.203 36.6079V36.9492C324.203 41.2159 326.166 43.7759 329.664 43.7759ZM329.622 48.4692C322.966 48.4692 317.888 44.0319 317.888 37.0772V36.7359C317.888 29.7386 322.966 25.1732 329.664 25.1732C336.363 25.1732 341.398 29.6532 341.398 36.6079V36.9492C341.398 43.9892 336.32 48.4692 329.622 48.4692ZM345.536 47.9999V25.6852H351.723V29.9519C353.131 26.9652 355.307 25.3866 358.934 25.3439V31.1039C354.368 31.0612 351.723 32.5546 351.723 36.8212V47.9999H345.536Z" fill="black" fill-opacity="0.8"/>
<path fill-rule="evenodd" clip-rule="evenodd" d="M16 64H12C5.38606 64 0 58.6274 0 52V44.0171C0 42.9113 0.448944 41.9077 1.17492 41.1802C0.422042 39.612 0 37.8552 0 36V28.0171C0 26.9113 0.448944 25.9077 1.17492 25.1802C0.422042 23.612 0 21.8552 0 20V12.0171C0 9.8039 1.7985 8 4.01706 8H12C13.56 8 15.0518 8.29891 16.4206 8.84268C17.8094 3.747 22.4765 0 28 0H35.9829C38.2015 0 40 1.8039 40 4.01706V12C40 13.8552 39.578 15.612 38.8251 17.1802C39.5511 17.9077 40 18.9113 40 20.0171V28C40 29.8552 39.578 31.612 38.8251 33.1802C39.5511 33.9077 40 34.9113 40 36.0171V44C40 50.6274 34.6139 56 28 56H24V76.0002C24 78.2093 22.2245 80 20 80C17.7909 80 16 78.2162 16 76.0002V64V64ZM16 52.0001C16 49.797 14.2017 48.0001 12 48.0001H8V52.0001C8 54.2032 9.7983 56.0001 12 56.0001H16V52.0001ZM16 36.0001C16 33.797 14.2017 32.0001 12 32.0001H8V36.0001C8 38.2032 9.7983 40.0001 12 40.0001H16V36.0001ZM16 20.0001C16 17.797 14.2017 16.0001 12 16.0001H8V20.0001C8 22.2032 9.7983 24.0001 12 24.0001H16V20.0001ZM24 12.0001V16.0001H28C30.2017 16.0001 32 14.2032 32 12.0001V8.0001H28C25.7983 8.0001 24 9.79701 24 12.0001ZM24 28.0001V32.0001H28C30.2017 32.0001 32 30.2032 32 28.0001V24.0001H28C25.7983 24.0001 24 25.797 24 28.0001ZM24 44.0001V48.0001H28C30.2017 48.0001 32 46.2032 32 44.0001V40.0001H28C25.7983 40.0001 24 41.797 24 44.0001Z" fill="black" fill-opacity="0.8"/>
</g>
<defs>
<clipPath id="clip0_680_1530">
<rect width="360" height="80" fill="white"/>
</clipPath>
</defs>
</svg>
