<svg width="108" height="30" viewBox="0 0 108 30" fill="none" xmlns="http://www.w3.org/2000/svg">
<g clip-path="url(#clip0_680_1541)">
<path d="M17.9438 0.0639359H2.92122C2.14674 0.0631535 1.40371 0.360959 0.855789 0.891755C0.307867 1.42255 -4.2018e-07 2.14279 0 2.89384L1.12775 10.1779L0 17.4561C0 18.2074 0.30777 18.928 0.855605 19.4592C1.40344 19.9905 2.14646 20.2889 2.92122 20.2889H17.9438C19.5571 20.2889 20.865 19.0206 20.865 17.4561L19.7372 10.172L20.865 2.88795C20.86 1.32686 19.5536 0.0639282 17.9438 0.0639359ZM14.9891 10.6407L14.22 16.9225H11.1803L11.9463 10.6407C11.9775 10.4161 11.9877 10.1892 11.9767 9.96273C11.9702 9.80794 11.9331 9.65581 11.8673 9.51466C11.8176 9.40815 11.7303 9.3224 11.621 9.27293C11.5005 9.22129 11.3697 9.19613 11.238 9.19924C11.0132 9.20485 10.7936 9.26571 10.5997 9.37611C10.3587 9.50881 10.1412 9.67798 9.95525 9.87724C9.73167 10.1153 9.53687 10.3774 9.37465 10.6584C9.18779 10.9816 9.03795 11.3236 8.92781 11.6784L8.2621 16.9107H5.22233L7.00971 2.64033H10.0495L9.33514 8.31784C9.74746 7.86189 10.2484 7.48926 10.8094 7.22125C11.3103 6.99147 11.8573 6.87169 12.4114 6.87046C12.8139 6.86538 13.2122 6.9501 13.5756 7.11807C13.9279 7.28366 14.2312 7.53315 14.4571 7.84324C14.7094 8.19697 14.8804 8.59906 14.9587 9.02237C15.057 9.5529 15.0673 10.0953 14.9891 10.6289V10.6407Z" fill="black" fill-opacity="0.7"/>
<path fill-rule="evenodd" clip-rule="evenodd" d="M36.5507 7.39609C36.2299 6.95685 35.8003 6.60303 35.3013 6.3673C34.7846 6.12725 34.2176 6.00619 33.6446 6.01356C32.8554 6.01454 32.0765 6.18677 31.3648 6.51764C30.567 6.89642 29.855 7.42553 29.2704 8.07409L30.2887 0H25.9631L23.4189 20.281H27.7505L28.6868 12.8289C28.8424 12.3251 29.0555 11.8396 29.3221 11.3815C29.5527 10.9822 29.8291 10.6094 30.1459 10.2702C30.4088 9.98696 30.7167 9.74615 31.0578 9.55684C31.3355 9.401 31.649 9.31488 31.9697 9.30628C32.1567 9.3016 32.3425 9.33682 32.5139 9.40945C32.6675 9.48244 32.7908 9.60412 32.8634 9.75435C32.9568 9.95496 33.0094 10.1711 33.0185 10.3911C33.0339 10.712 33.0196 11.0336 32.9759 11.3521L31.8846 20.281H36.2285L37.3197 11.3521C37.4325 10.5943 37.4182 9.82379 37.2772 9.07045C37.1609 8.46848 36.9132 7.89759 36.5507 7.39609Z" fill="black" fill-opacity="0.7"/>
<path d="M51.6397 9.40945C51.3716 8.71534 50.9575 8.08291 50.4238 7.55233C49.9057 7.05078 49.2842 6.66102 48.5999 6.40857C47.877 6.14145 47.1089 6.00749 46.3353 6.01356C45.3049 6.01194 44.2868 6.23034 43.3533 6.65324C42.4088 7.07517 41.5612 7.67661 40.8607 8.42193C40.1222 9.21223 39.5419 10.1289 39.1493 11.1251C38.7146 12.2203 38.499 13.3858 38.514 14.5593C38.4969 15.4245 38.6464 16.2853 38.9547 17.0974C39.22 17.7929 39.6344 18.4258 40.1706 18.9545C40.6882 19.4568 41.3099 19.8466 41.9945 20.0983C42.7187 20.3649 43.4876 20.4988 44.2622 20.4933C45.2943 20.4957 46.314 20.2752 47.2472 19.8477C48.1928 19.4197 49.0404 18.8123 49.7398 18.0613C50.4764 17.2674 51.0565 16.3492 51.4512 15.3523C51.8823 14.2653 52.0979 13.1091 52.0865 11.9446C52.1021 11.0799 51.9506 10.22 51.6397 9.40945ZM47.539 14.07C47.4176 14.6678 47.213 15.2469 46.9311 15.7915C46.6988 16.2441 46.3667 16.6416 45.9584 16.9559C45.5879 17.2363 45.1304 17.387 44.6604 17.3833C44.1054 17.4228 43.5725 17.165 43.2712 16.7112C42.9855 16.2631 42.8456 15.5321 42.8456 14.5357C42.841 13.8307 42.9134 13.1271 43.0615 12.4369C43.1815 11.8386 43.3861 11.2593 43.6694 10.7153C43.9034 10.2663 44.2341 9.87124 44.6391 9.55685C45.0111 9.27722 45.4695 9.12764 45.9401 9.13236C46.4921 9.08973 47.0243 9.34157 47.3293 9.78972C47.615 10.226 47.7549 10.9689 47.7549 11.977C47.7598 12.6801 47.6874 13.3817 47.539 14.07Z" fill="black" fill-opacity="0.7"/>
<path d="M93.5888 12.8643C94.1674 12.5221 94.6384 12.0327 94.9506 11.4494C95.2147 10.8953 95.3476 10.291 95.3397 9.68065C95.3354 9.22956 95.2263 8.78522 95.0205 8.38066C94.7936 7.93043 94.4751 7.52935 94.0842 7.20153C93.6346 6.8326 93.1196 6.54594 92.5644 6.3555C91.9029 6.12872 91.2048 6.01889 90.5034 6.03124C89.0357 6.02813 87.6009 6.45224 86.3845 7.24869C85.7976 7.62924 85.2686 8.08766 84.8129 8.61059C84.3468 9.13837 83.9505 9.72067 83.6335 10.3439C83.3058 10.9835 83.0568 11.6583 82.8918 12.3543C82.7186 13.0743 82.6319 13.8112 82.6334 14.5505C82.6228 15.3813 82.7669 16.2072 83.059 16.9883C83.3258 17.6891 83.7399 18.3286 84.2749 18.8661C84.7984 19.3889 85.429 19.7995 86.1261 20.0717C86.8772 20.3619 87.6795 20.5071 88.488 20.4992C89.1271 20.5026 89.7652 20.4483 90.394 20.337C90.9633 20.2319 91.5174 20.0607 92.0445 19.8271C92.5832 19.5874 93.0929 19.2909 93.5644 18.9427C94.0937 18.5544 94.5954 18.1319 95.0661 17.6781L93.9505 16.4164C93.8491 16.3102 93.7299 16.2215 93.5979 16.1541C93.4743 16.087 93.3352 16.0515 93.1936 16.0509C92.9987 16.0483 92.8051 16.0802 92.6221 16.1452C92.4527 16.2102 92.2907 16.2923 92.1388 16.3899L91.6585 16.7024C91.477 16.818 91.2882 16.9224 91.0931 17.0148C90.8578 17.1214 90.6111 17.2025 90.3575 17.2566C90.032 17.3251 89.6995 17.3567 89.3665 17.3509C88.5559 17.3509 87.9479 17.1298 87.5426 16.6876C87.1373 16.2455 86.9205 15.5458 86.8921 14.5888C88.2692 14.4702 89.6343 14.2455 90.9745 13.9167C91.896 13.6968 92.7776 13.3419 93.5888 12.8643ZM89.3331 11.5643C88.6102 11.7452 87.8775 11.8869 87.1384 11.9888C87.3436 11.1427 87.7613 10.3589 88.3543 9.70718C88.8304 9.18027 89.5165 8.87654 90.2389 8.87294C90.5697 8.84441 90.8967 8.95872 91.1326 9.18541C91.3082 9.36475 91.408 9.60143 91.4123 9.84867C91.415 10.0773 91.3596 10.303 91.2512 10.506C91.1067 10.7466 90.8963 10.9436 90.6432 11.075C90.2342 11.2883 89.7992 11.4507 89.3483 11.5584L89.3331 11.5643Z" fill="black" fill-opacity="0.7"/>
<path fill-rule="evenodd" clip-rule="evenodd" d="M105.027 6.15802C104.568 6.19651 104.124 6.33561 103.729 6.56482C103.265 6.83654 102.848 7.17667 102.492 7.57297C102.059 8.05201 101.679 8.57481 101.361 9.13237V7.5317C101.393 7.16372 101.251 6.80156 100.975 6.54713C100.672 6.33212 100.301 6.22772 99.9259 6.25235H97.6917L95.9316 20.3017H100.188L100.975 13.9697C101.151 13.2041 101.422 12.4618 101.781 11.7589C102.029 11.2576 102.385 10.8142 102.826 10.4589C103.19 10.1788 103.636 10.0178 104.1 9.99903C104.327 10.0141 104.553 10.0456 104.775 10.0934C105.924 9.03889 107.001 7.91342 108 6.724C107.022 6.4765 106.029 6.28749 105.027 6.15802Z" fill="black" fill-opacity="0.7"/>
<path d="M80.7761 7.27522C80.4391 6.85759 79.999 6.5291 79.4964 6.32013C78.9785 6.11559 78.4231 6.01529 77.864 6.02535C76.9417 6.02581 76.0391 6.28481 75.265 6.77114C74.4045 7.31388 73.656 8.00771 73.0581 8.81693V7.54347C73.0939 7.17409 72.9554 6.80885 72.6812 6.55006C72.3784 6.33504 72.007 6.23065 71.6325 6.25527H69.3983L66.7324 27.5798C68.2057 27.2556 69.6556 26.9107 71.0823 26.5452L71.9669 19.4704C72.3388 19.7906 72.7644 20.0468 73.2253 20.228C73.7399 20.4295 74.2906 20.5297 74.8455 20.5227C75.7902 20.5179 76.7154 20.2619 77.5205 19.7828C78.4001 19.2663 79.1665 18.5873 79.776 17.7842C80.4539 16.8989 80.9804 15.9135 81.3354 14.8659C81.7249 13.7372 81.92 12.554 81.913 11.3639C81.9275 10.5522 81.8252 9.74262 81.609 8.95843C81.4498 8.34915 81.1666 7.77687 80.7761 7.27522ZM77.3533 13.8312C77.1987 14.4633 76.9563 15.0722 76.6329 15.6412C76.3574 16.1334 75.9845 16.5682 75.5356 16.9205C75.1457 17.236 74.6542 17.4091 74.1464 17.4098C73.8273 17.4073 73.5102 17.3616 73.2041 17.2742C72.872 17.1862 72.5618 17.0338 72.2921 16.8262L72.7268 13.4391C72.8966 12.8699 73.1184 12.3165 73.3895 11.7854C73.6304 11.3116 73.9164 10.8606 74.2437 10.4382C74.5079 10.0905 74.8257 9.78431 75.186 9.53031C75.4554 9.32903 75.7825 9.21368 76.1222 9.20015C76.5676 9.19943 76.9789 9.43151 77.1983 9.8074C77.4678 10.2142 77.6026 10.8647 77.6026 11.7589C77.6071 12.4569 77.5234 13.1529 77.3533 13.8312Z" fill="black" fill-opacity="0.7"/>
<path d="M66.708 8.93485C66.544 8.33339 66.2588 7.76936 65.869 7.27522C65.532 6.85759 65.0919 6.5291 64.5893 6.32013C64.0714 6.11559 63.516 6.01529 62.9569 6.02535C62.0346 6.02615 61.1322 6.28511 60.3579 6.77114C59.4974 7.31388 58.7489 8.00771 58.1511 8.81693V7.54347C58.1869 7.17409 58.0483 6.80885 57.7741 6.55006C57.4713 6.33504 57.0999 6.23065 56.7254 6.25527H54.4912L51.5244 30C52.9652 29.8526 54.3929 29.6836 55.8074 29.493L57.0598 19.4704C57.4317 19.7906 57.8573 20.0468 58.3183 20.228C58.8328 20.4295 59.3836 20.5297 59.9385 20.5227C60.8831 20.5179 61.8083 20.2619 62.6134 19.7828C63.4937 19.2672 64.2602 18.5879 64.869 17.7842C65.5468 16.8989 66.0733 15.9135 66.4284 14.8659C66.8188 13.7373 67.0149 12.5542 67.009 11.3639C67.0269 10.5445 66.9255 9.72678 66.708 8.93485ZM62.4523 13.8312C62.2991 14.4637 62.0566 15.0728 61.7319 15.6412C61.4565 16.1326 61.0847 16.5672 60.6376 16.9205C60.2463 17.2355 59.754 17.4086 59.2454 17.4098C58.9263 17.4073 58.6092 17.3616 58.3031 17.2742C57.9709 17.1865 57.6606 17.034 57.3911 16.8262L57.8228 13.4391C57.9926 12.8699 58.2144 12.3165 58.4854 11.7854C58.7264 11.3116 59.0124 10.8606 59.3396 10.4382C59.6039 10.0905 59.9217 9.78431 60.2819 9.53031C60.5513 9.32903 60.8784 9.21368 61.2182 9.20015C61.6636 9.19943 62.0749 9.43151 62.2943 9.8074C62.5658 10.2142 62.7006 10.8647 62.6986 11.7589C62.702 12.457 62.6173 13.153 62.4463 13.8312H62.4523Z" fill="black" fill-opacity="0.7"/>
<path fill-rule="evenodd" clip-rule="evenodd" d="M17.9438 0.0639359H2.92122C2.14674 0.0631535 1.40371 0.360959 0.855789 0.891754C0.307867 1.42255 -4.2018e-07 2.14279 0 2.89384L1.12775 10.1779H6.0613L7.00363 2.65212H10.0434L9.33513 8.31784C9.74746 7.86189 10.2484 7.48926 10.8094 7.22125C11.3103 6.99147 11.8573 6.87169 12.4114 6.87046C12.8139 6.86538 13.2122 6.9501 13.5756 7.11807C13.9279 7.28366 14.2312 7.53315 14.4571 7.84324C14.7094 8.19697 14.8804 8.59906 14.9587 9.02237C15.0323 9.39916 15.0568 9.78341 15.0317 10.1661H19.7372L20.865 2.88205C20.8566 1.32327 19.5512 0.0639148 17.9438 0.0639359Z" fill="black" fill-opacity="0.8"/>
</g>
<defs>
<clipPath id="clip0_680_1541">
<rect width="108" height="30" fill="white"/>
</clipPath>
</defs>
</svg>
