<svg width="800" height="120" viewBox="0 0 800 120" fill="none" xmlns="http://www.w3.org/2000/svg">
<g clip-path="url(#clip0_680_1550)">
<path d="M764.82 38.71C764.372 38.6928 763.932 38.5783 763.532 38.3745C763.132 38.1707 762.781 37.8824 762.503 37.5296C762.226 37.1767 762.028 36.7678 761.924 36.3311C761.82 35.8943 761.812 35.4402 761.9 35L764 23.83C764.038 23.6592 764.058 23.485 764.06 23.31C764.06 20.94 760.74 20.63 756.44 20.63C752.14 20.63 748.81 20.94 748.81 23.31C748.812 23.485 748.832 23.6592 748.87 23.83L751 35C751.081 35.444 751.065 35.9004 750.953 36.3376C750.841 36.7747 750.635 37.1823 750.349 37.5322C750.064 37.882 749.706 38.1658 749.301 38.364C748.895 38.5622 748.452 38.67 748 38.68C727.42 39.4 712.9 46.14 712.9 58.43V63.16C712.9 63.4568 712.959 63.7507 713.072 64.0249C713.186 64.2991 713.352 64.5482 713.562 64.7581C713.772 64.9679 714.021 65.1344 714.295 65.248C714.57 65.3616 714.864 65.42 715.16 65.42H752.61C752.911 65.4058 753.212 65.4545 753.493 65.563C753.774 65.6714 754.03 65.8372 754.243 66.0498C754.457 66.2624 754.624 66.5172 754.734 66.7978C754.843 67.0785 754.893 67.3789 754.88 67.68C754.888 68.1904 754.71 68.6861 754.378 69.0744C754.047 69.4628 753.586 69.7171 753.08 69.79L725.31 75.17C724.793 75.2485 724.323 75.5156 723.99 75.9199C723.658 76.3242 723.487 76.8372 723.51 77.36V86.87C723.51 105.13 737.79 120.5 756.44 120.5C765.193 120.5 773.586 117.023 779.775 110.835C785.964 104.646 789.44 96.2522 789.44 87.5V67.56C789.442 67.2673 789.501 66.9777 789.616 66.7085C789.731 66.4393 789.899 66.1959 790.11 65.9927C790.321 65.7894 790.57 65.6305 790.843 65.5253C791.116 65.42 791.408 65.3706 791.7 65.38H797.7C798.001 65.3853 798.299 65.3308 798.578 65.2196C798.856 65.1084 799.11 64.9428 799.324 64.7324C799.538 64.522 799.709 64.271 799.825 63.9942C799.941 63.7174 800 63.4202 800 63.12V58.39C800 46.07 785.48 39.81 764.82 38.71Z" fill="black" fill-opacity="0.3"/>
<path d="M95.06 -0.0599609C93.34 -0.249961 89.56 -0.459961 87.06 -0.459961H84.57C81.06 -0.459961 77.44 -0.459961 74.01 -0.259961C71.12 -0.0999609 71.01 0.740039 71.01 2.65004V60.31C71.01 60.7927 70.8183 61.2557 70.4769 61.597C70.1356 61.9383 69.6727 62.13 69.19 62.13H68.78C68.4698 62.1307 68.1645 62.052 67.8932 61.9015C67.6219 61.751 67.3936 61.5336 67.23 61.27L33.78 7.72004C29.78 1.10004 28.36 -0.459961 17.26 -0.459961H15C12 -0.459961 6.44 -0.459961 3.42 -0.259961C1.3 -0.139961 0 0.180039 0 5.11004C0 7.00004 0 9.63004 0.08 12.66C0.14 16.66 0.21 21.23 0.21 25.42V108.53C0.21 116.38 1.94 118 6.83 118.63C8.28 118.81 13.06 119.02 15.62 119.02H17.88C21.157 119.061 24.4325 118.86 27.68 118.42C30.05 118.14 30.59 117.48 30.59 114.89C30.59 113.39 30.59 111.42 30.5 109.28C30.44 106.75 30.38 104 30.38 101.55V58.87C30.3826 58.3882 30.5752 57.9268 30.916 57.586C31.2567 57.2453 31.7181 57.0527 32.2 57.05H32.61C32.9141 57.0496 33.2134 57.1253 33.4807 57.2703C33.7479 57.4153 33.9746 57.6249 34.14 57.88L67.59 109.18C72.52 116.88 76.43 119.18 84.32 119.18H86.38C91.38 119.18 95.38 118.83 97.38 118.18C100.53 117.18 101.22 116.76 101.22 114.38V9.83004C101.22 1.00004 99.63 0.400039 95.06 -0.0599609Z" fill="black" fill-opacity="0.8"/>
<path d="M205.18 91.5V39.58C205.18 32.42 203.93 29.5 191.4 29.5H184.63C180.731 29.5497 176.838 29.8201 172.97 30.31C170.62 30.64 170.44 31.4 170.44 32.61C170.44 33.38 170.44 34.33 170.52 35.43C170.58 36.94 170.65 38.71 170.65 40.61V91.91C170.652 92.2094 170.579 92.5044 170.437 92.7682C170.296 93.032 170.09 93.2561 169.84 93.42C167.297 94.911 164.386 95.6593 161.44 95.58C152.83 95.58 151.83 88.58 151.83 83.29V40C151.83 32.75 149.83 29.51 138.05 29.51H131.28C127.381 29.559 123.488 29.8294 119.62 30.32C117.27 30.65 117.1 31.41 117.1 32.62C117.1 33.39 117.1 34.34 117.18 35.44C117.18 36.95 117.3 38.72 117.3 40.62V90.27C117.3 110.27 126.49 120.46 144.62 120.46C155.71 120.46 164.33 116.07 169.55 107.77C169.74 107.459 170.02 107.213 170.353 107.064C170.686 106.915 171.056 106.87 171.415 106.935C171.774 106.999 172.105 107.171 172.364 107.427C172.624 107.683 172.8 108.012 172.87 108.37L174.1 114.32C175.1 117.46 176.36 119.02 183.81 119.02H191C195.09 119.127 199.184 118.997 203.26 118.63C205.6 118.34 205.8 117.92 205.8 115.92C205.8 113.92 205.8 111.26 205.6 108.46C205.38 103.1 205.18 97.42 205.18 91.5Z" fill="black" fill-opacity="0.8"/>
<path d="M266.43 53H282.5C287.05 53 289.21 52 290.74 49C291.93 46.63 292.17 43.64 292.17 39.59C292.17 37.59 292.17 34.35 291.98 32.39C291.85 30.59 291.79 30.54 289.89 30.54C283.35 30.74 273.89 30.74 266.43 30.74C265.947 30.74 265.484 30.5482 265.143 30.2069C264.801 29.8656 264.61 29.4027 264.61 28.92V10.44C264.61 8.34 264.38 8.32 262.61 8.14999C261 8.07 259.63 8 258.32 8C256.372 7.99137 254.425 8.09822 252.49 8.32C249.596 8.563 246.892 9.858 244.89 11.96L221.26 32.54C218.68 34.9 217.26 36.66 216.62 38.21C215.79 40.36 215.31 44.61 215.31 49.84C215.31 52.45 216.26 52.95 218.01 52.95H229.7C229.942 52.9505 230.182 52.9994 230.405 53.0938C230.628 53.1883 230.83 53.3264 231 53.5C231.171 53.6711 231.306 53.8757 231.396 54.101C231.485 54.3264 231.527 54.5677 231.52 54.81L230.91 84.81C230.59 97.98 233.01 106.74 238.52 112.39C243.85 117.85 252.37 120.5 264.59 120.5C282.72 120.5 291.76 113.35 291.76 101.39C291.866 100.38 291.575 99.3692 290.95 98.57C290.669 98.3526 290.346 98.1958 290.002 98.1098C289.658 98.0237 289.299 98.0101 288.95 98.07C287.82 98.07 286.85 98.13 285.95 98.18C285.05 98.23 284.06 98.28 283.13 98.28C275.29 98.28 272.27 97.06 269.31 94.28C264.96 90.39 264.62 83.11 264.62 73.28V54.77C264.633 54.2977 264.829 53.849 265.166 53.5187C265.504 53.1884 265.957 53.0024 266.43 53Z" fill="black" fill-opacity="0.8"/>
<path d="M479.38 107.92V63.39C479.38 52.18 478.53 44.97 476.63 40.03C473.37 31.59 466 27.66 453.5 27.66C443.591 27.6158 434.048 31.3988 426.86 38.2201C426.604 38.4696 426.28 38.6382 425.928 38.7047C425.577 38.7712 425.214 38.7327 424.884 38.594C424.555 38.4553 424.273 38.2226 424.075 37.9249C423.877 37.6272 423.771 37.2777 423.77 36.92V8.80005C423.77 2.08005 422.58 -0.459952 410 -0.459952H403.23C399.352 -0.489334 395.478 -0.225247 391.64 0.330048C389.21 0.680048 389.04 1.44005 389.04 2.65005C389.04 3.42005 389.04 4.37005 389.12 5.47005C389.18 6.98005 389.25 8.75005 389.25 10.65V109.76C389.25 116.48 390.44 119.02 403.02 119.02H409.79C413.668 119.049 417.542 118.785 421.38 118.23C423.81 117.88 423.98 117.12 423.98 115.92C423.98 115.14 423.98 114.19 423.9 113.1C423.84 111.58 423.77 109.82 423.77 107.92V55.18C423.77 54.8311 423.87 54.4894 424.058 54.1953C424.245 53.9012 424.513 53.6669 424.83 53.5201C427.756 52.1014 430.958 51.3435 434.21 51.3C443.11 51.3 444.86 57.46 444.86 68.1V109.76C444.86 116.48 446.04 119.02 458.63 119.02H465.4C469.278 119.049 473.152 118.785 476.99 118.23C479.41 117.88 479.59 117.12 479.59 115.92C479.59 115.14 479.59 114.19 479.51 113.1C479.45 111.58 479.38 109.82 479.38 107.92Z" fill="black" fill-opacity="0.8"/>
<path d="M537.77 27.66C508.97 27.66 491.77 45.39 491.77 75.08C491.77 103.5 509.04 120.46 537.97 120.46C553.83 120.46 564.74 116.46 572.3 107.74C575.36 104.21 577.19 99.9 577.19 96.22C577.19 93.67 576.09 93.32 574.9 93.32C573.71 93.32 571.77 93.52 569.47 93.76C565.99 94.11 561.66 94.55 557.67 94.55C540.88 94.55 531.22 89.88 527.25 79.86C527.138 79.5843 527.096 79.2852 527.127 78.9893C527.158 78.6934 527.262 78.4097 527.429 78.1635C527.596 77.9173 527.822 77.7161 528.085 77.5777C528.348 77.4393 528.642 77.368 528.94 77.37V77.37C540.74 77.51 562.32 77.65 574.16 76.96C576.36 76.82 577.21 76.47 577.37 73.35C577.541 71.4718 577.611 69.5858 577.58 67.7C577.6 42.25 563.08 27.66 537.77 27.66ZM551.07 63.73C550.904 63.928 550.697 64.0883 550.465 64.2004C550.232 64.3125 549.978 64.3737 549.72 64.38C542.3 64.59 533.53 64.59 526.48 64.59C526.24 64.5914 526.003 64.5452 525.781 64.4542C525.56 64.3632 525.359 64.2292 525.19 64.0599C525.02 63.8907 524.886 63.6895 524.795 63.4681C524.704 63.2467 524.658 63.0094 524.66 62.77C524.66 52.7 527.82 46.86 534.07 45.4C535.017 45.2085 535.983 45.1246 536.95 45.15C539.147 45.1654 541.302 45.7642 543.192 46.8851C545.083 48.0061 546.642 49.609 547.71 51.53C549.686 54.8169 550.963 58.4767 551.46 62.28C551.503 62.5356 551.49 62.7974 551.423 63.0476C551.356 63.2979 551.235 63.5307 551.07 63.73V63.73Z" fill="black" fill-opacity="0.8"/>
<path d="M626 107.92V8.79997C626 2.07997 624.809 -0.46003 612.229 -0.46003H605.46C601.582 -0.489718 597.707 -0.22563 593.87 0.32997C591.44 0.67997 591.27 1.43997 591.27 2.64997C591.27 3.41997 591.269 4.37997 591.349 5.46997C591.409 6.97997 591.479 8.74997 591.479 10.65V109.76C591.479 116.48 592.66 119.02 605.25 119.02H612C615.877 119.049 619.752 118.785 623.59 118.23C626.02 117.88 626.19 117.12 626.19 115.92C626.19 115.14 626.189 114.19 626.109 113.1C625.999 111.58 626 109.82 626 107.92Z" fill="black" fill-opacity="0.8"/>
<path d="M677.92 113.1C677.86 111.58 677.79 109.82 677.79 107.92V8.79996C677.79 2.07996 676.6 -0.460036 664.02 -0.460036H657.24C653.365 -0.48968 649.494 -0.22559 645.66 0.329964C643.23 0.679964 643.06 1.43996 643.06 2.64996C643.06 3.41996 643.06 4.37996 643.14 5.46996C643.2 6.97996 643.27 8.74996 643.27 10.65V109.76C643.27 116.48 644.45 119.02 657.04 119.02H663.81C667.684 119.05 671.555 118.786 675.39 118.23C677.82 117.88 678 117.12 678 115.92C678 115.14 678 114.19 677.92 113.1Z" fill="black" fill-opacity="0.8"/>
<path d="M334.56 53.54C334.56 50.08 336.87 46.38 343.36 46.38C350.88 46.38 354.64 49.31 360.86 55.53C363.02 57.7 363.86 58.08 364.7 58.08C366.393 57.933 368.029 57.3956 369.48 56.51C371.686 55.1818 373.506 53.2999 374.76 51.0511C376.015 48.8023 376.659 46.2647 376.63 43.69C376.63 29.22 352.79 27.69 342.54 27.69C318 27.66 302.7 38.44 302.7 55.8C302.7 89.57 343.78 80.9 348.95 91.37C349.088 91.665 349.195 91.9732 349.27 92.29C349.27 92.37 349.27 92.46 349.34 92.55C349.426 92.9375 349.469 93.3331 349.47 93.73C349.47 96.73 348.11 101.73 339.03 101.73C329.56 101.73 320.41 97 310.25 86.84C309.946 86.5002 309.575 86.2263 309.16 86.0354C308.746 85.8445 308.296 85.7406 307.84 85.73C306.55 85.7952 305.329 86.3326 304.41 87.24C300.739 90.8614 298.645 95.784 298.58 100.94C298.58 105.52 301.45 120.46 338.41 120.46C364.51 120.46 380.1 108.71 380.1 89.04C380.12 59.28 334.56 66.23 334.56 53.54Z" fill="black" fill-opacity="0.8"/>
</g>
<defs>
<clipPath id="clip0_680_1550">
<rect width="800" height="120" fill="white"/>
</clipPath>
</defs>
</svg>
