<svg width="98" height="48" viewBox="0 0 98 48" fill="none" xmlns="http://www.w3.org/2000/svg">
<g clip-path="url(#clip0_680_1571)">
<path d="M2.07802 1.93239C1.95998 1.93255 1.84682 1.98801 1.76336 2.08665C1.6799 2.18529 1.63295 2.31908 1.63281 2.45858V29.1978C1.63295 29.3373 1.6799 29.471 1.76336 29.5697C1.84682 29.6683 1.95998 29.7239 2.07802 29.724H12.2476C12.7987 29.7248 13.327 29.9838 13.7166 30.4443C14.1063 30.9049 14.3254 31.5292 14.326 32.1805V39.4444C14.326 39.5469 14.3514 39.6473 14.399 39.733C14.4467 39.8188 14.5144 39.8862 14.5941 39.927C14.6737 39.9678 14.7616 39.9802 14.8471 39.9627C14.9326 39.9452 15.012 39.8986 15.0754 39.8286L23.6185 30.3862C24.0032 29.96 24.5109 29.7232 25.0382 29.724H90.0154C90.1335 29.7239 90.2466 29.6683 90.3301 29.5697C90.4136 29.471 90.4605 29.3373 90.4607 29.1978V2.45776C90.4605 2.31825 90.4136 2.18454 90.3301 2.0859C90.2466 1.98726 90.1335 1.9318 90.0154 1.93164L2.07802 1.93239Z" fill="white"/>
<path d="M13.3412 7.83132V15.1658C13.3412 15.873 13.1035 16.5513 12.6804 17.0514C12.2573 17.5515 11.6834 17.8324 11.085 17.8324H8.26441V26.0331C8.26441 26.1568 8.22284 26.2756 8.14882 26.363C8.07481 26.4505 7.97443 26.4996 7.86975 26.4996H4.71008C4.60541 26.4996 4.50503 26.4505 4.43101 26.363C4.357 26.2756 4.31543 26.1568 4.31543 26.0331V5.63108C4.31543 5.56982 4.32561 5.50911 4.34545 5.45251C4.36528 5.39592 4.39437 5.34456 4.43101 5.30124C4.46766 5.25793 4.51115 5.22351 4.55903 5.20007C4.60692 5.17663 4.65825 5.16455 4.71008 5.16455H11.0849C11.3813 5.16449 11.6747 5.2335 11.9485 5.36749C12.2223 5.50149 12.4711 5.69793 12.6807 5.94558C12.8903 6.19323 13.0565 6.4872 13.1699 6.8108C13.2834 7.13439 13.3417 7.48121 13.3417 7.83147L13.3412 7.83132ZM8.26403 14.4989H8.82805C8.9777 14.4989 9.12121 14.4286 9.22704 14.3036C9.33286 14.1785 9.39232 14.0088 9.39232 13.832V9.16486C9.39232 9.07728 9.37772 8.99056 9.34936 8.90965C9.321 8.82875 9.27944 8.75525 9.22704 8.69333C9.17464 8.63141 9.11244 8.58229 9.04397 8.54879C8.97551 8.51529 8.90214 8.49807 8.82805 8.49809H8.26441L8.26403 14.4989Z" fill="black" fill-opacity="0.8"/>
<path d="M21.0123 5.16357C21.3087 5.16355 21.6021 5.2325 21.8759 5.36651C22.1497 5.50053 22.3985 5.69695 22.608 5.9446C22.8176 6.19224 22.9838 6.48632 23.0972 6.80989C23.2106 7.13347 23.269 7.48025 23.269 7.83049V23.8319C23.269 24.5393 23.0312 25.2176 22.608 25.7178C22.1848 26.2179 21.6108 26.4989 21.0123 26.4989H16.4997C15.9013 26.4989 15.3273 26.2179 14.9042 25.7178C14.481 25.2176 14.2432 24.5392 14.2432 23.8319V7.83049C14.2432 7.12321 14.481 6.44489 14.9041 5.94475C15.3272 5.44461 15.9011 5.16361 16.4996 5.16357H21.0123ZM19.3202 9.16433C19.3202 8.98753 19.2607 8.81796 19.155 8.69295C19.0492 8.56793 18.9057 8.49771 18.7561 8.49771C18.6066 8.49771 18.4631 8.56793 18.3573 8.69295C18.2515 8.81796 18.1921 8.98753 18.1921 9.16433V22.4989C18.1921 22.6757 18.2515 22.8452 18.3573 22.9702C18.4631 23.0952 18.6066 23.1655 18.7561 23.1655C18.9057 23.1655 19.0492 23.0952 19.155 22.9702C19.2607 22.8452 19.3202 22.6757 19.3202 22.4989V9.16433Z" fill="black" fill-opacity="0.8"/>
<path d="M33.1716 23.8319C33.1716 24.5393 32.9338 25.2177 32.5106 25.7179C32.0873 26.2181 31.5134 26.499 30.9149 26.499H24.5401C24.4354 26.4989 24.3351 26.4498 24.2611 26.3623C24.1871 26.2749 24.1456 26.1562 24.1455 26.0326V5.63017C24.1455 5.50648 24.187 5.38784 24.261 5.30034C24.335 5.21283 24.4353 5.16366 24.5399 5.16357H30.9147C31.5132 5.16357 32.0872 5.44462 32.5105 5.94482C32.9337 6.44502 33.1714 7.1234 33.1714 7.83079L33.1716 23.8319ZM28.0942 23.1657H28.6584C28.8081 23.1657 28.9515 23.0954 29.0573 22.9703C29.1631 22.8452 29.2226 22.6756 29.2226 22.4988V9.16433C29.2226 9.07675 29.208 8.99004 29.1797 8.90912C29.1513 8.8282 29.1098 8.75466 29.0574 8.69272C29.005 8.63079 28.9428 8.58162 28.8744 8.54811C28.8059 8.5146 28.7325 8.49739 28.6584 8.49741H28.0942V23.1657Z" fill="black" fill-opacity="0.8"/>
<path d="M34.0484 23.8325V7.83034C34.0483 7.1232 34.286 6.445 34.709 5.9449C35.132 5.4448 35.7058 5.16374 36.3041 5.16357H40.817C41.4155 5.16357 41.9895 5.44459 42.4128 5.94482C42.836 6.44505 43.0737 7.12351 43.0737 7.83094V12.0311C43.0737 12.0924 43.0636 12.153 43.0438 12.2096C43.0239 12.2662 42.9949 12.3176 42.9582 12.361C42.9216 12.4043 42.8781 12.4386 42.8302 12.462C42.7823 12.4855 42.731 12.4976 42.6791 12.4976H39.5193C39.4675 12.4976 39.4162 12.4855 39.3683 12.462C39.3204 12.4386 39.2768 12.4043 39.2402 12.361C39.2035 12.3176 39.1745 12.2662 39.1547 12.2096C39.1349 12.153 39.1245 12.0924 39.1245 12.0311V9.19222C39.1268 9.01551 39.0713 8.84463 38.9694 8.71523C38.8676 8.58583 38.7274 8.50788 38.5782 8.49771C38.5026 8.49494 38.4273 8.51017 38.3568 8.54243C38.2863 8.57468 38.2221 8.6233 38.1678 8.68547C38.1136 8.74764 38.0704 8.82208 38.0409 8.90434C38.0115 8.98659 37.9962 9.075 37.9962 9.16433V22.4709C37.994 22.6477 38.0496 22.8187 38.1516 22.9481C38.2536 23.0775 38.394 23.1552 38.5434 23.1652C38.6189 23.1679 38.6941 23.1527 38.7646 23.1204C38.835 23.0881 38.8993 23.0395 38.9535 22.9773C39.0077 22.9151 39.0508 22.8406 39.0802 22.7584C39.1096 22.6761 39.1246 22.5877 39.1245 22.4984V19.6315C39.1245 19.5078 39.1662 19.3892 39.2402 19.3017C39.3142 19.2142 39.4147 19.1651 39.5193 19.1651H42.6793C42.7311 19.1651 42.7823 19.1771 42.8302 19.2005C42.8781 19.224 42.9217 19.2583 42.9584 19.3016C42.995 19.3449 43.024 19.3964 43.0438 19.453C43.0637 19.5096 43.074 19.5703 43.074 19.6315V23.8325C43.074 24.1827 43.0156 24.5295 42.9022 24.8531C42.7887 25.1766 42.6226 25.4706 42.413 25.7183C42.2035 25.9659 41.9547 26.1624 41.6809 26.2964C41.4071 26.4304 41.1137 26.4994 40.8174 26.4994H36.3045C36.0081 26.4994 35.7147 26.4304 35.4409 26.2964C35.1671 26.1624 34.9183 25.966 34.7088 25.7184C34.4992 25.4707 34.333 25.1767 34.2196 24.8531C34.1062 24.5295 34.0478 24.1827 34.0479 23.8325H34.0484Z" fill="black" fill-opacity="0.8"/>
<path d="M49.349 23.1659H47.6434L47.3972 26.0793C47.3875 26.1945 47.3419 26.3012 47.2693 26.3789C47.1968 26.4565 47.1024 26.4995 47.0045 26.4995H44.424C44.368 26.4995 44.3127 26.4854 44.2616 26.4582C44.2106 26.431 44.1651 26.3913 44.1281 26.3417C44.091 26.2921 44.0633 26.2338 44.0468 26.1706C44.0303 26.1073 44.0254 26.0407 44.0323 25.975L46.1903 5.57297C46.2022 5.4602 46.2486 5.35647 46.3207 5.28127C46.3928 5.20607 46.4857 5.16456 46.5818 5.16455H50.3978C50.4939 5.16456 50.5868 5.20606 50.6588 5.28127C50.7309 5.35648 50.7773 5.46021 50.7892 5.57297L52.9473 25.975C52.9543 26.0407 52.9493 26.1073 52.9328 26.1706C52.9163 26.2338 52.8887 26.2921 52.8516 26.3417C52.8146 26.3913 52.769 26.4311 52.718 26.4583C52.6669 26.4855 52.6116 26.4995 52.5556 26.4995H49.9772C49.879 26.4995 49.7844 26.4563 49.7117 26.3782C49.6391 26.3001 49.5936 26.1928 49.5843 26.0773L49.349 23.1659ZM49.0267 19.1654L48.4892 12.4978L47.952 19.1654H49.0267Z" fill="black" fill-opacity="0.8"/>
<path d="M57.828 11.4986C57.822 12.1204 58.0248 12.7195 58.3917 13.1651L62.3408 17.8326C62.5247 18.0514 62.6694 18.3117 62.7663 18.598C62.8633 18.8844 62.9104 19.1908 62.905 19.4992V23.833C62.905 24.5404 62.6673 25.2188 62.2441 25.7189C61.8209 26.2191 61.2469 26.5001 60.6484 26.5001H56.1354C55.8391 26.5001 55.5456 26.4311 55.2719 26.2971C54.9981 26.1631 54.7493 25.9666 54.5398 25.7189C54.3303 25.4713 54.1641 25.1772 54.0507 24.8536C53.9373 24.53 53.8789 24.1833 53.879 23.833V19.6326C53.879 19.5088 53.9205 19.3902 53.9945 19.3027C54.0686 19.2152 54.1689 19.1661 54.2736 19.1661H57.4333C57.538 19.1661 57.6384 19.2152 57.7124 19.3027C57.7864 19.3902 57.828 19.5088 57.828 19.6326V22.4771C57.826 22.6419 57.8746 22.802 57.9648 22.9277C58.055 23.0534 58.1806 23.1362 58.3185 23.1609C58.3981 23.1732 58.479 23.1653 58.5558 23.1377C58.6325 23.1101 58.7035 23.0635 58.7638 23.0009C58.8241 22.9384 58.8725 22.8614 58.9056 22.775C58.9387 22.6886 58.9559 22.5948 58.9559 22.4999V20.1663C58.9619 19.5443 58.759 18.9448 58.3917 18.4992L54.4432 13.8318C54.0772 13.3854 53.8746 12.7868 53.879 12.1652V7.83132C53.8789 7.48113 53.9373 7.13434 54.0507 6.8108C54.164 6.48725 54.3302 6.19329 54.5397 5.94565C54.7493 5.69802 54.998 5.50159 55.2717 5.36757C55.5454 5.23355 55.8389 5.16455 56.1352 5.16455H60.648C61.2466 5.16455 61.8206 5.44557 62.2439 5.9458C62.6671 6.44603 62.9049 7.12449 62.9049 7.83192V12.0315C62.9049 12.1553 62.8633 12.2739 62.7893 12.3614C62.7153 12.4489 62.6149 12.498 62.5102 12.498H59.3505C59.2459 12.498 59.1455 12.4489 59.0715 12.3614C58.9975 12.2739 58.9559 12.1553 58.9559 12.0315V9.19305C58.9581 9.01631 58.9025 8.8454 58.8006 8.71599C58.6988 8.58657 58.5585 8.50863 58.4092 8.49854C58.3337 8.49573 58.2584 8.51089 58.188 8.54311C58.1175 8.57533 58.0532 8.624 57.9989 8.68615C57.9446 8.7483 57.9015 8.8227 57.872 8.90494C57.8425 8.98718 57.8273 9.07554 57.8273 9.16486L57.828 11.4986Z" fill="black" fill-opacity="0.8"/>
<path d="M72.8335 5.63137V8.03194C72.8334 8.15567 72.7918 8.2743 72.7178 8.36177C72.6438 8.44924 72.5434 8.49838 72.4387 8.49838H70.2947V26.0335C70.2947 26.0947 70.2845 26.1554 70.2646 26.212C70.2448 26.2686 70.2157 26.32 70.1791 26.3633C70.1424 26.4066 70.0989 26.4409 70.051 26.4643C70.0032 26.4878 69.9519 26.4999 69.9 26.4999H66.7406C66.6888 26.4999 66.6374 26.4878 66.5896 26.4644C66.5417 26.441 66.4982 26.4066 66.4615 26.3633C66.4248 26.32 66.3958 26.2686 66.3759 26.2121C66.3561 26.1555 66.3458 26.0948 66.3458 26.0335V8.49823H64.2022C64.0975 8.49823 63.9972 8.4491 63.9231 8.36162C63.8491 8.27414 63.8076 8.1555 63.8076 8.03179V5.63114C63.8075 5.56987 63.8177 5.50927 63.8375 5.45265C63.8574 5.39604 63.8865 5.34457 63.9231 5.30124C63.9598 5.2579 64.0033 5.22352 64.0512 5.20006C64.099 5.17661 64.1504 5.16455 64.2022 5.16455H72.4387C72.4905 5.16453 72.5419 5.17661 72.5898 5.20006C72.6377 5.22352 72.6812 5.25789 72.7179 5.30124C72.7546 5.34458 72.7837 5.39609 72.8035 5.45273C72.8233 5.50937 72.8335 5.57007 72.8335 5.63137Z" fill="black" fill-opacity="0.8"/>
<path d="M79.8024 26.4776H74.1047C74 26.4776 73.8996 26.4284 73.8256 26.3409C73.7516 26.2534 73.71 26.1348 73.71 26.0111V5.60868C73.71 5.54742 73.7202 5.48681 73.74 5.4302C73.7598 5.37359 73.7889 5.32211 73.8256 5.27878C73.8622 5.23545 73.9057 5.20106 73.9536 5.17761C74.0015 5.15416 74.0528 5.14209 74.1047 5.14209H77.2638C77.3685 5.14213 77.4689 5.19135 77.5429 5.27885C77.6169 5.36636 77.6585 5.48496 77.6585 5.60868V23.1441H79.8025C79.8543 23.1441 79.9056 23.1561 79.9535 23.1796C80.0014 23.203 80.0449 23.2374 80.0816 23.2807C80.1182 23.324 80.1473 23.3754 80.1671 23.432C80.1869 23.4886 80.1971 23.5492 80.1971 23.6105V26.0111C80.1971 26.0723 80.1869 26.133 80.1671 26.1896C80.1472 26.2462 80.1181 26.2977 80.0815 26.341C80.0448 26.3843 80.0013 26.4186 79.9534 26.4421C79.9055 26.4655 79.8542 26.4776 79.8024 26.4776Z" fill="black" fill-opacity="0.8"/>
<path d="M81.4796 5.16358H87.4594C87.5641 5.16358 87.6644 5.21267 87.7385 5.30011C87.8125 5.38756 87.8541 5.50618 87.8541 5.62987V8.03097C87.8541 8.09222 87.8439 8.15286 87.8241 8.20945C87.8043 8.26605 87.7752 8.31749 87.7386 8.3608C87.7019 8.4041 87.6584 8.4384 87.6105 8.46182C87.5626 8.48524 87.5113 8.4973 87.4594 8.49726H85.0335V13.8312H87.4596C87.5642 13.8312 87.6646 13.8804 87.7386 13.9679C87.8127 14.0553 87.8542 14.174 87.8542 14.2977V17.3656C87.8542 17.4893 87.8127 17.6079 87.7386 17.6954C87.6646 17.7829 87.5642 17.832 87.4596 17.832H85.0335V23.1657H87.4592C87.5638 23.1657 87.6642 23.2148 87.7382 23.3023C87.8122 23.3898 87.8537 23.5085 87.8537 23.6321V26.0327C87.8537 26.094 87.8436 26.1547 87.8237 26.2113C87.8039 26.2679 87.7748 26.3193 87.7382 26.3626C87.7015 26.4059 87.658 26.4403 87.6101 26.4637C87.5622 26.4871 87.5109 26.4992 87.4591 26.4992H81.4786C81.374 26.4992 81.2736 26.45 81.1996 26.3625C81.1256 26.2751 81.084 26.1564 81.084 26.0327V5.63047C81.0839 5.56908 81.0942 5.50832 81.114 5.45161C81.1339 5.39489 81.163 5.34334 81.1998 5.29996C81.2365 5.25659 81.2802 5.2222 81.3282 5.19879C81.3762 5.17539 81.4276 5.16343 81.4796 5.16358Z" fill="black" fill-opacity="0.8"/>
<path d="M96.6092 6.77838L91.4927 0.731412L91.4759 0.711298L91.4642 0.697539V0.698736C91.0772 0.251086 90.5573 0.00047431 90.0158 0.000488282H2.07842C1.52736 0.00121795 0.999061 0.260236 0.609412 0.720794C0.219763 1.18135 0.000583009 1.80583 0 2.45714V29.1964C0.000111661 29.5647 0.0704199 29.9282 0.205679 30.2599C0.340937 30.5917 0.537676 30.8831 0.781306 31.1127L5.61035 36.8201C5.80463 37.1096 6.05175 37.3435 6.33327 37.5043C6.61478 37.6651 6.92341 37.7487 7.23607 37.7487H12.6931V39.4429C12.6909 39.7844 12.7497 40.1227 12.8658 40.4354C12.9819 40.7482 13.1527 41.0283 13.3669 41.2576L18.363 47.1623C18.5614 47.4245 18.8042 47.6345 19.0756 47.7789C19.347 47.9233 19.641 47.9989 19.9386 48.0008C20.4634 47.9991 20.9678 47.7601 21.3484 47.333L29.8916 37.8905C29.9741 37.7992 30.0829 37.7485 30.1959 37.7487H95.1735C95.7246 37.7479 96.2528 37.4889 96.6425 37.0284C97.0321 36.5679 97.2513 35.9435 97.252 35.2922V8.55234C97.2521 8.22061 97.1951 7.89231 97.0847 7.58737C96.9742 7.28243 96.8124 7.0072 96.6092 6.77838ZM12.2479 29.7218H2.0783C1.96029 29.7216 1.84716 29.6662 1.7637 29.5676C1.68025 29.469 1.63326 29.3353 1.63309 29.1958V2.45647C1.63319 2.31695 1.68014 2.18319 1.76361 2.08454C1.84708 1.98589 1.96025 1.9304 2.0783 1.93028H90.0158C90.1338 1.9304 90.247 1.98588 90.3304 2.08454C90.4139 2.18319 90.4608 2.31697 90.4608 2.45647V29.1958C90.4607 29.3353 90.4138 29.469 90.3303 29.5676C90.2469 29.6662 90.1338 29.7216 90.0158 29.7218H25.0386C24.5113 29.7209 24.0036 29.9578 23.6189 30.3841L15.0756 39.8265C15.0123 39.8966 14.9329 39.9432 14.8474 39.9607C14.7619 39.9782 14.6739 39.9657 14.5943 39.9249C14.5147 39.884 14.4469 39.8166 14.3993 39.7308C14.3517 39.6451 14.3263 39.5447 14.3264 39.4421V32.1783C14.3257 31.527 14.1066 30.9026 13.7169 30.4421C13.3273 29.9815 12.799 29.7225 12.2479 29.7218Z" fill="black" fill-opacity="0.8"/>
</g>
<defs>
<clipPath id="clip0_680_1571">
<rect width="98" height="48" fill="white"/>
</clipPath>
</defs>
</svg>
