<?xml version="1.0" encoding="utf-8"?>
<!-- Generator: Adobe Illustrator 24.1.2, SVG Export Plug-In . SVG Version: 6.00 Build 0)  -->
<svg version="1.1" id="Layer_1" xmlns="http://www.w3.org/2000/svg" xmlns:xlink="http://www.w3.org/1999/xlink" x="0px" y="0px"
	 viewBox="0 0 1275.6 240.1" style="enable-background:new 0 0 1275.6 240.1;" xml:space="preserve">
<style type="text/css">
	.st0{fill:#FEFEFE;}
	.st1{fill:#989898;}
	.st2{fill:#646464;}
	.st3{fill:#3B3B3B;}
	.st4{fill:#3C3C3C;}
</style>
<g>
	<path class="st0" d="M164.6,110.7c0.1-1.6,0-3.3,0.4-4.9c9.1-40.5,56.8-57.7,89.6-32.3c2.6,2,5.1,4.3,7.9,6.7
		c0.3-8.7,0.6-16.8-1.1-24.8c-5.3-24.8-24.7-41.4-50.1-43.2c-15.4-1.1-30.1,1-41.9,12c-18.5,17.5-22.9,39.1-17.5,63.3
		c1.9,8.6,6.5,16,10.9,23.4c-0.9-0.2-1.8-0.3-2.6-0.5c-22-4.6-36.9-17.6-43.5-39c-6.5-21.2-1.5-40.2,13.7-56.5
		c0.7-0.8,2.1-1.2,1.9-2.9c-5.3,0-10.5-0.2-15.7,0c-18,1-32.5,8.5-43,23.2c-8.3,11.7-10,25-9.7,38.9c0.3,13.5,5.2,24.8,14.9,34
		c22.6,21.2,57.4,23,83.2,4.4c1.7,1.1,0.9,2.7,0.6,4c-7.9,37.9-51.7,56.5-84.7,36.2c-5-3.1-9.1-7-13.9-11.4c0,6.5-0.3,12.3,0.1,18.1
		c0.5,8.3,2.5,16.2,6.8,23.5c10.7,18.3,26.9,26.9,47.7,27.8c12.8,0.5,24.7-1.6,35.3-9.2c19.4-13.9,28.3-41.1,21.8-65.8
		c-2.3-8.7-6.7-16.2-11.1-23.8c20.6,3.2,35.8,14.1,43.8,33.1c10.4,24.5,4.3,46.3-14.2,65.9c15.3-0.7,29.6,1,43.9,3.4
		c14.5,2.4,27.8,8.3,41.8,13.8c-0.4-0.8-0.4-1.3-0.7-1.6c-9.7-11.5-14.1-25-15.8-39.7c-1.4-12.1-0.6-24.2-0.8-36.4
		c-0.4-21-10-36.5-28.6-45.8C210,92.7,186.7,95.3,164.6,110.7z"/>
	<path class="st0" d="M885.3,105.8c2.4,0,4.8-0.1,7.2,0c2,0.1,2.4-0.5,2.1-2.6c-0.7-4.5-2.2-8.6-4.4-12.5
		c-10.9-18.7-39.4-24.7-59-12.3c-9.3,5.8-15.2,14.2-18,24.7c-4,14.8-3.5,29.4,3.5,43.2c11.2,22.1,37.7,26.6,56.5,18.2
		c11.5-5.1,18.7-14.1,21.4-26.5c0.5-2.1,0.2-2.9-2.2-2.8c-4.8,0.2-9.6,0.1-14.4,0c-1.6,0-2.8,0.1-3.4,2c-2.6,8.6-8.8,12.7-17.5,13.5
		c-8.9,0.8-16.2-2.2-21.2-9.7c-7.5-11.1-6.9-32.8,1.2-43.4c9.5-12.4,30.9-11,36.3,2.7c1.9,4.9,4.3,5.9,8.7,5.3
		C883.2,105.7,884.3,105.8,885.3,105.8z"/>
	<path class="st0" d="M1177.3,148.5c-0.3,0-0.6-0.1-0.9-0.1c-0.4-1.3-0.8-2.5-1.2-3.8c-4.2-14.7-8.5-29.5-12.5-44.2
		c-0.8-2.9-2-3.8-4.9-3.6c-4,0.2-8.1,0.3-12.1,0c-3.8-0.3-4.2,0.8-3,4.1c7.7,21.7,15.2,43.5,22.8,65.3c2.1,6.2-2.7,13.3-8.8,11.9
		c-5.5-1.2-6.7,1.2-7.6,5.4c-0.4,1.7-0.8,3.5-1.5,5.1c-1,2.5-0.3,3.5,2.3,3.9c16.8,2.9,28.7-0.8,35-17.5c3.4-9,6.4-18.2,9.6-27.4
		c5.5-15.7,11-31.5,16.6-47.1c1.1-3.1,0.4-3.8-2.7-3.7c-4.5,0.2-9,0.1-13.5-0.1c-2.4-0.1-3.3,0.7-3.9,3.1
		c-1.9,7.3-4.1,14.6-6.2,21.9C1182.5,130.6,1179.9,139.6,1177.3,148.5z"/>
	<path class="st0" d="M1003.7,109.2c-0.4-0.1-0.7-0.2-1.1-0.3c0-3.2-0.1-6.4,0-9.7c0.1-1.9-0.6-2.6-2.6-2.6c-3.9,0.1-7.8,0.3-11.7,0
		c-3.6-0.3-4.1,1.1-4.1,4.3c0.1,19.3,0.1,38.6,0.1,58c0,8.1,0,8.1,8.2,8.1c10.9,0,10.8,0,11-10.8c0.2-11.2-0.9-22.5,0.7-33.6
		c0.9-6.7,6.3-10.7,13.4-10.6c6.7,0.1,11.1,4,11.9,10.9c1.1,9.5,0.2,19.2,0.5,28.7c0.2,5-2.2,12.2,1,14.5c3.7,2.6,10.4,0.7,15.7,0.9
		c2.1,0.1,2.5-0.8,2.5-2.6c-0.1-14.7,0.3-29.4-0.2-44c-0.5-14.2-7.9-22.5-21.1-24.2C1017.2,94.8,1008.7,98.9,1003.7,109.2z"/>
	<path class="st0" d="M477.8,139.2c0,4.2,0,8.4,0,12.6c0.1,4.9-1.7,11.6,0.8,14.3c2.8,3.1,9.6,0.5,14.6,1c3.4,0.3,3.8-1.2,3.8-4.1
		c-0.1-13.6-0.1-27.2-0.1-40.9c0-10.7,0-10.7,10.5-10.9c0.4,0,0.9,0,1.3,0c1.7,0.2,2.2-0.5,2.4-2.3c1.1-12,1.2-12-10.4-12.2
		c-0.7,0-1.5,0-2.2,0c-0.8,0-1.2-0.4-1.5-1.3c-1.8-5.6,2.2-11.1,8.1-11.3c2.1-0.1,4.5,2.3,6.1-0.1c1.2-1.8,1.3-4.2,1.8-6.4
		c0.4-1.4,0.6-2.9,1-4.4c0.5-1.7,0.2-2.5-1.8-3c-6.5-1.4-13-2.1-19.5-0.1c-10,3.1-14.7,10.1-14.8,22.3c0,2.1,0.8,4.4-3.1,4.3
		c-6.8-0.2-6.8,0.1-6.8,7.1c0,0.4,0,0.9,0,1.3c0,5.8,0,6.1,5.9,5.8c3.5-0.2,4.2,1.1,4.1,4.3C477.6,123.3,477.8,131.2,477.8,139.2z"
		/>
	<path class="st0" d="M796.4,120.5c0-14.5-0.1-29.1,0.1-43.6c0-3-0.8-3.8-3.7-3.7c-4.2,0.2-8.4,0.2-12.6,0c-2.6-0.1-3.3,0.8-3.3,3.3
		c0.2,6,0.1,12,0.1,18c0,22.6,0.1,45.3-0.1,67.9c0,3.2,0.4,5,4.3,4.6c3.9-0.4,7.8-0.3,11.7,0c3.1,0.2,3.7-1,3.6-3.8
		C796.3,149,796.4,134.8,796.4,120.5z"/>
	<path class="st0" d="M670.3,109.7c-2.1-4.8,1.6-10.6-2.4-12.6c-3.5-1.7-8.5-0.4-12.9-0.4c-0.4,0-0.9,0.1-1.3,0
		c-2.3-0.3-2.7,0.9-2.7,2.9c0,21.4,0.1,42.9,0,64.3c0,2.3,0.6,3.2,3,3.1c4.3-0.2,8.7-0.3,13,0c3,0.2,3.4-1,3.4-3.6
		c-0.1-12.3-0.1-24.6,0-36.9c0.1-7.6,5.7-13.2,13.2-13.8c3.3-0.3,7.9,1.8,9.6-0.7c1.6-2.3,0.4-6.6,0.5-10.1c0-0.4-0.1-0.9,0-1.3
		c0.8-4.1-1.7-4.8-4.9-4.9C679.6,95.7,673.7,100.3,670.3,109.7z"/>
	<path class="st0" d="M617.7,109.1c-0.3-0.1-0.7-0.3-1-0.4c0-3-0.1-5.9,0-8.9c0.1-2.3-0.5-3.2-3-3.1c-4.2,0.2-8.4,0.2-12.6,0
		c-2.5-0.1-2.9,1-2.9,3.1c0.1,21.4,0.1,42.8,0,64.2c0,2.4,0.8,3.1,3.1,3c4-0.2,8.1-0.3,12.1,0c3.1,0.2,4-0.7,4-3.9
		c-0.2-11.8-0.2-23.7,0-35.5c0.1-9,6-14.8,14.9-14.9c2.7,0,5.3,0.2,8.4,0.4c0-4-0.4-8.1,0.1-12.1c0.6-4.6-1.8-5.3-5.4-5.3
		C626.3,95.9,620.7,100.6,617.7,109.1z"/>
	<path class="st1" d="M164.6,112c4.4,7.6,8.8,15.1,11.1,23.8c6.5,24.7-2.4,51.9-21.8,65.8c-10.6,7.6-22.6,9.8-35.3,9.2
		c-20.8-0.9-37.1-9.5-47.7-27.8c-4.2-7.2-6.2-15.2-6.8-23.5c-0.4-5.8-0.1-11.6-0.1-18.1c4.8,4.3,8.9,8.3,13.9,11.4
		c33,20.4,76.8,1.7,84.7-36.2c0.3-1.4,1.1-2.9-0.6-4c0.3-0.6,0.6-1.1,0.9-1.7c-4.4-7.5-9-14.8-10.9-23.4c-5.5-24.2-1-45.8,17.5-63.3
		c11.7-11.1,26.5-13.1,41.9-12c25.4,1.8,44.8,18.5,50.1,43.2c1.7,7.9,1.4,16.1,1.1,24.8c-2.8-2.4-5.3-4.7-7.9-6.7
		c-32.8-25.4-80.5-8.2-89.6,32.3c-0.4,1.6-0.3,3.3-0.4,4.9C164.6,111.2,164.6,111.6,164.6,112z"/>
	<path class="st2" d="M164.6,112c0-0.4,0-0.8,0-1.3c22-15.4,45.4-18,69.5-6c18.6,9.2,28.2,24.7,28.6,45.8
		c0.2,12.1-0.6,24.2,0.8,36.4c1.7,14.7,6.1,28.2,15.8,39.7c0.2,0.3,0.3,0.7,0.7,1.6c-14-5.4-27.3-11.4-41.8-13.8
		c-14.3-2.3-28.6-4.1-43.9-3.4c18.6-19.5,24.6-41.4,14.2-65.9C200.4,126.1,185.2,115.2,164.6,112z"/>
	<path class="st2" d="M162.8,111c-0.3,0.6-0.6,1.1-0.9,1.7c-25.8,18.6-60.6,16.8-83.2-4.4c-9.7-9.1-14.6-20.5-14.9-34
		c-0.3-13.9,1.4-27.2,9.7-38.9c10.5-14.8,25-22.3,43-23.2c5.2-0.3,10.5,0,15.7,0c0.2,1.6-1.2,2.1-1.9,2.9
		c-15.2,16.3-20.2,35.3-13.7,56.5c6.6,21.4,21.5,34.3,43.5,39C161.1,110.7,162,110.8,162.8,111z"/>
	<path class="st3" d="M384.1,162.6c-5.2-9.7-10.6-19.4-15.9-29.1c-0.9-1.6-1.9-2.9,0.7-4.2c13-6.3,16.9-22.2,12.9-35.6
		c-3.8-12.7-15.1-20.3-30.4-20.5c-11.4-0.1-22.8,0.1-34.2-0.1c-3.4-0.1-4.5,0.7-4.5,4.3c0.2,24.7,0,49.4,0.1,74.1
		c0,5-2.3,12.1,1,14.5c3.4,2.5,10,0.6,15.3,0.8c2.3,0.1,3.1-0.6,3.1-3c-0.1-6.6,0-13.2,0-19.8c0-10.6,0-10.5,10.4-10.7
		c3.3-0.1,5,0.8,6.5,3.8c4.5,9.1,9.5,17.9,14.3,26.9c0.8,1.4,1.3,2.8,3.5,2.7c6.2-0.2,12.5-0.1,18.8-0.1
		C386,165,384.8,163.9,384.1,162.6z M363.3,104.4c-0.3,7.1-4,11.5-10.7,13c-5.9,1.4-11.9,0.6-17.9,0.8c-2.2,0.1-2.4-1.2-2.4-2.9
		c0-3.9,0-7.8,0-11.7c0-3.9,0-7.8,0-11.7c0-1.2,0-2.6,1.7-2.5c6.6,0.3,13.2-1,19.7,0.9C360,92.2,363.6,97.5,363.3,104.4z"/>
	<path class="st4" d="M1130.8,77.4c0-3.4-0.9-4.4-4.3-4.1c-3.6,0.3-7.2,0.3-10.8,0c-3.3-0.3-4.6,0.6-4.5,4.3
		c0.3,9.1,0.1,18.3,0.1,27.4c0,1,0.7,2.4-0.7,3.3c-2.2-3.3-4.2-6.5-7.6-8.7c-11-7.3-27.1-3.1-34.8,9c-4.5,7.1-5.7,15-5.8,23.1
		c-0.1,8.6,1.3,16.9,6,24.5c9.3,15.2,34,17,41.8,0.9c0.2-0.3,0.6-0.5,1.3-1c0.1,0.9,0.3,1.4,0.3,1.9c0.5,9.1,0.5,9.1,9.5,9.1
		c9.5,0,9.5,0,9.5-9.6C1130.7,130.7,1130.6,104,1130.8,77.4z M1110.2,142.7c-2.4,6.5-7.2,10.3-13.2,10.4
		c-6.1,0.1-11.2-3.8-13.5-10.5c-2.1-6.4-2.3-12.9-0.5-19.4c2.3-8,7.3-12.2,14.1-12c6.7,0.2,11.9,4.8,13.8,12.5
		c0.7,2.7,0.8,5.6,1.1,8.2C1111.6,135.7,1111.5,139.3,1110.2,142.7z"/>
	<path class="st4" d="M885.3,105.8c-1,0-2.1-0.1-3.1,0c-4.4,0.6-6.8-0.5-8.7-5.3c-5.4-13.8-26.8-15.1-36.3-2.7
		c-8.1,10.6-8.8,32.2-1.2,43.4c5.1,7.5,12.3,10.5,21.2,9.7c8.7-0.8,14.9-4.9,17.5-13.5c0.6-1.9,1.8-2.1,3.4-2c4.8,0,9.6,0.2,14.4,0
		c2.4-0.1,2.6,0.7,2.2,2.8c-2.7,12.4-9.9,21.4-21.4,26.5c-18.8,8.4-45.3,3.9-56.5-18.2c-7-13.8-7.5-28.4-3.5-43.2
		c2.9-10.5,8.7-18.9,18-24.7c19.6-12.3,48.1-6.4,59,12.3c2.3,3.9,3.7,8.1,4.4,12.5c0.3,2-0.1,2.7-2.1,2.6
		C890.1,105.7,887.7,105.8,885.3,105.8z"/>
	<path class="st4" d="M1177.3,148.5c2.6-8.9,5.2-17.9,7.7-26.8c2.1-7.3,4.3-14.5,6.2-21.9c0.6-2.4,1.5-3.2,3.9-3.1
		c4.5,0.2,9,0.3,13.5,0.1c3.1-0.1,3.8,0.5,2.7,3.7c-5.7,15.7-11.1,31.4-16.6,47.1c-3.2,9.1-6.2,18.3-9.6,27.4
		c-6.3,16.7-18.2,20.4-35,17.5c-2.6-0.4-3.3-1.4-2.3-3.9c0.7-1.6,1.1-3.4,1.5-5.1c0.9-4.2,2.1-6.6,7.6-5.4
		c6.1,1.3,10.9-5.8,8.8-11.9c-7.6-21.8-15.1-43.6-22.8-65.3c-1.2-3.4-0.8-4.4,3-4.1c4,0.3,8.1,0.2,12.1,0c2.9-0.2,4.1,0.7,4.9,3.6
		c4,14.8,8.3,29.5,12.5,44.2c0.4,1.3,0.8,2.6,1.2,3.8C1176.7,148.4,1177,148.5,1177.3,148.5z"/>
	<path class="st4" d="M969,120.2c-0.2-11.5-5.8-18.7-16.7-22.2c-8.3-2.7-16.8-2.8-25.2-0.3c-9.4,2.8-15.8,8.6-18.3,18.5
		c5.3,1.7,10.8,0.9,16.1,1.9c1.4,0.3,1.6-0.8,2.2-1.7c3.7-5.6,9.6-7.7,16-5.9c4.1,1.1,6.7,4.8,6.3,9.1c-0.3,4.3-3.7,4.5-6.8,5
		c-2.2,0.3-4.4,0.6-6.7,0.9c-6.5,1-13.1,1.5-19.1,4.3c-7.8,3.7-11.1,10-10.8,18.4c0.3,8.2,3.7,14.3,11.4,17.7
		c11.8,5.2,23.4,2.4,33.2-8.9c0,2.6,0.2,4.3,0,5.9c-0.4,3.1,0.6,4.3,3.9,4c3.7-0.3,7.5-0.2,11.2,0c2.5,0.1,3.3-0.6,3.3-3.2
		C969,149.3,969.2,134.7,969,120.2z M930.4,154.5c-3.5-1.2-5.7-3.4-5.9-7c-0.2-3.6,1.4-6.3,4.8-7.9c6.1-3,13-2.7,19.5-4.5
		c2.3-0.6,0.2,2.9,1.2,3.7C949.9,151,940.7,158.1,930.4,154.5z"/>
	<path class="st4" d="M441.4,147.6c-4,6.3-10,7.6-16.8,6.2c-7-1.5-10.5-6.1-11.9-12.9c-0.6-3-0.1-3.9,3.1-3.9
		c11.5,0.2,23.1,0.1,34.6,0.1c10.4,0,10.3,0,9.7-10.3c-1.6-24.5-22.8-34.7-42.6-29.3c-15.2,4.2-22.2,15.4-23.8,30.2
		c-1.8,17.1,5,34.9,24.2,39.6c9,2.2,17.8,1.8,26.4-1.8c8-3.3,13.5-9.1,15.7-18.2c-5.3-0.4-10.2-0.8-15.1-1.1
		C443.4,146.1,442.3,146,441.4,147.6z M412.5,122.9c0.8-6.2,7-12,13.7-12.6c7.2-0.6,13.8,3.8,15.4,10.2c0.8,3.1,0.5,5.1-3.7,4.7
		c-3.5-0.4-7.1-0.1-10.7-0.1c-4.2,0-8.4,0-12.5,0C413.3,125.1,412.3,125,412.5,122.9z"/>
	<path class="st4" d="M761.3,118.9c0-9.4-4.6-15.8-13.1-19.6c-8.5-3.8-17.4-4.3-26.4-2.3c-9.1,2-16.1,7-19.7,16
		c-0.9,2.3-0.9,3.8,2.3,3.9c4.2,0.1,8.4,0.6,12.5,1.1c1.3,0.1,1.9-0.3,2.4-1.3c3.3-6.6,9.2-7.1,15.4-6.4c4.3,0.5,7.7,4.6,7.4,8.8
		c-0.3,4.3-3.6,4.9-6.9,5.5c-7,1.3-14.3,1.4-21.2,3.5c-12.7,3.7-18.2,13.6-14.5,26.3c2.7,9.3,13.4,15.2,24.9,14
		c7.7-0.8,13.8-4.1,18.8-10.4c0,1.7,0.1,3.5,0,5.2c-0.3,2.7,0.4,4.1,3.6,3.8c3.7-0.3,7.5-0.3,11.2,0c3,0.2,3.4-1,3.4-3.6
		C761.3,148.6,761.4,133.8,761.3,118.9z M742.3,142.9c-0.7,9.8-13.5,16-21.8,10.6c-4.7-3.1-4.8-9.5-0.3-12.9c2.7-2.1,6-2.5,9.2-3.2
		c2.2-0.5,4.4-0.7,6.6-1.1c2-0.4,4-0.9,6.3-1.5C742.3,137.6,742.5,140.2,742.3,142.9z"/>
	<path class="st4" d="M582.6,147c-4.3-0.2-8.7-0.5-13-0.9c-1.8-0.2-2.9,0.5-4,2.1c-3.7,5.4-10,7.2-17.2,5.2
		c-6.3-1.7-10.5-6.7-11.2-13c-0.3-2.7,0.5-3.6,3.3-3.5c1.7,0.1,3.4,0.1,5.1,0.1c5.1,0,10.1,0,15.2,0c5.4,0,10.8,0,16.2,0
		c8,0,8.1,0,7.9-8c-0.7-27.1-22.8-36.8-42.7-31.7c-28.2,7.2-28.8,44.8-16.5,59.5c11.3,13.4,35.8,15.9,49.8,5c4-3.2,6.8-7.1,8.4-11.9
		C584.2,148.8,585.1,147.1,582.6,147z M537.4,121.9c1.4-6.4,7.4-11.3,14.2-11.6c7.2-0.3,12.7,3.7,14.8,10.4c1,3.2,0.7,4.8-3.2,4.5
		c-3.9-0.2-7.8-0.1-11.7-0.1c-3.9,0-7.8-0.1-11.7,0C537.2,125.3,536.9,124,537.4,121.9z"/>
	<path class="st3" d="M1003.7,109.2c4.9-10.3,13.5-14.4,24.2-13c13.2,1.6,20.6,10,21.1,24.2c0.5,14.7,0.1,29.4,0.2,44
		c0,1.9-0.4,2.7-2.5,2.6c-5.4-0.2-12.1,1.7-15.7-0.9c-3.2-2.3-0.8-9.5-1-14.5c-0.3-9.6,0.6-19.2-0.5-28.7
		c-0.8-6.9-5.2-10.8-11.9-10.9c-7.1-0.1-12.5,3.9-13.4,10.6c-1.6,11.2-0.5,22.4-0.7,33.6c-0.2,10.8,0,10.8-11,10.8
		c-8.2,0-8.2,0-8.2-8.1c0-19.3,0.1-38.6-0.1-58c0-3.2,0.5-4.6,4.1-4.3c3.9,0.4,7.8,0.2,11.7,0c2-0.1,2.6,0.7,2.6,2.6
		c-0.1,3.2,0,6.4,0,9.7C1003,109,1003.4,109.1,1003.7,109.2z"/>
	<path class="st3" d="M477.8,139.2c0-7.9-0.2-15.9,0.1-23.8c0.1-3.2-0.6-4.5-4.1-4.3c-5.9,0.3-5.9,0-5.9-5.8c0-0.4,0-0.9,0-1.3
		c0-7,0-7.2,6.8-7.1c3.9,0.1,3.1-2.2,3.1-4.3c0.1-12.2,4.8-19.2,14.8-22.3c6.5-2,13-1.4,19.5,0.1c2,0.4,2.3,1.3,1.8,3
		c-0.4,1.4-0.6,2.9-1,4.4c-0.5,2.2-0.6,4.6-1.8,6.4c-1.6,2.4-4,0-6.1,0.1c-5.8,0.2-9.9,5.7-8.1,11.3c0.3,0.9,0.7,1.2,1.5,1.3
		c0.7,0,1.5,0,2.2,0c11.6,0.2,11.6,0.2,10.4,12.2c-0.2,1.7-0.6,2.5-2.4,2.3c-0.4,0-0.9,0-1.3,0c-10.5,0.1-10.5,0.1-10.5,10.9
		c0,13.6-0.1,27.2,0.1,40.9c0,2.9-0.4,4.5-3.8,4.1c-5-0.5-11.8,2.1-14.6-1c-2.5-2.7-0.7-9.4-0.8-14.3
		C477.8,147.6,477.8,143.4,477.8,139.2z"/>
	<path class="st4" d="M796.4,120.5c0,14.2-0.1,28.5,0.1,42.7c0,2.8-0.5,4-3.6,3.8c-3.9-0.3-7.8-0.4-11.7,0c-3.9,0.4-4.3-1.4-4.3-4.6
		c0.1-22.6,0.1-45.3,0.1-67.9c0-6,0.1-12-0.1-18c-0.1-2.5,0.7-3.4,3.3-3.3c4.2,0.2,8.4,0.2,12.6,0c2.9-0.2,3.8,0.7,3.7,3.7
		C796.3,91.5,796.4,106,796.4,120.5z"/>
	<path class="st3" d="M670.3,109.7c3.3-9.4,9.2-14,18.4-13.9c3.2,0,5.7,0.8,4.9,4.9c-0.1,0.4,0,0.9,0,1.3c0,3.4,1.2,7.8-0.5,10.1
		c-1.7,2.4-6.3,0.4-9.6,0.7c-7.5,0.6-13.1,6.2-13.2,13.8c-0.1,12.3-0.1,24.6,0,36.9c0,2.6-0.4,3.8-3.4,3.6c-4.3-0.3-8.7-0.2-13,0
		c-2.4,0.1-3-0.8-3-3.1c0.1-21.4,0.1-42.9,0-64.3c0-2,0.4-3.2,2.7-2.9c0.4,0.1,0.9,0,1.3,0c4.3,0,9.4-1.3,12.9,0.4
		C672,99.1,668.3,104.9,670.3,109.7z"/>
	<path class="st3" d="M617.7,109.1c3-8.4,8.6-13.2,17.7-13.3c3.6,0,6,0.7,5.4,5.3c-0.5,4-0.1,8-0.1,12.1c-3-0.1-5.7-0.4-8.4-0.4
		c-8.9,0.1-14.9,5.9-14.9,14.9c-0.1,11.8-0.2,23.7,0,35.5c0.1,3.2-0.8,4.1-4,3.9c-4-0.3-8.1-0.2-12.1,0c-2.3,0.1-3.1-0.5-3.1-3
		c0.1-21.4,0.1-42.8,0-64.2c0-2.2,0.4-3.3,2.9-3.1c4.2,0.2,8.4,0.2,12.6,0c2.4-0.1,3.1,0.8,3,3.1c-0.2,2.9,0,5.9,0,8.9
		C617,108.8,617.4,108.9,617.7,109.1z"/>
</g>
</svg>
