<?xml version="1.0" encoding="utf-8"?>
<!-- Generator: Adobe Illustrator 24.1.2, SVG Export Plug-In . SVG Version: 6.00 Build 0)  -->
<svg version="1.1" id="Layer_1" xmlns="http://www.w3.org/2000/svg" xmlns:xlink="http://www.w3.org/1999/xlink" x="0px" y="0px"
	 viewBox="0 0 1378 342" style="enable-background:new 0 0 1378 342;" xml:space="preserve">
<style type="text/css">
	.st0{fill:#636363;}
	.st1{fill:#AFAFAF;}
	.st2{fill:#4F4F4F;}
	.st3{fill:#505050;}
</style>
<path class="st0" d="M164,159c25.6-18.2,57.8-19.2,83.4-2c15.8,10.6,24.2,25.8,24.6,45c0.2,11.3-0.3,22.7,0.2,34
	c0.7,16.7,4.3,32.6,13.9,46.7c1.5,2.2,3.1,4.3,4.5,6.7c-15.1-5.3-29.8-12-45.7-14.6c-15.9-2.6-31.8-4.6-48.2-3.8
	c0.5-2.4,2.1-3.2,3.1-4.4c16.4-18.6,21.7-40.1,13.9-63.6c-7.9-23.6-25.1-37.4-49.6-41.9c-0.3-0.1-0.7,0-1,0c-0.8,1-2.1,0.4-3.1,0.8
	c-28.1,19.4-61.8,19-88.3-1.4C58.1,150,51.1,135.9,51,118.6c-0.1-9.5,0.2-19,3.4-28.1c8.5-24.2,30-39.8,56.2-40.5
	c5.2-0.1,10.3,0,15.5,0c0.3,0,0.5,0.3,0.9,0.5c-0.5,1.7-2,2.6-3.1,3.7c-32.4,34.1-16.6,91.2,28.8,103.8c2.7,0.7,5.2,2.4,8.2,1.7
	C161.7,158.9,163,159.5,164,159z"/>
<path class="st1" d="M164,159c-0.9,1-1.9,1.2-3.1,0.9c-2.2-5.4-6-9.9-8.2-15.3c-10.6-26-8.2-50.6,8.3-73.2
	c10-13.7,24.2-20.4,41.2-21.2c11.6-0.6,23.1,0.2,33.7,5.1c20.4,9.5,32.4,25.3,35.3,47.8c0.9,7.3,0.7,14.5,0.7,22.8
	c-3.7-2.8-6.2-5.7-9.2-7.9c-25.3-19.2-60.8-16.7-82.9,6c-8.2,8.4-13.6,18.4-16.2,29.9C163.1,155.6,162.4,157.4,164,159z"/>
<path class="st2" d="M974.5,153.9c-7.5,0-14.3,0-20.8,0c-1.6-1-1.5-2.4-2-3.6c-2.9-8.4-10.3-13.7-19.2-14.3
	c-16.8-1.2-24.8,9.9-27.6,20.2c-2.6,9.7-2.7,19.4,0.2,29.1c4.2,14.4,16.8,21.9,31.4,18.5c6.8-1.6,12-5.6,14.8-12.2
	c0.6-1.4,0.5-3,2.1-4.3c6.6,0,13.6,0,20.8,0c0.2,5-1.6,9.3-3.8,13.3c-7.3,13.4-18.6,20.8-33.8,22.7c-8.6,1-17,0.3-25.1-2.6
	c-13.1-4.9-22.1-14.2-26.6-27.3c-5.8-16.6-5.8-33.5,1.6-49.6c7.7-17,21.5-25.6,40.1-26.6c8.2-0.4,16.3,0.4,23.9,3.9
	C964.6,127.2,972.5,138.1,974.5,153.9z"/>
<path class="st2" d="M1254.9,249.4c0.9-5.4,2.5-10.4,4.4-15.1c1.8-0.6,3.3-0.1,4.7,0.1c8.2,1.2,13.9-5.6,11.2-13.4
	c-8.2-23.7-16.5-47.4-24.7-71.1c-0.6-1.7-1.6-3.3-1.2-5.5c7.1,0,14.2,0,21.6,0c5.4,19,10.8,38,16.2,57c0.4,0,0.8,0.1,1.2,0.1
	c5.5-19,10.9-38,16.4-57.1c7.5,0,14.6,0,21.6,0c0.8,1.9-0.2,3.2-0.7,4.5c-9.2,26.5-18.5,53-27.9,79.5c-1.9,5.4-4.2,10.5-8.2,14.7
	c-4.7,4.9-10.4,7.6-17.2,8C1266.6,251.4,1260.8,251.7,1254.9,249.4z"/>
<path class="st2" d="M1094.6,221.9c-6.8,0-13.3,0-20.2,0c0-25.9,0-51.5,0-77.6c6.3,0,12.6,0,19.1,0c1.6,4.2,0,8.8,1.1,13.1
	c1.8-0.2,2-1.6,2.5-2.5c5.2-9.3,16-12.9,25.2-11.6c14.3,2,22.5,10.1,23.3,25.5c0.9,17.4,0.2,34.9,0.2,52.8c-6.8,0-13.5,0-20.2,0
	c-1.3-1.7-0.8-3.6-0.8-5.3c0-12,0-24,0-36c0-2.5-0.2-5-0.6-7.5c-1.2-7.4-5.9-11.7-13.1-11.9c-7.7-0.2-13.6,4.1-15,11.1
	c-0.6,2.8-0.9,5.6-0.9,8.4c0.1,11.8,0,23.7,0,35.5C1095.2,217.9,1095.4,219.7,1094.6,221.9z"/>
<path class="st2" d="M532.6,144c5.1,0,9.9,0,14.9,0c0.9,5.3,0.3,10.3,0.5,15.4c-5,1.6-10.1-0.1-15.5,1.2c0,20.2,0,40.4,0,61.2
	c-7.3,0.5-14,0.2-21.3,0.2c0-20.6,0-40.8,0-60.9c-3.7-2.1-7.4-0.2-10.9-1.7c-0.6-4.8-0.4-9.7-0.1-14.8c3.4-1.3,6.8,0,10.6-1.1
	c0.2-10.5,0.7-21.4,12.1-27.1c9.2-4.6,18.6-3.9,28.1-1.2c0,4.3-1.5,11.3-3.5,15.6c-4.2-0.5-9.1-2.2-12.6,1.5
	C532,135.2,532,139.3,532.6,144z"/>
<path class="st3" d="M864.6,221.9c-7,0-13.6,0-20.2,0c-1.3-3.6-1.6-96.9-0.4-103.6c6.7,0,13.4,0,20.6,0
	C864.6,152.7,864.6,187,864.6,221.9z"/>
<path class="st2" d="M665.3,221.9c-6.6,0-13.1,0-19.5,0c-1.2-3.8-1.4-71.7-0.3-77.6c6.2,0,12.4,0,18.9,0c1.9,4-0.1,8.5,1.6,13.6
	c5-11.8,13-16.9,25.6-14c0,6.1,0,12,0,17.9c-2.9,0-5.7,0-8.5,0c-10.4,0-17,6.3-17.1,16.7c-0.1,12.5,0,25-0.1,37.5
	C666,217.8,666.4,219.7,665.3,221.9z"/>
<path class="st2" d="M704.3,222c-1-5.3-1-73.2,0-77.6c6.3,0,12.7,0,19.3,0c0.9,4.3,0,8.5,0.7,13.2c2.8-2.9,3.5-6.7,6.2-9
	c2.7-2.4,5.6-4.1,9.1-4.9c3.7-0.8,7.2-1.1,10.9,0.8c0,5.7,0,11.5,0,17.4c-2.8,0-5.6,0-8.4,0c-10.7-0.1-17.2,6.2-17.2,16.9
	c0,12.3,0,24.6,0,37c0,1.8,0,3.6,0,6.2C718,222.3,711.3,222.1,704.3,222z"/>
<path class="st1" d="M172.8,180c-1.1-3.7-2.9-7-4.7-10.4c-1.6-2.9-4-5.3-5-8.5c-1.1-0.1-2.3-0.2-3.1,0.8c1.5,1.6,0.9,3.3,0.5,5.1
	c-1,4.5-2.6,8.8-4.4,13c-0.6,1.2-1.3,2.3-1.9,3.5c-11.4,19.6-28.5,30.6-50.9,32.3c-18.1,1.3-34-4.9-47.4-17.4
	c-1.3-1.2-2.2-3.2-4.8-3.4c0.1,8.6-0.6,16.9,0.9,25.1c4.1,22.7,16.7,38.4,38.2,46.8c9.6,3.8,19.8,4.3,30,4c9.6-0.3,18.8-2.6,27-7.7
	c21.6-13.4,29.9-34,30.5-58.3C177.9,196.4,176,188,172.8,180z"/>
<path class="st2" d="M387.7,182c1.2-0.7,1.7-1.2,2.3-1.4c20.6-9.9,20.6-42.2,4.8-54.5c-7.3-5.7-15.8-7.8-24.7-7.9
	c-12.5-0.2-25-0.1-37.5,0c-1.4,0-3-0.4-4.3,0.8c0,34.2,0,68.4,0,102.9c7.1,0,13.8,0,20.8,0c0.8-12.3-0.3-24.2,0.7-36.5
	c5.6-0.1,10.9-0.3,16.2,0.1c6.7,12.4,13.2,24.5,19.6,36.4c8.1,0,15.6,0,23.9,0C401.9,208.2,394.9,195.3,387.7,182z M371.6,167
	c-7.1,1.6-14.2,0.6-22,0.9c0-10.9,0-21.2,0-31.9c7.7,0.2,15.2-1,22.5,0.8c7.7,1.9,11.6,7.4,11.5,15.3
	C383.6,160.2,379.4,165.3,371.6,167z"/>
<path class="st2" d="M1215,118.3c0,12.8,0,25.3,0,37.9c-2.1-0.1-2.2-1.5-2.8-2.4c-3.4-5-7.8-8.6-13.9-9.9
	c-13.1-2.7-25.5,2.9-32.2,14.5c-4.7,8.1-5.6,16.9-5.5,26c0.1,9.5,1.9,18.4,7.3,26.5c10.2,15.5,36.8,17.5,45.4,0.4
	c0.3-0.6,0.8-1,1.7-0.6c1,3.5-0.4,7.3,1.1,11c6.5,0,12.9,0,20,0c0-34.7,0-69,0-103.5C1229,118.3,1222.3,118.3,1215,118.3z
	 M1211.7,199.1c-5.6,10.3-19.8,9.9-25.8-0.2c-2.9-4.9-3.3-10.4-3.8-15.7c0.5-5.4,1.1-10.7,3.9-15.5c5.9-10.1,20.3-10.3,25.8-0.1
	C1217.4,177.9,1217.3,188.8,1211.7,199.1z"/>
<path class="st2" d="M1056.8,168.6c-0.2-10.8-5.9-18-15.8-22.2c-4.3-1.8-8.9-2.7-13.6-3.1c-8.9-0.6-17.6,0.6-25.4,5.4
	c-6.3,3.9-10.4,9.4-11.9,16.8c6.6,1.8,12.9,1.2,19.2,2c3-6.6,8.1-9,15-8.7c8.1,0.4,11.5,4.4,10.3,13.1c-3.8,3.5-8.7,3.3-13.2,3.9
	c-7.7,1-15.5,1.7-22.8,5c-16.1,7.3-13.6,29.5-4.6,36.7c10,8,31.2,9.1,40-3.8c0.5-0.7,0.9-1.4,2.1-1.6c1.4,2.9-0.1,6.2,1.4,9.6
	c6.3,0.1,12.6,0.3,18.8-0.1c0.4-0.8,0.6-1.1,0.6-1.4C1056.8,203.2,1057,185.9,1056.8,168.6z M1034.8,198.5c-2.4,9.3-16.7,14-24.3,8
	c-4.2-3.3-4.2-10.1,0.1-13.5c1.8-1.5,4-2.4,6.3-2.9c6-1.3,12.1-1.9,18.3-3.8C1036.1,191,1035.8,194.8,1034.8,198.5z"/>
<path class="st2" d="M491.5,188.8c0.3-10.9-0.3-20.7-5.8-29.6c-6.3-10.2-15.9-14.9-27.4-15.9c-15.4-1.3-30.8,5.3-37.6,21.5
	c-5,12.1-5,24.4-0.5,36.5c3.3,8.8,9.3,15.4,18.1,19c12.2,5,24.4,4.8,36.4-0.4c8.5-3.7,14.2-10.1,16.1-19.7c-3.5-0.3-6.7-0.4-9.8-0.8
	c-3.1-0.4-6.3-0.8-9.4-0.3c-6.1,8.3-14.3,10.9-23.1,7.3c-6.7-2.8-10.8-10.1-9.5-17.7C456.2,188.8,473.5,188.8,491.5,188.8z
	 M438.6,175.6c1-10.7,8.3-17.1,17.7-16.6c8.8,0.5,14.8,6.8,14.6,16.3C460.3,175.9,449.6,175.6,438.6,175.6z"/>
<path class="st2" d="M826.1,218c0-16.5,0-33,0-49.4c0-8.9-3.8-16-11.7-20.1c-14.4-7.4-29.1-7.6-43.3,0.6
	c-6.1,3.6-10.3,9.1-11.3,16.6c6.4,1.8,12.6,1,18.8,2c0.6-1,1.1-1.8,1.7-2.6c4.1-6.1,13.7-8.4,20-4.7c3.1,1.8,5.3,6.1,4.7,9.3
	c-0.7,3.9-3.8,4.7-7,5.2c-2.6,0.4-5.2,0.9-7.9,1.2c-6.1,0.7-12.2,1.3-18.1,3.4c-9.2,3.2-14.9,9.2-15.3,19.3
	c-0.3,8.8,1.9,16.5,10.3,21.2c10.9,6,29.4,5.9,37.5-7.3c0.3-0.4,0.7-0.7,1.4-0.4c1.1,3.1-0.6,6.5,1,9.5c6.5,0,12.7,0,18.7,0
	C826.2,220.3,826.1,219.1,826.1,218z M804.8,196.3c-1.3,10.2-14.8,16.4-23.7,11c-5.3-3.2-5.7-10.5-0.8-14.4c2.9-2.3,6.4-2.8,9.7-3.6
	c2.4-0.5,4.9-0.8,7.4-1.3c2.3-0.4,4.5-1,7.5-1.6C804.9,190,805.2,193.2,804.8,196.3z"/>
<path class="st2" d="M629.7,188.7c1-8.8,0.4-16.8-2.8-24.4c-5.6-13.7-16.6-20.1-30.8-21c-15.8-1-29.9,5.8-36.7,21.3
	c-4,9.1-4.3,18.7-2.8,28.4c1,6.7,3.6,12.7,7.9,18.1c13.3,16.8,44.1,16.2,57.3,3.2c3.8-3.8,6.7-8.2,7.5-13.9c-5-0.5-9.8-0.9-14.6-1.3
	c-1.5-0.1-3-0.2-4.4,0.3c-6.3,8.1-14,10.6-22.7,7.4c-6.8-2.6-10.9-9.4-10.2-18C594.9,188.7,612.2,188.7,629.7,188.7z M594.5,159
	c8.5,0.2,16.7,8.3,14.9,16.4c-10.5,0-21,0-31.9,0C576.4,167.1,584.7,158.7,594.5,159z"/>
</svg>
