<svg width="640" height="162" viewBox="0 0 640 162" fill="none" xmlns="http://www.w3.org/2000/svg">
<path fill-rule="evenodd" clip-rule="evenodd" d="M56.457 66.9658C54.8373 68.5854 51.3659 72.0563 47.6542 75.7679C45.034 78.3881 42.2944 81.1284 40 83.4221C53.5846 92.8857 65.827 93.6315 71.7807 87.6785C74.15 85.3085 78.09 81.3686 82.2999 77.158C86.202 73.2559 93.3825 66.0761 100.399 59.0601C100.399 59.0601 90.9952 61.0613 80.0188 61.0613C70.2062 61.0613 60.5037 62.9191 56.457 66.9658Z" fill="black" fill-opacity="0.4"/>
<path fill-rule="evenodd" clip-rule="evenodd" d="M101.715 82.7575C101.715 71.7811 103.716 62.3779 103.716 62.3779C96.7002 69.3938 89.5197 76.5743 85.6176 80.4763L75.0977 90.9962C69.1441 96.9492 69.8899 109.192 79.3541 122.776L87.0083 115.122L95.8104 106.32C99.8572 102.273 101.715 92.5701 101.715 82.7575Z" fill="black" fill-opacity="0.4"/>
<path fill-rule="evenodd" clip-rule="evenodd" d="M92.997 42.5983C80.2563 42.5983 67.6589 45.0101 62.404 50.2651C58.8164 53.852 48.2335 64.435 41.0371 71.6314C43.2751 73.1913 45.4859 74.5674 47.6542 75.7677C51.3659 72.056 54.8367 68.5852 56.457 66.9656C60.503 62.9189 70.2055 61.061 80.0181 61.061C90.9945 61.061 100.399 59.0599 100.399 59.0599C110.085 49.3734 119.459 40 119.459 40C119.459 40 107.249 42.5983 92.997 42.5983Z" fill="black" fill-opacity="0.8"/>
<path fill-rule="evenodd" clip-rule="evenodd" d="M103.716 62.378C103.716 62.378 101.715 71.7812 101.715 82.7576C101.715 92.5702 99.8583 102.273 95.8109 106.32L87.0088 115.122C88.2091 117.291 89.5852 119.501 91.1451 121.74C98.3415 114.542 108.924 103.96 112.512 100.373C117.766 95.1181 120.179 82.5194 120.179 69.7788C120.179 55.5273 122.777 43.3174 122.777 43.3174C122.777 43.3174 113.404 52.6915 103.716 62.378Z" fill="black" fill-opacity="0.8"/>
<path fill-rule="evenodd" clip-rule="evenodd" d="M181.27 118.163C174.194 118.163 167.852 116.532 162.244 113.268L164.888 104.642C167.398 106.034 170.129 107.157 173.079 108.012C176.03 108.869 178.907 109.297 181.711 109.297C185.156 109.297 187.759 108.554 189.522 107.07C191.285 105.585 192.166 103.453 192.166 100.671C192.166 96.9797 189.709 94.4258 184.795 93.0079C184.448 92.9018 183.473 92.6131 181.871 92.1454C180.269 91.6776 178.767 91.2224 177.365 90.7812C175.963 90.3393 174.955 89.9989 174.341 89.7581C166.463 86.9766 162.525 81.788 162.525 74.1915C162.525 68.8695 164.414 64.7638 168.192 61.8748C171.97 58.9859 176.985 57.5415 183.233 57.5415C190.309 57.5415 196.411 58.9999 201.538 61.9147L198.254 69.8588C193.02 67.5054 188.16 66.3276 183.673 66.3276C180.443 66.3276 178.006 66.8963 176.364 68.0329C174.721 69.1701 173.847 71.0624 173.74 73.7098C173.74 76.9736 175.356 79.1002 178.587 80.0894C179.228 80.3296 180.803 80.8518 183.313 81.654C185.823 82.4568 187.452 82.9784 188.2 83.2185C193.567 84.9835 197.405 87.1777 199.716 89.7979C202.025 92.4194 203.18 96.0707 203.18 100.751C203.18 106.342 201.204 110.641 197.253 113.65C193.3 116.659 187.973 118.163 181.27 118.163Z" fill="black" fill-opacity="0.8"/>
<path fill-rule="evenodd" clip-rule="evenodd" d="M230.698 118.203C223.969 118.203 218.728 116.197 214.977 112.185C211.224 108.173 209.349 102.436 209.349 94.9737C209.349 87.752 211.318 82.1494 215.257 78.1637C219.196 74.1787 224.382 72.1855 230.818 72.1855C235.972 72.1855 240.324 73.2956 243.876 75.5156L241.393 83.0179C237.761 81.119 234.383 80.1695 231.259 80.1695C227.707 80.1695 224.91 81.4401 222.868 83.9807C220.825 86.5226 219.804 90.2263 219.804 95.0944C219.804 100.015 220.811 103.76 222.828 106.328C224.844 108.895 227.695 110.179 231.379 110.179C235.224 110.179 238.923 109.042 242.474 106.769L243.476 114.753C241.633 115.983 239.724 116.866 237.748 117.401C235.771 117.935 233.422 118.203 230.698 118.203Z" fill="black" fill-opacity="0.8"/>
<path fill-rule="evenodd" clip-rule="evenodd" d="M266.267 110.741C268.696 110.741 270.813 110.159 272.616 108.995C274.418 107.832 275.706 106.422 276.481 104.763V96.2575C276.4 96.2575 275.7 96.3113 274.378 96.4181C273.056 96.5249 272.342 96.5787 272.235 96.5787C267.99 96.9536 264.878 97.7557 262.902 98.9859C260.926 100.216 259.939 102.195 259.939 104.923C259.939 106.796 260.485 108.234 261.581 109.236C262.675 110.239 264.237 110.741 266.267 110.741ZM263.423 118.203C259.337 118.203 256.033 117.074 253.509 114.813C250.986 112.553 249.724 109.297 249.724 105.044C249.724 100.471 251.219 97.0803 254.211 94.8735C257.201 92.6673 261.714 91.2693 267.749 90.6814C268.576 90.5739 269.471 90.4671 270.433 90.3596C271.394 90.2535 272.475 90.1466 273.677 90.0392C274.879 89.933 275.826 89.8381 276.521 89.7585V87.4309C276.521 84.757 275.906 82.8109 274.678 81.594C273.45 80.3772 271.58 79.7681 269.071 79.7681C265.492 79.7681 261.073 80.7713 255.812 82.7771C255.786 82.6968 255.345 81.4799 254.491 79.1265C253.636 76.773 253.195 75.5694 253.169 75.5156C258.349 73.2956 263.957 72.1855 269.992 72.1855C275.92 72.1855 280.233 73.476 282.93 76.0571C285.627 78.6388 286.975 82.8175 286.975 88.5947V117.361H279.205C279.178 117.254 278.884 116.358 278.324 114.672C277.762 112.988 277.482 112.092 277.482 111.984C275.293 114.125 273.15 115.695 271.054 116.699C268.957 117.701 266.414 118.203 263.423 118.203Z" fill="black" fill-opacity="0.8"/>
<path fill-rule="evenodd" clip-rule="evenodd" d="M312.971 117.962C309.953 117.962 307.45 117.608 305.461 116.899C303.471 116.191 301.902 115.06 300.754 113.509C299.606 111.958 298.805 110.113 298.351 107.972C297.896 105.833 297.67 103.172 297.67 99.9887V61.1955C297.67 58.8898 299.54 57.02 301.846 57.02H308.165V99.7877C308.165 103.747 308.631 106.427 309.566 107.832C310.5 109.237 312.316 109.938 315.014 109.938C316.349 109.938 318.044 109.792 320.101 109.497L320.381 117C320.355 117 320.027 117.066 319.399 117.2C318.772 117.334 318.171 117.448 317.598 117.541C317.023 117.635 316.296 117.728 315.415 117.822C314.533 117.915 313.718 117.962 312.971 117.962Z" fill="black" fill-opacity="0.8"/>
<path fill-rule="evenodd" clip-rule="evenodd" d="M334.04 90.8409H353.267C353.267 87.2573 352.451 84.5018 350.823 82.5763C349.194 80.6508 346.937 79.688 344.054 79.688C341.356 79.688 339.08 80.6242 337.224 82.4966C335.368 84.3684 334.306 87.1505 334.04 90.8409ZM345.695 118.203C338.619 118.203 333.112 116.164 329.173 112.085C325.234 108.006 323.265 102.369 323.265 95.1736C323.265 88.167 325.121 82.5902 328.832 78.4439C332.544 74.2984 337.604 72.2123 344.013 72.1851C350.075 72.1851 354.781 74.0847 358.133 77.8826C361.483 81.6805 363.16 86.7225 363.16 93.0079C363.16 93.4624 363.153 94.1983 363.14 95.2141C363.126 96.2312 363.12 96.9797 363.12 97.4614H333.84C333.946 101.581 335.074 104.77 337.224 107.029C339.373 109.29 342.331 110.42 346.097 110.42C350.903 110.42 355.522 109.162 359.955 106.648L361.438 114.111C357.031 116.839 351.784 118.203 345.695 118.203Z" fill="black" fill-opacity="0.8"/>
<path fill-rule="evenodd" clip-rule="evenodd" d="M374.495 117.361V80.249H367.526V73.2683H374.495V70.8213C374.495 68.1467 374.742 65.8602 375.236 63.9606C375.73 62.0616 376.538 60.4367 377.66 59.0858C378.781 57.7356 380.284 56.7324 382.166 56.0768C384.049 55.4219 386.365 55.0942 389.115 55.0942C391.786 55.0942 394.509 55.3489 397.287 55.8565L396.365 63.6799C394.176 63.386 392.453 63.2387 391.198 63.2387C388.955 63.2387 387.359 63.7801 386.412 64.863C385.464 65.9465 384.989 67.7459 384.989 70.2593V73.2683H395.324V80.249H384.989V117.361H374.495Z" fill="black" fill-opacity="0.8"/>
<path fill-rule="evenodd" clip-rule="evenodd" d="M433.897 113.89C430.399 116.766 425.792 118.203 420.078 118.203C414.364 118.203 409.764 116.773 406.279 113.91C402.794 111.049 401.052 106.85 401.052 101.313V73.2686H411.586V100.911C411.586 104.201 412.273 106.582 413.649 108.052C415.025 109.524 417.207 110.259 420.198 110.259C423.135 110.259 425.278 109.531 426.627 108.072C427.975 106.615 428.65 104.228 428.65 100.911V73.2686H439.144V101.313C439.144 106.823 437.394 111.015 433.897 113.89Z" fill="black" fill-opacity="0.8"/>
<path fill-rule="evenodd" clip-rule="evenodd" d="M462.776 118.163C456.288 118.163 451.094 117.053 447.196 114.833L448.276 106.929C450.039 107.892 452.282 108.755 455.006 109.517C457.729 110.28 460.213 110.66 462.456 110.66C464.779 110.66 466.588 110.226 467.883 109.357C469.178 108.488 469.84 107.21 469.866 105.525C469.866 104.001 469.258 102.797 468.043 101.915C466.828 101.032 464.512 99.9347 461.094 98.6249C459.918 98.1969 459.158 97.9156 458.81 97.7816C454.752 96.2038 451.827 94.4456 450.039 92.5061C448.249 90.5674 447.355 87.9391 447.355 84.6222C447.355 80.6107 448.803 77.5354 451.701 75.395C454.598 73.2551 458.637 72.1855 463.818 72.1855C469.425 72.1855 474.352 73.2424 478.598 75.3544L475.994 82.6165C471.802 80.6644 467.809 79.6877 464.018 79.6877C461.908 79.6877 460.259 80.0421 459.071 80.7507C457.883 81.46 457.289 82.5362 457.289 83.98C457.289 85.3448 457.863 86.4085 459.011 87.1702C460.159 87.9319 462.402 88.9291 465.741 90.1592C465.847 90.1858 466.194 90.3065 466.782 90.5202C467.369 90.7345 467.823 90.9083 468.144 91.0417C472.175 92.5133 475.14 94.271 477.035 96.3172C478.932 98.3635 479.879 101.032 479.879 104.322C479.853 108.735 478.357 112.145 475.394 114.553C472.429 116.96 468.224 118.163 462.776 118.163Z" fill="black" fill-opacity="0.8"/>
<path fill-rule="evenodd" clip-rule="evenodd" d="M488.412 117.361H498.906V73.269H488.412V117.361ZM488.412 66.8495V62.0378C488.412 59.7321 490.281 57.8623 492.587 57.8623H498.946V66.8495H488.412Z" fill="black" fill-opacity="0.8"/>
<path fill-rule="evenodd" clip-rule="evenodd" d="M529.027 110.219C532.579 110.219 535.249 108.922 537.038 106.328C538.827 103.734 539.722 100.015 539.722 95.1736C539.722 90.2796 538.827 86.548 537.038 83.9802C535.249 81.4131 532.552 80.1293 528.947 80.1293C525.395 80.1293 522.718 81.4198 520.916 84.0002C519.114 86.5825 518.212 90.3194 518.212 95.2141C518.212 100.029 519.119 103.734 520.936 106.328C522.752 108.922 525.448 110.219 529.027 110.219ZM528.746 118.203C522.231 118.203 517.104 116.091 513.366 111.864C509.627 107.638 507.758 102.075 507.758 95.1736C507.758 88.0602 509.627 82.4495 513.366 78.3438C517.104 74.238 522.378 72.1851 529.187 72.1851C535.757 72.1851 540.903 74.2784 544.629 78.4638C548.354 82.6506 550.216 88.2201 550.216 95.1736C550.216 102.209 548.334 107.806 544.568 111.964C540.803 116.123 535.529 118.203 528.746 118.203Z" fill="black" fill-opacity="0.8"/>
<path fill-rule="evenodd" clip-rule="evenodd" d="M558.788 117.361V73.2683H567.239L568.401 78.8451C572.887 74.4056 577.867 72.1855 583.341 72.1855C588.468 72.1855 592.307 73.6638 594.857 76.6184C597.407 79.5743 598.683 83.8605 598.683 89.4771V117.361H588.149V90.761C588.121 87.204 587.547 84.542 586.425 82.777C585.305 81.0114 583.288 80.1291 580.378 80.1291C578.108 80.1291 576.032 80.7109 574.149 81.874C572.266 83.0378 570.898 84.5022 570.043 86.2677C569.536 88.3531 569.282 91.5633 569.282 95.896V117.361H558.788Z" fill="black" fill-opacity="0.8"/>
</svg>
