<?xml version="1.0" encoding="utf-8"?>
<!-- Generator: Adobe Illustrator 24.1.2, SVG Export Plug-In . SVG Version: 6.00 Build 0)  -->
<svg version="1.1" id="Layer_1" xmlns="http://www.w3.org/2000/svg" xmlns:xlink="http://www.w3.org/1999/xlink" x="0px" y="0px"
	 viewBox="0 0 540 260" style="enable-background:new 0 0 540 260;" xml:space="preserve">
<style type="text/css">
	.st0{fill:#50A2C8;}
	.st1{fill:url(#SVGID_1_);}
	.st2{fill:none;stroke:#FFFFFF;stroke-width:1.1025;stroke-miterlimit:10;}
	.st3{fill:#FFFFFF;}
	.st4{clip-path:url(#SVGID_3_);}
	.st5{opacity:0.55;fill:url(#SVGID_4_);}
	.st6{fill:none;stroke:#50A2C8;stroke-width:0.5513;stroke-miterlimit:10;}
	.st7{fill:#FFFFFF;stroke:#50A2C8;stroke-width:0.5513;stroke-miterlimit:10;}
	.st8{fill:#50A2C8;stroke:#FFFFFF;stroke-width:0.2756;stroke-miterlimit:10;}
	.st9{fill:url(#SVGID_5_);}
	.st10{fill:none;stroke:#FFFFFF;stroke-width:1.1031;stroke-miterlimit:10;}
	.st11{opacity:0.55;fill:url(#SVGID_6_);}
	.st12{fill:none;stroke:#50A2C8;stroke-width:0.5515;stroke-miterlimit:10;}
	.st13{fill:#FFFFFF;stroke:#50A2C8;stroke-width:0.5515;stroke-miterlimit:10;}
	.st14{fill:#50A2C8;stroke:#FFFFFF;stroke-width:0.2758;stroke-miterlimit:10;}
	.st15{fill:#3B6FD9;}
	.st16{fill:#F2DCDE;}
	.st17{fill:#F5C721;}
	.st18{fill:url(#SVGID_7_);}
	.st19{fill:none;stroke:#FFFFFF;stroke-width:1.1048;stroke-miterlimit:10;}
	.st20{fill:url(#SVGID_8_);}
	.st21{fill:none;stroke:#F5C721;stroke-width:0.4143;stroke-miterlimit:10;}
	.st22{fill:#FFFFFF;stroke:#F5C721;stroke-width:0.4143;stroke-miterlimit:10;}
	.st23{fill:#FFFFFF;stroke:#F5C721;stroke-width:0.5524;stroke-miterlimit:10;}
</style>
<g>
	<g>
		<g>
			<path class="st0" d="M516.02,219.36c-0.34,0-0.65-0.07-0.93-0.21c-0.28-0.14-0.51-0.33-0.7-0.58c-0.19-0.24-0.34-0.54-0.44-0.88
				c-0.1-0.34-0.16-0.72-0.16-1.12c0-0.63,0.1-1.21,0.31-1.75c0.21-0.54,0.49-1.02,0.84-1.43s0.75-0.73,1.21-0.97
				s0.93-0.35,1.43-0.35c0.34,0,0.65,0.07,0.93,0.21c0.28,0.14,0.51,0.33,0.7,0.58c0.19,0.24,0.34,0.54,0.44,0.88
				c0.1,0.34,0.16,0.72,0.16,1.13c0,0.63-0.1,1.21-0.31,1.75c-0.21,0.55-0.49,1.02-0.84,1.43c-0.35,0.41-0.76,0.73-1.21,0.96
				C516.98,219.24,516.51,219.36,516.02,219.36z M516.23,218.37c0.33,0,0.64-0.09,0.95-0.26c0.3-0.18,0.57-0.42,0.8-0.72
				c0.23-0.3,0.41-0.66,0.55-1.08c0.14-0.41,0.2-0.86,0.2-1.33c0-0.58-0.12-1.04-0.36-1.4c-0.24-0.36-0.57-0.53-1-0.53
				c-0.34,0-0.66,0.09-0.96,0.27c-0.3,0.18-0.57,0.42-0.8,0.73c-0.23,0.3-0.41,0.67-0.55,1.08c-0.14,0.42-0.2,0.86-0.2,1.32
				c0,0.58,0.12,1.04,0.36,1.39C515.46,218.2,515.79,218.37,516.23,218.37z"/>
		</g>
	</g>
	<g>
		<g>
			<path class="st0" d="M513.26,182.29c0.11-0.28,0.26-0.55,0.44-0.8c0.19-0.25,0.43-0.5,0.72-0.73c0.29-0.24,0.65-0.47,1.09-0.69
				c0.28-0.14,0.56-0.28,0.85-0.41c0.29-0.13,0.55-0.27,0.78-0.42c0.23-0.15,0.41-0.31,0.56-0.49c0.14-0.18,0.22-0.39,0.22-0.63
				c0-0.24-0.09-0.46-0.28-0.65c-0.18-0.2-0.47-0.3-0.85-0.3c-0.22,0-0.43,0.03-0.63,0.1c-0.2,0.07-0.38,0.15-0.54,0.25
				c-0.16,0.1-0.31,0.21-0.44,0.32s-0.24,0.21-0.34,0.3l-0.52-0.77c0.08-0.07,0.21-0.17,0.38-0.29c0.18-0.12,0.39-0.25,0.64-0.38
				s0.53-0.24,0.84-0.33c0.31-0.09,0.64-0.14,1-0.14c0.31,0,0.59,0.04,0.82,0.13c0.24,0.08,0.44,0.2,0.6,0.34
				c0.16,0.14,0.29,0.31,0.37,0.51c0.08,0.2,0.13,0.41,0.13,0.63c0,0.36-0.08,0.68-0.25,0.95c-0.16,0.27-0.36,0.51-0.6,0.71
				c-0.24,0.2-0.49,0.37-0.76,0.51c-0.27,0.14-0.51,0.26-0.71,0.35c-0.18,0.09-0.39,0.19-0.62,0.32c-0.23,0.12-0.45,0.26-0.67,0.42
				c-0.22,0.16-0.42,0.33-0.6,0.52c-0.18,0.19-0.31,0.4-0.4,0.62h3.82l-0.2,0.96h-5.12C513.07,182.88,513.16,182.58,513.26,182.29z"
				/>
			<path class="st0" d="M522.2,183.32c-0.34,0-0.65-0.07-0.93-0.21c-0.28-0.14-0.51-0.33-0.7-0.58c-0.19-0.24-0.34-0.54-0.44-0.88
				c-0.1-0.34-0.16-0.72-0.16-1.12c0-0.62,0.1-1.21,0.31-1.75c0.21-0.54,0.49-1.02,0.84-1.43c0.35-0.41,0.75-0.73,1.21-0.97
				c0.46-0.24,0.93-0.35,1.43-0.35c0.34,0,0.65,0.07,0.93,0.21c0.28,0.14,0.51,0.33,0.7,0.58c0.19,0.24,0.34,0.54,0.44,0.88
				c0.1,0.34,0.16,0.72,0.16,1.13c0,0.62-0.1,1.21-0.31,1.75c-0.21,0.55-0.49,1.02-0.84,1.43c-0.35,0.41-0.76,0.73-1.21,0.96
				C523.16,183.2,522.69,183.32,522.2,183.32z M522.4,182.33c0.33,0,0.64-0.09,0.95-0.26c0.3-0.18,0.57-0.42,0.8-0.72
				c0.23-0.3,0.41-0.66,0.55-1.08c0.14-0.41,0.2-0.86,0.2-1.33c0-0.58-0.12-1.04-0.36-1.4c-0.24-0.36-0.57-0.54-1-0.54
				c-0.34,0-0.66,0.09-0.96,0.27c-0.3,0.18-0.57,0.42-0.8,0.73c-0.23,0.3-0.41,0.67-0.55,1.08c-0.14,0.42-0.2,0.86-0.2,1.32
				c0,0.58,0.12,1.04,0.36,1.39C521.63,182.16,521.97,182.33,522.4,182.33z"/>
			<path class="st0" d="M528.62,174.68h1.08l-1.01,4.71l5.11-4.72h1.18l-4.04,3.76l2.4,4.77h-1.19l-2.02-4.15l-1.7,1.54l-0.55,2.61
				h-1.08L528.62,174.68z"/>
		</g>
	</g>
	<g>
		<g>
			<path class="st0" d="M516.54,148.33h-3.63l0.2-0.94l5.12-5.42h0.72l-1.15,5.4h1.01l-0.2,0.96h-1.01l-0.43,2.03h-1.06
				L516.54,148.33z M516.85,147.37l0.81-3.76l-3.45,3.76H516.85z"/>
			<path class="st0" d="M522.5,148.95c-0.34,0-0.65-0.07-0.93-0.21c-0.28-0.14-0.51-0.33-0.7-0.58c-0.19-0.24-0.34-0.54-0.44-0.88
				c-0.1-0.34-0.16-0.72-0.16-1.12c0-0.63,0.1-1.21,0.31-1.75c0.21-0.54,0.49-1.02,0.84-1.43s0.75-0.73,1.21-0.97
				c0.46-0.24,0.93-0.35,1.43-0.35c0.34,0,0.65,0.07,0.93,0.21c0.28,0.14,0.51,0.33,0.7,0.58c0.19,0.24,0.34,0.54,0.44,0.88
				c0.1,0.34,0.16,0.72,0.16,1.13c0,0.63-0.1,1.21-0.31,1.75c-0.21,0.55-0.49,1.02-0.84,1.43c-0.35,0.41-0.76,0.73-1.21,0.96
				C523.46,148.84,522.99,148.95,522.5,148.95z M522.7,147.97c0.33,0,0.64-0.09,0.95-0.26c0.3-0.18,0.57-0.42,0.8-0.72
				c0.23-0.3,0.41-0.66,0.55-1.08c0.14-0.41,0.2-0.86,0.2-1.33c0-0.58-0.12-1.04-0.36-1.4c-0.24-0.36-0.57-0.53-1-0.53
				c-0.34,0-0.66,0.09-0.96,0.27c-0.3,0.18-0.57,0.42-0.8,0.73c-0.23,0.3-0.41,0.67-0.55,1.08c-0.14,0.42-0.2,0.86-0.2,1.32
				c0,0.58,0.12,1.04,0.36,1.39C521.93,147.79,522.27,147.97,522.7,147.97z"/>
			<path class="st0" d="M528.92,140.31H530l-1.01,4.71l5.11-4.72h1.18l-4.04,3.76l2.4,4.77h-1.19l-2.02-4.15l-1.69,1.54l-0.55,2.61
				h-1.08L528.92,140.31z"/>
		</g>
	</g>
	<g>
		<g>
			<path class="st0" d="M516.11,114.59c-0.73,0-1.29-0.24-1.69-0.72c-0.4-0.48-0.6-1.15-0.6-1.99c0-0.8,0.1-1.56,0.31-2.29
				c0.21-0.72,0.5-1.36,0.87-1.91c0.37-0.55,0.82-0.99,1.34-1.31c0.52-0.32,1.1-0.49,1.73-0.49c0.53,0,0.98,0.13,1.35,0.4
				c0.37,0.26,0.63,0.64,0.78,1.12l-0.78,0.64c-0.09-0.38-0.27-0.67-0.55-0.9c-0.28-0.22-0.62-0.33-1.02-0.33
				c-0.3,0-0.6,0.07-0.88,0.22c-0.28,0.15-0.54,0.37-0.78,0.65c-0.24,0.29-0.45,0.64-0.64,1.05c-0.19,0.41-0.34,0.88-0.46,1.41
				c0.26-0.42,0.59-0.75,1.02-1c0.42-0.25,0.86-0.37,1.33-0.37c0.34,0,0.64,0.06,0.93,0.18c0.28,0.12,0.52,0.29,0.71,0.5
				c0.2,0.21,0.35,0.46,0.46,0.74c0.11,0.28,0.16,0.59,0.16,0.93c0,0.46-0.1,0.91-0.3,1.33c-0.2,0.42-0.47,0.79-0.8,1.11
				c-0.33,0.32-0.72,0.57-1.15,0.75C517.02,114.49,516.57,114.59,516.11,114.59z M516.31,113.67c0.29,0,0.58-0.06,0.86-0.19
				c0.28-0.13,0.54-0.3,0.76-0.52c0.22-0.22,0.4-0.48,0.53-0.76c0.14-0.29,0.2-0.59,0.2-0.91c0-0.23-0.04-0.45-0.11-0.65
				c-0.07-0.2-0.17-0.38-0.31-0.53c-0.13-0.15-0.29-0.27-0.48-0.35c-0.18-0.08-0.39-0.13-0.61-0.13c-0.3,0-0.58,0.06-0.87,0.19
				c-0.28,0.13-0.53,0.3-0.75,0.52c-0.22,0.22-0.4,0.47-0.53,0.76c-0.14,0.29-0.2,0.59-0.2,0.9c0,0.23,0.04,0.45,0.11,0.65
				c0.07,0.2,0.17,0.38,0.31,0.53c0.13,0.15,0.29,0.27,0.47,0.35S516.09,113.67,516.31,113.67z"/>
			<path class="st0" d="M523.12,114.59c-0.34,0-0.65-0.07-0.93-0.21c-0.28-0.14-0.51-0.33-0.7-0.58c-0.19-0.24-0.34-0.54-0.44-0.88
				c-0.1-0.34-0.16-0.72-0.16-1.12c0-0.63,0.1-1.21,0.31-1.75c0.21-0.54,0.49-1.02,0.84-1.43c0.35-0.41,0.75-0.73,1.21-0.97
				c0.46-0.24,0.93-0.35,1.43-0.35c0.34,0,0.65,0.07,0.93,0.21c0.28,0.14,0.51,0.33,0.7,0.58c0.19,0.24,0.34,0.54,0.44,0.88
				c0.1,0.34,0.16,0.72,0.16,1.13c0,0.63-0.1,1.21-0.31,1.75c-0.21,0.55-0.49,1.02-0.84,1.43c-0.35,0.41-0.76,0.73-1.21,0.96
				C524.09,114.47,523.61,114.59,523.12,114.59z M523.33,113.6c0.33,0,0.64-0.09,0.95-0.26c0.3-0.18,0.57-0.42,0.8-0.72
				c0.23-0.3,0.41-0.66,0.55-1.08c0.14-0.41,0.2-0.86,0.2-1.33c0-0.58-0.12-1.04-0.36-1.4c-0.24-0.36-0.57-0.53-1-0.53
				c-0.34,0-0.66,0.09-0.96,0.27c-0.3,0.18-0.57,0.42-0.8,0.73c-0.23,0.3-0.41,0.67-0.55,1.08c-0.14,0.42-0.2,0.86-0.2,1.32
				c0,0.58,0.12,1.04,0.36,1.39C522.56,113.42,522.9,113.6,523.33,113.6z"/>
			<path class="st0" d="M529.54,105.95h1.08l-1.01,4.71l5.11-4.72h1.18l-4.04,3.76l2.4,4.77h-1.19l-2.02-4.15l-1.7,1.54l-0.55,2.61
				h-1.08L529.54,105.95z"/>
		</g>
	</g>
	<linearGradient id="SVGID_1_" gradientUnits="userSpaceOnUse" x1="237.5534" y1="-24.2852" x2="352.2953" y2="453.5725">
		<stop  offset="0.158" style="stop-color:#FFFFFF"/>
		<stop  offset="0.2544" style="stop-color:#FAFCFD"/>
		<stop  offset="0.3722" style="stop-color:#EBF4F9"/>
		<stop  offset="0.5012" style="stop-color:#D2E7F1"/>
		<stop  offset="0.6382" style="stop-color:#AFD5E6"/>
		<stop  offset="0.7799" style="stop-color:#84BDD8"/>
		<stop  offset="0.9215" style="stop-color:#50A2C8"/>
	</linearGradient>
	<rect x="52.79" y="45.86" class="st1" width="444.84" height="173.38"/>
	<line class="st10" x1="47.9" y1="183.2" x2="509.23" y2="183.2"/>
	<line class="st10" x1="47.9" y1="148.83" x2="509.23" y2="148.83"/>
	<line class="st10" x1="47.9" y1="114.47" x2="509.23" y2="114.47"/>
	<linearGradient id="SVGID_3_" gradientUnits="userSpaceOnUse" x1="325.0239" y1="287.3187" x2="331.5924" y2="74.3125">
		<stop  offset="0.158" style="stop-color:#FFFFFF"/>
		<stop  offset="0.2544" style="stop-color:#FAFCFD"/>
		<stop  offset="0.3722" style="stop-color:#EBF4F9"/>
		<stop  offset="0.5012" style="stop-color:#D2E7F1"/>
		<stop  offset="0.6382" style="stop-color:#AFD5E6"/>
		<stop  offset="0.7799" style="stop-color:#84BDD8"/>
		<stop  offset="0.9215" style="stop-color:#50A2C8"/>
	</linearGradient>
	<polygon style="opacity:0.55;fill:url(#SVGID_3_);" points="497.63,126.02 458.54,126.02 407.42,157.69 283.64,199.25 
		157.18,201.03 157.18,219.24 497.63,219.24 	"/>
	<polyline class="st12" points="497.63,126.02 458.54,126.02 407.42,157.69 283.64,199.25 157.18,201.03 157.18,219.24 	"/>
	<line class="st12" x1="157.18" y1="219.24" x2="157.18" y2="108.7"/>
	<rect x="77.47" y="167.13" class="st13" width="65.06" height="21.13"/>
	<line class="st13" x1="142.53" y1="188.26" x2="157.18" y2="201.5"/>
	<g>
		<circle class="st13" cx="157.18" cy="201.5" r="4.51"/>
		<circle class="st14" cx="157.18" cy="201.5" r="2.25"/>
	</g>
	<g>
		<path class="st0" d="M85.07,175.11h-2.35l0.28-1.34h6.21l-0.29,1.34h-2.34l-1.38,6.5h-1.52L85.07,175.11z"/>
		<path class="st0" d="M89.71,181.72c-0.39,0-0.73-0.06-1.02-0.19c-0.29-0.13-0.53-0.3-0.73-0.52c-0.19-0.22-0.34-0.48-0.44-0.77
			c-0.1-0.29-0.15-0.6-0.15-0.92c0-0.46,0.09-0.9,0.27-1.33c0.18-0.43,0.43-0.81,0.75-1.15c0.32-0.33,0.7-0.6,1.14-0.81
			c0.44-0.2,0.92-0.3,1.45-0.3c0.38,0,0.72,0.06,1.01,0.19c0.29,0.13,0.54,0.3,0.73,0.52c0.2,0.22,0.35,0.47,0.45,0.77
			c0.1,0.29,0.15,0.61,0.15,0.94c0,0.46-0.09,0.9-0.27,1.32c-0.18,0.43-0.43,0.81-0.75,1.14c-0.32,0.34-0.7,0.6-1.14,0.81
			C90.71,181.62,90.23,181.72,89.71,181.72z M89.97,180.46c0.23,0,0.45-0.06,0.67-0.17c0.22-0.11,0.41-0.27,0.58-0.46
			c0.17-0.19,0.31-0.42,0.41-0.68c0.1-0.26,0.15-0.54,0.15-0.83c0-0.4-0.1-0.72-0.29-0.97c-0.19-0.25-0.45-0.37-0.78-0.37
			c-0.23,0-0.45,0.06-0.67,0.17c-0.22,0.11-0.41,0.27-0.58,0.46c-0.17,0.19-0.31,0.42-0.41,0.68c-0.1,0.26-0.15,0.53-0.15,0.83
			c0,0.4,0.1,0.72,0.29,0.97C89.38,180.34,89.64,180.46,89.97,180.46z"/>
		<path class="st0" d="M95.29,181.71c-0.35,0-0.64-0.08-0.87-0.24c-0.22-0.16-0.34-0.42-0.34-0.78c0-0.15,0.01-0.28,0.04-0.41
			l0.71-3.32h-0.72l0.24-1.14h0.71l0.4-1.88h1.48l-0.4,1.88h1.16l-0.24,1.14h-1.15l-0.61,2.83c-0.01,0.04-0.01,0.07-0.02,0.09
			c0,0.03-0.01,0.05-0.01,0.08c0,0.14,0.04,0.24,0.12,0.3c0.08,0.06,0.18,0.09,0.3,0.09c0.15,0,0.29-0.02,0.44-0.07
			c0.14-0.05,0.27-0.09,0.37-0.14l0.04,1.17c-0.21,0.1-0.47,0.19-0.77,0.28S95.59,181.71,95.29,181.71z"/>
		<path class="st0" d="M99.76,181.72c-0.32,0-0.61-0.06-0.87-0.18c-0.25-0.12-0.47-0.29-0.65-0.5c-0.18-0.21-0.31-0.47-0.4-0.76
			c-0.09-0.29-0.14-0.6-0.14-0.93c0-0.48,0.09-0.94,0.26-1.37c0.17-0.44,0.4-0.82,0.7-1.15c0.29-0.33,0.63-0.6,1.01-0.79
			c0.38-0.2,0.78-0.3,1.2-0.3c0.4,0,0.74,0.1,1.02,0.31s0.47,0.47,0.57,0.81l0.22-0.99h1.48l-0.86,4.06
			c-0.02,0.08-0.03,0.15-0.03,0.2c0,0.15,0.09,0.24,0.26,0.24l-0.26,1.26c-0.13,0.02-0.25,0.04-0.35,0.05
			c-0.1,0.02-0.19,0.02-0.26,0.02c-0.26,0-0.46-0.05-0.61-0.17c-0.15-0.11-0.23-0.28-0.23-0.5c0-0.09,0.02-0.23,0.07-0.42
			c-0.28,0.37-0.61,0.65-0.99,0.83C100.53,181.62,100.14,181.72,99.76,181.72z M100.42,180.46c0.13,0,0.26-0.02,0.4-0.07
			c0.14-0.05,0.28-0.12,0.41-0.2c0.13-0.09,0.26-0.19,0.38-0.31c0.12-0.12,0.22-0.25,0.3-0.39l0.29-1.38
			c-0.04-0.32-0.17-0.59-0.39-0.81c-0.21-0.21-0.46-0.32-0.74-0.32c-0.24,0-0.46,0.06-0.68,0.18c-0.22,0.12-0.41,0.28-0.58,0.49
			c-0.17,0.2-0.3,0.43-0.4,0.68c-0.1,0.25-0.15,0.51-0.15,0.78c0,0.38,0.1,0.7,0.31,0.96C99.78,180.33,100.06,180.46,100.42,180.46z
			"/>
		<path class="st0" d="M105.77,181.7c-0.38,0-0.66-0.09-0.86-0.26c-0.2-0.17-0.3-0.42-0.3-0.74c0-0.07,0-0.13,0.01-0.2
			c0.01-0.07,0.02-0.14,0.03-0.22l1.43-6.72h1.47l-1.31,6.2c-0.01,0.04-0.01,0.07-0.02,0.11c0,0.04-0.01,0.07-0.01,0.11
			c0,0.3,0.15,0.45,0.45,0.45c0.08,0,0.17-0.01,0.28-0.04c0.11-0.03,0.21-0.07,0.3-0.11l-0.04,1.13c-0.21,0.1-0.45,0.17-0.72,0.22
			C106.22,181.67,105.98,181.7,105.77,181.7z"/>
		<path class="st0" d="M110.43,180.27h1.49l0.72-3.34c-0.08,0.09-0.2,0.18-0.35,0.27c-0.15,0.09-0.32,0.18-0.5,0.26
			c-0.18,0.08-0.36,0.15-0.54,0.2c-0.18,0.05-0.34,0.08-0.48,0.08l0.3-1.38c0.12,0,0.29-0.04,0.49-0.13c0.2-0.08,0.4-0.19,0.6-0.3
			c0.2-0.12,0.38-0.23,0.54-0.35c0.16-0.11,0.26-0.2,0.3-0.27h1.51l-1.06,4.97h1.34l-0.28,1.34h-4.34L110.43,180.27z"/>
		<path class="st0" d="M115.25,182.88l0.58-1.31h-0.46l0.33-1.54h1.27l-0.33,1.54l-0.72,1.31H115.25z"/>
		<path class="st0" d="M120.44,181.71c-0.32,0-0.62-0.05-0.9-0.15c-0.28-0.1-0.51-0.24-0.71-0.42c-0.2-0.18-0.35-0.4-0.46-0.65
			c-0.11-0.25-0.17-0.53-0.17-0.83c0-0.29,0.05-0.55,0.15-0.78c0.1-0.24,0.23-0.45,0.38-0.63c0.15-0.19,0.33-0.35,0.51-0.49
			c0.19-0.14,0.37-0.25,0.54-0.34c-0.19-0.1-0.34-0.26-0.46-0.48c-0.11-0.22-0.17-0.45-0.17-0.71c0-0.38,0.1-0.73,0.29-1.03
			c0.19-0.31,0.43-0.56,0.73-0.77c0.29-0.21,0.62-0.37,0.97-0.48c0.35-0.11,0.68-0.17,1-0.17c0.26,0,0.51,0.04,0.76,0.12
			c0.25,0.08,0.47,0.19,0.67,0.35c0.2,0.15,0.36,0.34,0.48,0.57c0.12,0.22,0.18,0.48,0.18,0.78c0,0.21-0.04,0.41-0.11,0.6
			c-0.07,0.19-0.17,0.36-0.29,0.52c-0.12,0.16-0.26,0.3-0.41,0.42c-0.15,0.12-0.31,0.22-0.47,0.29c0.21,0.13,0.4,0.33,0.56,0.6
			c0.16,0.26,0.24,0.57,0.24,0.93c0,0.4-0.09,0.78-0.28,1.11c-0.18,0.34-0.43,0.63-0.74,0.88c-0.31,0.25-0.66,0.44-1.05,0.57
			C121.27,181.64,120.86,181.71,120.44,181.71z M120.74,180.37c0.18,0,0.35-0.03,0.54-0.1c0.18-0.07,0.34-0.17,0.48-0.29
			s0.25-0.27,0.34-0.44c0.09-0.17,0.13-0.35,0.13-0.55c0-0.3-0.1-0.54-0.29-0.7c-0.19-0.17-0.43-0.25-0.71-0.25
			c-0.18,0-0.36,0.04-0.54,0.11c-0.18,0.07-0.34,0.17-0.47,0.29c-0.14,0.12-0.25,0.27-0.34,0.44c-0.08,0.17-0.13,0.35-0.13,0.55
			c0,0.29,0.1,0.52,0.29,0.7C120.23,180.28,120.47,180.37,120.74,180.37z M121.47,176.92c0.13,0,0.27-0.02,0.41-0.07
			c0.14-0.05,0.27-0.12,0.39-0.22c0.12-0.1,0.22-0.21,0.29-0.34c0.08-0.13,0.12-0.29,0.12-0.46c0-0.23-0.08-0.41-0.24-0.54
			c-0.16-0.13-0.35-0.2-0.59-0.2c-0.15,0-0.3,0.03-0.45,0.08c-0.14,0.05-0.27,0.13-0.38,0.22c-0.11,0.1-0.2,0.21-0.27,0.34
			c-0.07,0.13-0.1,0.28-0.1,0.43c0,0.25,0.08,0.44,0.25,0.57C121.07,176.85,121.26,176.92,121.47,176.92z"/>
		<path class="st0" d="M126.87,181.71c-0.32,0-0.62-0.05-0.9-0.15c-0.28-0.1-0.51-0.24-0.71-0.42c-0.2-0.18-0.35-0.4-0.46-0.65
			c-0.11-0.25-0.17-0.53-0.17-0.83c0-0.29,0.05-0.55,0.15-0.78c0.1-0.24,0.23-0.45,0.38-0.63c0.15-0.19,0.33-0.35,0.51-0.49
			c0.19-0.14,0.37-0.25,0.54-0.34c-0.19-0.1-0.34-0.26-0.46-0.48c-0.11-0.22-0.17-0.45-0.17-0.71c0-0.38,0.1-0.73,0.29-1.03
			c0.19-0.31,0.43-0.56,0.73-0.77c0.29-0.21,0.62-0.37,0.97-0.48c0.35-0.11,0.68-0.17,1-0.17c0.26,0,0.51,0.04,0.76,0.12
			c0.25,0.08,0.47,0.19,0.67,0.35c0.2,0.15,0.36,0.34,0.48,0.57c0.12,0.22,0.18,0.48,0.18,0.78c0,0.21-0.04,0.41-0.11,0.6
			c-0.07,0.19-0.17,0.36-0.29,0.52c-0.12,0.16-0.26,0.3-0.41,0.42c-0.15,0.12-0.31,0.22-0.47,0.29c0.21,0.13,0.4,0.33,0.56,0.6
			c0.16,0.26,0.24,0.57,0.24,0.93c0,0.4-0.09,0.78-0.28,1.11c-0.18,0.34-0.43,0.63-0.74,0.88c-0.31,0.25-0.66,0.44-1.05,0.57
			C127.7,181.64,127.29,181.71,126.87,181.71z M127.17,180.37c0.18,0,0.35-0.03,0.54-0.1c0.18-0.07,0.34-0.17,0.48-0.29
			s0.25-0.27,0.34-0.44c0.09-0.17,0.13-0.35,0.13-0.55c0-0.3-0.1-0.54-0.29-0.7c-0.19-0.17-0.43-0.25-0.71-0.25
			c-0.18,0-0.36,0.04-0.54,0.11c-0.18,0.07-0.34,0.17-0.47,0.29c-0.14,0.12-0.25,0.27-0.34,0.44s-0.13,0.35-0.13,0.55
			c0,0.29,0.1,0.52,0.29,0.7C126.67,180.28,126.9,180.37,127.17,180.37z M127.9,176.92c0.13,0,0.27-0.02,0.41-0.07
			c0.14-0.05,0.27-0.12,0.39-0.22c0.12-0.1,0.22-0.21,0.29-0.34c0.08-0.13,0.12-0.29,0.12-0.46c0-0.23-0.08-0.41-0.24-0.54
			c-0.16-0.13-0.35-0.2-0.59-0.2c-0.15,0-0.3,0.03-0.45,0.08c-0.14,0.05-0.27,0.13-0.38,0.22c-0.11,0.1-0.2,0.21-0.27,0.34
			c-0.07,0.13-0.1,0.28-0.1,0.43c0,0.25,0.08,0.44,0.25,0.57C127.51,176.85,127.69,176.92,127.9,176.92z"/>
		<path class="st0" d="M133.31,181.71c-0.32,0-0.62-0.05-0.9-0.15c-0.28-0.1-0.51-0.24-0.71-0.42c-0.2-0.18-0.35-0.4-0.46-0.65
			c-0.11-0.25-0.17-0.53-0.17-0.83c0-0.29,0.05-0.55,0.15-0.78c0.1-0.24,0.23-0.45,0.38-0.63c0.15-0.19,0.33-0.35,0.51-0.49
			c0.19-0.14,0.37-0.25,0.54-0.34c-0.19-0.1-0.34-0.26-0.46-0.48c-0.11-0.22-0.17-0.45-0.17-0.71c0-0.38,0.1-0.73,0.29-1.03
			c0.19-0.31,0.43-0.56,0.73-0.77c0.29-0.21,0.62-0.37,0.97-0.48c0.35-0.11,0.68-0.17,1-0.17c0.26,0,0.51,0.04,0.76,0.12
			c0.25,0.08,0.47,0.19,0.67,0.35c0.2,0.15,0.36,0.34,0.48,0.57c0.12,0.22,0.18,0.48,0.18,0.78c0,0.21-0.04,0.41-0.11,0.6
			c-0.07,0.19-0.17,0.36-0.29,0.52c-0.12,0.16-0.26,0.3-0.41,0.42c-0.15,0.12-0.31,0.22-0.47,0.29c0.21,0.13,0.4,0.33,0.56,0.6
			c0.16,0.26,0.24,0.57,0.24,0.93c0,0.4-0.09,0.78-0.28,1.11c-0.18,0.34-0.43,0.63-0.74,0.88c-0.31,0.25-0.66,0.44-1.05,0.57
			C134.13,181.64,133.73,181.71,133.31,181.71z M133.61,180.37c0.18,0,0.35-0.03,0.54-0.1c0.18-0.07,0.34-0.17,0.48-0.29
			s0.25-0.27,0.34-0.44c0.09-0.17,0.13-0.35,0.13-0.55c0-0.3-0.1-0.54-0.29-0.7s-0.43-0.25-0.71-0.25c-0.18,0-0.36,0.04-0.54,0.11
			c-0.18,0.07-0.34,0.17-0.47,0.29c-0.14,0.12-0.25,0.27-0.34,0.44c-0.08,0.17-0.13,0.35-0.13,0.55c0,0.29,0.1,0.52,0.29,0.7
			C133.1,180.28,133.33,180.37,133.61,180.37z M134.33,176.92c0.13,0,0.27-0.02,0.41-0.07c0.14-0.05,0.27-0.12,0.39-0.22
			c0.12-0.1,0.22-0.21,0.29-0.34c0.08-0.13,0.12-0.29,0.12-0.46c0-0.23-0.08-0.41-0.24-0.54c-0.16-0.13-0.35-0.2-0.59-0.2
			c-0.15,0-0.3,0.03-0.45,0.08c-0.14,0.05-0.27,0.13-0.38,0.22c-0.11,0.1-0.2,0.21-0.27,0.34c-0.07,0.13-0.1,0.28-0.1,0.43
			c0,0.25,0.08,0.44,0.25,0.57C133.94,176.85,134.13,176.92,134.33,176.92z"/>
	</g>
	<g>
		<path class="st0" d="M337.51,97.15h-6.27l0.6-2.73l9.35-9.87h2.09l-2.09,9.85h1.93l-0.6,2.76h-1.93l-0.71,3.42h-3.08L337.51,97.15
			z M338.45,94.4l1.1-5.19l-4.64,5.19H338.45z"/>
		<path class="st0" d="M350.21,97.15h-6.27l0.6-2.73l9.35-9.87h2.09l-2.09,9.85h1.93l-0.6,2.76h-1.93l-0.71,3.42h-3.08L350.21,97.15
			z M351.15,94.4l1.1-5.19l-4.64,5.19H351.15z"/>
		<path class="st0" d="M357.07,100.3l1.22-2.73h-0.96l0.69-3.21h2.64l-0.69,3.21l-1.49,2.73H357.07z"/>
		<path class="st0" d="M362.69,95.79c0.22-0.56,0.51-1.08,0.87-1.55c0.36-0.47,0.8-0.92,1.33-1.33c0.53-0.41,1.17-0.81,1.94-1.19
			c0.7-0.37,1.33-0.68,1.87-0.94s0.99-0.51,1.35-0.75c0.36-0.24,0.63-0.48,0.82-0.73c0.18-0.25,0.28-0.55,0.28-0.91
			c0-0.38-0.14-0.71-0.41-0.98c-0.28-0.27-0.68-0.4-1.22-0.4c-0.67,0-1.29,0.18-1.85,0.55c-0.56,0.37-1.08,0.77-1.55,1.22
			l-1.47-2.27c0.24-0.21,0.57-0.45,0.99-0.7c0.41-0.25,0.88-0.49,1.4-0.71c0.52-0.22,1.09-0.41,1.7-0.55
			c0.61-0.15,1.25-0.22,1.91-0.22c1.32,0,2.31,0.29,2.99,0.88c0.67,0.59,1.01,1.36,1.01,2.31c0,0.63-0.11,1.18-0.34,1.66
			c-0.23,0.48-0.53,0.91-0.9,1.29c-0.37,0.38-0.78,0.7-1.23,0.99c-0.45,0.28-0.89,0.54-1.32,0.77c-0.28,0.14-0.58,0.3-0.91,0.48
			c-0.33,0.18-0.65,0.39-0.98,0.61s-0.63,0.47-0.92,0.73c-0.29,0.27-0.54,0.55-0.73,0.84h6.04l-0.6,2.78h-10.63
			C362.28,96.97,362.47,96.34,362.69,95.79z"/>
		<path class="st0" d="M379.14,101.19c-0.96,0-1.81-0.22-2.54-0.67c-0.73-0.44-1.3-1.08-1.71-1.91l2.16-1.93
			c0.23,0.58,0.58,1.03,1.06,1.36c0.47,0.32,1.02,0.48,1.65,0.48c0.93,0,1.77-0.41,2.5-1.22c0.74-0.81,1.28-1.96,1.63-3.44
			c-0.43,0.55-0.95,0.99-1.56,1.31c-0.61,0.32-1.27,0.48-1.97,0.48c-0.66,0-1.26-0.11-1.79-0.34c-0.54-0.23-1-0.54-1.38-0.94
			c-0.38-0.4-0.68-0.87-0.88-1.41c-0.21-0.54-0.31-1.13-0.31-1.76c0-0.89,0.19-1.74,0.57-2.55c0.38-0.81,0.9-1.52,1.55-2.12
			c0.65-0.6,1.4-1.09,2.24-1.45c0.84-0.36,1.72-0.54,2.64-0.54c1.42,0,2.52,0.48,3.28,1.43c0.77,0.96,1.15,2.27,1.15,3.94
			c0,1.55-0.2,3-0.61,4.37c-0.41,1.37-0.97,2.56-1.7,3.58c-0.73,1.02-1.6,1.83-2.62,2.42C381.49,100.89,380.37,101.19,379.14,101.19
			z M381.14,93.2c0.43,0,0.85-0.1,1.26-0.29c0.41-0.19,0.78-0.45,1.1-0.77c0.32-0.32,0.58-0.7,0.78-1.13c0.2-0.43,0.3-0.88,0.3-1.36
			c0-0.7-0.2-1.3-0.6-1.79c-0.4-0.49-0.92-0.73-1.56-0.73c-0.41,0-0.83,0.1-1.24,0.3c-0.41,0.2-0.78,0.47-1.11,0.8
			c-0.33,0.34-0.59,0.72-0.79,1.16c-0.2,0.44-0.3,0.89-0.3,1.37c0,0.69,0.2,1.27,0.6,1.73S380.5,93.2,381.14,93.2z"/>
		<path class="st0" d="M393.56,97.86c-0.67,0-1.3-0.1-1.87-0.31c-0.57-0.21-1.07-0.5-1.48-0.88c-0.41-0.38-0.73-0.83-0.96-1.36
			c-0.23-0.52-0.34-1.09-0.34-1.72c0-0.6,0.1-1.14,0.31-1.63c0.21-0.49,0.47-0.93,0.79-1.32c0.32-0.39,0.68-0.73,1.07-1.01
			c0.39-0.28,0.76-0.52,1.11-0.7c-0.4-0.21-0.72-0.55-0.95-1c-0.24-0.45-0.36-0.94-0.36-1.48c0-0.8,0.2-1.51,0.6-2.15
			c0.4-0.64,0.9-1.17,1.52-1.61c0.61-0.44,1.28-0.77,2.01-1c0.73-0.23,1.42-0.34,2.08-0.34c0.54,0,1.06,0.08,1.58,0.24
			c0.52,0.16,0.99,0.4,1.4,0.72c0.41,0.32,0.75,0.72,1,1.18c0.25,0.47,0.38,1.01,0.38,1.62c0,0.44-0.08,0.86-0.23,1.25
			s-0.36,0.75-0.61,1.08c-0.25,0.33-0.54,0.62-0.86,0.87c-0.32,0.25-0.65,0.46-0.99,0.61c0.44,0.28,0.83,0.69,1.16,1.24
			c0.33,0.55,0.49,1.19,0.49,1.93c0,0.84-0.19,1.62-0.57,2.32c-0.38,0.7-0.9,1.31-1.54,1.83c-0.64,0.51-1.37,0.91-2.19,1.19
			C395.28,97.72,394.43,97.86,393.56,97.86z M394.18,95.08c0.37,0,0.74-0.07,1.11-0.22c0.37-0.15,0.71-0.35,1-0.61
			c0.29-0.26,0.53-0.57,0.71-0.92c0.18-0.35,0.28-0.74,0.28-1.15c0-0.63-0.2-1.11-0.61-1.46c-0.41-0.34-0.9-0.52-1.48-0.52
			c-0.38,0-0.76,0.07-1.13,0.22c-0.37,0.15-0.7,0.34-0.99,0.6c-0.29,0.25-0.52,0.56-0.7,0.91c-0.18,0.35-0.26,0.73-0.26,1.15
			c0,0.6,0.2,1.08,0.61,1.45C393.13,94.9,393.62,95.08,394.18,95.08z M395.7,87.9c0.28,0,0.56-0.05,0.86-0.15
			c0.3-0.1,0.57-0.25,0.81-0.45c0.24-0.2,0.45-0.44,0.61-0.71c0.16-0.28,0.24-0.6,0.24-0.96c0-0.47-0.16-0.85-0.49-1.13
			c-0.33-0.28-0.74-0.41-1.23-0.41c-0.32,0-0.63,0.05-0.93,0.16c-0.3,0.11-0.56,0.26-0.79,0.46c-0.23,0.2-0.42,0.44-0.56,0.71
			c-0.15,0.28-0.22,0.57-0.22,0.9c0,0.52,0.18,0.91,0.53,1.18C394.88,87.76,395.27,87.9,395.7,87.9z"/>
		<path class="st0" d="M418.91,81.35l-14.33,16.3h-3.4l14.33-16.3H418.91z"/>
		<path class="st0" d="M420.15,85.62h2.78l-0.48,2.23c0.58-0.77,1.29-1.36,2.12-1.79c0.83-0.43,1.69-0.64,2.56-0.64
			c0.95,0,1.64,0.23,2.07,0.7c0.43,0.47,0.66,1.08,0.69,1.85c0.64-0.83,1.37-1.46,2.18-1.89c0.81-0.44,1.65-0.65,2.53-0.65
			c0.52,0,0.95,0.07,1.3,0.22c0.34,0.15,0.62,0.34,0.83,0.6c0.21,0.25,0.35,0.55,0.44,0.88c0.08,0.34,0.13,0.7,0.13,1.1
			c0,0.25-0.02,0.52-0.05,0.84c-0.03,0.31-0.09,0.68-0.18,1.09l-1.61,7.51h-3.08l1.42-6.75c0.05-0.23,0.08-0.45,0.12-0.65
			c0.03-0.21,0.05-0.39,0.05-0.56c0-0.54-0.11-0.93-0.33-1.18c-0.22-0.25-0.52-0.38-0.91-0.38c-0.57,0-1.15,0.24-1.73,0.71
			c-0.59,0.48-1.07,1.08-1.44,1.81l-1.47,7H425l1.42-6.75c0.09-0.47,0.14-0.89,0.14-1.24c0-0.54-0.11-0.93-0.32-1.17
			c-0.21-0.24-0.52-0.37-0.92-0.37c-0.28,0-0.56,0.06-0.85,0.18c-0.29,0.12-0.58,0.29-0.86,0.52c-0.28,0.22-0.55,0.49-0.79,0.79
			c-0.25,0.31-0.46,0.64-0.64,1.01l-1.49,7.03h-3.08L420.15,85.62z"/>
		<path class="st0" d="M443.39,97.89c-0.81,0-1.52-0.13-2.12-0.4c-0.61-0.27-1.11-0.63-1.52-1.09c-0.41-0.46-0.71-0.99-0.92-1.6
			c-0.21-0.6-0.31-1.24-0.31-1.92c0-0.95,0.19-1.87,0.56-2.77c0.37-0.9,0.9-1.69,1.56-2.39c0.67-0.7,1.46-1.26,2.38-1.68
			c0.92-0.42,1.92-0.63,3.01-0.63c0.8,0,1.5,0.13,2.1,0.4c0.6,0.27,1.11,0.63,1.53,1.08c0.41,0.45,0.72,0.98,0.93,1.6
			c0.21,0.61,0.31,1.26,0.31,1.95c0,0.95-0.19,1.87-0.56,2.76c-0.38,0.89-0.9,1.68-1.56,2.38c-0.67,0.7-1.46,1.25-2.38,1.68
			C445.48,97.68,444.48,97.89,443.39,97.89z M443.94,95.27c0.47,0,0.94-0.12,1.39-0.36c0.45-0.24,0.85-0.55,1.21-0.95
			c0.35-0.4,0.64-0.87,0.85-1.41c0.21-0.54,0.32-1.12,0.32-1.73c0-0.83-0.2-1.5-0.6-2.01s-0.94-0.77-1.63-0.77
			c-0.47,0-0.94,0.12-1.39,0.36c-0.45,0.24-0.85,0.56-1.21,0.96s-0.64,0.88-0.85,1.41c-0.21,0.54-0.32,1.11-0.32,1.72
			c0,0.83,0.2,1.5,0.6,2.01S443.25,95.27,443.94,95.27z"/>
		<path class="st0" d="M454.09,85.62h2.78l-0.48,2.23c0.58-0.77,1.32-1.36,2.2-1.79c0.89-0.43,1.83-0.64,2.82-0.64
			c0.52,0,0.95,0.07,1.3,0.22c0.34,0.15,0.62,0.34,0.83,0.59c0.21,0.25,0.35,0.54,0.44,0.88c0.08,0.34,0.13,0.71,0.13,1.09
			c0,0.31-0.02,0.62-0.06,0.95c-0.04,0.33-0.1,0.66-0.17,1l-1.58,7.51h-3.08l1.42-6.75c0.05-0.23,0.08-0.45,0.12-0.65
			c0.03-0.21,0.05-0.39,0.05-0.56c0-0.54-0.12-0.93-0.36-1.18c-0.24-0.25-0.56-0.38-0.95-0.38c-0.28,0-0.57,0.06-0.9,0.18
			c-0.32,0.12-0.64,0.29-0.94,0.52c-0.31,0.22-0.59,0.49-0.86,0.79c-0.27,0.31-0.49,0.64-0.68,1.01l-1.49,7.03h-3.08L454.09,85.62z"
			/>
		<path class="st0" d="M468.47,97.86c-0.74,0-1.34-0.16-1.8-0.49s-0.7-0.87-0.7-1.62c0-0.31,0.03-0.59,0.09-0.85l1.47-6.91h-1.49
			l0.51-2.37h1.47l0.83-3.9h3.08l-0.83,3.9h2.41l-0.51,2.37h-2.39l-1.26,5.88c-0.02,0.08-0.03,0.14-0.03,0.2
			c-0.01,0.05-0.01,0.11-0.01,0.17c0,0.29,0.08,0.5,0.24,0.62c0.16,0.12,0.37,0.18,0.63,0.18c0.31,0,0.61-0.05,0.91-0.15
			c0.3-0.1,0.55-0.2,0.77-0.29l0.09,2.43c-0.44,0.21-0.98,0.41-1.61,0.57C469.7,97.78,469.08,97.86,468.47,97.86z"/>
		<path class="st0" d="M476.92,80.89H480l-1.49,6.96c0.6-0.78,1.29-1.38,2.09-1.8c0.8-0.42,1.63-0.63,2.5-0.63
			c0.54,0,0.98,0.07,1.34,0.22c0.36,0.15,0.65,0.34,0.87,0.6c0.22,0.25,0.38,0.55,0.47,0.9c0.09,0.34,0.14,0.72,0.14,1.11
			c0,0.31-0.02,0.62-0.06,0.94c-0.04,0.32-0.1,0.64-0.17,0.96l-1.58,7.51h-3.08l1.42-6.75c0.09-0.43,0.14-0.8,0.14-1.13
			c0-1.1-0.47-1.65-1.4-1.65c-0.25,0-0.52,0.06-0.83,0.18c-0.31,0.12-0.61,0.29-0.91,0.52c-0.3,0.22-0.58,0.49-0.85,0.79
			c-0.27,0.31-0.49,0.64-0.68,1.01l-1.49,7.03h-3.08L476.92,80.89z"/>
	</g>
	<g>
		<g>
			<path class="st0" d="M384.84,71.4c-0.69,0-1.31-0.14-1.85-0.42c-0.54-0.28-0.99-0.65-1.35-1.12c-0.36-0.47-0.64-1.01-0.83-1.62
				c-0.19-0.61-0.29-1.25-0.29-1.91c0-0.95,0.2-1.87,0.59-2.76c0.39-0.89,0.91-1.68,1.56-2.38c0.65-0.69,1.39-1.25,2.24-1.67
				c0.84-0.42,1.71-0.62,2.6-0.62c0.69,0,1.31,0.14,1.84,0.43c0.53,0.29,0.98,0.67,1.34,1.15c0.36,0.47,0.64,1.02,0.82,1.63
				c0.19,0.61,0.28,1.24,0.28,1.89c0,0.94-0.2,1.85-0.59,2.74c-0.39,0.89-0.91,1.68-1.56,2.37c-0.65,0.69-1.39,1.24-2.22,1.66
				C386.59,71.2,385.73,71.4,384.84,71.4z M385.02,70.59c0.8,0,1.56-0.19,2.27-0.58c0.72-0.39,1.34-0.89,1.87-1.51
				c0.53-0.62,0.95-1.32,1.27-2.09s0.47-1.54,0.47-2.31c0-0.59-0.08-1.15-0.24-1.67c-0.16-0.53-0.4-0.99-0.7-1.39
				c-0.31-0.4-0.68-0.72-1.13-0.95c-0.45-0.24-0.95-0.36-1.5-0.36c-0.8,0-1.56,0.19-2.27,0.58c-0.72,0.39-1.34,0.89-1.88,1.51
				c-0.54,0.62-0.96,1.32-1.28,2.09c-0.31,0.78-0.47,1.55-0.47,2.33c0,0.59,0.08,1.15,0.24,1.67c0.16,0.53,0.4,0.99,0.7,1.39
				c0.31,0.4,0.68,0.71,1.13,0.95C383.94,70.47,384.45,70.59,385.02,70.59z"/>
			<path class="st0" d="M394.37,62.29h0.83l-0.49,2.22c0.49-0.69,1.04-1.24,1.67-1.64c0.63-0.4,1.24-0.6,1.83-0.6
				c0.12,0,0.2,0.01,0.24,0.02l-0.17,0.78c-0.78,0.02-1.49,0.26-2.16,0.72c-0.67,0.46-1.2,1.08-1.61,1.88l-1.2,5.64h-0.87
				L394.37,62.29z"/>
			<path class="st0" d="M400.47,75.19c-0.99,0-1.75-0.19-2.26-0.56c-0.51-0.38-0.88-0.88-1.1-1.52l0.66-0.4
				c0.21,0.61,0.57,1.06,1.09,1.34c0.52,0.28,1.11,0.42,1.77,0.42c0.43,0,0.85-0.06,1.27-0.19c0.42-0.13,0.79-0.32,1.14-0.56
				c0.34-0.25,0.64-0.56,0.88-0.93c0.25-0.37,0.42-0.8,0.53-1.3l0.42-1.98c-0.23,0.29-0.49,0.55-0.78,0.79
				c-0.29,0.24-0.59,0.44-0.9,0.62c-0.31,0.17-0.64,0.31-0.97,0.4c-0.34,0.09-0.66,0.14-0.97,0.14c-0.5,0-0.94-0.1-1.34-0.31
				c-0.39-0.21-0.73-0.49-1-0.83c-0.27-0.35-0.48-0.75-0.62-1.2c-0.14-0.45-0.22-0.93-0.22-1.42c0-0.69,0.14-1.37,0.42-2.04
				c0.28-0.66,0.65-1.26,1.12-1.78c0.47-0.52,1.01-0.94,1.62-1.26c0.61-0.32,1.26-0.48,1.94-0.48c0.74,0,1.34,0.21,1.81,0.62
				c0.47,0.41,0.84,0.91,1.1,1.5l0.42-1.96h0.78l-1.96,9.2c-0.13,0.61-0.35,1.15-0.67,1.61c-0.32,0.46-0.7,0.85-1.14,1.15
				c-0.44,0.31-0.92,0.54-1.44,0.69C401.55,75.11,401.02,75.19,400.47,75.19z M401.62,70.71c0.36,0,0.73-0.07,1.1-0.22
				c0.38-0.14,0.73-0.33,1.05-0.56c0.32-0.23,0.61-0.49,0.85-0.78c0.24-0.29,0.42-0.58,0.52-0.87l0.62-2.97
				c-0.06-0.35-0.16-0.67-0.32-0.96c-0.16-0.29-0.35-0.55-0.58-0.75c-0.23-0.21-0.5-0.37-0.8-0.49c-0.3-0.12-0.61-0.18-0.94-0.18
				c-0.59,0-1.14,0.14-1.64,0.43c-0.5,0.29-0.94,0.66-1.32,1.1c-0.38,0.45-0.67,0.94-0.88,1.49c-0.21,0.55-0.32,1.08-0.32,1.61
				c0,0.43,0.06,0.83,0.19,1.21c0.13,0.38,0.31,0.72,0.54,1.01c0.23,0.29,0.51,0.52,0.83,0.69
				C400.85,70.63,401.21,70.71,401.62,70.71z"/>
			<path class="st0" d="M411.46,71.49c-0.5,0-0.95-0.1-1.34-0.31c-0.4-0.21-0.74-0.49-1.02-0.83c-0.28-0.35-0.49-0.75-0.63-1.21
				c-0.14-0.46-0.22-0.94-0.22-1.45c0-0.71,0.14-1.39,0.42-2.06c0.28-0.66,0.65-1.26,1.12-1.78c0.47-0.52,1-0.94,1.61-1.25
				c0.6-0.31,1.23-0.47,1.89-0.47c0.38,0,0.73,0.06,1.03,0.17c0.31,0.12,0.58,0.27,0.82,0.46c0.24,0.19,0.45,0.41,0.62,0.67
				c0.17,0.25,0.31,0.53,0.42,0.82l0.42-1.96h0.88l-1.67,7.77c-0.02,0.09-0.04,0.16-0.04,0.21c0,0.17,0.1,0.26,0.3,0.26l-0.17,0.78
				c-0.06,0.01-0.11,0.02-0.15,0.03c-0.04,0.01-0.08,0.01-0.11,0.01c-0.23,0-0.41-0.06-0.53-0.17c-0.12-0.12-0.18-0.27-0.18-0.45
				c0-0.04,0-0.08,0.01-0.13c0.01-0.05,0.02-0.12,0.04-0.21c0.02-0.09,0.04-0.2,0.06-0.34c0.02-0.14,0.06-0.32,0.1-0.54
				c-0.47,0.6-1.04,1.08-1.7,1.44C412.78,71.31,412.12,71.49,411.46,71.49z M411.77,70.71c0.31,0,0.65-0.07,1.02-0.2
				c0.37-0.13,0.73-0.31,1.07-0.53c0.34-0.22,0.64-0.48,0.91-0.77c0.27-0.29,0.45-0.6,0.56-0.93l0.62-2.97
				c-0.05-0.32-0.15-0.63-0.3-0.92c-0.16-0.29-0.35-0.54-0.59-0.76c-0.24-0.22-0.51-0.39-0.81-0.52c-0.3-0.13-0.62-0.19-0.97-0.19
				c-0.56,0-1.08,0.14-1.58,0.42c-0.5,0.28-0.93,0.64-1.31,1.08c-0.38,0.45-0.68,0.95-0.9,1.5s-0.34,1.11-0.34,1.67
				c0,0.42,0.06,0.82,0.19,1.2c0.13,0.38,0.31,0.71,0.54,1c0.23,0.28,0.51,0.51,0.83,0.68C411.03,70.63,411.39,70.71,411.77,70.71z"
				/>
			<path class="st0" d="M420.15,62.29h0.82l-0.47,2.15c0.24-0.35,0.53-0.66,0.85-0.95c0.32-0.28,0.67-0.53,1.03-0.73
				c0.36-0.2,0.74-0.36,1.13-0.47c0.39-0.11,0.77-0.16,1.15-0.16c0.69,0,1.19,0.19,1.49,0.56c0.3,0.37,0.45,0.91,0.45,1.61
				c0,0.27-0.02,0.55-0.06,0.85c-0.04,0.3-0.1,0.62-0.16,0.97l-1.09,5.19h-0.87l1.06-5.03c0.07-0.32,0.12-0.62,0.15-0.88
				c0.03-0.27,0.04-0.51,0.04-0.73c0-1.16-0.48-1.73-1.44-1.73c-0.36,0-0.73,0.07-1.11,0.21c-0.38,0.14-0.75,0.34-1.1,0.59
				c-0.35,0.25-0.68,0.55-0.98,0.89c-0.3,0.34-0.55,0.71-0.75,1.1l-1.18,5.59h-0.87L420.15,62.29z"/>
			<path class="st0" d="M429.73,62.29h0.87l-1.91,9.02h-0.87L429.73,62.29z M430.51,58.65h0.87l-0.33,1.6h-0.87L430.51,58.65z"/>
			<path class="st0" d="M434.95,71.49c-0.52,0-0.99-0.1-1.41-0.29c-0.42-0.2-0.77-0.47-1.07-0.82c-0.29-0.35-0.52-0.75-0.68-1.21
				c-0.16-0.46-0.23-0.96-0.23-1.49c0-0.74,0.14-1.44,0.43-2.11c0.29-0.66,0.68-1.25,1.17-1.76c0.49-0.51,1.06-0.91,1.7-1.21
				c0.64-0.3,1.32-0.45,2.04-0.45c0.79,0,1.44,0.19,1.95,0.56c0.51,0.37,0.85,0.88,1.01,1.54l-0.92,0.28
				c-0.14-0.5-0.41-0.89-0.82-1.17c-0.41-0.28-0.88-0.42-1.44-0.42c-0.54,0-1.07,0.12-1.58,0.37c-0.51,0.25-0.96,0.58-1.35,1.01
				c-0.39,0.42-0.71,0.91-0.95,1.47c-0.24,0.56-0.36,1.15-0.36,1.78c0,0.44,0.06,0.85,0.19,1.24c0.13,0.39,0.3,0.72,0.53,1.01
				c0.23,0.28,0.5,0.51,0.82,0.67c0.32,0.16,0.68,0.24,1.06,0.24c0.3,0,0.61-0.05,0.92-0.14c0.31-0.09,0.61-0.21,0.88-0.36
				c0.28-0.15,0.52-0.33,0.74-0.53c0.21-0.2,0.38-0.41,0.49-0.63l0.8,0.24c-0.17,0.31-0.4,0.6-0.69,0.88
				c-0.28,0.27-0.6,0.51-0.95,0.7c-0.35,0.2-0.72,0.35-1.12,0.46S435.34,71.49,434.95,71.49z"/>
			<path class="st0" d="M446.75,71.42c-0.41,0-0.74-0.1-1.01-0.31c-0.27-0.21-0.4-0.51-0.4-0.92c0-0.06,0-0.12,0.01-0.18
				c0.01-0.06,0.01-0.13,0.03-0.2l1.46-6.8h-1.21l0.16-0.71h1.21l0.64-3.09h0.87l-0.64,3.09h2l-0.16,0.71h-2l-1.3,6.11
				c-0.08,0.37-0.12,0.6-0.12,0.69c0,0.27,0.08,0.47,0.25,0.6c0.17,0.13,0.37,0.2,0.62,0.2c0.17,0,0.34-0.02,0.49-0.05
				c0.16-0.04,0.3-0.08,0.42-0.13c0.13-0.05,0.23-0.1,0.32-0.14c0.09-0.04,0.15-0.07,0.18-0.1l0.1,0.69
				c-0.05,0.03-0.13,0.08-0.25,0.14c-0.12,0.06-0.27,0.12-0.44,0.18c-0.17,0.06-0.36,0.12-0.57,0.16
				C447.2,71.4,446.98,71.42,446.75,71.42z"/>
			<path class="st0" d="M451.93,62.29h0.83l-0.49,2.22c0.49-0.69,1.04-1.24,1.67-1.64c0.63-0.4,1.24-0.6,1.83-0.6
				c0.12,0,0.2,0.01,0.24,0.02l-0.17,0.78c-0.78,0.02-1.49,0.26-2.16,0.72c-0.67,0.46-1.2,1.08-1.61,1.88l-1.2,5.64h-0.87
				L451.93,62.29z"/>
			<path class="st0" d="M458.86,71.49c-0.5,0-0.95-0.1-1.34-0.31c-0.4-0.21-0.74-0.49-1.01-0.83c-0.28-0.35-0.49-0.75-0.63-1.21
				c-0.14-0.46-0.22-0.94-0.22-1.45c0-0.71,0.14-1.39,0.42-2.06c0.28-0.66,0.65-1.26,1.12-1.78c0.47-0.52,1-0.94,1.61-1.25
				c0.6-0.31,1.23-0.47,1.89-0.47c0.38,0,0.73,0.06,1.03,0.17c0.31,0.12,0.58,0.27,0.82,0.46c0.24,0.19,0.45,0.41,0.62,0.67
				c0.17,0.25,0.31,0.53,0.42,0.82l0.42-1.96h0.88l-1.67,7.77c-0.02,0.09-0.03,0.16-0.03,0.21c0,0.17,0.1,0.26,0.3,0.26l-0.17,0.78
				c-0.06,0.01-0.11,0.02-0.15,0.03c-0.04,0.01-0.08,0.01-0.11,0.01c-0.23,0-0.41-0.06-0.53-0.17c-0.12-0.12-0.18-0.27-0.18-0.45
				c0-0.04,0-0.08,0.01-0.13c0.01-0.05,0.02-0.12,0.03-0.21c0.02-0.09,0.04-0.2,0.06-0.34c0.02-0.14,0.06-0.32,0.1-0.54
				c-0.47,0.6-1.04,1.08-1.7,1.44C460.18,71.31,459.52,71.49,458.86,71.49z M459.17,70.71c0.31,0,0.65-0.07,1.02-0.2
				c0.37-0.13,0.73-0.31,1.07-0.53c0.34-0.22,0.64-0.48,0.91-0.77c0.27-0.29,0.45-0.6,0.55-0.93l0.62-2.97
				c-0.05-0.32-0.15-0.63-0.3-0.92c-0.16-0.29-0.35-0.54-0.59-0.76c-0.24-0.22-0.51-0.39-0.81-0.52c-0.3-0.13-0.62-0.19-0.97-0.19
				c-0.56,0-1.08,0.14-1.58,0.42c-0.5,0.28-0.93,0.64-1.31,1.08c-0.38,0.45-0.68,0.95-0.9,1.5c-0.23,0.56-0.34,1.11-0.34,1.67
				c0,0.42,0.06,0.82,0.19,1.2c0.13,0.38,0.31,0.71,0.54,1c0.23,0.28,0.51,0.51,0.83,0.68C458.44,70.63,458.79,70.71,459.17,70.71z"
				/>
			<path class="st0" d="M467.74,63.01h-1.2l0.16-0.71h1.2l0.04-0.14c0.07-0.36,0.19-0.71,0.36-1.07c0.17-0.35,0.4-0.67,0.67-0.96
				c0.27-0.29,0.59-0.52,0.95-0.7c0.36-0.18,0.76-0.27,1.21-0.27c0.38,0,0.71,0.05,1,0.15c0.28,0.1,0.51,0.21,0.67,0.32
				c0.32-0.35,0.69-0.62,1.1-0.83c0.41-0.21,0.89-0.31,1.43-0.31c0.28,0,0.53,0.03,0.77,0.09c0.24,0.06,0.45,0.12,0.63,0.2
				c0.18,0.08,0.34,0.16,0.47,0.24c0.13,0.09,0.22,0.15,0.28,0.2l-0.57,0.61c-0.12-0.14-0.33-0.27-0.64-0.38
				c-0.31-0.12-0.65-0.17-1.02-0.17c-0.41,0-0.76,0.08-1.07,0.25c-0.31,0.17-0.57,0.38-0.8,0.64c-0.23,0.26-0.41,0.55-0.56,0.88
				c-0.14,0.32-0.25,0.64-0.3,0.95l-0.07,0.31h4.22l-1.93,9.02h-0.87l1.77-8.31h-3.35l-1.77,8.31h-0.87l1.77-8.31h-2.81l-1.75,8.31
				h-0.87L467.74,63.01z M471.58,62.29c0.08-0.37,0.18-0.73,0.31-1.08c0.13-0.35,0.28-0.65,0.47-0.92c-0.16-0.15-0.37-0.25-0.62-0.3
				c-0.25-0.05-0.47-0.07-0.65-0.07c-0.36,0-0.67,0.07-0.94,0.22c-0.27,0.14-0.49,0.32-0.68,0.54c-0.19,0.21-0.33,0.45-0.44,0.71
				c-0.11,0.26-0.19,0.51-0.23,0.76l-0.04,0.14H471.58z"/>
			<path class="st0" d="M481.01,71.49c-0.52,0-0.99-0.1-1.41-0.29c-0.42-0.2-0.77-0.47-1.07-0.82c-0.29-0.35-0.52-0.75-0.68-1.21
				c-0.16-0.46-0.23-0.96-0.23-1.49c0-0.74,0.14-1.44,0.43-2.11c0.29-0.66,0.68-1.25,1.17-1.76c0.49-0.51,1.06-0.91,1.7-1.21
				c0.64-0.3,1.32-0.45,2.04-0.45c0.79,0,1.44,0.19,1.95,0.56c0.51,0.37,0.85,0.88,1.01,1.54l-0.92,0.28
				c-0.14-0.5-0.41-0.89-0.82-1.17c-0.41-0.28-0.88-0.42-1.44-0.42c-0.54,0-1.07,0.12-1.58,0.37c-0.51,0.25-0.96,0.58-1.35,1.01
				c-0.39,0.42-0.71,0.91-0.95,1.47c-0.24,0.56-0.36,1.15-0.36,1.78c0,0.44,0.06,0.85,0.19,1.24c0.13,0.39,0.3,0.72,0.53,1.01
				c0.23,0.28,0.5,0.51,0.82,0.67c0.32,0.16,0.68,0.24,1.06,0.24c0.3,0,0.61-0.05,0.92-0.14c0.31-0.09,0.61-0.21,0.88-0.36
				c0.28-0.15,0.52-0.33,0.74-0.53c0.21-0.2,0.38-0.41,0.49-0.63l0.8,0.24c-0.17,0.31-0.4,0.6-0.69,0.88
				c-0.28,0.27-0.6,0.51-0.95,0.7c-0.35,0.2-0.72,0.35-1.12,0.46S481.41,71.49,481.01,71.49z"/>
		</g>
	</g>
	<g transform="translate(-869.063 -281.637)">
		<path class="st15" d="M892.34,360.7c-1.86,0.07-3.62-0.81-4.7-2.32c-2.29-4.02-2.28-8.95,0.03-12.96
			c1.11-1.53,2.91-2.41,4.79-2.33c1.96-0.09,3.82,0.86,4.89,2.49h0.15c-0.22-1.12-0.33-2.25-0.35-3.39v-5.44h4.65v23.65h-3.55
			l-0.9-2.2h-0.2C896.14,359.85,894.29,360.81,892.34,360.7z M893.97,357c0.98,0.09,1.95-0.3,2.61-1.03
			c0.66-1.05,0.97-2.28,0.91-3.51v-0.5c0.11-1.36-0.18-2.73-0.84-3.92c-0.66-0.83-1.69-1.28-2.74-1.18
			c-0.98-0.03-1.9,0.48-2.41,1.31c-0.64,1.17-0.94,2.49-0.86,3.82c-0.09,1.31,0.21,2.62,0.87,3.76
			C892.05,356.57,892.99,357.05,893.97,357L893.97,357z"/>
		<path class="st15" d="M914.35,360.7c-2.35,0.14-4.67-0.68-6.41-2.26c-1.62-1.73-2.46-4.05-2.31-6.41
			c-0.15-2.39,0.61-4.75,2.13-6.6c1.53-1.6,3.69-2.45,5.91-2.33c2.07-0.12,4.11,0.62,5.61,2.05c1.4,1.54,2.12,3.59,2.01,5.67v2.25
			h-10.96c-0.02,1.14,0.4,2.24,1.17,3.09c0.83,0.78,1.94,1.18,3.07,1.11c0.98,0.01,1.95-0.1,2.9-0.32c0.99-0.24,1.94-0.58,2.86-1.02
			v3.59c-0.82,0.41-1.7,0.71-2.6,0.91C916.62,360.62,915.49,360.72,914.35,360.7z M913.7,346.38c-0.87-0.05-1.72,0.3-2.31,0.93
			c-0.61,0.75-0.94,1.69-0.96,2.65h6.51c0.04-0.96-0.28-1.91-0.9-2.65C915.43,346.68,914.58,346.34,913.7,346.38L913.7,346.38z"/>
		<path class="st15" d="M928.23,351.72l-5.47-8.31h5.26l3.3,5.41l3.33-5.41h5.26l-5.54,8.31l5.79,8.68h-5.27l-3.57-5.82l-3.59,5.82
			h-5.26L928.23,351.72z"/>
		<path class="st15" d="M953.54,360.4l-0.9-2.31h-0.12c-0.63,0.86-1.46,1.56-2.41,2.04c-1.02,0.42-2.12,0.61-3.23,0.57
			c-1.42,0.08-2.81-0.43-3.85-1.4c-0.99-1.08-1.5-2.52-1.41-3.98c-0.11-1.57,0.61-3.08,1.89-3.99c1.74-0.98,3.71-1.48,5.71-1.42
			l2.95-0.09v-0.74c0.16-1.27-0.73-2.43-1.99-2.59c-0.22-0.03-0.44-0.03-0.65,0.01c-1.66,0.08-3.29,0.5-4.79,1.23l-1.53-3.13
			c2.01-1.04,4.24-1.56,6.51-1.53c1.87-0.12,3.72,0.4,5.24,1.49c1.28,1.14,1.95,2.82,1.82,4.53v11.32L953.54,360.4z M952.17,352.52
			l-1.79,0.06c-1.05-0.04-2.09,0.22-3.01,0.73c-0.67,0.46-1.04,1.23-0.99,2.04c0,1.31,0.75,1.96,2.25,1.96
			c0.95,0.05,1.88-0.29,2.58-0.93c0.66-0.65,1.01-1.54,0.96-2.46L952.17,352.52z"/>
		<path class="st15" d="M968.7,357c0.99-0.03,1.98-0.21,2.92-0.53v3.45c-1.35,0.55-2.8,0.82-4.26,0.77
			c-1.49,0.13-2.96-0.38-4.05-1.41c-0.93-1.2-1.38-2.7-1.27-4.22v-8.19h-2.22v-1.96l2.55-1.55l1.34-3.59h2.96v3.62h4.76v3.48h-4.76
			v8.19c-0.05,0.55,0.16,1.09,0.55,1.46C967.65,356.86,968.17,357.03,968.7,357z"/>
		<path class="st15" d="M982.75,360.7c-2.35,0.14-4.67-0.68-6.41-2.26c-1.62-1.73-2.46-4.05-2.31-6.41
			c-0.15-2.39,0.61-4.75,2.13-6.6c1.53-1.6,3.69-2.45,5.91-2.33c2.07-0.12,4.11,0.62,5.61,2.05c1.4,1.54,2.12,3.59,2.01,5.67v2.25
			h-10.96c-0.02,1.14,0.4,2.24,1.17,3.09c0.83,0.78,1.94,1.18,3.07,1.11c0.98,0.01,1.95-0.1,2.9-0.32c0.99-0.24,1.94-0.58,2.86-1.02
			v3.59c-0.83,0.41-1.7,0.71-2.6,0.91C985.01,360.61,983.88,360.72,982.75,360.7z M982.1,346.38c-0.87-0.05-1.72,0.3-2.31,0.93
			c-0.61,0.75-0.94,1.69-0.96,2.65h6.51c0.04-0.96-0.28-1.91-0.9-2.65C983.83,346.68,982.97,346.34,982.1,346.38z"/>
		<path class="st15" d="M998.08,360.4h-4.64v-23.65h4.64V360.4z"/>
		<circle class="st16" cx="963.1" cy="330.2" r="3.27"/>
		<circle class="st16" cx="978.96" cy="327.88" r="3.27"/>
		<circle class="st16" cx="994.81" cy="325.55" r="3.27"/>
	</g>
</g>
</svg>
