<?xml version="1.0" encoding="utf-8"?>
<!-- Generator: Adobe Illustrator 24.1.2, SVG Export Plug-In . SVG Version: 6.00 Build 0)  -->
<svg version="1.1" id="Layer_1" xmlns="http://www.w3.org/2000/svg" xmlns:xlink="http://www.w3.org/1999/xlink" x="0px" y="0px"
	 viewBox="0 0 540 260" style="enable-background:new 0 0 540 260;" xml:space="preserve">
<style type="text/css">
	.st0{fill:#50A2C8;}
	.st1{fill:url(#SVGID_1_);}
	.st2{fill:none;stroke:#FFFFFF;stroke-width:1.1025;stroke-miterlimit:10;}
	.st3{fill:#FFFFFF;}
	.st4{clip-path:url(#SVGID_3_);}
	.st5{opacity:0.55;fill:url(#SVGID_4_);}
	.st6{fill:none;stroke:#50A2C8;stroke-width:0.5513;stroke-miterlimit:10;}
	.st7{fill:#FFFFFF;stroke:#50A2C8;stroke-width:0.5513;stroke-miterlimit:10;}
	.st8{fill:#50A2C8;stroke:#FFFFFF;stroke-width:0.2756;stroke-miterlimit:10;}
	.st9{fill:url(#SVGID_5_);}
	.st10{fill:none;stroke:#FFFFFF;stroke-width:1.1031;stroke-miterlimit:10;}
	.st11{opacity:0.55;fill:url(#SVGID_6_);}
	.st12{fill:none;stroke:#50A2C8;stroke-width:0.5515;stroke-miterlimit:10;}
	.st13{fill:#FFFFFF;stroke:#50A2C8;stroke-width:0.5515;stroke-miterlimit:10;}
	.st14{fill:#50A2C8;stroke:#FFFFFF;stroke-width:0.2758;stroke-miterlimit:10;}
	.st15{fill:#3B6FD9;}
	.st16{fill:#F2DCDE;}
	.st17{fill:#F5C721;}
	.st18{fill:url(#SVGID_7_);}
	.st19{fill:none;stroke:#FFFFFF;stroke-width:1.1048;stroke-miterlimit:10;}
	.st20{fill:url(#SVGID_8_);}
	.st21{fill:none;stroke:#F5C721;stroke-width:0.4143;stroke-miterlimit:10;}
	.st22{fill:#FFFFFF;stroke:#F5C721;stroke-width:0.4143;stroke-miterlimit:10;}
	.st23{fill:#FFFFFF;stroke:#F5C721;stroke-width:0.5524;stroke-miterlimit:10;}
</style>
<g>
	<g>
		<g>
			<path class="st0" d="M515.94,223c-0.34,0-0.65-0.07-0.93-0.21c-0.28-0.14-0.51-0.33-0.7-0.58c-0.19-0.24-0.34-0.54-0.44-0.88
				c-0.1-0.34-0.16-0.71-0.16-1.12c0-0.63,0.1-1.21,0.31-1.75c0.21-0.54,0.49-1.02,0.83-1.43s0.75-0.73,1.21-0.97
				c0.46-0.24,0.93-0.35,1.43-0.35c0.34,0,0.65,0.07,0.93,0.21c0.28,0.14,0.51,0.33,0.7,0.58s0.34,0.54,0.44,0.88
				c0.1,0.34,0.16,0.72,0.16,1.13c0,0.63-0.1,1.21-0.31,1.75c-0.21,0.54-0.49,1.02-0.84,1.43c-0.35,0.41-0.76,0.73-1.21,0.96
				C516.91,222.88,516.43,223,515.94,223z M516.15,222.02c0.33,0,0.64-0.09,0.95-0.26c0.3-0.18,0.57-0.42,0.8-0.72
				c0.23-0.3,0.41-0.66,0.55-1.08c0.14-0.41,0.2-0.85,0.2-1.33c0-0.58-0.12-1.04-0.36-1.4s-0.57-0.53-1-0.53
				c-0.34,0-0.66,0.09-0.96,0.27c-0.3,0.18-0.57,0.42-0.8,0.73c-0.23,0.3-0.41,0.66-0.55,1.08c-0.14,0.42-0.2,0.86-0.2,1.32
				c0,0.58,0.12,1.04,0.36,1.39C515.38,221.84,515.72,222.02,516.15,222.02z"/>
		</g>
	</g>
	<g>
		<g>
			<path class="st0" d="M513.41,185.9h1.62l1-4.68c-0.09,0.1-0.22,0.2-0.38,0.31c-0.17,0.11-0.35,0.21-0.55,0.3
				c-0.2,0.09-0.4,0.17-0.6,0.23c-0.2,0.06-0.38,0.1-0.53,0.1l0.22-1.01c0.17,0,0.36-0.05,0.59-0.15c0.22-0.1,0.44-0.22,0.66-0.35
				c0.22-0.13,0.4-0.26,0.56-0.38c0.16-0.12,0.26-0.21,0.29-0.26h1.08l-1.25,5.9h1.45l-0.2,0.96h-4.16L513.41,185.9z"/>
			<path class="st0" d="M521.16,186.98c-0.34,0-0.65-0.07-0.93-0.21s-0.51-0.33-0.7-0.58c-0.19-0.24-0.34-0.54-0.44-0.88
				c-0.1-0.34-0.16-0.71-0.16-1.12c0-0.62,0.1-1.21,0.31-1.75c0.21-0.54,0.49-1.02,0.83-1.43c0.35-0.41,0.75-0.73,1.21-0.97
				c0.46-0.24,0.93-0.35,1.43-0.35c0.34,0,0.65,0.07,0.93,0.21c0.28,0.14,0.51,0.33,0.7,0.58c0.19,0.24,0.34,0.54,0.44,0.88
				c0.1,0.34,0.16,0.72,0.16,1.13c0,0.62-0.1,1.21-0.31,1.75c-0.21,0.54-0.49,1.02-0.84,1.43c-0.35,0.41-0.76,0.73-1.21,0.96
				C522.12,186.86,521.65,186.98,521.16,186.98z M521.36,185.99c0.33,0,0.64-0.09,0.95-0.26c0.3-0.18,0.57-0.42,0.8-0.72
				c0.23-0.3,0.41-0.66,0.55-1.08c0.14-0.41,0.2-0.85,0.2-1.33c0-0.58-0.12-1.04-0.36-1.4c-0.24-0.36-0.57-0.54-1-0.54
				c-0.34,0-0.66,0.09-0.96,0.27c-0.3,0.18-0.57,0.42-0.8,0.73c-0.23,0.3-0.41,0.67-0.55,1.08c-0.14,0.42-0.2,0.86-0.2,1.32
				c0,0.58,0.12,1.04,0.36,1.39C520.59,185.82,520.93,185.99,521.36,185.99z"/>
			<path class="st0" d="M527.57,178.34h1.08l-1.01,4.71l5.11-4.72h1.18l-4.04,3.76l2.4,4.77h-1.19l-2.02-4.14l-1.69,1.54l-0.55,2.61
				h-1.08L527.57,178.34z"/>
		</g>
	</g>
	<g>
		<g>
			<path class="st0" d="M513.19,151.6c0.11-0.28,0.26-0.55,0.44-0.8c0.19-0.25,0.43-0.5,0.72-0.73c0.29-0.24,0.65-0.47,1.09-0.69
				c0.28-0.14,0.56-0.28,0.85-0.41c0.29-0.13,0.55-0.27,0.77-0.42c0.23-0.15,0.41-0.31,0.56-0.49c0.14-0.18,0.22-0.39,0.22-0.63
				c0-0.24-0.09-0.46-0.28-0.65c-0.18-0.2-0.47-0.29-0.85-0.29c-0.22,0-0.43,0.03-0.63,0.1c-0.2,0.07-0.38,0.15-0.54,0.25
				s-0.31,0.21-0.44,0.32c-0.13,0.11-0.24,0.21-0.34,0.3l-0.52-0.77c0.08-0.07,0.21-0.17,0.38-0.29c0.18-0.12,0.39-0.25,0.64-0.38
				c0.25-0.13,0.53-0.24,0.84-0.33c0.31-0.09,0.64-0.14,1-0.14c0.31,0,0.59,0.04,0.82,0.13c0.24,0.08,0.44,0.2,0.6,0.34
				c0.16,0.14,0.29,0.31,0.37,0.51c0.08,0.2,0.13,0.41,0.13,0.63c0,0.36-0.08,0.68-0.25,0.95c-0.16,0.27-0.36,0.51-0.6,0.71
				c-0.24,0.2-0.49,0.37-0.76,0.51c-0.27,0.14-0.51,0.26-0.71,0.35c-0.18,0.09-0.39,0.19-0.62,0.32c-0.23,0.12-0.45,0.26-0.67,0.42
				c-0.22,0.16-0.42,0.33-0.6,0.52c-0.18,0.19-0.31,0.4-0.4,0.62h3.82l-0.2,0.96h-5.12C512.99,152.19,513.08,151.89,513.19,151.6z"
				/>
			<path class="st0" d="M522.12,152.63c-0.34,0-0.65-0.07-0.93-0.21c-0.28-0.14-0.51-0.33-0.7-0.58s-0.34-0.54-0.44-0.88
				c-0.1-0.34-0.16-0.71-0.16-1.12c0-0.63,0.1-1.21,0.31-1.75c0.21-0.54,0.49-1.02,0.83-1.43c0.35-0.41,0.75-0.73,1.21-0.97
				c0.46-0.24,0.93-0.35,1.43-0.35c0.34,0,0.65,0.07,0.93,0.21c0.28,0.14,0.51,0.33,0.7,0.58c0.19,0.24,0.34,0.54,0.44,0.88
				c0.1,0.34,0.16,0.72,0.16,1.13c0,0.63-0.1,1.21-0.31,1.75c-0.21,0.54-0.49,1.02-0.84,1.43c-0.35,0.41-0.76,0.73-1.21,0.96
				C523.08,152.51,522.61,152.63,522.12,152.63z M522.32,151.64c0.33,0,0.64-0.09,0.95-0.26c0.3-0.18,0.57-0.42,0.8-0.72
				c0.23-0.3,0.41-0.66,0.55-1.08c0.14-0.41,0.2-0.85,0.2-1.33c0-0.58-0.12-1.04-0.36-1.4c-0.24-0.36-0.57-0.53-1-0.53
				c-0.34,0-0.66,0.09-0.96,0.27c-0.3,0.18-0.57,0.42-0.8,0.73c-0.23,0.3-0.41,0.66-0.55,1.08c-0.14,0.42-0.2,0.86-0.2,1.32
				c0,0.58,0.12,1.04,0.36,1.39C521.55,151.47,521.89,151.64,522.32,151.64z"/>
			<path class="st0" d="M528.53,143.99h1.08l-1.01,4.71l5.11-4.72h1.18l-4.04,3.76l2.4,4.77h-1.19l-2.02-4.14l-1.69,1.54l-0.55,2.61
				h-1.08L528.53,143.99z"/>
		</g>
	</g>
	<g>
		<g>
			<path class="st0" d="M515,119.93c-0.58,0-1.06-0.11-1.45-0.34c-0.39-0.23-0.67-0.55-0.83-0.97l0.84-0.71
				c0.11,0.33,0.29,0.59,0.55,0.78c0.25,0.19,0.61,0.28,1.09,0.28c0.62,0,1.12-0.16,1.48-0.48c0.36-0.32,0.55-0.78,0.55-1.37
				c0-0.4-0.13-0.72-0.39-0.96c-0.26-0.24-0.65-0.35-1.18-0.35h-0.3l0.19-0.89h0.32c0.31,0,0.59-0.05,0.85-0.14
				c0.25-0.09,0.46-0.22,0.64-0.37c0.17-0.16,0.31-0.34,0.4-0.55c0.1-0.21,0.14-0.43,0.14-0.67c0-0.34-0.11-0.59-0.34-0.75
				c-0.22-0.16-0.52-0.25-0.89-0.25c-0.41,0-0.79,0.09-1.14,0.28c-0.35,0.19-0.65,0.45-0.91,0.79l-0.5-0.67
				c0.14-0.2,0.32-0.38,0.53-0.55c0.21-0.16,0.44-0.31,0.69-0.43c0.25-0.12,0.52-0.21,0.79-0.28c0.28-0.06,0.56-0.1,0.85-0.1
				c0.64,0,1.14,0.16,1.51,0.48s0.55,0.74,0.55,1.27c0,0.27-0.05,0.54-0.14,0.8c-0.1,0.26-0.23,0.5-0.4,0.71
				c-0.17,0.21-0.37,0.39-0.6,0.53c-0.23,0.14-0.48,0.24-0.76,0.29c0.38,0.07,0.68,0.26,0.89,0.56c0.21,0.3,0.31,0.67,0.31,1.1
				c0,0.43-0.08,0.83-0.25,1.19c-0.17,0.36-0.4,0.67-0.7,0.93c-0.3,0.26-0.65,0.46-1.06,0.61
				C515.92,119.85,515.48,119.93,515,119.93z"/>
			<path class="st0" d="M522.18,118.28c-0.34,0-0.65-0.07-0.93-0.21s-0.51-0.33-0.7-0.58c-0.19-0.24-0.34-0.54-0.44-0.88
				c-0.1-0.34-0.16-0.71-0.16-1.12c0-0.63,0.1-1.21,0.31-1.75c0.21-0.54,0.49-1.02,0.83-1.43c0.35-0.41,0.75-0.73,1.21-0.97
				c0.46-0.24,0.93-0.35,1.43-0.35c0.34,0,0.65,0.07,0.93,0.21c0.28,0.14,0.51,0.33,0.7,0.58c0.19,0.24,0.34,0.54,0.44,0.88
				c0.1,0.34,0.16,0.72,0.16,1.13c0,0.63-0.1,1.21-0.31,1.75c-0.21,0.54-0.49,1.02-0.84,1.43c-0.35,0.41-0.76,0.73-1.21,0.96
				C523.14,118.16,522.67,118.28,522.18,118.28z M522.38,117.3c0.33,0,0.64-0.09,0.95-0.26c0.3-0.18,0.57-0.42,0.8-0.72
				s0.41-0.66,0.55-1.08c0.14-0.41,0.2-0.85,0.2-1.33c0-0.58-0.12-1.04-0.36-1.4c-0.24-0.36-0.57-0.53-1-0.53
				c-0.34,0-0.66,0.09-0.96,0.27c-0.3,0.18-0.57,0.42-0.8,0.73c-0.23,0.3-0.41,0.66-0.55,1.08c-0.14,0.42-0.2,0.86-0.2,1.32
				c0,0.58,0.12,1.04,0.36,1.39C521.61,117.12,521.95,117.3,522.38,117.3z"/>
			<path class="st0" d="M528.59,109.64h1.08l-1.01,4.71l5.1-4.72h1.18l-4.04,3.76l2.4,4.77h-1.19l-2.02-4.14l-1.69,1.54l-0.55,2.61
				h-1.08L528.59,109.64z"/>
		</g>
	</g>
	<linearGradient id="SVGID_1_" gradientUnits="userSpaceOnUse" x1="237.6201" y1="-20.5187" x2="352.3026" y2="457.0918">
		<stop  offset="0.158" style="stop-color:#FFFFFF"/>
		<stop  offset="0.2544" style="stop-color:#FAFCFD"/>
		<stop  offset="0.3722" style="stop-color:#EBF4F9"/>
		<stop  offset="0.5012" style="stop-color:#D2E7F1"/>
		<stop  offset="0.6382" style="stop-color:#AFD5E6"/>
		<stop  offset="0.7799" style="stop-color:#84BDD8"/>
		<stop  offset="0.9215" style="stop-color:#50A2C8"/>
	</linearGradient>
	<rect x="52.96" y="49.59" class="st1" width="444.61" height="173.29"/>
	<line class="st2" x1="48.07" y1="186.86" x2="509.15" y2="186.86"/>
	<line class="st2" x1="48.07" y1="152.51" x2="509.15" y2="152.51"/>
	<line class="st2" x1="48.07" y1="118.16" x2="509.15" y2="118.16"/>
	<g>
		<rect x="34.26" y="43.57" class="st3" width="99.38" height="39.22"/>
		<g>
			<g>
				<defs>
					<rect id="SVGID_2_" x="17.05" y="37" width="108.16" height="53.38"/>
				</defs>
				<clipPath id="SVGID_3_">
					<use xlink:href="#SVGID_2_"  style="overflow:visible;"/>
				</clipPath>
				<g class="st4">
					<path class="st3" d="M19.37,39.15c-0.13,0-0.26,0.06-0.35,0.17c-0.09,0.11-0.15,0.26-0.15,0.41v29.74
						c0,0.16,0.05,0.3,0.15,0.41c0.09,0.11,0.22,0.17,0.35,0.17h11.31c0.61,0,1.2,0.29,1.63,0.8c0.43,0.51,0.68,1.21,0.68,1.93v8.08
						c0,0.11,0.03,0.23,0.08,0.32c0.05,0.09,0.13,0.17,0.22,0.22c0.09,0.05,0.19,0.06,0.28,0.04c0.09-0.02,0.18-0.07,0.25-0.15
						l9.5-10.5c0.43-0.47,0.99-0.74,1.58-0.74h72.26c0.13,0,0.26-0.06,0.35-0.17c0.09-0.11,0.15-0.26,0.15-0.41V39.73
						c0-0.16-0.05-0.3-0.15-0.41c-0.09-0.11-0.22-0.17-0.35-0.17L19.37,39.15z"/>
					<path d="M31.89,45.71v8.16c0,0.79-0.27,1.54-0.73,2.1s-1.11,0.87-1.77,0.87h-3.14v9.12c0,0.14-0.05,0.27-0.13,0.37
						c-0.08,0.1-0.2,0.15-0.31,0.15h-3.51c-0.12,0-0.23-0.05-0.31-0.15c-0.08-0.1-0.13-0.23-0.13-0.37V43.26
						c0-0.07,0.01-0.13,0.03-0.2c0.02-0.06,0.05-0.12,0.09-0.17c0.04-0.05,0.09-0.09,0.14-0.11c0.05-0.03,0.11-0.04,0.17-0.04h7.09
						c0.33,0,0.66,0.08,0.96,0.23c0.3,0.15,0.58,0.37,0.81,0.64c0.23,0.27,0.42,0.6,0.54,0.96C31.83,44.93,31.89,45.32,31.89,45.71
						L31.89,45.71z M26.24,53.12h0.63c0.17,0,0.33-0.08,0.45-0.22c0.12-0.14,0.18-0.33,0.18-0.52v-5.19c0-0.1-0.02-0.2-0.05-0.28
						c-0.03-0.09-0.08-0.17-0.14-0.24c-0.06-0.07-0.13-0.12-0.2-0.16c-0.08-0.04-0.16-0.06-0.24-0.05h-0.63L26.24,53.12z"/>
					<path d="M40.42,42.74c0.33,0,0.66,0.08,0.96,0.23c0.3,0.15,0.58,0.37,0.81,0.64c0.23,0.27,0.42,0.6,0.54,0.96
						c0.12,0.36,0.19,0.75,0.19,1.13v17.8c0,0.79-0.27,1.54-0.73,2.1c-0.47,0.55-1.11,0.87-1.77,0.87H35.4
						c-0.66,0-1.3-0.31-1.77-0.87c-0.47-0.55-0.73-1.31-0.73-2.1v-17.8c0-0.79,0.27-1.54,0.73-2.1c0.47-0.55,1.11-0.87,1.77-0.87
						L40.42,42.74L40.42,42.74z M38.54,47.19c0-0.2-0.07-0.38-0.18-0.52c-0.12-0.14-0.28-0.22-0.45-0.22
						c-0.17,0-0.33,0.08-0.44,0.22c-0.12,0.14-0.18,0.33-0.18,0.52v14.83c0,0.2,0.07,0.38,0.18,0.52c0.12,0.14,0.28,0.22,0.44,0.22
						c0.17,0,0.33-0.08,0.45-0.22c0.12-0.14,0.18-0.33,0.18-0.52V47.19z"/>
					<path d="M53.95,63.5c0,0.79-0.27,1.54-0.73,2.1c-0.47,0.55-1.11,0.87-1.77,0.87h-7.09c-0.12,0-0.23-0.05-0.31-0.15
						c-0.08-0.1-0.13-0.23-0.13-0.37V43.26c0-0.14,0.05-0.27,0.13-0.37c0.08-0.1,0.2-0.15,0.31-0.15h7.09c0.66,0,1.3,0.31,1.77,0.87
						c0.47,0.55,0.73,1.31,0.73,2.1V63.5z M48.3,62.76h0.63c0.17,0,0.33-0.08,0.45-0.22c0.12-0.14,0.18-0.33,0.18-0.52V47.19
						c0-0.1-0.02-0.2-0.05-0.28c-0.03-0.09-0.08-0.17-0.14-0.24c-0.06-0.07-0.13-0.12-0.2-0.16c-0.08-0.04-0.16-0.06-0.24-0.05H48.3
						L48.3,62.76L48.3,62.76z"/>
					<path d="M54.92,63.5v-17.8c0-0.79,0.27-1.54,0.73-2.1c0.47-0.55,1.11-0.87,1.77-0.87h5.02c0.66,0,1.3,0.31,1.77,0.87
						c0.47,0.55,0.73,1.31,0.73,2.1v4.67c0,0.07-0.01,0.13-0.03,0.2c-0.02,0.06-0.05,0.12-0.09,0.17c-0.04,0.05-0.09,0.09-0.14,0.11
						c-0.05,0.03-0.11,0.04-0.17,0.04H61c-0.06,0-0.12-0.01-0.17-0.04c-0.05-0.03-0.1-0.06-0.14-0.11
						c-0.04-0.05-0.07-0.11-0.09-0.17c-0.02-0.06-0.03-0.13-0.03-0.2v-3.16c0-0.2-0.06-0.39-0.17-0.53
						c-0.11-0.14-0.27-0.23-0.44-0.24c-0.09,0-0.17,0.02-0.25,0.05c-0.08,0.04-0.15,0.09-0.21,0.16c-0.06,0.07-0.11,0.15-0.14,0.24
						c-0.03,0.09-0.05,0.19-0.05,0.29v14.8c0,0.2,0.06,0.39,0.17,0.53s0.27,0.23,0.44,0.24c0.09,0,0.17-0.02,0.25-0.05
						c0.08-0.04,0.15-0.09,0.21-0.16c0.06-0.07,0.11-0.15,0.14-0.24s0.05-0.19,0.05-0.29v-3.19c0-0.14,0.05-0.27,0.13-0.37
						s0.2-0.15,0.31-0.15h3.51c0.06,0,0.12,0.01,0.17,0.04c0.05,0.03,0.1,0.06,0.14,0.11c0.04,0.05,0.07,0.11,0.09,0.17
						c0.02,0.06,0.03,0.13,0.03,0.2v4.67c0,0.39-0.06,0.77-0.19,1.13c-0.12,0.36-0.31,0.69-0.54,0.96
						c-0.23,0.27-0.51,0.49-0.81,0.64s-0.63,0.23-0.96,0.23h-5.02c-0.33,0-0.66-0.08-0.96-0.23c-0.3-0.15-0.58-0.37-0.81-0.64
						c-0.23-0.27-0.42-0.6-0.54-0.96C54.98,64.28,54.92,63.89,54.92,63.5L54.92,63.5z"/>
					<path d="M71.94,62.76h-1.9L69.77,66c-0.01,0.13-0.06,0.25-0.14,0.33c-0.08,0.09-0.19,0.13-0.3,0.13h-2.87
						c-0.06,0-0.12-0.02-0.18-0.05c-0.06-0.03-0.11-0.07-0.15-0.13c-0.04-0.05-0.07-0.12-0.09-0.19c-0.02-0.07-0.02-0.14-0.02-0.22
						l2.4-22.69c0.01-0.12,0.06-0.24,0.15-0.32c0.08-0.08,0.18-0.13,0.29-0.13h4.24c0.11,0,0.21,0.05,0.29,0.13
						c0.08,0.08,0.13,0.2,0.15,0.32l2.4,22.69c0.01,0.07,0,0.15-0.02,0.22c-0.02,0.07-0.05,0.13-0.09,0.19
						c-0.04,0.05-0.09,0.1-0.15,0.13c-0.06,0.03-0.12,0.05-0.18,0.05h-2.87c-0.11,0-0.21-0.05-0.3-0.13
						c-0.08-0.09-0.13-0.21-0.14-0.34L71.94,62.76z M71.58,58.31l-0.6-7.41l-0.6,7.41H71.58z"/>
					<path d="M81.37,49.79c-0.01,0.69,0.22,1.36,0.63,1.85l4.39,5.19c0.2,0.24,0.37,0.53,0.47,0.85c0.11,0.32,0.16,0.66,0.16,1v4.82
						c0,0.79-0.27,1.54-0.73,2.1s-1.11,0.87-1.77,0.87h-5.02c-0.33,0-0.66-0.08-0.96-0.23s-0.58-0.37-0.81-0.64
						c-0.23-0.27-0.42-0.6-0.54-0.96c-0.12-0.36-0.19-0.75-0.19-1.13v-4.67c0-0.14,0.05-0.27,0.13-0.37c0.08-0.1,0.2-0.15,0.31-0.15
						h3.51c0.12,0,0.23,0.05,0.31,0.15c0.08,0.1,0.13,0.23,0.13,0.37V62c0,0.18,0.05,0.36,0.15,0.5c0.1,0.14,0.24,0.23,0.39,0.26
						c0.09,0.01,0.18,0.01,0.27-0.02s0.16-0.08,0.23-0.15c0.07-0.07,0.12-0.16,0.16-0.25c0.04-0.1,0.05-0.2,0.05-0.3v-2.59
						c0.01-0.69-0.22-1.36-0.63-1.85l-4.39-5.19c-0.41-0.5-0.63-1.16-0.63-1.85v-4.82c0-0.39,0.06-0.77,0.19-1.13
						c0.13-0.36,0.31-0.69,0.54-0.96c0.23-0.27,0.51-0.49,0.81-0.64c0.3-0.15,0.63-0.23,0.96-0.23h5.02c0.66,0,1.3,0.31,1.77,0.87
						c0.47,0.55,0.73,1.31,0.73,2.1v4.67c0,0.14-0.05,0.27-0.13,0.37s-0.2,0.15-0.31,0.15h-3.51c-0.12,0-0.23-0.05-0.31-0.15
						c-0.08-0.1-0.13-0.23-0.13-0.37v-3.16c0-0.2-0.06-0.39-0.17-0.53c-0.11-0.14-0.27-0.23-0.44-0.24c-0.09,0-0.17,0.02-0.25,0.05
						c-0.08,0.04-0.15,0.09-0.21,0.16c-0.06,0.07-0.11,0.15-0.14,0.24s-0.05,0.19-0.05,0.29L81.37,49.79z"/>
					<path d="M98.06,43.26v2.67c0,0.14-0.05,0.27-0.13,0.37c-0.08,0.1-0.2,0.15-0.31,0.15h-2.38v19.5c0,0.07-0.01,0.13-0.03,0.2
						c-0.02,0.06-0.05,0.12-0.09,0.17c-0.04,0.05-0.09,0.09-0.14,0.11c-0.05,0.03-0.11,0.04-0.17,0.04h-3.51
						c-0.06,0-0.12-0.01-0.17-0.04c-0.05-0.03-0.1-0.06-0.14-0.11c-0.04-0.05-0.07-0.11-0.09-0.17c-0.02-0.06-0.03-0.13-0.03-0.2
						v-19.5h-2.38c-0.12,0-0.23-0.05-0.31-0.15s-0.13-0.23-0.13-0.37v-2.67c0-0.07,0.01-0.13,0.03-0.2
						c0.02-0.06,0.05-0.12,0.09-0.17c0.04-0.05,0.09-0.09,0.14-0.11c0.05-0.03,0.11-0.04,0.17-0.04h9.16c0.06,0,0.12,0.01,0.17,0.04
						c0.05,0.03,0.1,0.06,0.14,0.11c0.04,0.05,0.07,0.11,0.09,0.17C98.04,43.12,98.06,43.19,98.06,43.26L98.06,43.26z"/>
					<path d="M105.8,66.44h-6.34c-0.12,0-0.23-0.05-0.31-0.15c-0.08-0.1-0.13-0.23-0.13-0.37V43.24c0-0.07,0.01-0.13,0.03-0.2
						c0.02-0.06,0.05-0.12,0.09-0.17c0.04-0.05,0.09-0.09,0.14-0.11c0.05-0.03,0.11-0.04,0.17-0.04h3.51c0.12,0,0.23,0.05,0.31,0.15
						c0.08,0.1,0.13,0.23,0.13,0.37v19.5h2.38c0.06,0,0.12,0.01,0.17,0.04c0.05,0.03,0.1,0.06,0.14,0.11
						c0.04,0.05,0.07,0.11,0.09,0.17c0.02,0.06,0.03,0.13,0.03,0.2v2.67c0,0.07-0.01,0.13-0.03,0.2c-0.02,0.06-0.05,0.12-0.09,0.17
						c-0.04,0.05-0.09,0.09-0.14,0.11C105.92,66.43,105.86,66.44,105.8,66.44z"/>
					<path d="M107.67,42.74h6.65c0.12,0,0.23,0.05,0.31,0.15c0.08,0.1,0.13,0.23,0.13,0.37v2.67c0,0.07-0.01,0.13-0.03,0.2
						c-0.02,0.06-0.05,0.12-0.09,0.17c-0.04,0.05-0.09,0.09-0.14,0.11c-0.05,0.03-0.11,0.04-0.17,0.04h-2.7v5.93h2.7
						c0.12,0,0.23,0.05,0.31,0.15c0.08,0.1,0.13,0.23,0.13,0.37v3.41c0,0.14-0.05,0.27-0.13,0.37c-0.08,0.1-0.2,0.15-0.31,0.15h-2.7
						v5.93h2.7c0.12,0,0.23,0.05,0.31,0.15c0.08,0.1,0.13,0.23,0.13,0.37v2.67c0,0.07-0.01,0.14-0.03,0.2
						c-0.02,0.06-0.05,0.12-0.09,0.17c-0.04,0.05-0.09,0.09-0.14,0.11c-0.05,0.03-0.11,0.04-0.17,0.04h-6.65
						c-0.12,0-0.23-0.05-0.31-0.15c-0.08-0.1-0.13-0.23-0.13-0.37V43.26c0-0.07,0.01-0.14,0.03-0.2c0.02-0.06,0.05-0.12,0.09-0.17
						c0.04-0.05,0.09-0.09,0.14-0.11C107.55,42.76,107.61,42.74,107.67,42.74L107.67,42.74z"/>
					<path d="M124.5,44.54l-5.69-6.72l-0.02-0.02l-0.01-0.02l0,0c-0.43-0.5-1.01-0.78-1.61-0.78h-97.8c-0.61,0-1.2,0.29-1.63,0.8
						c-0.43,0.51-0.68,1.21-0.68,1.93v29.74c0,0.41,0.08,0.81,0.23,1.18c0.15,0.37,0.37,0.69,0.64,0.95l5.37,6.35
						c0.22,0.32,0.49,0.58,0.8,0.76c0.31,0.18,0.66,0.27,1,0.27h6.07v1.88c0,0.38,0.06,0.76,0.19,1.1c0.13,0.35,0.32,0.66,0.56,0.91
						l5.56,6.57c0.22,0.29,0.49,0.52,0.79,0.69c0.3,0.16,0.63,0.24,0.96,0.25c0.58,0,1.14-0.27,1.57-0.74l9.5-10.5
						c0.09-0.1,0.21-0.16,0.34-0.16h72.26c0.61,0,1.2-0.29,1.63-0.8c0.43-0.51,0.68-1.21,0.68-1.93V46.5c0-0.37-0.06-0.73-0.19-1.07
						C124.9,45.1,124.72,44.79,124.5,44.54L124.5,44.54z M30.68,70.05H19.37c-0.13,0-0.26-0.06-0.35-0.17
						c-0.09-0.11-0.15-0.26-0.15-0.41V39.73c0-0.16,0.05-0.3,0.15-0.41c0.09-0.11,0.22-0.17,0.35-0.17h97.8
						c0.13,0,0.26,0.06,0.35,0.17c0.09,0.11,0.15,0.26,0.15,0.41v29.74c0,0.16-0.05,0.3-0.15,0.41c-0.09,0.11-0.22,0.17-0.35,0.17
						H44.9c-0.59,0-1.15,0.26-1.58,0.74l-9.5,10.5c-0.07,0.08-0.16,0.13-0.25,0.15c-0.09,0.02-0.19,0.01-0.28-0.04
						c-0.09-0.05-0.16-0.12-0.22-0.22c-0.05-0.09-0.08-0.21-0.08-0.32v-8.08c0-0.73-0.24-1.42-0.68-1.93
						C31.87,70.34,31.29,70.05,30.68,70.05L30.68,70.05z"/>
				</g>
			</g>
		</g>
	</g>
	<linearGradient id="SVGID_4_" gradientUnits="userSpaceOnUse" x1="325.3972" y1="284.6746" x2="331.3086" y2="92.9772">
		<stop  offset="0.158" style="stop-color:#FFFFFF"/>
		<stop  offset="0.2544" style="stop-color:#FAFCFD"/>
		<stop  offset="0.3722" style="stop-color:#EBF4F9"/>
		<stop  offset="0.5012" style="stop-color:#D2E7F1"/>
		<stop  offset="0.6382" style="stop-color:#AFD5E6"/>
		<stop  offset="0.7799" style="stop-color:#84BDD8"/>
		<stop  offset="0.9215" style="stop-color:#50A2C8"/>
	</linearGradient>
	<polygon class="st5" points="497.56,140.03 469.74,166.11 354.89,166.11 268.02,204.81 157.29,215 157.29,222.88 497.56,222.88 	
		"/>
	<polyline class="st6" points="497.56,140.03 469.74,166.11 354.89,166.11 268.02,204.81 157.29,215 	"/>
	<line class="st6" x1="157.29" y1="222.88" x2="157.29" y2="112.4"/>
	<rect x="77.62" y="180.09" class="st7" width="65.03" height="21.69"/>
	<line class="st7" x1="142.65" y1="201.77" x2="157.29" y2="215"/>
	<circle class="st7" cx="157.29" cy="215" r="4.5"/>
	<circle class="st8" cx="157.29" cy="215" r="2.25"/>
	<g>
		<path class="st0" d="M86.14,187.87h-2.35l0.28-1.33h6.21l-0.29,1.33h-2.34l-1.38,6.5h-1.52L86.14,187.87z"/>
		<path class="st0" d="M90.77,194.48c-0.39,0-0.73-0.06-1.02-0.19c-0.29-0.13-0.53-0.3-0.73-0.52c-0.19-0.22-0.34-0.48-0.44-0.77
			c-0.1-0.29-0.15-0.6-0.15-0.92c0-0.46,0.09-0.9,0.27-1.33c0.18-0.43,0.43-0.81,0.75-1.15c0.32-0.33,0.7-0.6,1.14-0.8
			c0.44-0.2,0.92-0.3,1.44-0.3c0.38,0,0.72,0.06,1.01,0.19s0.54,0.3,0.73,0.52c0.2,0.22,0.35,0.47,0.45,0.77
			c0.1,0.29,0.15,0.61,0.15,0.94c0,0.46-0.09,0.9-0.27,1.32c-0.18,0.43-0.43,0.81-0.75,1.14c-0.32,0.33-0.7,0.6-1.14,0.8
			C91.77,194.38,91.29,194.48,90.77,194.48z M91.03,193.22c0.23,0,0.45-0.06,0.67-0.17c0.22-0.11,0.41-0.27,0.58-0.46
			c0.17-0.19,0.3-0.42,0.41-0.68c0.1-0.26,0.15-0.54,0.15-0.83c0-0.4-0.1-0.72-0.29-0.97c-0.19-0.25-0.45-0.37-0.78-0.37
			c-0.23,0-0.45,0.06-0.67,0.17c-0.22,0.11-0.41,0.27-0.58,0.46c-0.17,0.19-0.31,0.42-0.41,0.68c-0.1,0.26-0.15,0.53-0.15,0.83
			c0,0.4,0.1,0.72,0.29,0.97C90.44,193.1,90.7,193.22,91.03,193.22z"/>
		<path class="st0" d="M96.35,194.47c-0.35,0-0.64-0.08-0.87-0.24c-0.22-0.16-0.34-0.42-0.34-0.78c0-0.15,0.01-0.28,0.04-0.41
			l0.71-3.32h-0.72l0.24-1.14h0.71l0.4-1.88H98l-0.4,1.88h1.16l-0.24,1.14h-1.15l-0.61,2.82c-0.01,0.04-0.01,0.07-0.02,0.09
			c0,0.03-0.01,0.05-0.01,0.08c0,0.14,0.04,0.24,0.12,0.3c0.08,0.06,0.18,0.09,0.3,0.09c0.15,0,0.29-0.02,0.44-0.07
			c0.14-0.05,0.27-0.09,0.37-0.14l0.04,1.17c-0.21,0.1-0.47,0.19-0.77,0.28C96.94,194.43,96.64,194.47,96.35,194.47z"/>
		<path class="st0" d="M100.82,194.48c-0.32,0-0.61-0.06-0.87-0.18c-0.25-0.12-0.47-0.29-0.65-0.5c-0.18-0.21-0.31-0.47-0.4-0.76
			c-0.09-0.29-0.14-0.6-0.14-0.93c0-0.48,0.09-0.94,0.26-1.37c0.17-0.44,0.4-0.82,0.69-1.15c0.29-0.33,0.63-0.6,1.01-0.79
			c0.38-0.2,0.78-0.3,1.2-0.3c0.4,0,0.74,0.1,1.01,0.31c0.28,0.21,0.47,0.47,0.57,0.8l0.22-0.99h1.48l-0.86,4.06
			c-0.02,0.08-0.03,0.15-0.03,0.2c0,0.15,0.09,0.24,0.26,0.24l-0.26,1.26c-0.13,0.02-0.25,0.04-0.35,0.05
			c-0.1,0.02-0.19,0.02-0.26,0.02c-0.26,0-0.46-0.05-0.61-0.17c-0.15-0.11-0.23-0.28-0.23-0.5c0-0.09,0.02-0.23,0.07-0.42
			c-0.28,0.37-0.61,0.64-0.99,0.83C101.58,194.39,101.2,194.48,100.82,194.48z M101.48,193.22c0.13,0,0.26-0.02,0.4-0.07
			c0.14-0.05,0.28-0.12,0.41-0.2c0.13-0.09,0.26-0.19,0.38-0.31c0.12-0.12,0.22-0.25,0.3-0.39l0.29-1.38
			c-0.04-0.32-0.17-0.59-0.39-0.81c-0.21-0.21-0.46-0.32-0.74-0.32c-0.24,0-0.46,0.06-0.68,0.18c-0.22,0.12-0.41,0.28-0.58,0.49
			c-0.17,0.2-0.3,0.43-0.4,0.68c-0.1,0.25-0.15,0.51-0.15,0.78c0,0.38,0.1,0.7,0.31,0.96C100.83,193.09,101.12,193.22,101.48,193.22
			z"/>
		<path class="st0" d="M106.82,194.46c-0.37,0-0.66-0.09-0.86-0.26c-0.2-0.17-0.3-0.42-0.3-0.74c0-0.07,0-0.13,0.01-0.2
			c0.01-0.07,0.02-0.14,0.03-0.22l1.43-6.72h1.47l-1.31,6.2c-0.01,0.04-0.01,0.07-0.02,0.11c0,0.04-0.01,0.07-0.01,0.11
			c0,0.3,0.15,0.45,0.45,0.45c0.08,0,0.17-0.01,0.28-0.04c0.11-0.03,0.21-0.07,0.3-0.11l-0.04,1.13c-0.21,0.1-0.45,0.17-0.72,0.22
			C107.27,194.43,107.03,194.46,106.82,194.46z"/>
		<path class="st0" d="M113.83,194.13h-3.01l0.29-1.31l4.49-4.74h1l-1,4.73h0.93l-0.29,1.32h-0.93l-0.34,1.64h-1.48L113.83,194.13z
			 M114.28,192.8l0.53-2.49l-2.23,2.49H114.28z"/>
		<path class="st0" d="M117.13,195.64l0.58-1.31h-0.46l0.33-1.54h1.27l-0.33,1.54l-0.72,1.31H117.13z"/>
		<path class="st0" d="M121.72,196.07c-0.46,0-0.87-0.11-1.22-0.32c-0.35-0.21-0.62-0.52-0.82-0.92l1.04-0.93
			c0.11,0.28,0.28,0.5,0.51,0.65c0.23,0.15,0.49,0.23,0.79,0.23c0.45,0,0.85-0.2,1.2-0.58c0.35-0.39,0.61-0.94,0.78-1.65
			c-0.21,0.26-0.46,0.47-0.75,0.63c-0.29,0.15-0.61,0.23-0.95,0.23c-0.32,0-0.6-0.06-0.86-0.17c-0.26-0.11-0.48-0.26-0.66-0.45
			c-0.18-0.19-0.33-0.42-0.42-0.68c-0.1-0.26-0.15-0.54-0.15-0.84c0-0.43,0.09-0.83,0.28-1.22c0.18-0.39,0.43-0.73,0.74-1.02
			c0.31-0.29,0.67-0.52,1.08-0.69c0.4-0.17,0.83-0.26,1.27-0.26c0.68,0,1.21,0.23,1.58,0.69c0.37,0.46,0.55,1.09,0.55,1.89
			c0,0.74-0.1,1.44-0.29,2.1c-0.19,0.66-0.47,1.23-0.82,1.72c-0.35,0.49-0.77,0.88-1.26,1.16
			C122.84,195.92,122.3,196.07,121.72,196.07z M122.67,192.23c0.21,0,0.41-0.05,0.61-0.14c0.2-0.09,0.37-0.21,0.53-0.37
			c0.15-0.15,0.28-0.33,0.37-0.54c0.1-0.21,0.14-0.42,0.14-0.65c0-0.34-0.1-0.62-0.29-0.86c-0.19-0.24-0.44-0.35-0.75-0.35
			c-0.2,0-0.4,0.05-0.6,0.14c-0.2,0.1-0.38,0.22-0.53,0.39c-0.16,0.16-0.29,0.35-0.38,0.56c-0.1,0.21-0.14,0.43-0.14,0.66
			c0,0.33,0.1,0.61,0.29,0.83C122.12,192.12,122.37,192.23,122.67,192.23z"/>
		<path class="st0" d="M128.05,196.07c-0.46,0-0.87-0.11-1.22-0.32c-0.35-0.21-0.62-0.52-0.82-0.92l1.04-0.93
			c0.11,0.28,0.28,0.5,0.51,0.65c0.23,0.15,0.49,0.23,0.79,0.23c0.45,0,0.85-0.2,1.2-0.58c0.35-0.39,0.61-0.94,0.78-1.65
			c-0.21,0.26-0.46,0.47-0.75,0.63c-0.29,0.15-0.61,0.23-0.95,0.23c-0.32,0-0.6-0.06-0.86-0.17c-0.26-0.11-0.48-0.26-0.66-0.45
			c-0.18-0.19-0.33-0.42-0.42-0.68c-0.1-0.26-0.15-0.54-0.15-0.84c0-0.43,0.09-0.83,0.28-1.22c0.18-0.39,0.43-0.73,0.74-1.02
			c0.31-0.29,0.67-0.52,1.08-0.69c0.4-0.17,0.83-0.26,1.27-0.26c0.68,0,1.21,0.23,1.58,0.69c0.37,0.46,0.55,1.09,0.55,1.89
			c0,0.74-0.1,1.44-0.29,2.1c-0.19,0.66-0.47,1.23-0.82,1.72c-0.35,0.49-0.77,0.88-1.26,1.16
			C129.17,195.92,128.63,196.07,128.05,196.07z M129.01,192.23c0.21,0,0.41-0.05,0.61-0.14c0.2-0.09,0.37-0.21,0.53-0.37
			c0.15-0.15,0.28-0.33,0.37-0.54c0.1-0.21,0.14-0.42,0.14-0.65c0-0.34-0.1-0.62-0.29-0.86c-0.19-0.24-0.44-0.35-0.75-0.35
			c-0.2,0-0.4,0.05-0.6,0.14c-0.2,0.1-0.38,0.22-0.53,0.39c-0.16,0.16-0.29,0.35-0.38,0.56c-0.1,0.21-0.14,0.43-0.14,0.66
			c0,0.33,0.1,0.61,0.29,0.83C128.45,192.12,128.7,192.23,129.01,192.23z"/>
		<path class="st0" d="M132.78,193.03h1.49l0.72-3.34c-0.08,0.09-0.2,0.18-0.35,0.27c-0.15,0.09-0.32,0.18-0.5,0.26
			c-0.18,0.08-0.36,0.15-0.54,0.2c-0.18,0.05-0.34,0.08-0.48,0.08l0.3-1.38c0.12,0,0.29-0.04,0.49-0.13c0.2-0.08,0.4-0.19,0.6-0.3
			c0.2-0.12,0.38-0.23,0.54-0.35c0.16-0.11,0.26-0.2,0.3-0.27h1.51l-1.06,4.96h1.33l-0.28,1.33h-4.33L132.78,193.03z"/>
	</g>
	<g>
		<path class="st0" d="M336.69,99.49c0.22-0.56,0.51-1.07,0.87-1.55c0.36-0.47,0.8-0.92,1.33-1.33c0.53-0.41,1.17-0.81,1.94-1.19
			c0.7-0.37,1.33-0.68,1.87-0.94s0.99-0.51,1.35-0.75c0.36-0.24,0.63-0.48,0.82-0.73c0.18-0.25,0.28-0.55,0.28-0.91
			c0-0.38-0.14-0.71-0.41-0.98c-0.28-0.27-0.68-0.4-1.22-0.4c-0.67,0-1.29,0.18-1.85,0.55c-0.56,0.37-1.08,0.77-1.55,1.22
			l-1.47-2.27c0.24-0.21,0.57-0.45,0.99-0.7c0.41-0.25,0.88-0.49,1.4-0.71c0.52-0.22,1.09-0.41,1.7-0.55
			c0.61-0.15,1.25-0.22,1.91-0.22c1.32,0,2.31,0.29,2.98,0.88c0.67,0.59,1.01,1.36,1.01,2.31c0,0.63-0.11,1.18-0.34,1.66
			c-0.23,0.48-0.53,0.91-0.89,1.29c-0.37,0.38-0.78,0.7-1.23,0.99c-0.45,0.28-0.89,0.54-1.32,0.77c-0.28,0.14-0.58,0.3-0.91,0.48
			c-0.33,0.18-0.65,0.39-0.98,0.61c-0.32,0.22-0.63,0.47-0.92,0.73c-0.29,0.27-0.54,0.55-0.73,0.84h6.04l-0.6,2.78h-10.63
			C336.28,100.67,336.46,100.05,336.69,99.49z"/>
		<path class="st0" d="M349.8,98.58h3.1l1.49-6.95c-0.17,0.18-0.41,0.37-0.73,0.56s-0.67,0.37-1.04,0.54
			c-0.38,0.17-0.75,0.31-1.12,0.41c-0.38,0.11-0.71,0.16-1,0.16l0.62-2.87c0.26,0,0.6-0.09,1.01-0.26c0.41-0.18,0.83-0.39,1.24-0.63
			c0.41-0.24,0.78-0.49,1.11-0.72c0.33-0.24,0.54-0.42,0.63-0.56h3.14l-2.2,10.33h2.78l-0.57,2.78h-9.02L349.8,98.58z"/>
		<path class="st0" d="M359.83,104l1.22-2.73h-0.96l0.69-3.21h2.64l-0.69,3.21l-1.49,2.73H359.83z"/>
		<path class="st0" d="M373.26,90.78h-6.89l0.6-2.8h11.75l-11.15,16.3h-3.49L373.26,90.78z"/>
		<path class="st0" d="M382.48,101.59c-0.67,0-1.28-0.13-1.82-0.4c-0.54-0.27-1-0.64-1.38-1.11c-0.38-0.47-0.67-1.04-0.87-1.7
			c-0.21-0.66-0.31-1.38-0.31-2.16c0-1.18,0.2-2.29,0.61-3.33c0.41-1.04,0.95-1.95,1.63-2.72c0.68-0.77,1.46-1.38,2.34-1.84
			c0.88-0.45,1.8-0.68,2.77-0.68c0.67,0,1.28,0.13,1.82,0.4c0.54,0.27,1,0.64,1.38,1.11c0.37,0.47,0.67,1.04,0.87,1.71
			c0.21,0.67,0.31,1.39,0.31,2.17c0,1.19-0.2,2.31-0.61,3.34c-0.41,1.03-0.95,1.94-1.63,2.71s-1.47,1.38-2.35,1.82
			C384.35,101.37,383.43,101.59,382.48,101.59z M383.08,98.77c0.47,0,0.93-0.14,1.35-0.42c0.43-0.28,0.81-0.67,1.15-1.17
			c0.34-0.5,0.6-1.07,0.8-1.72c0.2-0.65,0.3-1.34,0.3-2.08c0-0.86-0.16-1.55-0.48-2.09c-0.32-0.54-0.77-0.8-1.35-0.8
			c-0.49,0-0.96,0.15-1.4,0.44c-0.44,0.29-0.83,0.69-1.16,1.18c-0.33,0.5-0.59,1.07-0.79,1.72c-0.2,0.65-0.3,1.34-0.3,2.08
			c0,0.86,0.16,1.55,0.49,2.08C382.02,98.5,382.48,98.77,383.08,98.77z"/>
		<path class="st0" d="M391.39,98.58h3.1l1.49-6.95c-0.17,0.18-0.41,0.37-0.73,0.56s-0.67,0.37-1.04,0.54
			c-0.38,0.17-0.75,0.31-1.12,0.41c-0.38,0.11-0.71,0.16-1,0.16l0.62-2.87c0.26,0,0.6-0.09,1.01-0.26c0.41-0.18,0.83-0.39,1.24-0.63
			c0.41-0.24,0.78-0.49,1.11-0.72c0.33-0.24,0.54-0.42,0.63-0.56h3.14l-2.2,10.33h2.78l-0.57,2.78h-9.02L391.39,98.58z"/>
		<path class="st0" d="M418.89,85.06l-14.32,16.3h-3.4l14.32-16.3H418.89z"/>
		<path class="st0" d="M420.13,89.33h2.78l-0.48,2.23c0.58-0.76,1.29-1.36,2.12-1.79c0.83-0.43,1.69-0.64,2.56-0.64
			c0.95,0,1.64,0.23,2.07,0.7c0.43,0.47,0.66,1.08,0.69,1.85c0.64-0.83,1.37-1.46,2.18-1.89c0.81-0.44,1.65-0.65,2.52-0.65
			c0.52,0,0.95,0.07,1.3,0.22c0.34,0.15,0.62,0.34,0.83,0.6c0.21,0.25,0.35,0.55,0.44,0.88s0.13,0.7,0.13,1.1
			c0,0.24-0.02,0.52-0.05,0.84c-0.03,0.31-0.09,0.68-0.18,1.09l-1.61,7.5h-3.08l1.42-6.75c0.05-0.23,0.08-0.45,0.12-0.65
			c0.03-0.21,0.05-0.39,0.05-0.56c0-0.54-0.11-0.93-0.33-1.18c-0.22-0.25-0.52-0.38-0.91-0.38c-0.57,0-1.14,0.24-1.73,0.71
			c-0.59,0.47-1.07,1.08-1.43,1.81l-1.47,7h-3.08l1.42-6.75c0.09-0.47,0.14-0.89,0.14-1.24c0-0.54-0.11-0.93-0.32-1.17
			c-0.21-0.24-0.52-0.37-0.92-0.37c-0.28,0-0.56,0.06-0.85,0.18c-0.29,0.12-0.58,0.29-0.86,0.52c-0.28,0.22-0.55,0.49-0.79,0.79
			c-0.24,0.31-0.46,0.64-0.64,1.01l-1.49,7.02h-3.08L420.13,89.33z"/>
		<path class="st0" d="M443.35,101.59c-0.81,0-1.52-0.13-2.12-0.4c-0.61-0.27-1.11-0.63-1.51-1.09c-0.41-0.46-0.71-0.99-0.92-1.6
			c-0.21-0.6-0.31-1.24-0.31-1.92c0-0.95,0.19-1.87,0.56-2.77c0.37-0.9,0.9-1.69,1.56-2.39c0.67-0.7,1.46-1.25,2.38-1.68
			c0.92-0.42,1.92-0.63,3.01-0.63c0.8,0,1.5,0.13,2.1,0.4c0.6,0.27,1.11,0.63,1.53,1.08c0.41,0.45,0.72,0.98,0.93,1.6
			s0.31,1.26,0.31,1.95c0,0.95-0.19,1.87-0.56,2.75c-0.38,0.89-0.9,1.68-1.56,2.38c-0.67,0.7-1.46,1.25-2.38,1.68
			C445.44,101.38,444.44,101.59,443.35,101.59z M443.9,98.97c0.47,0,0.94-0.12,1.39-0.36c0.45-0.24,0.85-0.55,1.2-0.95
			c0.35-0.4,0.63-0.87,0.85-1.41c0.21-0.54,0.32-1.12,0.32-1.73c0-0.83-0.2-1.5-0.6-2.01c-0.4-0.51-0.94-0.77-1.63-0.77
			c-0.47,0-0.94,0.12-1.39,0.36c-0.45,0.24-0.85,0.56-1.21,0.96c-0.35,0.41-0.64,0.88-0.85,1.41c-0.21,0.54-0.32,1.11-0.32,1.72
			c0,0.83,0.2,1.5,0.6,2.01S443.21,98.97,443.9,98.97z"/>
		<path class="st0" d="M454.05,89.33h2.78l-0.48,2.23c0.58-0.76,1.32-1.36,2.2-1.79c0.89-0.43,1.83-0.64,2.82-0.64
			c0.52,0,0.95,0.07,1.3,0.22c0.34,0.15,0.62,0.34,0.83,0.59c0.21,0.24,0.35,0.54,0.44,0.88c0.08,0.34,0.13,0.71,0.13,1.09
			c0,0.31-0.02,0.62-0.06,0.95c-0.04,0.33-0.1,0.66-0.17,1l-1.58,7.5h-3.08l1.42-6.75c0.05-0.23,0.08-0.45,0.12-0.65
			c0.03-0.21,0.05-0.39,0.05-0.56c0-0.54-0.12-0.93-0.36-1.18c-0.24-0.25-0.56-0.38-0.95-0.38c-0.28,0-0.57,0.06-0.9,0.18
			c-0.32,0.12-0.64,0.29-0.94,0.52c-0.31,0.22-0.59,0.49-0.86,0.79c-0.27,0.31-0.49,0.64-0.68,1.01l-1.49,7.02h-3.08L454.05,89.33z"
			/>
		<path class="st0" d="M468.42,101.57c-0.73,0-1.34-0.16-1.8-0.49s-0.7-0.87-0.7-1.62c0-0.31,0.03-0.59,0.09-0.85l1.47-6.91h-1.49
			l0.5-2.36h1.47l0.83-3.9h3.08l-0.83,3.9h2.41l-0.5,2.36h-2.39l-1.26,5.88c-0.02,0.08-0.03,0.14-0.03,0.2
			c-0.01,0.05-0.01,0.11-0.01,0.17c0,0.29,0.08,0.5,0.24,0.62c0.16,0.12,0.37,0.18,0.63,0.18c0.31,0,0.61-0.05,0.91-0.15
			c0.3-0.1,0.55-0.2,0.77-0.29l0.09,2.43c-0.44,0.21-0.98,0.41-1.61,0.57C469.65,101.48,469.03,101.57,468.42,101.57z"/>
		<path class="st0" d="M476.86,84.61h3.08l-1.49,6.95c0.6-0.78,1.29-1.38,2.09-1.8c0.8-0.42,1.63-0.63,2.5-0.63
			c0.54,0,0.98,0.07,1.34,0.22c0.36,0.15,0.65,0.34,0.87,0.6s0.38,0.55,0.47,0.9c0.09,0.34,0.14,0.72,0.14,1.11
			c0,0.31-0.02,0.62-0.06,0.94c-0.04,0.32-0.1,0.64-0.17,0.96l-1.58,7.5h-3.08l1.42-6.75c0.09-0.43,0.14-0.8,0.14-1.13
			c0-1.1-0.47-1.65-1.4-1.65c-0.24,0-0.52,0.06-0.83,0.18c-0.31,0.12-0.61,0.29-0.91,0.52c-0.3,0.22-0.58,0.49-0.85,0.79
			c-0.27,0.31-0.49,0.64-0.68,1.01l-1.49,7.02h-3.08L476.86,84.61z"/>
	</g>
	<g>
		<g>
			<path class="st0" d="M384.83,75.12c-0.69,0-1.31-0.14-1.85-0.42c-0.54-0.28-0.99-0.65-1.35-1.12c-0.36-0.47-0.64-1.01-0.83-1.62
				c-0.19-0.61-0.29-1.25-0.29-1.91c0-0.95,0.2-1.87,0.59-2.76c0.39-0.89,0.91-1.68,1.56-2.38c0.65-0.69,1.39-1.25,2.24-1.67
				c0.84-0.42,1.71-0.62,2.6-0.62c0.69,0,1.31,0.14,1.84,0.43c0.53,0.29,0.98,0.67,1.34,1.14c0.36,0.47,0.64,1.02,0.82,1.63
				c0.19,0.61,0.28,1.24,0.28,1.89c0,0.94-0.2,1.85-0.59,2.74c-0.39,0.89-0.91,1.68-1.56,2.37c-0.65,0.69-1.39,1.24-2.22,1.66
				C386.58,74.91,385.72,75.12,384.83,75.12z M385.01,74.3c0.8,0,1.55-0.19,2.27-0.58c0.72-0.39,1.34-0.89,1.87-1.51
				c0.53-0.62,0.95-1.31,1.27-2.09c0.31-0.77,0.47-1.54,0.47-2.31c0-0.59-0.08-1.15-0.24-1.67c-0.16-0.53-0.4-0.99-0.7-1.39
				c-0.31-0.4-0.68-0.72-1.13-0.95c-0.45-0.24-0.94-0.36-1.5-0.36c-0.8,0-1.56,0.19-2.27,0.58c-0.72,0.39-1.34,0.89-1.88,1.51
				c-0.54,0.62-0.96,1.32-1.27,2.09c-0.31,0.77-0.47,1.55-0.47,2.32c0,0.59,0.08,1.15,0.24,1.67c0.16,0.53,0.4,0.99,0.7,1.39
				s0.68,0.71,1.13,0.95C383.93,74.19,384.44,74.3,385.01,74.3z"/>
			<path class="st0" d="M394.35,66.02h0.83l-0.49,2.22c0.49-0.69,1.04-1.24,1.67-1.64c0.63-0.4,1.24-0.6,1.83-0.6
				c0.12,0,0.2,0.01,0.24,0.02l-0.17,0.78c-0.77,0.02-1.49,0.26-2.16,0.72s-1.2,1.08-1.6,1.88l-1.2,5.64h-0.87L394.35,66.02z"/>
			<path class="st0" d="M400.46,78.9c-0.99,0-1.75-0.19-2.26-0.56c-0.51-0.38-0.88-0.88-1.1-1.52l0.66-0.4
				c0.21,0.61,0.57,1.06,1.09,1.34c0.52,0.28,1.11,0.42,1.77,0.42c0.43,0,0.85-0.06,1.27-0.19c0.42-0.13,0.79-0.31,1.14-0.56
				c0.34-0.25,0.64-0.56,0.88-0.93c0.25-0.37,0.42-0.8,0.53-1.3l0.42-1.98c-0.23,0.29-0.49,0.55-0.78,0.79
				c-0.29,0.24-0.59,0.44-0.9,0.62c-0.31,0.17-0.64,0.31-0.97,0.4c-0.34,0.09-0.66,0.14-0.97,0.14c-0.5,0-0.94-0.1-1.34-0.31
				c-0.39-0.21-0.73-0.49-1-0.83c-0.27-0.35-0.48-0.75-0.62-1.2c-0.14-0.45-0.22-0.92-0.22-1.42c0-0.69,0.14-1.37,0.42-2.04
				c0.28-0.66,0.65-1.26,1.12-1.78c0.47-0.52,1.01-0.94,1.62-1.26c0.61-0.32,1.26-0.48,1.94-0.48c0.74,0,1.34,0.21,1.81,0.62
				c0.47,0.41,0.83,0.91,1.1,1.5l0.42-1.96h0.78l-1.96,9.19c-0.13,0.61-0.35,1.15-0.67,1.61c-0.32,0.46-0.7,0.85-1.14,1.15
				c-0.44,0.31-0.92,0.54-1.44,0.69C401.53,78.82,401,78.9,400.46,78.9z M401.6,74.43c0.36,0,0.73-0.07,1.1-0.22
				c0.38-0.14,0.73-0.33,1.05-0.56c0.32-0.23,0.61-0.49,0.85-0.78c0.24-0.29,0.42-0.58,0.52-0.87l0.62-2.97
				c-0.06-0.35-0.16-0.67-0.32-0.96c-0.16-0.29-0.35-0.55-0.58-0.75c-0.23-0.21-0.5-0.37-0.8-0.49c-0.3-0.12-0.61-0.18-0.94-0.18
				c-0.59,0-1.14,0.14-1.64,0.43c-0.5,0.29-0.94,0.66-1.32,1.1c-0.38,0.45-0.67,0.94-0.88,1.49c-0.21,0.55-0.32,1.08-0.32,1.6
				c0,0.43,0.06,0.83,0.19,1.21c0.13,0.38,0.31,0.72,0.54,1.01c0.23,0.29,0.51,0.52,0.83,0.68C400.83,74.34,401.2,74.43,401.6,74.43
				z"/>
			<path class="st0" d="M411.43,75.21c-0.5,0-0.94-0.1-1.34-0.31c-0.4-0.21-0.74-0.49-1.01-0.83c-0.28-0.35-0.49-0.75-0.63-1.21
				c-0.14-0.46-0.22-0.94-0.22-1.45c0-0.7,0.14-1.39,0.42-2.05c0.28-0.66,0.65-1.26,1.12-1.78c0.47-0.52,1-0.94,1.6-1.25
				c0.6-0.31,1.23-0.47,1.89-0.47c0.38,0,0.73,0.06,1.03,0.17c0.31,0.12,0.58,0.27,0.82,0.46c0.24,0.19,0.45,0.41,0.62,0.67
				c0.17,0.25,0.31,0.53,0.42,0.82l0.42-1.96h0.88l-1.66,7.77c-0.02,0.09-0.04,0.16-0.04,0.21c0,0.17,0.1,0.26,0.3,0.26l-0.17,0.78
				c-0.06,0.01-0.11,0.02-0.15,0.03s-0.08,0.01-0.11,0.01c-0.23,0-0.41-0.06-0.53-0.17c-0.12-0.12-0.18-0.27-0.18-0.45
				c0-0.03,0-0.08,0.01-0.13c0.01-0.05,0.02-0.12,0.04-0.21c0.02-0.09,0.04-0.2,0.06-0.34c0.02-0.14,0.06-0.32,0.1-0.54
				c-0.47,0.6-1.04,1.08-1.7,1.44C412.75,75.03,412.09,75.21,411.43,75.21z M411.75,74.43c0.31,0,0.65-0.07,1.02-0.2
				c0.37-0.13,0.73-0.31,1.07-0.53c0.34-0.22,0.64-0.48,0.91-0.77c0.27-0.29,0.45-0.6,0.56-0.93l0.62-2.97
				c-0.05-0.32-0.15-0.63-0.3-0.92c-0.16-0.29-0.35-0.54-0.59-0.76c-0.24-0.22-0.51-0.39-0.81-0.52c-0.3-0.13-0.62-0.19-0.97-0.19
				c-0.56,0-1.08,0.14-1.58,0.42s-0.93,0.64-1.31,1.08c-0.38,0.45-0.68,0.95-0.9,1.5c-0.23,0.56-0.34,1.11-0.34,1.66
				c0,0.42,0.06,0.82,0.19,1.2s0.31,0.71,0.54,1c0.23,0.28,0.51,0.51,0.83,0.68C411.01,74.34,411.36,74.43,411.75,74.43z"/>
			<path class="st0" d="M420.12,66.02h0.82l-0.47,2.15c0.24-0.35,0.53-0.66,0.85-0.95c0.32-0.28,0.67-0.53,1.03-0.73
				c0.36-0.2,0.74-0.36,1.13-0.47c0.39-0.11,0.77-0.16,1.15-0.16c0.69,0,1.19,0.19,1.49,0.56c0.3,0.37,0.45,0.91,0.45,1.61
				c0,0.27-0.02,0.55-0.06,0.85c-0.04,0.3-0.1,0.62-0.16,0.97l-1.09,5.19h-0.87l1.06-5.03c0.07-0.32,0.12-0.62,0.15-0.88
				c0.03-0.27,0.04-0.51,0.04-0.73c0-1.16-0.48-1.73-1.44-1.73c-0.36,0-0.73,0.07-1.11,0.21c-0.38,0.14-0.75,0.34-1.1,0.59
				c-0.35,0.25-0.68,0.55-0.98,0.89c-0.3,0.34-0.55,0.71-0.75,1.1l-1.18,5.58h-0.87L420.12,66.02z"/>
			<path class="st0" d="M429.69,66.02h0.87l-1.91,9.02h-0.87L429.69,66.02z M430.47,62.37h0.87l-0.33,1.6h-0.87L430.47,62.37z"/>
			<path class="st0" d="M434.91,75.21c-0.52,0-0.99-0.1-1.41-0.29c-0.42-0.2-0.77-0.47-1.07-0.82c-0.29-0.35-0.52-0.75-0.68-1.21
				c-0.16-0.46-0.23-0.96-0.23-1.49c0-0.74,0.14-1.44,0.43-2.11c0.29-0.66,0.68-1.25,1.17-1.76c0.49-0.51,1.06-0.91,1.7-1.21
				c0.64-0.3,1.32-0.45,2.04-0.45c0.79,0,1.44,0.19,1.95,0.56c0.51,0.37,0.85,0.88,1.01,1.54l-0.92,0.28
				c-0.14-0.5-0.41-0.89-0.82-1.17c-0.4-0.28-0.88-0.42-1.44-0.42c-0.54,0-1.07,0.12-1.58,0.37c-0.51,0.25-0.96,0.58-1.35,1.01
				c-0.39,0.42-0.71,0.91-0.95,1.47c-0.24,0.56-0.36,1.15-0.36,1.78c0,0.44,0.06,0.85,0.19,1.24c0.13,0.39,0.3,0.72,0.53,1.01
				c0.23,0.28,0.5,0.51,0.82,0.67c0.32,0.16,0.68,0.24,1.06,0.24c0.3,0,0.61-0.05,0.92-0.14c0.31-0.09,0.61-0.21,0.88-0.36
				c0.28-0.15,0.52-0.33,0.74-0.53c0.21-0.2,0.38-0.41,0.49-0.63l0.8,0.24c-0.17,0.31-0.4,0.6-0.69,0.88
				c-0.28,0.27-0.6,0.51-0.94,0.7c-0.35,0.2-0.72,0.35-1.12,0.46C435.7,75.15,435.31,75.21,434.91,75.21z"/>
			<path class="st0" d="M446.71,75.14c-0.4,0-0.74-0.1-1.01-0.31c-0.27-0.21-0.4-0.51-0.4-0.92c0-0.06,0-0.12,0.01-0.18
				c0.01-0.06,0.01-0.13,0.03-0.2l1.46-6.8h-1.21l0.16-0.71h1.21l0.64-3.09h0.87l-0.64,3.09h1.99l-0.16,0.71h-1.99l-1.3,6.1
				c-0.08,0.37-0.12,0.6-0.12,0.69c0,0.27,0.08,0.47,0.25,0.6s0.37,0.2,0.62,0.2c0.17,0,0.34-0.02,0.49-0.05
				c0.16-0.03,0.3-0.08,0.42-0.13c0.13-0.05,0.23-0.1,0.32-0.14c0.09-0.04,0.15-0.07,0.18-0.1l0.1,0.69
				c-0.05,0.03-0.13,0.08-0.25,0.14c-0.12,0.06-0.27,0.12-0.44,0.18c-0.17,0.06-0.36,0.12-0.57,0.16
				C447.16,75.12,446.94,75.14,446.71,75.14z"/>
			<path class="st0" d="M451.89,66.02h0.83l-0.49,2.22c0.49-0.69,1.04-1.24,1.67-1.64c0.63-0.4,1.24-0.6,1.83-0.6
				c0.12,0,0.2,0.01,0.24,0.02l-0.17,0.78c-0.77,0.02-1.49,0.26-2.16,0.72c-0.66,0.46-1.2,1.08-1.6,1.88l-1.2,5.64h-0.87
				L451.89,66.02z"/>
			<path class="st0" d="M458.81,75.21c-0.5,0-0.95-0.1-1.34-0.31c-0.4-0.21-0.74-0.49-1.01-0.83c-0.28-0.35-0.49-0.75-0.63-1.21
				c-0.14-0.46-0.22-0.94-0.22-1.45c0-0.7,0.14-1.39,0.42-2.05c0.28-0.66,0.65-1.26,1.12-1.78c0.47-0.52,1-0.94,1.6-1.25
				c0.6-0.31,1.23-0.47,1.89-0.47c0.38,0,0.73,0.06,1.03,0.17c0.31,0.12,0.58,0.27,0.82,0.46c0.24,0.19,0.45,0.41,0.62,0.67
				c0.17,0.25,0.31,0.53,0.42,0.82l0.42-1.96h0.88l-1.67,7.77c-0.02,0.09-0.03,0.16-0.03,0.21c0,0.17,0.1,0.26,0.3,0.26l-0.17,0.78
				c-0.06,0.01-0.11,0.02-0.15,0.03c-0.04,0.01-0.08,0.01-0.11,0.01c-0.23,0-0.41-0.06-0.53-0.17c-0.12-0.12-0.18-0.27-0.18-0.45
				c0-0.03,0-0.08,0.01-0.13c0.01-0.05,0.02-0.12,0.03-0.21c0.02-0.09,0.04-0.2,0.06-0.34c0.02-0.14,0.06-0.32,0.1-0.54
				c-0.47,0.6-1.04,1.08-1.7,1.44C460.13,75.03,459.47,75.21,458.81,75.21z M459.12,74.43c0.31,0,0.65-0.07,1.02-0.2
				c0.37-0.13,0.73-0.31,1.07-0.53c0.34-0.22,0.64-0.48,0.91-0.77c0.27-0.29,0.45-0.6,0.55-0.93l0.62-2.97
				c-0.05-0.32-0.15-0.63-0.3-0.92c-0.16-0.29-0.35-0.54-0.59-0.76s-0.51-0.39-0.81-0.52c-0.3-0.13-0.62-0.19-0.97-0.19
				c-0.56,0-1.08,0.14-1.58,0.42c-0.5,0.28-0.93,0.64-1.31,1.08c-0.38,0.45-0.68,0.95-0.9,1.5c-0.23,0.56-0.34,1.11-0.34,1.66
				c0,0.42,0.06,0.82,0.19,1.2c0.13,0.38,0.31,0.71,0.54,1c0.23,0.28,0.51,0.51,0.83,0.68C458.39,74.34,458.74,74.43,459.12,74.43z"
				/>
			<path class="st0" d="M467.69,66.73h-1.2l0.16-0.71h1.2l0.03-0.14c0.07-0.36,0.19-0.71,0.36-1.07c0.17-0.35,0.4-0.67,0.67-0.96
				c0.27-0.29,0.59-0.52,0.94-0.7c0.36-0.18,0.76-0.27,1.21-0.27c0.38,0,0.71,0.05,1,0.15c0.28,0.1,0.51,0.21,0.67,0.32
				c0.32-0.35,0.69-0.62,1.1-0.83c0.41-0.21,0.89-0.31,1.43-0.31c0.28,0,0.53,0.03,0.77,0.09c0.24,0.06,0.45,0.12,0.63,0.2
				c0.18,0.08,0.34,0.16,0.47,0.24c0.13,0.09,0.22,0.15,0.28,0.2l-0.57,0.61c-0.12-0.14-0.33-0.27-0.64-0.38
				c-0.31-0.12-0.65-0.17-1.02-0.17c-0.4,0-0.76,0.08-1.07,0.25c-0.31,0.17-0.57,0.38-0.8,0.64c-0.23,0.26-0.41,0.55-0.56,0.88
				c-0.14,0.32-0.25,0.64-0.3,0.95l-0.07,0.31h4.21l-1.93,9.02h-0.87l1.77-8.31h-3.35l-1.77,8.31h-0.87l1.77-8.31h-2.81l-1.75,8.31
				h-0.87L467.69,66.73z M471.52,66.02c0.08-0.37,0.18-0.73,0.31-1.08c0.13-0.35,0.28-0.65,0.47-0.92c-0.16-0.15-0.37-0.25-0.62-0.3
				c-0.25-0.05-0.47-0.07-0.65-0.07c-0.36,0-0.67,0.07-0.94,0.22c-0.27,0.14-0.49,0.32-0.68,0.54c-0.19,0.21-0.33,0.45-0.44,0.71
				c-0.11,0.26-0.19,0.51-0.23,0.75l-0.04,0.14H471.52z"/>
			<path class="st0" d="M480.95,75.21c-0.52,0-0.99-0.1-1.41-0.29c-0.42-0.2-0.77-0.47-1.07-0.82c-0.29-0.35-0.52-0.75-0.68-1.21
				c-0.16-0.46-0.23-0.96-0.23-1.49c0-0.74,0.14-1.44,0.43-2.11c0.29-0.66,0.68-1.25,1.17-1.76c0.49-0.51,1.06-0.91,1.7-1.21
				c0.64-0.3,1.32-0.45,2.04-0.45c0.79,0,1.44,0.19,1.95,0.56c0.51,0.37,0.85,0.88,1.01,1.54l-0.92,0.28
				c-0.14-0.5-0.41-0.89-0.82-1.17c-0.4-0.28-0.88-0.42-1.44-0.42c-0.54,0-1.07,0.12-1.58,0.37c-0.51,0.25-0.96,0.58-1.35,1.01
				c-0.39,0.42-0.71,0.91-0.95,1.47c-0.24,0.56-0.36,1.15-0.36,1.78c0,0.44,0.06,0.85,0.19,1.24c0.13,0.39,0.3,0.72,0.53,1.01
				c0.23,0.28,0.5,0.51,0.82,0.67c0.32,0.16,0.68,0.24,1.06,0.24c0.3,0,0.61-0.05,0.92-0.14c0.31-0.09,0.61-0.21,0.88-0.36
				c0.28-0.15,0.52-0.33,0.74-0.53c0.21-0.2,0.38-0.41,0.49-0.63l0.8,0.24c-0.17,0.31-0.4,0.6-0.69,0.88
				c-0.28,0.27-0.6,0.51-0.94,0.7c-0.35,0.2-0.72,0.35-1.12,0.46C481.74,75.15,481.35,75.21,480.95,75.21z"/>
		</g>
	</g>
</g>
</svg>
