<?xml version="1.0" encoding="utf-8"?>
<!-- Generator: Adobe Illustrator 24.1.2, SVG Export Plug-In . SVG Version: 6.00 Build 0)  -->
<svg version="1.1" id="Layer_1" xmlns="http://www.w3.org/2000/svg" xmlns:xlink="http://www.w3.org/1999/xlink" x="0px" y="0px"
	 viewBox="0 0 1920 1080" style="enable-background:new 0 0 1920 1080;" xml:space="preserve">
<style type="text/css">
	.st0{fill:url(#SVGID_1_);}
	.st1{fill:url(#SVGID_2_);}
	.st2{fill:url(#SVGID_3_);}
	.st3{fill:url(#SVGID_4_);}
	.st4{fill:#50A2C8;}
	.st5{fill:url(#SVGID_5_);}
	.st6{fill:url(#SVGID_6_);}
	.st7{fill:#EAF3F9;}
	.st8{fill:#3D8AA5;}
	.st9{fill:url(#SVGID_7_);}
	.st10{fill:url(#SVGID_8_);}
	.st11{fill:url(#SVGID_9_);}
	.st12{fill:#D5ECF7;}
	.st13{fill:#FFFFFF;}
	.st14{fill:none;stroke:#61BAD8;stroke-width:20;stroke-linecap:round;stroke-linejoin:round;stroke-miterlimit:10;}
	.st15{fill:url(#SVGID_10_);}
	.st16{fill:#C6C6C6;}
	.st17{fill:url(#SVGID_11_);}
	.st18{fill:url(#SVGID_12_);}
	.st19{fill:url(#SVGID_13_);}
	.st20{fill:#6EC6E5;}
	.st21{fill:none;stroke:#DFEBF2;stroke-width:8;stroke-linecap:round;stroke-miterlimit:10;}
	
		.st22{fill:none;stroke:#DFEBF2;stroke-width:8;stroke-linecap:round;stroke-miterlimit:10;stroke-dasharray:5.5476,14.7937,77.0505,5.5476;}
	
		.st23{fill:none;stroke:#DFEBF2;stroke-width:8;stroke-linecap:round;stroke-miterlimit:10;stroke-dasharray:14.7937,77.0505,5.5476,14.7937,77.0505,5.5476;}
	.st24{fill:none;stroke:#DFEBF2;stroke-width:8;stroke-linecap:round;stroke-miterlimit:10;stroke-dasharray:111,125;}
	.st25{fill:#EAF3F9;stroke:#FD8F51;stroke-width:7;stroke-linecap:round;stroke-miterlimit:10;stroke-dasharray:111,125;}
	.st26{fill:#EAF3F9;stroke:#FD8F51;stroke-width:8;stroke-linecap:round;stroke-miterlimit:10;stroke-dasharray:111,125;}
	.st27{fill:none;stroke:#DFEBF2;stroke-width:8;stroke-linecap:round;stroke-miterlimit:10;stroke-dasharray:24,125,9;}
	.st28{fill:#DDDBDB;}
	.st29{fill:url(#SVGID_14_);}
	.st30{fill:#E8E8E8;}
	.st31{fill:#3E3F3F;stroke:#3D3D3D;stroke-width:4;stroke-miterlimit:10;}
	.st32{fill:url(#SVGID_15_);}
	.st33{opacity:0.77;fill:#FFFFFF;}
	.st34{fill:url(#SVGID_16_);}
	.st35{fill:#B2B2B2;}
	.st36{fill:none;stroke:#B2B2B2;stroke-width:3;stroke-linecap:round;stroke-miterlimit:10;}
	.st37{fill:#898989;}
	.st38{opacity:0.66;}
	.st39{fill:#FFFFFF;stroke:#50A2C8;stroke-miterlimit:10;}
	.st40{fill:none;stroke:#50A2C8;stroke-miterlimit:10;}
	.st41{fill:#FFFFFF;stroke:#50A2C8;stroke-width:2;stroke-miterlimit:10;}
	.st42{fill:#50A2C8;stroke:#FFFFFF;stroke-miterlimit:10;}
	.st43{fill:#FFFFFF;stroke:#FFDA64;stroke-miterlimit:10;}
	.st44{fill:#F5C721;}
	.st45{opacity:0.65;}
	.st46{opacity:0.78;fill:#FFFFFF;}
	.st47{fill:#FFFFFF;stroke:#50A2C8;stroke-width:3;stroke-miterlimit:10;}
	.st48{fill:none;stroke:#50A2C8;stroke-width:2;stroke-miterlimit:10;}
	.st49{fill:none;stroke:#50A2C8;stroke-width:2;stroke-miterlimit:10;stroke-dasharray:18.9327,19.9845,9.2034,18.9327;}
	.st50{fill:none;stroke:#50A2C8;stroke-width:2;stroke-miterlimit:10;stroke-dasharray:10.0918,12.4746;}
	.st51{fill:#FFFFFF;stroke:#50A2C8;stroke-width:2;stroke-miterlimit:10;stroke-dasharray:67,12,72,72;}
	.st52{fill:none;stroke:#50A2C8;stroke-width:2;stroke-miterlimit:10;stroke-dasharray:27.6395,14.3956;}
	.st53{fill:none;stroke:#50A2C8;stroke-width:2;stroke-miterlimit:10;stroke-dasharray:14.3956,14.3956,27.6395,14.3956;}
	.st54{fill:none;stroke:#50A2C8;stroke-width:2;stroke-miterlimit:10;stroke-dasharray:45.8786,25.8992;}
	.st55{fill:none;stroke:#40839B;stroke-width:2;stroke-miterlimit:10;}
	.st56{fill:none;stroke:#50A2C8;stroke-linecap:round;stroke-linejoin:round;stroke-miterlimit:10;}
	.st57{clip-path:url(#SVGID_18_);}
	.st58{fill:none;stroke:#FFFFFF;stroke-miterlimit:10;}
	.st59{fill:none;stroke:#F5C721;stroke-miterlimit:10;}
	.st60{fill:#EAEAEA;}
	.st61{fill:#E2E2E2;}
	.st62{fill:#418096;}
	.st63{fill:#FFFFFF;stroke:#50A2C8;stroke-width:1.1826;stroke-miterlimit:10;}
	.st64{fill:none;stroke:#50A2C8;stroke-width:1.7468;stroke-miterlimit:10;}
	.st65{fill:#FFFFFF;stroke:#50A2C8;stroke-width:0.7808;stroke-miterlimit:10;}
	.st66{fill:#FFFFFF;stroke:#50A2C8;stroke-width:1.579;stroke-miterlimit:10;}
	.st67{fill:#FFFFFF;stroke:#50A2C8;stroke-width:0.8621;stroke-miterlimit:10;}
	.st68{fill:#FFFFFF;stroke:#50A2C8;stroke-width:1.2405;stroke-miterlimit:10;}
	.st69{fill:none;stroke:#40839B;stroke-width:3.4935;stroke-miterlimit:10;}
	.st70{opacity:0.78;fill:#40839B;}
</style>
<g>
	
		<rect x="1335.51" y="343.61" transform="matrix(0.9942 0.1072 -0.1072 0.9942 70.9521 -140.8628)" class="st64" width="19.61" height="491.45"/>
	<polygon class="st65" points="1535.11,327.43 1246.62,376.5 1188.74,333.22 1228.31,268.84 1516.8,219.77 1494.89,278.88 	"/>
	<polygon class="st65" points="1547.03,325.74 1258.55,374.82 1200.66,331.54 1240.23,267.16 1528.72,218.09 1506.82,277.2 	"/>
	<path class="st4" d="M1269.17,330.96c-3.38,0-6.77-0.99-9.54-2.78l-1.11-0.71l2.29-7.53l1.95,1.26c2.08,1.34,4.52,2.11,6.71,2.11h0
		c0.48,0,0.93-0.04,1.36-0.11c1.53-0.26,2.22-0.72,2.5-0.98c0.31-0.28,0.4-0.54,0.34-0.93c-0.19-1.11-1.71-1.4-4.9-1.77
		c-4.15-0.48-9.82-1.13-10.91-7.51c-0.9-5.3,2.94-9.61,9.55-10.74c1-0.17,2.04-0.26,3.08-0.26c2.55,0,5.15,0.53,7.33,1.49l1.38,0.61
		l-2.07,7.44l-1.8-0.71c-1.83-0.72-3.78-1.12-5.5-1.12c-0.54,0-1.03,0.04-1.47,0.11c-1.24,0.21-1.82,0.59-2.05,0.79
		c-0.27,0.24-0.27,0.4-0.24,0.58c0.19,1.1,1.95,1.4,4.83,1.76c4.18,0.53,9.9,1.25,10.98,7.72c0.47,2.73-0.34,5.35-2.26,7.37
		c-1.78,1.87-4.4,3.14-7.58,3.68C1271.09,330.88,1270.13,330.96,1269.17,330.96z"/>
	<path class="st65" d="M1277.1,304.09l-1.15,4.11c-3.07-1.21-5.97-1.43-7.91-1.1c-2.52,0.43-4.01,1.66-3.72,3.38
		c0.95,5.6,14.28,0.24,15.81,9.47c0.78,4.58-2.77,8.08-8.4,9.04c-4.03,0.68-8.11-0.31-11.16-2.28l1.23-4.05
		c3.05,1.97,6.57,2.72,9.31,2.26c3-0.51,4.6-1.95,4.27-3.93c-0.97-5.71-14.26-0.17-15.81-9.28c-0.75-4.39,2.55-7.78,8.12-8.73
		C1271.02,302.42,1274.46,302.92,1277.1,304.09z"/>
	<path class="st4" d="M1287.49,298.03l6.68-1.13l17.65,26.9l-8.38,1.43l-3.44-5.37l-10.64,1.81l-1.47,6.2l-8.28,1.41L1287.49,298.03
		z M1291.19,313.86l4.46-0.76l-3.12-4.88L1291.19,313.86z"/>
	<path class="st65" d="M1304.28,323.31l-3.44-5.37l-12.92,2.2l-1.47,6.2l-4.5,0.76l6.95-27.55l4.43-0.75l15.56,23.72L1304.28,323.31
		z M1288.88,316.02l9.66-1.64l-6.77-10.56L1288.88,316.02z"/>
	<polygon class="st4" points="1305,295.05 1312.92,293.71 1322.83,307.31 1327.65,291.2 1335.53,289.86 1340.48,318.92 
		1333.05,320.19 1330.73,306.71 1327.26,318.42 1322.29,319.27 1315.17,309.39 1317.45,322.84 1309.95,324.12 	"/>
	<path class="st65" d="M1334.1,291.87l4.36,25.62l-3.99,0.68l-3.29-19.14l-5.29,17.85l-2.82,0.48l-10.89-15.1l3.26,19.14l-4.06,0.69
		l-4.36-25.62l5.12-0.87l11.35,15.58l5.52-18.45L1334.1,291.87z"/>
	<polygon class="st4" points="1337.94,289.45 1359.68,285.75 1360.93,293.07 1346.95,295.45 1347.54,298.93 1360.05,296.8 
		1361.3,304.12 1348.78,306.25 1349.4,309.87 1363.82,307.42 1365.07,314.74 1342.88,318.51 	"/>
	<path class="st65" d="M1358.25,287.77l0.66,3.88l-13.98,2.38l1.18,6.92l12.52-2.13l0.66,3.88l-12.52,2.13l1.2,7.07l14.42-2.45
		l0.66,3.88l-18.74,3.19l-4.36-25.62L1358.25,287.77z"/>
	<path class="st4" d="M1369.55,284.07l11.93-2.03c1.07-0.18,2.1-0.27,3.08-0.27c5.77,0,9.62,3.18,10.56,8.72
		c1.16,6.81-2.58,11.63-10.01,12.89l-4.17,0.71l1.31,7.72l-7.76,1.32L1369.55,284.07z M1379.7,296.77l3.99-0.68
		c1.57-0.27,2.72-0.78,3.34-1.48c0.57-0.64,0.74-1.53,0.54-2.71c-0.32-1.86-1.33-2.65-3.37-2.65c-0.5,0-1.05,0.05-1.64,0.15
		l-3.99,0.68L1379.7,296.77z"/>
	<path class="st65" d="M1375.93,311.12l-4.36-25.62l10.21-1.74c6.44-1.1,10.68,1.46,11.63,7.02c0.98,5.79-2.14,9.78-8.58,10.88
		l-5.89,1l1.31,7.72L1375.93,311.12z M1376.55,288.64l1.72,10.14l5.71-0.97c3.95-0.67,5.9-2.74,5.31-6.21
		c-0.57-3.37-3.08-4.6-7.03-3.93L1376.55,288.64z"/>
	<path class="st4" d="M1393.27,280.04l12.12-2.06c1.1-0.19,2.16-0.28,3.17-0.28c5.83,0,9.72,3.17,10.66,8.7
		c0.68,4-0.38,7.39-2.99,9.74l8.1,8.53l-9.11,1.55l-5.98-6.93c-0.05,0.01-4.57,0.78-4.57,0.78l1.31,7.72l-7.76,1.32L1393.27,280.04z
		 M1403.41,292.74l4.35-0.74c4.5-0.77,4.09-3.18,3.91-4.21c-0.32-1.85-1.33-2.64-3.4-2.64c-0.5,0-1.06,0.05-1.65,0.15l-4.35,0.74
		L1403.41,292.74z"/>
	<path class="st65" d="M1420.8,303.49l-4.91,0.83l-6-6.96c-0.36,0.1-0.76,0.16-1.17,0.23l-6.08,1.03l1.31,7.72l-4.32,0.74
		l-4.36-25.62l10.4-1.77c6.55-1.12,10.86,1.43,11.81,6.99c0.7,4.1-0.71,7.31-3.89,9.21L1420.8,303.49z M1400.26,284.61l1.72,10.14
		l6.08-1.03c3.95-0.67,5.94-2.74,5.34-6.22c-0.57-3.37-3.11-4.59-7.07-3.92L1400.26,284.61z"/>
	
		<rect x="1421.22" y="274.82" transform="matrix(0.9859 -0.1675 0.1675 0.9859 -28.3655 242.738)" class="st4" width="7.87" height="29.48"/>
	<path class="st65" d="M1425.14,276.39l4.36,25.62l-4.32,0.73l-4.36-25.62L1425.14,276.39z"/>
	<path class="st4" d="M1444.09,301.25c-7.48,0-13.57-5.11-14.81-12.43c-0.68-3.99,0.26-7.96,2.65-11.17
		c2.37-3.18,5.94-5.32,10.05-6.02c0.85-0.14,1.73-0.22,2.61-0.22c3.28,0,6.51,1,9.1,2.8l1.29,0.9l-3.74,6.72l-1.61-1.23
		c-1.49-1.15-3.38-1.8-5.17-1.8c-0.4,0-0.79,0.03-1.16,0.1c-2.03,0.34-3.78,1.41-4.93,3.01c-1.15,1.59-1.6,3.55-1.26,5.53
		c0.62,3.63,3.63,6.17,7.33,6.17c0.44,0,0.9-0.04,1.34-0.11c2.06-0.35,4.12-1.69,5.51-3.57l1.08-1.45l5.77,4.58l-0.97,1.35
		c-2.49,3.45-6.35,5.92-10.33,6.6C1445.93,301.18,1445,301.25,1444.09,301.25z"/>
	<path class="st65" d="M1452.69,275.65l-1.99,3.58c-2.21-1.7-5.09-2.48-7.69-2.04c-5.13,0.87-8.48,5.51-7.62,10.56
		c0.86,5.05,5.56,8.36,10.69,7.49c2.56-0.44,5-2.06,6.62-4.25l3.05,2.42c-2.16,3-5.58,5.28-9.2,5.9
		c-7.5,1.28-14.29-3.41-15.54-10.77c-1.24-7.28,3.7-13.88,11.28-15.17C1445.91,272.74,1449.79,273.62,1452.69,275.65z"/>
	<polygon class="st4" points="1453.53,269.79 1475.28,266.09 1476.52,273.41 1462.54,275.79 1463.13,279.26 1475.65,277.13 
		1476.9,284.46 1464.38,286.59 1464.99,290.21 1479.42,287.76 1480.66,295.08 1458.48,298.85 	"/>
	<path class="st65" d="M1473.85,268.1l0.66,3.88l-13.98,2.38l1.18,6.92l12.52-2.13l0.66,3.88l-12.52,2.13l1.2,7.07l14.42-2.45
		l0.66,3.88l-18.74,3.19l-4.36-25.62L1473.85,268.1z"/>
	<polygon class="st4" points="1188.74,333.22 1200.66,331.54 1258.55,374.82 1246.62,376.5 	"/>
	<g>
		
			<rect x="1036.98" y="556.14" transform="matrix(-1 -4.685153e-11 4.685153e-11 -1 2370.5469 1417.9592)" class="st66" width="296.58" height="305.68"/>
		
			<rect x="832.25" y="555.63" transform="matrix(-1 -4.491131e-11 4.491131e-11 -1 1869.2272 1417.4521)" class="st20" width="204.74" height="306.19"/>
	</g>
	<g>
		
			<rect x="1009.53" y="401.64" transform="matrix(-1 -4.691104e-11 4.691104e-11 -1 2180.9858 957.7796)" class="st67" width="161.93" height="154.5"/>
		
			<rect x="897.75" y="401.36" transform="matrix(-1 -4.483182e-11 4.483182e-11 -1 1907.2782 957.5027)" class="st4" width="111.78" height="154.77"/>
	</g>
	<g>
		
			<rect x="720.64" y="333.83" transform="matrix(-1 -4.684798e-11 4.684798e-11 -1 1674.2743 889.9634)" class="st68" width="233" height="222.31"/>
		
			<rect x="559.79" y="333.43" transform="matrix(-1 -4.491886e-11 4.491886e-11 -1 1280.4232 889.565)" class="st20" width="160.85" height="222.71"/>
	</g>
	<g>
		
			<rect x="621.25" y="556.14" transform="matrix(-1 -4.685153e-11 4.685153e-11 -1 1539.0897 1417.9592)" class="st66" width="296.58" height="305.68"/>
		
			<rect x="416.52" y="555.63" transform="matrix(-1 -4.491131e-11 4.491131e-11 -1 1037.77 1417.4521)" class="st4" width="204.74" height="306.19"/>
	</g>
	<path class="st68" d="M998.44,594.35H961c-4.06,0-7.36-3.29-7.36-7.36l0,0c0-4.06,3.29-7.36,7.36-7.36h37.44
		c4.06,0,7.36,3.29,7.36,7.36l0,0C1005.8,591.05,1002.51,594.35,998.44,594.35z"/>
	<line class="st69" x1="355.25" y1="861.91" x2="1564.75" y2="861.91"/>
	<polygon class="st70" points="1009.53,556.14 917.84,645.76 917.84,556.14 	"/>
	<polygon class="st70" points="720.64,556.14 917.84,645.76 917.84,556.14 	"/>
	<g>
		<g>
			<g>
				<path class="st44" d="M1102.19,597.72c0,4.98-2.86,8.86-7.61,10.98c6.22,2.05,10.17,6.81,10.17,13.03
					c0,9.15-7.61,14.71-19.76,14.71c-12.08,0-19.69-5.56-19.69-14.57c0-6.29,4.03-11.13,10.54-13.17
					c-4.98-2.27-7.98-6.29-7.98-11.27c0-8.05,6.66-12.96,17.13-12.96C1095.53,584.47,1102.19,589.52,1102.19,597.72z M1073.5,620.92
					c0,5.56,4.17,8.71,11.49,8.71c7.32,0,11.56-3.15,11.56-8.71c0-5.34-4.25-8.49-11.56-8.49
					C1077.75,612.43,1073.5,615.58,1073.5,620.92z M1075.19,598.23c0,4.76,3.66,7.47,9.81,7.47c6.22,0,9.81-2.71,9.81-7.47
					c0-4.76-3.59-7.54-9.81-7.54C1078.85,590.69,1075.19,593.47,1075.19,598.23z"/>
				<path class="st44" d="M1154.97,610.45c0,16.61-7.76,25.84-21.74,25.84c-14.05,0-21.81-9.22-21.81-25.84
					c0-16.61,7.76-25.84,21.81-25.84C1147.21,584.62,1154.97,593.84,1154.97,610.45z M1120.28,610.45
					c0,12.95,4.32,19.03,12.96,19.03c8.56,0,12.88-6.07,12.88-19.03c0-13.03-4.32-19.03-12.88-19.03
					C1124.6,591.42,1120.28,597.42,1120.28,610.45z"/>
			</g>
			<g>
				<path class="st44" d="M1164.98,636.07v-25.63h10.51c7.69,0,13.25,5.38,13.25,12.81c0,7.4-5.6,12.81-13.36,12.81H1164.98z
					 M1169.3,614.32v17.86h6.3c4.98,0,8.79-3.7,8.79-8.9c0-5.24-3.92-8.97-8.97-8.97H1169.3z"/>
				<path class="st44" d="M1214.51,636.07h-4.91l-4.69-7.76c-0.37,0.04-0.77,0.04-1.17,0.04h-6.08v7.72h-4.32v-25.63h10.4
					c6.55,0,10.32,3.18,10.32,8.75c0,4.1-1.9,6.99-5.31,8.31L1214.51,636.07z M1197.67,614.32v10.14h6.08
					c3.95,0,6.22-1.68,6.22-5.16c0-3.37-2.27-4.98-6.22-4.98H1197.67z"/>
			</g>
		</g>
	</g>
	<g>
		<g>
			<g>
				<path class="st44" d="M679.72,578.35v5.96l-18.46,40.37h-8.27l18-39.31h-18l-0.07,6.48h-6.88v-13.5H679.72z"/>
				<path class="st44" d="M723.86,601.51c0,15.02-7.01,23.36-19.65,23.36c-12.71,0-19.72-8.34-19.72-23.36s7.01-23.36,19.72-23.36
					C716.84,578.15,723.86,586.48,723.86,601.51z M692.49,601.51c0,11.71,3.9,17.21,11.71,17.21c7.74,0,11.65-5.49,11.65-17.21
					c0-11.78-3.9-17.2-11.65-17.2C696.4,584.3,692.49,589.73,692.49,601.51z"/>
			</g>
			<g>
				<path class="st44" d="M733.46,624.08V602.6h8.81c6.44,0,11.11,4.51,11.11,10.74c0,6.2-4.7,10.74-11.2,10.74H733.46z
					 M737.08,605.85v14.98h5.28c4.17,0,7.37-3.1,7.37-7.46c0-4.39-3.28-7.52-7.52-7.52H737.08z"/>
				<path class="st44" d="M774.98,624.08h-4.11l-3.93-6.51c-0.31,0.03-0.64,0.03-0.98,0.03h-5.1v6.48h-3.62V602.6h8.72
					c5.49,0,8.65,2.67,8.65,7.34c0,3.44-1.6,5.86-4.45,6.97L774.98,624.08z M760.86,605.85v8.5h5.1c3.31,0,5.22-1.41,5.22-4.33
					c0-2.82-1.9-4.17-5.22-4.17H760.86z"/>
			</g>
		</g>
	</g>
	<g>
		<g>
			<g>
				<path class="st44" d="M768.5,353.72l-2.64,5.11c-2.47-1.61-5.85-2.52-8.89-2.52c-7.8,0-11.42,5.85-11.19,14.51
					c2.12-3.73,5.91-5.68,10.96-5.68c8.03,0,12.91,4.99,12.91,12.79c0,8.32-5.56,13.48-14.11,13.48c-10.15,0-16.35-7.23-16.35-19.56
					c0-12.79,6.71-21.17,17.33-21.17C760.47,350.68,765.23,351.88,768.5,353.72z M746.87,378.1c-0.06,3.5,2.52,7.46,8.32,7.46
					c4.88,0,8.15-2.81,8.15-7.69c0-4.59-2.98-7.4-7.86-7.4C750.03,370.47,746.81,373.97,746.87,378.1z"/>
				<path class="st44" d="M808.6,371.04c0,13.02-6.08,20.25-17.04,20.25c-11.01,0-17.1-7.23-17.1-20.25
					c0-13.02,6.08-20.25,17.1-20.25C802.52,350.79,808.6,358.02,808.6,371.04z M781.41,371.04c0,10.15,3.38,14.92,10.15,14.92
					c6.71,0,10.1-4.76,10.1-14.92c0-10.21-3.38-14.92-10.1-14.92C784.79,356.13,781.41,360.83,781.41,371.04z"/>
			</g>
			<g>
				<path class="st44" d="M814.74,390.35v-17.93h7.35c5.38,0,9.27,3.77,9.27,8.97c0,5.17-3.92,8.97-9.35,8.97H814.74z
					 M817.76,375.13v12.5h4.41c3.48,0,6.15-2.59,6.15-6.23c0-3.66-2.74-6.28-6.28-6.28H817.76z"/>
				<path class="st44" d="M849.4,390.35h-3.43l-3.28-5.43c-0.26,0.03-0.54,0.03-0.82,0.03h-4.25v5.41h-3.02v-17.93h7.28
					c4.59,0,7.23,2.23,7.23,6.12c0,2.87-1.33,4.89-3.72,5.82L849.4,390.35z M837.61,375.13v7.1h4.25c2.77,0,4.36-1.18,4.36-3.61
					c0-2.36-1.59-3.48-4.36-3.48H837.61z"/>
			</g>
		</g>
	</g>
	<g>
		<g>
			<g>
				<path class="st44" d="M1084.51,448.65v-17.26h7.08c5.18,0,8.93,3.62,8.93,8.63c0,4.98-3.77,8.63-9,8.63H1084.51z M1087.43,434
					v12.03h4.24c3.35,0,5.92-2.49,5.92-5.99c0-3.53-2.64-6.04-6.04-6.04H1087.43z"/>
				<path class="st44" d="M1117.88,448.65h-3.3l-3.16-5.23c-0.25,0.03-0.52,0.03-0.79,0.03h-4.09v5.2h-2.91v-17.26h7
					c4.41,0,6.95,2.15,6.95,5.89c0,2.76-1.28,4.71-3.58,5.6L1117.88,448.65z M1106.53,434v6.83h4.09c2.66,0,4.19-1.13,4.19-3.48
					c0-2.27-1.53-3.35-4.19-3.35H1106.53z"/>
			</g>
			<g>
				<path class="st44" d="M1046.08,416.24l0.05,4.88h-14.63v6.95l4.42-0.05c6.99,0,11.5,4.14,11.5,9.8
					c0,6.53-4.69,10.81-11.92,10.81c-3.82,0-8.28-1.47-11.46-3.68l2.16-4.42c2.58,2.16,5.8,3.4,8.69,3.4c4.19,0,6.72-2.16,6.72-5.8
					c0-3.27-2.53-5.29-6.67-5.29c-1.93,0-6.3,0.18-8.46,0.41v-17.02H1046.08z"/>
				<path class="st44" d="M1078.98,432.34c0,10.44-4.88,16.24-13.66,16.24c-8.83,0-13.71-5.8-13.71-16.24
					c0-10.44,4.88-16.24,13.71-16.24C1074.11,416.1,1078.98,421.89,1078.98,432.34z M1057.18,432.34c0,8.14,2.71,11.96,8.14,11.96
					c5.38,0,8.1-3.82,8.1-11.96c0-8.19-2.71-11.96-8.1-11.96C1059.89,420.38,1057.18,424.15,1057.18,432.34z"/>
			</g>
		</g>
	</g>
	<path class="st68" d="M647.13,360.48h-37.44c-4.06,0-7.36-3.29-7.36-7.36v0c0-4.06,3.29-7.36,7.36-7.36h37.44
		c4.06,0,7.36,3.29,7.36,7.36v0C654.48,357.19,651.19,360.48,647.13,360.48z"/>
	<path class="st68" d="M520.25,608.86h-37.44c-4.06,0-7.36-3.29-7.36-7.36l0,0c0-4.06,3.29-7.36,7.36-7.36h37.44
		c4.06,0,7.36,3.29,7.36,7.36l0,0C527.61,605.57,524.32,608.86,520.25,608.86z"/>
	<rect x="884.18" y="512.86" class="st4" width="56.67" height="27.06"/>
	<rect x="641.64" y="809.86" class="st4" width="85.69" height="40.91"/>
	<rect x="1273.84" y="809.22" class="st4" width="44.33" height="40.91"/>
	<rect x="1122.31" y="530.1" class="st4" width="37.99" height="18.14"/>
	<polyline class="st4" points="559.79,333.43 518.89,279.17 684.48,279.17 720.64,333.43 	"/>
	<polyline class="st68" points="953.64,333.43 994.54,279.17 758.33,279.17 722.17,333.43 	"/>
	<polygon class="st4" points="1360.46,357.48 1378.66,371.6 1380.56,354.06 	"/>
</g>
</svg>
