<svg width="56" height="37" viewBox="0 0 56 37" fill="none" xmlns="http://www.w3.org/2000/svg">
<path fill-rule="evenodd" clip-rule="evenodd" d="M7.11179 31.9854L7.24335 32.8751H8V29.2815C8 27.3994 6.79367 27 5.43422 27C4.82028 27 4.15133 27.1368 3.58124 27.3424V28.3689C4.10748 28.0953 4.71027 28.0036 5.31381 28.0036C6.00431 28.0036 6.88137 28.1522 6.88137 29.0759V29.5892C6.34399 29.3725 5.68619 29.2357 5.25881 29.2357C4.06362 29.2357 3 29.7378 3 31.1518C3 32.395 4.03092 33 4.98454 33C5.81775 33 6.53055 32.7493 7.11179 31.9846V31.9854ZM5.39037 30.1285C5.92775 30.1285 6.46514 30.2883 6.88137 30.5619V31.0301C6.53055 31.692 5.9166 32.0906 5.32422 32.0906C4.49101 32.0906 4.17289 31.6683 4.17289 31.0301C4.17289 30.3681 4.66642 30.1285 5.39037 30.1285V30.1285Z" fill="#E5E5E5"/>
<path d="M10 27.1987H10.8806V28.2236C11.3589 27.3731 12.1091 27 12.9241 27C14.0111 27 15 27.6292 15 29.0853V33H13.8696V29.4116C13.8696 28.398 13.3265 28.0136 12.6957 28.0136C11.9565 28.0136 11.4562 28.4215 11.1304 29.1556V33H10V27.1979V27.1987Z" fill="#E5E5E5"/>
<path fill-rule="evenodd" clip-rule="evenodd" d="M23 25H21.8114V27.5584C21.1243 26.9885 20.4016 26.8837 19.8306 26.8837C18.1412 26.8837 17 28.0694 17 29.9765C17 31.6394 17.9667 33 19.6679 33C20.5414 33 21.2293 32.8493 22.0325 31.965L22.1494 32.8718H23V25V25ZM20.0983 27.8711C20.6812 27.8711 21.287 28.1266 21.8106 28.6852V30.8011C21.3675 31.6732 20.6575 31.9989 19.9696 31.9989C18.7344 31.9989 18.2455 31.08 18.2455 29.929C18.2455 28.7546 18.8284 27.8711 20.0975 27.8711H20.0983Z" fill="#E5E5E5"/>
<path d="M28.9259 28.2189C28.449 28.0762 27.9523 28 27.4519 27.993C26.0636 27.993 25.3141 28.6701 25.3141 29.9891C25.3141 31.3081 26.186 31.9969 27.4152 31.9969C27.9807 31.9969 28.5578 31.8952 29 31.7146V32.6959C28.4229 32.921 27.735 33 27.2428 33C25.3999 33 24 31.8944 24 30.0336C24 28.1955 25.2775 27 27.3045 27C27.7342 27 28.4221 27.068 28.9259 27.2478V28.2181V28.2189Z" fill="#E5E5E5"/>
<path fill-rule="evenodd" clip-rule="evenodd" d="M34.1118 31.9854L34.2433 32.8751H35V29.2815C35 27.3994 33.7937 27 32.4342 27C31.8035 27.0098 31.1781 27.1253 30.5812 27.3424V28.3689C31.1075 28.0953 31.7103 28.0036 32.3138 28.0036C33.0043 28.0036 33.8814 28.1522 33.8814 29.0759V29.5892C33.344 29.3725 32.6862 29.2357 32.2588 29.2357C31.0636 29.2357 30 29.7378 30 31.1518C30 32.395 31.0309 33 31.9845 33C32.8177 33 33.5305 32.7493 34.1118 31.9846V31.9854ZM32.3919 30.1285C32.9292 30.1285 33.4659 30.2883 33.8829 30.5619V31.0301C33.532 31.692 32.9181 32.0906 32.3257 32.0906C31.4925 32.0906 31.1744 31.6683 31.1744 31.0301C31.1744 30.3681 31.6679 30.1285 32.3911 30.1285H32.3919Z" fill="#E5E5E5"/>
<path d="M37 27.1641H37.7864V28.3479C38.2812 27.3169 38.9412 27 39.7085 27L40 27.0114V28.2536C39.8221 28.1996 39.6396 28.1721 39.4565 28.1716C38.7964 28.1716 38.3108 28.5705 38.0101 29.3789V33H37.0007V27.1633L37 27.1641Z" fill="#E5E5E5"/>
<path fill-rule="evenodd" clip-rule="evenodd" d="M47 25H45.8115V27.5584C45.1245 26.9885 44.4019 26.8837 43.831 26.8837C42.1419 26.8837 41 28.0694 41 29.9765C41 31.6394 41.9674 33 43.6675 33C44.5409 33 45.2287 32.8493 46.0326 31.965L46.1487 32.8718H46.9992V25H47ZM44.0987 27.8711C44.6815 27.8711 45.2872 28.1266 45.8115 28.6852V30.8011C45.3685 31.6732 44.6586 31.9989 43.9708 31.9989C42.7365 31.9989 42.2469 31.08 42.2469 29.929C42.2469 28.7546 42.8289 27.8711 44.0987 27.8711V27.8711Z" fill="#E5E5E5"/>
<path d="M50.4581 32.03C49.6948 32.03 48.7871 31.8721 48.1092 31.5453V32.5154C48.7017 32.7968 49.465 33 50.4335 33C51.9831 33 53 32.3348 53 31.2632C53 29.087 49.2951 30.0227 49.2467 28.7259C49.2467 28.0599 49.8155 27.97 50.4696 27.97C51.1238 27.97 51.9716 28.1615 52.5404 28.3648V27.3947C52.0077 27.1579 51.2937 27 50.555 27C48.9077 27 48 27.6433 48 28.7931C48 31.0826 51.7533 30.1016 51.7533 31.2741C51.7533 31.8158 51.1484 32.03 50.4581 32.03Z" fill="#E5E5E5"/>
<path d="M28.1182 10.5786C29.1918 10.5786 30.3512 10.8416 30.9736 11.2058V8.77689C30.1152 8.39213 28.741 8.23017 27.8826 8.23017C24.2758 8.23017 22 10.4166 22 13.6759C22 17.0162 24.5118 19 27.775 19C28.741 19 30.1152 18.8175 31.1026 18.3522V15.9228C30.201 16.4288 28.8913 16.6315 27.7963 16.6315C26.1861 16.6315 25.0266 15.5179 25.0266 13.5949C25.0266 11.6313 26.1216 10.5786 28.1182 10.5786Z" fill="#E5E5E5"/>
<path d="M23.6175 2.86933V5.47686C24.2817 5.14857 25.7466 4.54976 28.4718 4.54976C31.197 4.54976 32.8658 5.38626 32.8658 7.2733V18.9991H36V7.79463C36 2.52352 31.7159 2 28.81 2C25.9041 2 23.6175 2.86933 23.6175 2.86933Z" fill="#E5E5E5"/>
</svg>
