<svg width="165" height="113" viewBox="0 0 165 113" fill="none" xmlns="http://www.w3.org/2000/svg">
<path d="M38.5786 53.1943C38.5786 52.3502 38.0897 51.7378 37.1404 51.7378H35.3438V54.7047H37.173C38.0693 54.7047 38.5786 54.0385 38.5786 53.1943Z" fill="white"/>
<path d="M37.3686 56.4263H35.3438V59.8235H35.7023H37.3645C38.4115 59.8235 38.9982 59.1118 38.9982 58.1187C39.0023 57.138 38.3952 56.4263 37.3686 56.4263Z" fill="white"/>
<path d="M45.8468 46.6235H27.5012V65.2566H45.8468V52.6194L44.3271 51.2953L45.8468 49.8594V46.6235ZM37.2057 61.4622H34.3171H33.2049V51.5353H32.1457V49.8966H37.1568C39.2427 49.8966 40.746 50.9891 40.746 52.9297C40.746 54.2373 40.0453 55.0815 39.3446 55.4497V55.4828C40.5994 55.8635 41.2064 57.0553 41.2064 58.2511C41.2023 60.6015 39.3609 61.4622 37.2057 61.4622Z" fill="white"/>
<path d="M56.0197 56.4469H50.646V46.9048H55.5267C57.2623 46.9048 58.3745 47.8069 58.3745 49.3131C58.3745 50 58.0486 50.9889 56.8916 51.4358C58.1749 51.8206 58.6964 52.7558 58.6964 53.7696C58.7004 55.1434 57.7267 56.4469 56.0197 56.4469ZM54.879 48.8248H53.0578V50.7282H54.8912C55.6653 50.7282 55.9627 50.2855 55.9627 49.7269C55.9627 49.1682 55.6286 48.8248 54.879 48.8248ZM55.1764 52.5531H53.0578V54.502H55.1764C55.9667 54.502 56.2886 54.0882 56.2886 53.5296C56.2886 52.9379 55.9097 52.5531 55.1764 52.5531Z" fill="white"/>
<path d="M66.7021 56.4469L64.388 53.1944H62.7095V56.4469H60.2976V46.9048H65.5613C67.5209 46.9048 68.7065 48.2662 68.7065 50C68.7065 51.1917 68.1402 52.28 67.1258 52.822L69.7495 56.4469H66.7021ZM65.1539 48.8827H62.7135V51.291H65.1539C65.7609 51.291 66.2987 50.7613 66.2987 50.0579C66.2946 49.3544 65.8017 48.8827 65.1539 48.8827Z" fill="white"/>
<path d="M77.6489 56.4469L77.0134 54.6551H73.8233L73.1756 56.4469H70.7922L74.2756 46.9048H76.5611L80.0322 56.4469H77.6489ZM75.4204 49.3296L74.3896 52.8096H76.4348L75.4204 49.3296Z" fill="white"/>
<path d="M83.6787 49.0275V50.4758H88.1928V52.5944H83.6787V56.4469H81.2668V46.9048H88.7305V49.0234H83.6787V49.0275Z" fill="white"/>
<path d="M95.7093 49.0855V56.451H93.2974V49.0855H90.25V46.9048H98.7567V49.0813H95.7093V49.0855Z" fill="white"/>
<path d="M104.187 56.6044C101.478 56.6044 99.3638 54.4278 99.3638 51.6761C99.3638 48.9244 101.478 46.7603 104.187 46.7603C106.897 46.7603 108.999 48.9244 108.999 51.6761C108.999 54.4278 106.897 56.6044 104.187 56.6044ZM104.187 48.9409C102.635 48.9409 101.776 50.2154 101.776 51.6761C101.776 53.1368 102.607 54.4278 104.187 54.4278C105.768 54.4278 106.587 53.1368 106.587 51.6761C106.583 50.2154 105.74 48.9409 104.187 48.9409Z" fill="white"/>
<path d="M116.854 56.4469L112.592 50.6579V56.4469H110.266V46.9048H112.592L116.854 52.6772V46.9048H119.168V56.4469H116.854Z" fill="white"/>
<path d="M51.4893 59.1491V61.5698H55.0296V62.087H51.4893V65.2649H50.8904V58.6318H55.2863V59.1491H51.4893Z" fill="white"/>
<path d="M58.9815 65.3767C57.3233 65.3767 56.4026 64.2015 56.4026 62.9436V58.6318H57.0015V62.9849C57.0015 64.1808 57.8367 64.8553 58.9815 64.8553C60.1304 64.8553 60.9615 64.098 60.9615 62.9849V58.6318H61.5481V62.9477C61.5522 64.2098 60.6396 65.3767 58.9815 65.3767Z" fill="white"/>
<path d="M63.2878 65.2691V58.6318H67.643V59.1491H63.8867V61.5698H67.3986V62.087H63.8867V64.7477H67.643V65.2649H63.2878V65.2691Z" fill="white"/>
<path d="M68.9795 65.2691V58.6318H69.5702V64.7518H73.0047V65.2691H68.9795Z" fill="white"/>
<path d="M78.6513 62.567V65.2691H78.0524V62.567L75.4043 58.6318H76.0521L78.358 62.0084L80.6558 58.6318H81.3035L78.6513 62.567Z" fill="white"/>
<path d="M84.4201 65.3769C82.5868 65.3769 81.3401 63.821 81.3401 61.9589C81.3401 60.0969 82.5868 58.5327 84.4201 58.5327C86.2534 58.5327 87.5001 60.0969 87.5001 61.9589C87.496 63.821 86.2534 65.3769 84.4201 65.3769ZM84.4201 59.05C82.9493 59.05 81.9308 60.2955 81.9308 61.9589C81.9308 63.6224 82.9493 64.8555 84.4201 64.8555C85.8908 64.8555 86.9134 63.6224 86.9134 61.9589C86.9094 60.2955 85.8908 59.05 84.4201 59.05Z" fill="white"/>
<path d="M91.3951 65.3767C89.7369 65.3767 88.8162 64.2015 88.8162 62.9436V58.6318H89.4151V62.9849C89.4151 64.1808 90.2502 64.8553 91.3991 64.8553C92.5439 64.8553 93.3791 64.098 93.3791 62.9849V58.6318H93.9658V62.9477C93.9658 64.2098 93.0532 65.3767 91.3951 65.3767Z" fill="white"/>
<path d="M100.651 65.2691L98.5613 62.3891H96.2839V65.2691H95.6973V58.6318H98.651C99.918 58.6318 100.635 59.538 100.635 60.5146C100.635 61.3422 100.114 62.1201 99.1847 62.327L101.324 65.2649H100.651V65.2691ZM98.651 59.1491H96.288V61.8884H98.651C99.5269 61.8884 100.044 61.3422 100.044 60.5146C100.044 59.687 99.3965 59.1491 98.651 59.1491Z" fill="white"/>
<path d="M107.659 65.2691H104.705V58.6318H107.333C108.742 58.6318 109.439 59.3105 109.439 60.3242C109.439 60.9242 109.084 61.5284 108.408 61.7808C109.243 62.0498 109.634 62.658 109.634 63.4236C109.639 64.3794 108.921 65.2691 107.659 65.2691ZM107.353 59.1491H105.292V61.5905H107.312C108.135 61.5905 108.84 61.2222 108.84 60.3739C108.844 59.5298 108.237 59.1491 107.353 59.1491ZM107.597 62.0911H105.292V64.7518H107.618C108.473 64.7518 109.052 64.2718 109.052 63.4277C109.052 62.658 108.579 62.0911 107.597 62.0911Z" fill="white"/>
<path d="M115.986 65.2691L113.896 62.3891H111.619V65.2691H111.032V58.6318H113.986C115.253 58.6318 115.966 59.538 115.966 60.5146C115.966 61.3422 115.444 62.1201 114.515 62.327L116.654 65.2649H115.986V65.2691ZM113.986 59.1491H111.623V61.8884H113.986C114.858 61.8884 115.379 61.3422 115.379 60.5146C115.379 59.687 114.731 59.1491 113.986 59.1491Z" fill="white"/>
<path d="M122.586 65.2691L121.861 63.4153H118.655L117.929 65.2691H117.331L120.04 58.6318H120.472L123.189 65.2691H122.586V65.2691ZM120.248 59.3601L118.846 62.927H121.661L120.248 59.3601Z" fill="white"/>
<path d="M128.97 65.2691L124.778 59.5587V65.2691H124.208V58.6318H124.778L128.966 64.3298V58.6318H129.545V65.2691H128.97Z" fill="white"/>
<path d="M132.653 65.2691H131.349V58.6318H132.653C134.882 58.6318 136.499 60.0387 136.499 61.9505C136.499 63.8622 134.878 65.2691 132.653 65.2691ZM132.739 59.1491H131.936V64.7477H132.739C134.319 64.7477 135.9 63.7298 135.9 61.9463C135.9 60.167 134.319 59.1491 132.739 59.1491Z" fill="white"/>
</svg>
