<svg width="166" height="113" viewBox="0 0 166 113" fill="none" xmlns="http://www.w3.org/2000/svg">
<path fill-rule="evenodd" clip-rule="evenodd" d="M42.1692 59.2409C42.0954 58.2329 41.9514 57.4048 41.9514 56.6175C41.9827 56.1766 42.1092 55.7471 42.3225 55.3574C42.7648 54.491 43.2809 53.6636 43.6454 52.805C43.9441 52.0882 44.3458 51.765 44.9684 51.9068C45.1189 51.9443 45.2588 52.0145 45.3777 52.1122C45.4966 52.2099 45.5913 52.3326 45.6549 52.471C45.7184 52.6094 45.7492 52.7601 45.7448 52.9117C45.7405 53.0633 45.7011 53.212 45.6297 53.3468C45.2586 54.2829 44.7425 55.1829 44.3396 56.112C44.1739 56.4623 44.0727 56.8384 44.041 57.2231C44.1147 58.4441 44.2588 59.6351 44.3728 60.8549C44.4464 61.8948 43.6724 62.3988 42.7192 61.8948C41.687 61.3592 40.7349 60.7428 39.7021 60.2389C39.2784 60.0395 38.8044 59.9655 38.3382 60.026C37.1537 60.2201 35.941 60.175 34.7749 59.8936C33.6089 59.6121 32.5143 59.1003 31.5586 58.3897C30.603 57.6791 29.8066 56.7847 29.2185 55.762C28.6304 54.7391 28.2632 53.6093 28.1395 52.4425C27.591 47.55 31.5274 42.8781 36.424 42.7363C37.4845 42.7068 38.5389 42.9033 39.5137 43.3123C41.6111 44.2105 42.345 46.6211 41.4674 49.0321C40.915 50.5127 39.9915 51.8345 38.7813 52.8767C38.1915 53.3807 37.4912 53.4124 37.1277 52.9486C36.6854 52.3726 36.8697 51.8377 37.3857 51.4046C38.4916 50.3966 39.4105 49.2445 39.6685 47.7325C40.0003 46.0386 39.12 44.9277 37.3857 44.7858C34.0705 44.4618 30.8355 47.0863 30.2469 50.537C29.7308 53.8066 31.9812 57.2256 35.2157 57.8718C36.2353 58.062 37.2812 58.0753 38.3054 57.911C39.0795 57.8008 39.701 57.8008 40.3302 58.2351C40.8784 58.5569 41.4349 58.8478 42.1692 59.2409Z" fill="#AE1536"/>
<path d="M48.1785 52.8757C48.1704 52.8605 48.203 51.5436 48.203 51.5436C48.1666 50.9907 48.1913 50.4354 48.2766 49.8876C48.461 48.4476 48.8252 47.4061 49.3825 46.7599C49.8643 46.2231 50.438 45.7724 51.0781 45.4278C52.1198 45.0253 53.2331 44.8295 54.3532 44.8518C55.2879 44.8522 56.2051 45.0999 57.0072 45.5686C57.7847 46.0007 58.3943 46.6714 58.7415 47.4766C59.0732 48.2643 59.2576 49.5251 59.2576 51.2189V57.6163H57.6356V51.6859C57.668 50.7237 57.6062 49.7608 57.4513 48.8101C57.3254 48.0985 56.9165 47.4644 56.3138 47.0461C55.7241 46.6835 54.9182 46.5421 53.773 46.5421C52.8209 46.5371 51.8918 46.827 51.119 47.3701C50.3449 47.9461 50.1089 48.8418 49.9907 49.6086C49.8585 50.7511 49.8068 51.9012 49.8363 53.0506V57.6202H48.1785V52.8757Z" fill="#403F42"/>
<path d="M84.8007 44.5718C85.7177 44.5487 86.6285 44.7239 87.468 45.0849C88.3076 45.4459 89.0549 45.9837 89.6567 46.6599C90.8165 47.8784 91.4494 49.4873 91.4235 51.1506V57.6974H89.6892V54.8533C88.8019 56.5093 87.1483 57.4058 84.7926 57.6186C83.9044 57.6497 83.0197 57.4927 82.1995 57.1581C81.3792 56.8236 80.6429 56.3196 80.0412 55.6806C78.8774 54.4594 78.2217 52.8582 78.2023 51.19C78.1831 49.5218 78.8013 47.9065 79.9365 46.6599C80.5404 45.9842 81.2894 45.4467 82.1301 45.0859C82.9708 44.725 83.8826 44.5495 84.8007 44.5718ZM84.8007 46.1159C84.1448 46.1142 83.4956 46.2441 82.8933 46.4975C82.2908 46.7509 81.7482 47.1224 81.2989 47.5891C80.8232 48.0572 80.4477 48.6132 80.1946 49.2247C79.9414 49.8361 79.8156 50.4908 79.8245 51.1503C79.8196 52.0297 80.0473 52.8954 80.4857 53.6635C80.9007 54.4179 81.5273 55.041 82.2919 55.46C83.0411 55.8874 83.8941 56.1106 84.7616 56.1058C87.6736 55.8142 89.287 54.1679 89.6177 51.1424C89.6333 50.4851 89.5143 49.8315 89.2674 49.2199C89.0205 48.6083 88.6508 48.0511 88.1801 47.5812C87.7563 47.1158 87.2354 46.7444 86.6527 46.4916C86.0698 46.2389 85.4383 46.1108 84.8007 46.1159Z" fill="#403F42"/>
<path d="M99.676 57.1614C98.954 57.4587 98.1766 57.6058 97.3932 57.5934C96.1429 57.5214 95.1505 56.8766 94.4487 55.6853C93.9764 54.9437 93.7561 54.0751 93.8195 53.2038V40.2939H95.4731V46.2974H98.4901V47.6684H95.4731V52.9543C95.6574 54.6104 96.1344 55.5778 96.7961 55.972C97.166 56.1501 97.5763 56.2336 97.9883 56.2142C98.4003 56.1949 98.8006 56.0737 99.1514 55.8618C99.3775 56.4054 99.5227 56.8701 99.676 57.1614Z" fill="#403F42"/>
<path d="M102.839 40.042C103.2 40.0454 103.544 40.1868 103.799 40.4359C104.054 40.6849 104.199 41.0218 104.203 41.374C104.203 41.7273 104.059 42.0661 103.803 42.3159C103.548 42.5657 103.201 42.7061 102.839 42.7061C102.477 42.7061 102.13 42.5657 101.874 42.3159C101.619 42.0661 101.475 41.7273 101.475 41.374C101.467 41.1986 101.5 41.0237 101.569 40.8619C101.639 40.7001 101.744 40.5553 101.878 40.438C102.004 40.3131 102.153 40.2137 102.318 40.1457C102.483 40.0777 102.66 40.0425 102.839 40.042ZM102.032 45.1865H103.654V57.6266H102.032V45.1865Z" fill="#403F42"/>
<path d="M68.7085 57.2325C67.4216 57.2363 66.1625 56.867 65.0909 56.1712C64.0192 55.4754 63.1833 54.4844 62.6889 53.3239C62.1946 52.1636 62.0642 50.8859 62.3143 49.653C62.5644 48.4202 63.1837 47.2875 64.0936 46.3988C65.0035 45.5101 66.1632 44.9053 67.4256 44.661C68.6879 44.4168 69.9961 44.5441 71.1842 45.0269C72.3724 45.5097 73.3871 46.3262 74.0995 47.3728C74.8119 48.4195 75.1901 49.6492 75.1861 50.906C75.1834 52.5831 74.5002 54.1908 73.2859 55.3767C72.0717 56.5625 70.4257 57.2299 68.7085 57.2325ZM68.7085 46.1161C67.748 46.1161 66.8092 46.3943 66.0106 46.9154C65.212 47.4366 64.5896 48.1773 64.2221 49.0439C63.8546 49.9105 63.7583 50.8641 63.9457 51.7842C64.1332 52.7042 64.5957 53.5492 65.2747 54.2125C65.9538 54.8758 66.8192 55.3275 67.7611 55.5105C68.7031 55.6935 69.6796 55.5996 70.5669 55.2407C71.4542 54.8816 72.2126 54.2738 72.7462 53.4938C73.2798 52.7139 73.5645 51.7969 73.5645 50.8589C73.5653 50.2359 73.4403 49.6188 73.1964 49.0431C72.9526 48.4673 72.595 47.9442 72.1439 47.5037C71.6928 47.0631 71.1572 46.7138 70.5677 46.4757C69.9782 46.2376 69.3464 46.1154 68.7085 46.1161Z" fill="#403F42"/>
<path d="M68.7085 70.8936C67.4216 70.8976 66.1625 70.5282 65.0909 69.8323C64.0192 69.1365 63.1833 68.1456 62.6889 66.9852C62.1946 65.8248 62.0642 64.5471 62.3143 63.3141C62.5644 62.0813 63.1837 60.9487 64.0936 60.06C65.0035 59.1712 66.1632 58.5664 67.4256 58.3221C68.6879 58.0779 69.9961 58.2053 71.1842 58.6881C72.3724 59.1708 73.3871 59.9874 74.0995 61.0339C74.8119 62.0807 75.1901 63.3104 75.1861 64.5672C75.1834 66.2443 74.5002 67.8519 73.2859 69.0378C72.0717 70.2238 70.4257 70.8911 68.7085 70.8936ZM68.7085 59.7852C67.748 59.7852 66.8092 60.0634 66.0106 60.5845C65.212 61.1056 64.5896 61.8463 64.2221 62.713C63.8546 63.5796 63.7583 64.5332 63.9457 65.4533C64.1332 66.3732 64.5957 67.2183 65.2747 67.8816C65.9538 68.5449 66.8192 68.9966 67.7611 69.1795C68.7031 69.3625 69.6796 69.2686 70.5669 68.9097C71.4542 68.5508 72.2126 67.9428 72.7462 67.1629C73.2798 66.3829 73.5645 65.4659 73.5645 64.5279C73.5653 63.9049 73.4401 63.2879 73.1964 62.7122C72.9525 62.1365 72.5948 61.6135 72.1438 61.173C71.6927 60.7325 71.1571 60.3832 70.5677 60.1451C69.9781 59.907 69.3464 59.7849 68.7085 59.7855V59.7852Z" fill="#403F42"/>
<path d="M81.1629 67.6561C81.0387 67.8639 80.8569 68.0332 80.6387 68.1447C80.372 68.2779 80.0749 68.343 79.7755 68.3337C79.4672 68.3374 79.1618 68.276 78.88 68.1537C78.6341 68.0448 78.4204 67.8767 78.259 67.6651C78.1046 67.4574 78.0125 67.2118 77.9928 66.9559H78.6865C78.7044 67.1011 78.7538 67.2408 78.8318 67.3657C78.9187 67.5041 79.041 67.6182 79.1868 67.6965C79.3601 67.7868 79.5551 67.8302 79.7514 67.8225C79.8712 67.8312 79.9916 67.8161 80.1052 67.7782C80.2189 67.7402 80.3235 67.6802 80.4127 67.6018C80.4889 67.5261 80.5483 67.4358 80.5872 67.3368C80.6262 67.2377 80.6436 67.1317 80.6387 67.0258C80.6449 66.8495 80.5877 66.6767 80.4772 66.5372C80.3699 66.41 80.235 66.3077 80.0821 66.2378C79.8714 66.1476 79.6561 66.0688 79.4367 66.0016C79.1743 65.9226 78.9182 65.8251 78.6703 65.7099C78.4749 65.6141 78.3061 65.4736 78.1783 65.3002C78.0342 65.0885 77.9635 64.8374 77.9766 64.5835C77.9715 64.344 78.0387 64.1083 78.1702 63.906C78.3021 63.7067 78.4896 63.5482 78.7105 63.4491C78.9719 63.3366 79.2558 63.2826 79.5413 63.2914C79.9654 63.2678 80.3839 63.3937 80.7209 63.6461C81.004 63.8692 81.1863 64.1915 81.2292 64.5442H80.5289C80.4884 64.3425 80.3806 64.1598 80.2221 64.0243C80.0334 63.8693 79.791 63.7904 79.5447 63.8037C79.3171 63.7898 79.0924 63.8602 78.9155 64.0006C78.8372 64.0718 78.7758 64.1586 78.7355 64.2551C78.695 64.3518 78.6766 64.4558 78.6814 64.5601C78.6725 64.728 78.7271 64.8935 78.8348 65.0249C78.9408 65.1428 79.0697 65.2394 79.214 65.3085C79.4194 65.396 79.6293 65.4723 79.8433 65.5372C80.1107 65.6165 80.3722 65.7139 80.6258 65.8287C80.8285 65.9275 81.0032 66.0737 81.1341 66.2543C81.282 66.4763 81.3553 66.738 81.3439 67.0027C81.3374 67.2315 81.2754 67.4554 81.1629 67.6561Z" fill="#403F42"/>
<path d="M82.22 63.0311C82.3115 62.9594 82.4253 62.9204 82.5426 62.9204C82.66 62.9204 82.7738 62.9594 82.8653 63.0311C82.9037 63.0683 82.9342 63.1124 82.955 63.1611C82.9758 63.2098 82.9865 63.262 82.9865 63.3149C82.9865 63.3676 82.9758 63.4198 82.955 63.4685C82.9342 63.5172 82.9037 63.5614 82.8653 63.5985C82.7738 63.6702 82.66 63.7092 82.5426 63.7092C82.4253 63.7092 82.3115 63.6702 82.22 63.5985C82.1797 63.5628 82.1481 63.5188 82.1272 63.4698C82.1064 63.4208 82.0967 63.3678 82.099 63.3149C82.0965 63.2618 82.106 63.2088 82.1269 63.1598C82.1477 63.1107 82.1796 63.0668 82.22 63.0311ZM82.8572 64.4413V68.2779H82.2036V64.4417L82.8572 64.4413Z" fill="#403F42"/>
<path d="M89.8426 64.8105C90.1454 65.155 90.2961 65.6025 90.2622 66.0554V68.2849H89.6086V66.1105C89.63 65.7972 89.5291 65.4876 89.3263 65.244C89.2267 65.1427 89.1062 65.0636 88.9725 65.0119C88.839 64.9602 88.6956 64.9372 88.5522 64.9444C88.3975 64.9379 88.2431 64.9641 88.0997 65.0212C87.9564 65.0783 87.8273 65.165 87.7213 65.2752C87.4924 65.5497 87.38 65.8994 87.407 66.2523V68.2849H86.7534V66.1105C86.776 65.7957 86.6718 65.4847 86.463 65.244C86.3625 65.1439 86.2417 65.0656 86.1084 65.014C85.975 64.9625 85.8321 64.9387 85.6888 64.9444C85.534 64.9371 85.3794 64.963 85.236 65.0202C85.0925 65.0773 84.9634 65.1644 84.8579 65.2752C84.6289 65.5496 84.5162 65.8992 84.5432 66.2523V68.2849H83.8896V64.4504H84.5432V65.3145C84.625 65.0326 84.8047 64.7875 85.0515 64.6211C85.3081 64.4603 85.6069 64.3756 85.9118 64.377C86.2166 64.3784 86.5145 64.4658 86.7696 64.629C87.0234 64.809 87.2079 65.067 87.2937 65.3617C87.3899 65.0676 87.5827 64.813 87.8422 64.6369C88.0988 64.4667 88.4031 64.3787 88.7132 64.3849C88.9219 64.3717 89.1308 64.4029 89.3259 64.4764C89.5209 64.5498 89.6973 64.6639 89.8426 64.8105Z" fill="#403F42"/>
<path d="M94.3751 64.63C94.6519 64.7916 94.8737 65.0296 95.0124 65.314C95.1666 65.6429 95.2464 66.0002 95.2464 66.3619C95.2464 66.7235 95.1666 67.0808 95.0124 67.4096C94.869 67.6909 94.6483 67.9277 94.3751 68.0936C94.0937 68.2535 93.7728 68.3354 93.4473 68.3302C93.1018 68.3401 92.7621 68.2406 92.4793 68.0464C92.2175 67.8623 92.0249 67.5994 91.9308 67.298V70.0949H91.2788V64.441H91.9323V65.4181C92.0254 65.1162 92.2183 64.8531 92.4808 64.6696C92.7637 64.4755 93.1032 64.376 93.4487 64.3859C93.774 64.3874 94.0932 64.4715 94.3751 64.63ZM92.5689 65.1341C92.3621 65.2482 92.1961 65.4215 92.093 65.6304C91.9766 65.8605 91.9184 66.1144 91.9235 66.3711C91.9175 66.6276 91.9757 66.8819 92.093 67.1115C92.2007 67.3175 92.3656 67.4896 92.5689 67.608C92.7769 67.7258 93.0141 67.7856 93.2546 67.7811C93.4333 67.7885 93.6118 67.7594 93.7785 67.6955C93.9451 67.6318 94.0964 67.5347 94.2225 67.4107C94.4578 67.1157 94.5856 66.7525 94.5856 66.3786C94.5856 66.0046 94.4578 65.6414 94.2225 65.3464C94.0974 65.2209 93.9464 65.1229 93.7795 65.059C93.6126 64.9951 93.4336 64.9668 93.2546 64.9759C93.0148 64.9597 92.7758 65.015 92.5689 65.1343V65.1341Z" fill="#403F42"/>
<path d="M96.7478 63.1099V68.2861H96.0942V63.1099H96.7478Z" fill="#403F42"/>
<path d="M98.0703 64.4414L99.3449 67.4589L100.524 64.4414H101.251L98.9196 70.0982H98.1857L99.0003 68.2154L97.3445 64.4414H98.0703Z" fill="#403F42"/>
<path d="M104.266 63.354V68.2861H103.612V63.354H104.266Z" fill="#403F42"/>
<path d="M108.485 64.8113C108.787 65.1559 108.938 65.6034 108.904 66.0562V68.2857H108.251V66.1113C108.275 65.7902 108.167 65.4729 107.952 65.2289C107.846 65.1252 107.718 65.0444 107.578 64.9914C107.438 64.9386 107.288 64.9149 107.137 64.9218C106.977 64.9149 106.817 64.9415 106.668 65C106.519 65.0583 106.385 65.1472 106.274 65.2607C106.04 65.5389 105.925 65.8941 105.952 66.2532V68.2857H105.299V64.4488H105.952V65.3549C106.034 65.0607 106.223 64.8058 106.484 64.6381C106.747 64.4692 107.057 64.3814 107.372 64.3861C107.577 64.3758 107.783 64.4085 107.975 64.4818C108.167 64.5551 108.341 64.6674 108.485 64.8113Z" fill="#403F42"/>
<path d="M111.784 67.7281V68.2875H111.3C111.139 68.3005 110.977 68.2822 110.823 68.2334C110.669 68.1847 110.527 68.1068 110.404 68.0038C110.293 67.8756 110.208 67.7265 110.157 67.5657C110.106 67.4048 110.088 67.2355 110.106 67.0678V64.9921H109.516V64.4412H110.106V63.48H110.767V64.4412H111.783V64.9921H110.767V67.0801C110.748 67.2588 110.797 67.4383 110.904 67.5842C111.042 67.6886 111.215 67.7366 111.388 67.7181H111.783L111.784 67.7281Z" fill="#403F42"/>
<path d="M116.172 66.4973H113.026C113.02 66.6777 113.05 66.8576 113.115 67.0265C113.18 67.1956 113.279 67.3505 113.405 67.4822C113.645 67.7028 113.964 67.8217 114.293 67.8131C114.576 67.8231 114.854 67.7398 115.083 67.5765C115.29 67.4256 115.429 67.2026 115.471 66.9541H116.164C116.119 67.2139 116.011 67.4595 115.85 67.6709C115.683 67.8834 115.463 68.0514 115.212 68.1593C114.933 68.2793 114.63 68.3384 114.325 68.3325C113.976 68.3394 113.632 68.258 113.325 68.0961C113.034 67.9368 112.796 67.6994 112.639 67.412C112.469 67.088 112.383 66.7281 112.389 66.364C112.379 65.9995 112.465 65.6387 112.639 65.316C112.794 65.027 113.032 64.789 113.325 64.632C113.632 64.471 113.976 64.3895 114.325 64.3955C114.674 64.3876 115.019 64.4691 115.325 64.632C115.6 64.7816 115.826 65.0025 115.979 65.2703C116.132 65.5402 116.21 65.8444 116.205 66.1528C116.197 66.2844 116.188 66.4025 116.172 66.4973ZM115.398 65.4809C115.295 65.2982 115.137 65.15 114.947 65.0555C114.754 64.9604 114.541 64.9119 114.325 64.9135C113.993 64.906 113.67 65.0218 113.422 65.2376C113.166 65.4916 113.024 65.8345 113.027 66.1909H115.544C115.56 65.9458 115.51 65.7009 115.398 65.4809Z" fill="#403F42"/>
<path d="M117.705 63.1099V68.2861H117.052V63.1099H117.705Z" fill="#403F42"/>
<path d="M119.399 63.1099V68.2861H118.745V63.1099H119.399Z" fill="#403F42"/>
<path d="M120.447 63.0311C120.539 62.9594 120.653 62.9204 120.77 62.9204C120.887 62.9204 121.001 62.9594 121.093 63.0311C121.131 63.0683 121.161 63.1124 121.182 63.1611C121.203 63.2098 121.214 63.262 121.214 63.3149C121.214 63.3676 121.203 63.4198 121.182 63.4685C121.161 63.5172 121.131 63.5614 121.093 63.5985C121.001 63.6702 120.887 63.7092 120.77 63.7092C120.653 63.7092 120.539 63.6702 120.447 63.5985C120.407 63.5628 120.375 63.5188 120.355 63.4698C120.334 63.4208 120.324 63.3678 120.326 63.3149C120.325 63.262 120.336 63.2096 120.357 63.1608C120.377 63.1119 120.408 63.0679 120.447 63.0311ZM121.093 64.4413V68.2779H120.439V64.4417L121.093 64.4413Z" fill="#403F42"/>
<path d="M124.723 64.6777C124.987 64.8612 125.182 65.1241 125.279 65.4261V64.449H125.933V68.349C125.94 68.6777 125.863 69.003 125.707 69.2944C125.557 69.5639 125.334 69.7875 125.061 69.9403C124.766 70.1004 124.431 70.1795 124.093 70.1688C123.631 70.1871 123.175 70.0571 122.795 69.7984C122.462 69.5507 122.236 69.1916 122.158 68.7904H122.803C122.868 69.0374 123.023 69.253 123.239 69.3969C123.482 69.5548 123.77 69.6321 124.061 69.6177C124.223 69.6227 124.384 69.596 124.535 69.5391C124.686 69.4824 124.824 69.3966 124.941 69.2869C125.061 69.1639 125.155 69.0178 125.214 68.8578C125.274 68.6978 125.299 68.5273 125.287 68.3573V67.3172C125.19 67.6193 124.995 67.8821 124.731 68.0657C124.448 68.2599 124.108 68.3594 123.763 68.3494C123.437 68.3554 123.116 68.2735 122.835 68.1129C122.558 67.9512 122.336 67.7133 122.198 67.4288C122.044 67.1001 121.964 66.7426 121.964 66.381C121.964 66.0195 122.044 65.662 122.198 65.3332C122.339 65.0504 122.56 64.8131 122.835 64.6492C123.117 64.4895 123.437 64.4078 123.763 64.413C124.105 64.3904 124.444 64.4839 124.723 64.6777ZM122.972 65.3393C122.737 65.6343 122.609 65.9976 122.609 66.3715C122.609 66.7454 122.737 67.1086 122.972 67.4037C123.096 67.5282 123.245 67.6257 123.411 67.6896C123.576 67.7534 123.753 67.7822 123.931 67.774C124.174 67.7785 124.413 67.7187 124.624 67.601C124.828 67.4824 124.992 67.3104 125.1 67.1045C125.212 66.8728 125.27 66.62 125.27 66.364C125.27 66.1079 125.212 65.855 125.1 65.6234C124.993 65.4175 124.828 65.2455 124.624 65.127C124.412 65.0118 124.173 64.9522 123.931 64.9538C123.752 64.95 123.575 64.9823 123.41 65.0487C123.245 65.1151 123.096 65.214 122.972 65.3393Z" fill="#403F42"/>
<path d="M130.555 66.4973H127.409C127.403 66.6777 127.433 66.8576 127.498 67.0265C127.564 67.1956 127.662 67.3505 127.788 67.4822C128.028 67.7028 128.347 67.8217 128.676 67.8131C128.959 67.823 129.237 67.7398 129.466 67.5765C129.673 67.4255 129.811 67.2025 129.853 66.9541H130.547C130.502 67.2139 130.394 67.4595 130.233 67.6709C130.065 67.8834 129.846 68.0514 129.595 68.1593C129.316 68.2793 129.013 68.3384 128.708 68.3325C128.359 68.3394 128.015 68.258 127.708 68.0961C127.417 67.9368 127.179 67.6994 127.022 67.412C126.852 67.0882 126.766 66.7281 126.772 66.364C126.762 65.9995 126.848 65.6387 127.022 65.316C127.176 65.027 127.415 64.789 127.708 64.632C128.015 64.471 128.359 64.3895 128.708 64.3955C129.057 64.3876 129.402 64.4691 129.708 64.632C129.983 64.7816 130.209 65.0025 130.362 65.2703C130.515 65.5402 130.593 65.8444 130.588 66.1528C130.579 66.2844 130.571 66.4025 130.555 66.4973ZM129.781 65.4809C129.677 65.2981 129.52 65.1498 129.329 65.0555C129.137 64.9604 128.924 64.9119 128.708 64.9135C128.376 64.906 128.053 65.0217 127.805 65.2376C127.549 65.4916 127.407 65.8345 127.409 66.1909H129.926C129.951 65.9454 129.9 65.6983 129.781 65.4809H129.781Z" fill="#403F42"/>
<path d="M134.613 64.8113C134.915 65.1559 135.066 65.6034 135.032 66.0562V68.2857H134.378V66.1113C134.402 65.7902 134.295 65.4729 134.08 65.2289C133.973 65.1252 133.846 65.0444 133.706 64.9914C133.565 64.9386 133.415 64.9149 133.265 64.9218C133.105 64.9149 132.945 64.9415 132.796 65C132.647 65.0583 132.513 65.1473 132.402 65.2607C132.168 65.5389 132.053 65.8941 132.079 66.2532V68.2857H131.426V64.4488H132.08V65.3549C132.162 65.0607 132.351 64.8058 132.612 64.6381C132.875 64.4692 133.184 64.3814 133.499 64.3861C133.705 64.3758 133.911 64.4085 134.103 64.4818C134.295 64.5551 134.469 64.6674 134.613 64.8113Z" fill="#403F42"/>
<path d="M137.912 67.7281V68.2875H137.428C137.267 68.3005 137.105 68.2822 136.951 68.2334C136.797 68.1847 136.655 68.1068 136.532 68.0038C136.42 67.8756 136.336 67.7265 136.285 67.5657C136.234 67.4048 136.216 67.2355 136.234 67.0678V64.9921H135.644V64.4412H136.234V63.48H136.895V64.4412H137.911V64.9921H136.887V67.0801C136.868 67.2588 136.916 67.4383 137.024 67.5842C137.161 67.6886 137.335 67.7366 137.508 67.7181H137.911L137.912 67.7281Z" fill="#403F42"/>
</svg>
