<svg width="166" height="113" viewBox="0 0 166 113" fill="none" xmlns="http://www.w3.org/2000/svg">
<g clip-path="url(#clip0_748_688)">
<path fill-rule="evenodd" clip-rule="evenodd" d="M51.857 60.8446C49.8362 60.8446 48.9497 59.9102 48.7672 58.7838H49.8753C50.0318 59.5518 50.6836 59.9486 51.8439 59.9486C53.1867 59.9486 54.0342 59.3214 54.0342 57.8878V56.915C53.643 57.5678 52.7174 58.1822 51.7266 58.1822C49.9405 58.1822 48.6238 56.851 48.6238 55.0078V54.9182C48.6238 53.1006 49.9275 51.5902 51.8048 51.5902C52.939 51.5902 53.643 52.1278 54.0342 52.7806V51.7054H55.1162V57.9518C55.1032 59.8974 53.7604 60.8446 51.857 60.8446ZM51.8439 57.299C53.1085 57.299 54.0733 56.4286 54.0733 54.931V54.8414C54.0733 53.3438 53.2389 52.4734 51.9091 52.4734C50.5533 52.4734 49.745 53.459 49.745 54.867V54.9694C49.745 56.4286 50.6967 57.299 51.8439 57.299ZM57.3064 58.3998V51.7054H58.3885V52.9086C58.8187 52.1534 59.4054 51.6286 60.6309 51.5902V52.5886C59.262 52.6526 58.3885 53.075 58.3885 54.7262V58.3998H57.3064ZM65.0504 57.6318C66.4193 57.6318 67.2798 56.6206 67.2798 55.1102V55.0206C67.2798 53.4718 66.4063 52.4734 65.0504 52.4734C63.6816 52.4734 62.8211 53.4718 62.8211 55.0078V55.1102C62.8211 56.6334 63.6685 57.6318 65.0504 57.6318ZM65.0374 58.515C63.0949 58.515 61.6999 57.0686 61.6999 55.1102V55.0078C61.6999 52.9982 63.121 51.5902 65.0504 51.5902C66.9799 51.5902 68.401 52.9854 68.401 54.995V55.0974C68.401 57.1198 66.9799 58.515 65.0374 58.515ZM71.4516 58.3998L69.3527 51.7054H70.526L72.1165 57.0942L73.7722 51.7054H74.7109L76.2623 57.0942L77.8659 51.7054H78.974L76.849 58.3998H75.6496L74.2285 53.3822L72.638 58.3998H71.4516ZM82.507 58.4894C81.2685 58.4894 80.6688 57.7726 80.6688 56.723V52.6014H79.691V51.7054H80.6688V50.1822H81.7509V51.7054H83.3414V52.6014H81.7509V56.6206C81.7509 57.2734 82.0507 57.5934 82.5983 57.5934C82.9373 57.5934 83.198 57.5422 83.4327 57.4526V58.3486C83.211 58.4254 82.9503 58.4894 82.507 58.4894ZM85.0623 58.3998V48.5054H86.1444V52.7678C86.4573 52.1406 87.2134 51.5902 88.3346 51.5902C89.7426 51.5902 90.7334 52.3454 90.7334 54.291V58.3998H89.6513V54.2142C89.6513 53.0366 89.1429 52.5118 88.0478 52.5118C87.0439 52.5118 86.1444 53.139 86.1444 54.3422V58.3998H85.0623ZM92.5977 58.3998V51.7054H94.4881V52.7294C94.827 52.1022 95.5571 51.5518 96.574 51.5518C97.4736 51.5518 98.1515 51.923 98.4774 52.7166C99.025 51.9102 99.9115 51.5518 100.772 51.5518C102.037 51.5518 103.014 52.3326 103.014 54.1118V58.3998H101.137V54.3166C101.137 53.459 100.746 53.075 100.068 53.075C99.3379 53.075 98.7512 53.5358 98.7512 54.4446V58.3998H96.8738V54.3166C96.8738 53.459 96.4697 53.075 95.8048 53.075C95.0747 53.075 94.4881 53.5358 94.4881 54.4446V58.3998H92.5977ZM107.773 58.5406C105.713 58.5406 104.214 57.2734 104.214 55.1358V55.0334C104.214 52.9214 105.739 51.5518 107.721 51.5518C109.481 51.5518 111.045 52.563 111.045 54.9566V55.4686H106.13C106.182 56.5822 106.795 57.2222 107.825 57.2222C108.698 57.2222 109.129 56.851 109.246 56.2878H111.032C110.81 57.7342 109.637 58.5406 107.773 58.5406ZM106.156 54.3294H109.207C109.142 53.3182 108.62 52.8318 107.721 52.8318C106.873 52.8318 106.3 53.3822 106.156 54.3294ZM112.284 58.3998V51.7054H114.174V52.7678C114.513 52.1022 115.256 51.5518 116.39 51.5518C117.733 51.5518 118.685 52.3454 118.685 54.1374V58.3998H116.794V54.4062C116.794 53.4974 116.429 53.0622 115.595 53.0622C114.787 53.0622 114.174 53.5486 114.174 54.5342V58.3998H112.284ZM122.791 58.5278C121.357 58.5278 120.588 57.811 120.588 56.4158V53.0238H119.715V51.7054H120.588V50.259H122.466V51.7054H123.9V53.0238H122.466V56.2494C122.466 56.787 122.739 57.043 123.222 57.043C123.509 57.043 123.717 57.0046 123.939 56.915V58.3486C123.678 58.4382 123.3 58.5278 122.791 58.5278ZM128.397 57.1326C129.453 57.1326 130.066 56.3646 130.066 55.0974V55.0078C130.066 53.7278 129.453 52.9598 128.397 52.9598C127.354 52.9598 126.729 53.7022 126.729 54.9822V55.0846C126.729 56.3646 127.328 57.1326 128.397 57.1326ZM128.384 58.5406C126.351 58.5406 124.799 57.2094 124.799 55.123V55.0206C124.799 52.9214 126.351 51.5518 128.397 51.5518C130.444 51.5518 131.983 52.8958 131.983 54.9822V55.0846C131.983 57.1966 130.431 58.5406 128.384 58.5406ZM133.247 58.3998V51.7054H135.138V52.9854C135.568 52.0894 136.233 51.6158 137.341 51.603V53.331C135.946 53.3182 135.138 53.7662 135.138 55.0462V58.3998H133.247Z" fill="white"/>
<path fill-rule="evenodd" clip-rule="evenodd" d="M32.5556 63.2H31.3334C29.3125 63.2 27.6667 61.5882 27.6667 59.6V57.2051C27.6667 56.8734 27.8039 56.5723 28.0258 56.3541C27.7957 55.8836 27.6667 55.3566 27.6667 54.8V52.4051C27.6667 52.0734 27.8039 51.7723 28.0258 51.5541C27.7957 51.0836 27.6667 50.5566 27.6667 50V47.6051C27.6667 46.9412 28.2163 46.4 28.8942 46.4H31.3334C31.8101 46.4 32.2659 46.4897 32.6842 46.6528C33.1085 45.1241 34.5346 44 36.2223 44H38.6615C39.3394 44 39.889 44.5412 39.889 45.2051V47.6C39.889 48.1566 39.76 48.6836 39.53 49.1541C39.7518 49.3723 39.889 49.6734 39.889 50.0051V52.4C39.889 52.9566 39.76 53.4836 39.53 53.9541C39.7518 54.1723 39.889 54.4734 39.889 54.8051V57.2C39.889 59.1882 38.2432 60.8 36.2223 60.8H35.0001V66.8001C35.0001 67.4628 34.4576 68 33.7779 68C33.1028 68 32.5556 67.4648 32.5556 66.8001V63.2V63.2ZM32.5556 59.6C32.5556 58.9391 32.0062 58.4 31.3334 58.4H30.1112V59.6C30.1112 60.261 30.6607 60.8 31.3334 60.8H32.5556V59.6ZM32.5556 54.8C32.5556 54.1391 32.0062 53.6 31.3334 53.6H30.1112V54.8C30.1112 55.461 30.6607 56 31.3334 56H32.5556V54.8ZM32.5556 50C32.5556 49.3391 32.0062 48.8 31.3334 48.8H30.1112V50C30.1112 50.661 30.6607 51.2 31.3334 51.2H32.5556V50ZM35.0001 47.6V48.8H36.2223C36.895 48.8 37.4445 48.261 37.4445 47.6V46.4H36.2223C35.5496 46.4 35.0001 46.9391 35.0001 47.6ZM35.0001 52.4V53.6H36.2223C36.895 53.6 37.4445 53.061 37.4445 52.4V51.2H36.2223C35.5496 51.2 35.0001 51.7391 35.0001 52.4ZM35.0001 57.2V58.4H36.2223C36.895 58.4 37.4445 57.861 37.4445 57.2V56H36.2223C35.5496 56 35.0001 56.5391 35.0001 57.2Z" fill="white"/>
</g>
<defs>
<clipPath id="clip0_748_688">
<rect width="110" height="24" fill="white" transform="translate(27.6667 44)"/>
</clipPath>
</defs>
</svg>
