<svg width="108" height="30" viewBox="0 0 108 30" fill="none" xmlns="http://www.w3.org/2000/svg">
<path d="M17.9438 0.063934H2.92122C2.14674 0.0631516 1.40371 0.360957 0.855789 0.891753C0.307867 1.42255 -4.2018e-07 2.14279 0 2.89384L1.12775 10.1779L0 17.4561C0 18.2074 0.30777 18.928 0.855605 19.4592C1.40344 19.9905 2.14646 20.2889 2.92122 20.2889H17.9438C19.5571 20.2889 20.865 19.0206 20.865 17.4561L19.7372 10.172L20.865 2.88795C20.86 1.32686 19.5536 0.0639263 17.9438 0.063934ZM14.9891 10.6407L14.22 16.9225H11.1803L11.9463 10.6407C11.9775 10.4161 11.9877 10.1892 11.9767 9.96273C11.9702 9.80794 11.9331 9.65581 11.8673 9.51466C11.8176 9.40815 11.7303 9.3224 11.621 9.27293C11.5005 9.22129 11.3697 9.19613 11.238 9.19924C11.0132 9.20485 10.7936 9.26571 10.5997 9.37611C10.3587 9.50881 10.1412 9.67798 9.95525 9.87724C9.73167 10.1153 9.53687 10.3774 9.37465 10.6584C9.18779 10.9816 9.03795 11.3236 8.92781 11.6784L8.2621 16.9107H5.22233L7.00971 2.64033H10.0495L9.33514 8.31784C9.74746 7.86189 10.2484 7.48926 10.8094 7.22125C11.3103 6.99147 11.8573 6.87169 12.4114 6.87046C12.8139 6.86538 13.2122 6.9501 13.5756 7.11807C13.9279 7.28366 14.2312 7.53315 14.4571 7.84324C14.7094 8.19697 14.8804 8.59906 14.9587 9.02237C15.057 9.5529 15.0673 10.0953 14.9891 10.6289V10.6407Z" fill="#4C88F2"/>
<path fill-rule="evenodd" clip-rule="evenodd" d="M36.5503 7.39609C36.2295 6.95685 35.7999 6.60303 35.3009 6.3673C34.7842 6.12725 34.2172 6.00619 33.6442 6.01356C32.855 6.01454 32.0761 6.18677 31.3644 6.51764C30.5666 6.89642 29.8546 7.42553 29.27 8.07409L30.2883 0H25.9627L23.4185 20.281H27.7501L28.6864 12.8289C28.842 12.3251 29.0551 11.8396 29.3217 11.3815C29.5523 10.9822 29.8287 10.6094 30.1455 10.2702C30.4084 9.98696 30.7163 9.74615 31.0574 9.55684C31.3351 9.401 31.6486 9.31488 31.9693 9.30628C32.1563 9.3016 32.3421 9.33682 32.5135 9.40945C32.6671 9.48244 32.7904 9.60412 32.863 9.75435C32.9564 9.95496 33.009 10.1711 33.0181 10.3911C33.0335 10.712 33.0192 11.0336 32.9755 11.3521L31.8842 20.281H36.2281L37.3193 11.3521C37.4321 10.5943 37.4178 9.82379 37.2768 9.07045C37.1605 8.46848 36.9128 7.89759 36.5503 7.39609Z" fill="#4C88F2"/>
<path d="M51.6395 9.40945C51.3714 8.71534 50.9573 8.08291 50.4236 7.55233C49.9055 7.05078 49.284 6.66102 48.5997 6.40857C47.8768 6.14145 47.1087 6.00749 46.3351 6.01356C45.3047 6.01194 44.2866 6.23034 43.3531 6.65324C42.4086 7.07517 41.561 7.67661 40.8605 8.42193C40.122 9.21223 39.5417 10.1289 39.1491 11.1251C38.7144 12.2203 38.4988 13.3858 38.5138 14.5593C38.4967 15.4245 38.6462 16.2853 38.9545 17.0974C39.2198 17.7929 39.6342 18.4258 40.1704 18.9545C40.688 19.4568 41.3097 19.8466 41.9943 20.0983C42.7185 20.3649 43.4874 20.4988 44.262 20.4933C45.2941 20.4957 46.3138 20.2752 47.247 19.8477C48.1926 19.4197 49.0402 18.8123 49.7396 18.0613C50.4762 17.2674 51.0563 16.3492 51.451 15.3523C51.8821 14.2653 52.0977 13.1091 52.0863 11.9446C52.1019 11.0799 51.9504 10.22 51.6395 9.40945ZM47.5388 14.07C47.4174 14.6678 47.2128 15.2469 46.9309 15.7915C46.6986 16.2441 46.3665 16.6416 45.9582 16.9559C45.5877 17.2363 45.1302 17.387 44.6602 17.3833C44.1052 17.4228 43.5723 17.165 43.271 16.7112C42.9853 16.2631 42.8454 15.5321 42.8454 14.5357C42.8408 13.8307 42.9132 13.1271 43.0613 12.4369C43.1813 11.8386 43.3859 11.2593 43.6692 10.7153C43.9032 10.2663 44.2339 9.87124 44.6389 9.55685C45.0109 9.27722 45.4693 9.12764 45.9399 9.13236C46.4919 9.08973 47.0241 9.34157 47.3291 9.78972C47.6148 10.226 47.7547 10.9689 47.7547 11.977C47.7596 12.6801 47.6872 13.3817 47.5388 14.07Z" fill="#4C88F2"/>
<path d="M93.5885 12.8643C94.1671 12.5221 94.6381 12.0327 94.9503 11.4494C95.2144 10.8953 95.3473 10.291 95.3394 9.68066C95.3351 9.22957 95.226 8.78523 95.0202 8.38067C94.7933 7.93044 94.4748 7.52936 94.0839 7.20154C93.6343 6.83261 93.1193 6.54595 92.5641 6.35551C91.9026 6.12873 91.2045 6.0189 90.5031 6.03125C89.0354 6.02814 87.6006 6.45225 86.3842 7.2487C85.7973 7.62925 85.2683 8.08767 84.8126 8.6106C84.3465 9.13838 83.9502 9.72068 83.6332 10.3439C83.3055 10.9835 83.0565 11.6583 82.8915 12.3543C82.7183 13.0743 82.6316 13.8112 82.6331 14.5505C82.6225 15.3813 82.7666 16.2072 83.0587 16.9883C83.3255 17.6891 83.7396 18.3286 84.2746 18.8661C84.7981 19.3889 85.4287 19.7995 86.1258 20.0717C86.8769 20.3619 87.6792 20.5071 88.4877 20.4992C89.1268 20.5026 89.7649 20.4483 90.3937 20.337C90.963 20.2319 91.5171 20.0607 92.0442 19.8271C92.5829 19.5874 93.0926 19.2909 93.5641 18.9427C94.0934 18.5544 94.5951 18.1319 95.0658 17.6781L93.9502 16.4164C93.8488 16.3102 93.7296 16.2215 93.5976 16.1541C93.474 16.087 93.3349 16.0515 93.1933 16.0509C92.9984 16.0483 92.8048 16.0802 92.6218 16.1452C92.4524 16.2102 92.2904 16.2923 92.1385 16.3899L91.6582 16.7024C91.4767 16.818 91.2879 16.9224 91.0928 17.0148C90.8575 17.1214 90.6108 17.2025 90.3572 17.2566C90.0317 17.3251 89.6992 17.3567 89.3662 17.3509C88.5556 17.3509 87.9476 17.1298 87.5423 16.6876C87.137 16.2455 86.9202 15.5458 86.8918 14.5888C88.2689 14.4702 89.634 14.2455 90.9742 13.9167C91.8957 13.6968 92.7773 13.3419 93.5885 12.8643ZM89.3328 11.5643C88.6099 11.7452 87.8772 11.8869 87.1381 11.9888C87.3433 11.1427 87.761 10.3589 88.354 9.70719C88.8301 9.18028 89.5162 8.87655 90.2386 8.87295C90.5694 8.84442 90.8964 8.95873 91.1323 9.18542C91.3079 9.36476 91.4077 9.60144 91.412 9.84868C91.4147 10.0773 91.3593 10.303 91.2509 10.506C91.1064 10.7466 90.896 10.9436 90.6429 11.075C90.2339 11.2883 89.7989 11.4507 89.348 11.5584L89.3328 11.5643Z" fill="#4C88F2"/>
<path fill-rule="evenodd" clip-rule="evenodd" d="M105.027 6.15801C104.568 6.1965 104.124 6.3356 103.729 6.56481C103.265 6.83653 102.848 7.17666 102.492 7.57296C102.059 8.052 101.679 8.5748 101.361 9.13236V7.53169C101.393 7.16371 101.251 6.80155 100.975 6.54712C100.672 6.33211 100.301 6.22771 99.9264 6.25234H97.6922L95.9321 20.3017H100.188L100.975 13.9697C101.151 13.2041 101.422 12.4618 101.781 11.7589C102.029 11.2576 102.385 10.8142 102.826 10.4589C103.19 10.1788 103.636 10.0178 104.1 9.99902C104.327 10.0141 104.553 10.0456 104.775 10.0934C105.924 9.03888 107.001 7.91341 108 6.72399C107.022 6.47649 106.029 6.28748 105.027 6.15801Z" fill="#4C88F2"/>
<path d="M80.7759 7.27523C80.4389 6.8576 79.9988 6.52911 79.4962 6.32014C78.9783 6.1156 78.4229 6.0153 77.8638 6.02536C76.9415 6.02582 76.0389 6.28482 75.2648 6.77115C74.4043 7.31389 73.6558 8.00772 73.0579 8.81694V7.54348C73.0937 7.1741 72.9552 6.80886 72.681 6.55007C72.3782 6.33505 72.0068 6.23066 71.6323 6.25528H69.3981L66.7322 27.5798C68.2055 27.2556 69.6554 26.9107 71.0821 26.5452L71.9667 19.4704C72.3386 19.7906 72.7642 20.0468 73.2251 20.228C73.7397 20.4295 74.2904 20.5297 74.8453 20.5227C75.79 20.5179 76.7152 20.2619 77.5203 19.7828C78.3999 19.2663 79.1663 18.5873 79.7758 17.7842C80.4537 16.8989 80.9802 15.9135 81.3352 14.8659C81.7247 13.7372 81.9198 12.554 81.9128 11.3639C81.9273 10.5522 81.825 9.74263 81.6088 8.95844C81.4496 8.34916 81.1664 7.77688 80.7759 7.27523ZM77.3531 13.8312C77.1985 14.4633 76.9561 15.0722 76.6327 15.6412C76.3572 16.1334 75.9843 16.5682 75.5354 16.9205C75.1455 17.236 74.654 17.4091 74.1462 17.4098C73.8271 17.4073 73.51 17.3616 73.2039 17.2742C72.8718 17.1862 72.5616 17.0338 72.2919 16.8262L72.7266 13.4391C72.8964 12.8699 73.1182 12.3165 73.3893 11.7854C73.6302 11.3116 73.9162 10.8606 74.2435 10.4382C74.5077 10.0905 74.8255 9.78432 75.1858 9.53032C75.4552 9.32904 75.7823 9.21369 76.122 9.20016C76.5674 9.19944 76.9787 9.43152 77.1981 9.80741C77.4676 10.2142 77.6024 10.8647 77.6024 11.7589C77.6069 12.4569 77.5232 13.1529 77.3531 13.8312Z" fill="#4C88F2"/>
<path d="M66.7078 8.93486C66.5438 8.3334 66.2586 7.76937 65.8688 7.27523C65.5318 6.8576 65.0917 6.52911 64.5891 6.32014C64.0712 6.1156 63.5158 6.0153 62.9567 6.02536C62.0344 6.02616 61.132 6.28512 60.3577 6.77115C59.4972 7.31389 58.7487 8.00772 58.1509 8.81694V7.54348C58.1867 7.1741 58.0481 6.80886 57.7739 6.55007C57.4711 6.33505 57.0997 6.23066 56.7252 6.25528H54.491L51.5242 30C52.965 29.8526 54.3927 29.6836 55.8072 29.493L57.0596 19.4704C57.4315 19.7906 57.8571 20.0468 58.3181 20.228C58.8326 20.4295 59.3834 20.5297 59.9383 20.5227C60.8829 20.5179 61.8081 20.2619 62.6132 19.7828C63.4935 19.2672 64.26 18.5879 64.8688 17.7842C65.5466 16.8989 66.0731 15.9135 66.4282 14.8659C66.8186 13.7373 67.0147 12.5542 67.0088 11.3639C67.0267 10.5445 66.9253 9.72679 66.7078 8.93486ZM62.4521 13.8312C62.2989 14.4637 62.0564 15.0728 61.7317 15.6412C61.4563 16.1326 61.0845 16.5672 60.6374 16.9205C60.2461 17.2355 59.7538 17.4086 59.2452 17.4098C58.9261 17.4073 58.609 17.3616 58.3029 17.2742C57.9707 17.1865 57.6604 17.034 57.3909 16.8262L57.8226 13.4391C57.9924 12.8699 58.2142 12.3165 58.4852 11.7854C58.7262 11.3116 59.0122 10.8606 59.3394 10.4382C59.6037 10.0905 59.9215 9.78432 60.2817 9.53032C60.5511 9.32904 60.8782 9.21369 61.218 9.20016C61.6634 9.19944 62.0747 9.43152 62.2941 9.80741C62.5656 10.2142 62.7004 10.8647 62.6984 11.7589C62.7018 12.457 62.6171 13.153 62.4461 13.8312H62.4521Z" fill="#4C88F2"/>
<path fill-rule="evenodd" clip-rule="evenodd" d="M17.9438 0.063934H2.92122C2.14674 0.0631516 1.40371 0.360957 0.855789 0.891752C0.307867 1.42255 -4.2018e-07 2.14279 0 2.89384L1.12775 10.1779H6.0613L7.00363 2.65212H10.0434L9.33513 8.31784C9.74746 7.86189 10.2484 7.48926 10.8094 7.22125C11.3103 6.99147 11.8573 6.87169 12.4114 6.87046C12.8139 6.86538 13.2122 6.9501 13.5756 7.11807C13.9279 7.28366 14.2312 7.53315 14.4571 7.84324C14.7094 8.19697 14.8804 8.59906 14.9587 9.02237C15.0323 9.39916 15.0568 9.78341 15.0317 10.1661H19.7372L20.865 2.88205C20.8566 1.32327 19.5512 0.0639129 17.9438 0.063934Z" fill="#3B77E0"/>
</svg>
