<svg width="98" height="48" viewBox="0 0 98 48" fill="none" xmlns="http://www.w3.org/2000/svg">
<g clip-path="url(#clip0)">
<path d="M2.07851 1.93239C1.96047 1.93255 1.84731 1.98801 1.76385 2.08665C1.68039 2.18529 1.63344 2.31908 1.6333 2.45858V29.1978C1.63344 29.3373 1.68039 29.471 1.76385 29.5697C1.84731 29.6683 1.96047 29.7239 2.07851 29.724H12.2481C12.7992 29.7248 13.3275 29.9838 13.7171 30.4443C14.1068 30.9049 14.3259 31.5292 14.3265 32.1805V39.4444C14.3265 39.5469 14.3519 39.6473 14.3995 39.733C14.4472 39.8188 14.5149 39.8862 14.5946 39.927C14.6742 39.9678 14.7621 39.9802 14.8476 39.9627C14.9331 39.9452 15.0125 39.8986 15.0759 39.8286L23.619 30.3862C24.0037 29.96 24.5114 29.7232 25.0387 29.724H90.0159C90.134 29.7239 90.2471 29.6683 90.3306 29.5697C90.4141 29.471 90.461 29.3373 90.4612 29.1978V2.45776C90.461 2.31825 90.4141 2.18454 90.3306 2.0859C90.2471 1.98726 90.134 1.9318 90.0159 1.93164L2.07851 1.93239Z" fill="white"/>
<path d="M13.341 7.83156V15.166C13.341 15.8732 13.1033 16.5515 12.6802 17.0516C12.2571 17.5517 11.6832 17.8326 11.0848 17.8326H8.26423V26.0333C8.26423 26.157 8.22266 26.2758 8.14864 26.3632C8.07463 26.4507 7.97425 26.4998 7.86957 26.4998H4.7099C4.60523 26.4998 4.50485 26.4507 4.43083 26.3632C4.35682 26.2758 4.31525 26.157 4.31525 26.0333V5.63132C4.31525 5.57006 4.32543 5.50935 4.34527 5.45275C4.3651 5.39616 4.39419 5.3448 4.43083 5.30148C4.46748 5.25817 4.51097 5.22375 4.55885 5.20031C4.60674 5.17687 4.65807 5.16479 4.7099 5.16479H11.0847C11.3811 5.16473 11.6745 5.23374 11.9483 5.36773C12.2221 5.50173 12.4709 5.69817 12.6805 5.94582C12.8901 6.19347 13.0563 6.48744 13.1697 6.81104C13.2832 7.13463 13.3415 7.48145 13.3415 7.83171L13.341 7.83156ZM8.26385 14.4991H8.82787C8.97752 14.4991 9.12103 14.4288 9.22686 14.3038C9.33268 14.1787 9.39214 14.009 9.39214 13.8322V9.1651C9.39214 9.07752 9.37754 8.9908 9.34918 8.90989C9.32082 8.82899 9.27926 8.75549 9.22686 8.69357C9.17446 8.63165 9.11226 8.58253 9.04379 8.54903C8.97533 8.51553 8.90196 8.49831 8.82787 8.49833H8.26423L8.26385 14.4991Z" fill="black"/>
<path d="M21.0124 5.16357C21.3088 5.16355 21.6022 5.2325 21.876 5.36651C22.1498 5.50053 22.3986 5.69695 22.6081 5.9446C22.8177 6.19224 22.9839 6.48632 23.0973 6.80989C23.2107 7.13347 23.2691 7.48025 23.2691 7.83049V23.8319C23.2691 24.5393 23.0313 25.2176 22.6081 25.7178C22.1849 26.2179 21.6109 26.4989 21.0124 26.4989H16.4998C15.9014 26.4989 15.3274 26.2179 14.9043 25.7178C14.4811 25.2176 14.2433 24.5392 14.2433 23.8319V7.83049C14.2433 7.12321 14.4811 6.44489 14.9042 5.94475C15.3273 5.44461 15.9012 5.16361 16.4997 5.16357H21.0124ZM19.3203 9.16433C19.3203 8.98753 19.2608 8.81796 19.1551 8.69295C19.0493 8.56793 18.9058 8.49771 18.7562 8.49771C18.6067 8.49771 18.4632 8.56793 18.3574 8.69295C18.2516 8.81796 18.1922 8.98753 18.1922 9.16433V22.4989C18.1922 22.6757 18.2516 22.8452 18.3574 22.9702C18.4632 23.0952 18.6067 23.1655 18.7562 23.1655C18.9058 23.1655 19.0493 23.0952 19.1551 22.9702C19.2608 22.8452 19.3203 22.6757 19.3203 22.4989V9.16433Z" fill="black"/>
<path d="M33.1717 23.8319C33.1717 24.5393 32.9339 25.2177 32.5107 25.7179C32.0874 26.2181 31.5135 26.499 30.915 26.499H24.5402C24.4355 26.4989 24.3352 26.4498 24.2612 26.3623C24.1872 26.2749 24.1457 26.1562 24.1456 26.0326V5.63017C24.1456 5.50648 24.1871 5.38784 24.2611 5.30034C24.3351 5.21283 24.4354 5.16366 24.54 5.16357H30.9148C31.5133 5.16357 32.0873 5.44462 32.5106 5.94482C32.9338 6.44502 33.1715 7.1234 33.1715 7.83079L33.1717 23.8319ZM28.0943 23.1657H28.6585C28.8082 23.1657 28.9516 23.0954 29.0574 22.9703C29.1632 22.8452 29.2227 22.6756 29.2227 22.4988V9.16433C29.2227 9.07675 29.2081 8.99004 29.1798 8.90912C29.1514 8.8282 29.1099 8.75466 29.0575 8.69272C29.0051 8.63079 28.9429 8.58162 28.8745 8.54811C28.806 8.5146 28.7326 8.49739 28.6585 8.49741H28.0943V23.1657Z" fill="black"/>
<path d="M34.0485 23.8325V7.83034C34.0484 7.1232 34.2861 6.445 34.7091 5.9449C35.1321 5.4448 35.7059 5.16374 36.3042 5.16357H40.8171C41.4156 5.16357 41.9896 5.44459 42.4129 5.94482C42.8361 6.44505 43.0739 7.12351 43.0739 7.83094V12.0311C43.0739 12.0924 43.0637 12.153 43.0439 12.2096C43.024 12.2662 42.995 12.3176 42.9583 12.361C42.9217 12.4043 42.8782 12.4386 42.8303 12.462C42.7824 12.4855 42.7311 12.4976 42.6792 12.4976H39.5194C39.4676 12.4976 39.4163 12.4855 39.3684 12.462C39.3205 12.4386 39.277 12.4043 39.2404 12.361C39.2037 12.3176 39.1746 12.2662 39.1548 12.2096C39.135 12.153 39.1247 12.0924 39.1247 12.0311V9.19222C39.127 9.01551 39.0714 8.84463 38.9695 8.71523C38.8677 8.58583 38.7275 8.50788 38.5783 8.49771C38.5027 8.49494 38.4275 8.51017 38.357 8.54243C38.2865 8.57468 38.2222 8.6233 38.1679 8.68547C38.1137 8.74764 38.0705 8.82208 38.041 8.90434C38.0116 8.98659 37.9963 9.075 37.9963 9.16433V22.4709C37.9941 22.6477 38.0498 22.8187 38.1518 22.9481C38.2538 23.0775 38.3941 23.1552 38.5435 23.1652C38.619 23.1679 38.6942 23.1527 38.7647 23.1204C38.8351 23.0881 38.8994 23.0395 38.9536 22.9773C39.0078 22.9151 39.0509 22.8406 39.0803 22.7584C39.1097 22.6761 39.1248 22.5877 39.1247 22.4984V19.6315C39.1247 19.5078 39.1664 19.3892 39.2404 19.3017C39.3144 19.2142 39.4148 19.1651 39.5194 19.1651H42.6794C42.7312 19.1651 42.7825 19.1771 42.8304 19.2005C42.8783 19.224 42.9218 19.2583 42.9585 19.3016C42.9951 19.3449 43.0242 19.3964 43.044 19.453C43.0639 19.5096 43.0741 19.5703 43.0741 19.6315V23.8325C43.0741 24.1827 43.0157 24.5295 42.9023 24.8531C42.7888 25.1766 42.6227 25.4706 42.4131 25.7183C42.2036 25.9659 41.9548 26.1624 41.681 26.2964C41.4072 26.4304 41.1138 26.4994 40.8175 26.4994H36.3046C36.0082 26.4994 35.7148 26.4304 35.441 26.2964C35.1672 26.1624 34.9184 25.966 34.7089 25.7184C34.4993 25.4707 34.3331 25.1767 34.2197 24.8531C34.1063 24.5295 34.0479 24.1827 34.048 23.8325H34.0485Z" fill="black"/>
<path d="M49.3488 23.1657H47.6432L47.397 26.0791C47.3873 26.1943 47.3417 26.301 47.2691 26.3787C47.1966 26.4563 47.1022 26.4993 47.0043 26.4993H44.4238C44.3678 26.4993 44.3125 26.4852 44.2614 26.458C44.2104 26.4308 44.1649 26.3911 44.1279 26.3415C44.0908 26.2919 44.0631 26.2336 44.0466 26.1704C44.0301 26.1071 44.0252 26.0405 44.0321 25.9748L46.1901 5.57273C46.202 5.45996 46.2484 5.35623 46.3205 5.28103C46.3926 5.20583 46.4855 5.16432 46.5816 5.16431H50.3976C50.4937 5.16432 50.5866 5.20582 50.6586 5.28103C50.7307 5.35624 50.7771 5.45997 50.789 5.57273L52.9471 25.9748C52.9541 26.0405 52.9491 26.1071 52.9326 26.1704C52.9161 26.2336 52.8885 26.2919 52.8514 26.3415C52.8144 26.3911 52.7688 26.4309 52.7178 26.4581C52.6667 26.4853 52.6114 26.4993 52.5554 26.4993H49.977C49.8788 26.4993 49.7842 26.4561 49.7115 26.378C49.6389 26.2999 49.5934 26.1926 49.5841 26.0771L49.3488 23.1657ZM49.0265 19.1652L48.489 12.4976L47.9518 19.1652H49.0265Z" fill="black"/>
<path d="M57.8282 11.4988C57.8222 12.1206 58.025 12.7197 58.3919 13.1653L62.341 17.8328C62.5249 18.0516 62.6696 18.3119 62.7665 18.5982C62.8635 18.8846 62.9106 19.191 62.9052 19.4994V23.8332C62.9052 24.5406 62.6675 25.219 62.2443 25.7191C61.8211 26.2193 61.2471 26.5003 60.6486 26.5003H56.1356C55.8393 26.5003 55.5458 26.4313 55.2721 26.2973C54.9983 26.1633 54.7495 25.9668 54.54 25.7191C54.3305 25.4715 54.1643 25.1774 54.0509 24.8538C53.9375 24.5302 53.8791 24.1835 53.8792 23.8332V19.6328C53.8792 19.509 53.9207 19.3904 53.9947 19.3029C54.0688 19.2154 54.1691 19.1663 54.2738 19.1663H57.4335C57.5382 19.1663 57.6386 19.2154 57.7126 19.3029C57.7866 19.3904 57.8282 19.509 57.8282 19.6328V22.4773C57.8262 22.6421 57.8748 22.8022 57.965 22.9279C58.0552 23.0536 58.1808 23.1364 58.3187 23.1611C58.3983 23.1734 58.4792 23.1655 58.556 23.1379C58.6327 23.1103 58.7037 23.0637 58.764 23.0011C58.8243 22.9386 58.8727 22.8616 58.9058 22.7752C58.9389 22.6888 58.9561 22.595 58.9561 22.5001V20.1665C58.9621 19.5445 58.7592 18.945 58.3919 18.4994L54.4434 13.832C54.0774 13.3856 53.8748 12.787 53.8792 12.1654V7.83156C53.8791 7.48137 53.9375 7.13458 54.0509 6.81104C54.1642 6.48749 54.3304 6.19353 54.5399 5.94589C54.7495 5.69826 54.9982 5.50183 55.2719 5.36781C55.5456 5.23379 55.8391 5.16479 56.1354 5.16479H60.6482C61.2468 5.16479 61.8208 5.44581 62.2441 5.94604C62.6673 6.44627 62.9051 7.12473 62.9051 7.83216V12.0317C62.9051 12.1555 62.8635 12.2741 62.7895 12.3616C62.7155 12.4491 62.6151 12.4982 62.5104 12.4982H59.3507C59.2461 12.4982 59.1457 12.4491 59.0717 12.3616C58.9977 12.2741 58.9561 12.1555 58.9561 12.0317V9.19329C58.9583 9.01655 58.9027 8.84564 58.8008 8.71623C58.699 8.58681 58.5587 8.50887 58.4094 8.49878C58.3339 8.49597 58.2586 8.51113 58.1882 8.54335C58.1177 8.57557 58.0534 8.62424 57.9991 8.68639C57.9448 8.74854 57.9017 8.82294 57.8722 8.90518C57.8427 8.98742 57.8275 9.07578 57.8275 9.1651L57.8282 11.4988Z" fill="black"/>
<path d="M72.8332 5.63113V8.0317C72.8331 8.15543 72.7915 8.27406 72.7175 8.36153C72.6435 8.449 72.5431 8.49814 72.4384 8.49814H70.2944V26.0333C70.2944 26.0945 70.2842 26.1552 70.2643 26.2118C70.2445 26.2684 70.2154 26.3198 70.1788 26.3631C70.1421 26.4064 70.0986 26.4407 70.0507 26.4641C70.0029 26.4876 69.9516 26.4997 69.8997 26.4997H66.7403C66.6885 26.4997 66.6371 26.4876 66.5893 26.4642C66.5414 26.4408 66.4979 26.4064 66.4612 26.3631C66.4245 26.3198 66.3955 26.2684 66.3756 26.2119C66.3558 26.1553 66.3455 26.0946 66.3455 26.0333V8.49799H64.2019C64.0972 8.49799 63.9969 8.44886 63.9228 8.36138C63.8488 8.2739 63.8073 8.15526 63.8073 8.03155V5.6309C63.8072 5.56963 63.8174 5.50903 63.8372 5.45241C63.8571 5.3958 63.8862 5.34433 63.9228 5.301C63.9595 5.25766 64.003 5.22328 64.0509 5.19982C64.0987 5.17637 64.1501 5.16431 64.2019 5.16431H72.4384C72.4902 5.16429 72.5416 5.17637 72.5895 5.19982C72.6374 5.22328 72.6809 5.25765 72.7176 5.301C72.7543 5.34434 72.7834 5.39585 72.8032 5.45249C72.823 5.50913 72.8332 5.56983 72.8332 5.63113V5.63113Z" fill="black"/>
<path d="M79.8021 26.4776H74.1044C73.9997 26.4776 73.8993 26.4284 73.8253 26.3409C73.7513 26.2534 73.7097 26.1348 73.7097 26.0111V5.60868C73.7097 5.54742 73.7199 5.48681 73.7397 5.4302C73.7595 5.37359 73.7886 5.32211 73.8253 5.27878C73.8619 5.23545 73.9054 5.20106 73.9533 5.17761C74.0012 5.15416 74.0525 5.14209 74.1044 5.14209H77.2635C77.3682 5.14213 77.4686 5.19135 77.5426 5.27885C77.6166 5.36636 77.6582 5.48496 77.6582 5.60868V23.1441H79.8022C79.854 23.1441 79.9053 23.1561 79.9532 23.1796C80.0011 23.203 80.0446 23.2374 80.0813 23.2807C80.1179 23.324 80.147 23.3754 80.1668 23.432C80.1866 23.4886 80.1968 23.5492 80.1968 23.6105V26.0111C80.1968 26.0723 80.1866 26.133 80.1668 26.1896C80.1469 26.2462 80.1178 26.2977 80.0812 26.341C80.0445 26.3843 80.001 26.4186 79.9531 26.4421C79.9052 26.4655 79.8539 26.4776 79.8021 26.4776Z" fill="black"/>
<path d="M81.4793 5.16358H87.4591C87.5638 5.16358 87.6641 5.21267 87.7382 5.30011C87.8122 5.38756 87.8538 5.50618 87.8538 5.62987V8.03097C87.8538 8.09222 87.8436 8.15286 87.8238 8.20945C87.804 8.26605 87.7749 8.31749 87.7383 8.3608C87.7016 8.4041 87.6581 8.4384 87.6102 8.46182C87.5623 8.48524 87.511 8.4973 87.4591 8.49726H85.0332V13.8312H87.4593C87.5639 13.8312 87.6643 13.8804 87.7383 13.9679C87.8124 14.0553 87.8539 14.174 87.8539 14.2977V17.3656C87.8539 17.4893 87.8124 17.6079 87.7383 17.6954C87.6643 17.7829 87.5639 17.832 87.4593 17.832H85.0332V23.1657H87.4589C87.5635 23.1657 87.6639 23.2148 87.7379 23.3023C87.8119 23.3898 87.8534 23.5085 87.8534 23.6321V26.0327C87.8534 26.094 87.8433 26.1547 87.8234 26.2113C87.8036 26.2679 87.7745 26.3193 87.7379 26.3626C87.7012 26.4059 87.6577 26.4403 87.6098 26.4637C87.5619 26.4871 87.5106 26.4992 87.4588 26.4992H81.4783C81.3737 26.4992 81.2733 26.45 81.1993 26.3625C81.1253 26.2751 81.0837 26.1564 81.0837 26.0327V5.63047C81.0836 5.56908 81.0939 5.50832 81.1137 5.45161C81.1336 5.39489 81.1627 5.34334 81.1995 5.29996C81.2362 5.25659 81.2799 5.2222 81.3279 5.19879C81.3759 5.17539 81.4273 5.16343 81.4793 5.16358V5.16358Z" fill="black"/>
<path d="M96.6092 6.77838L91.4927 0.731412L91.4759 0.711298L91.4642 0.697539V0.698736C91.0772 0.251086 90.5573 0.00047431 90.0158 0.000488282H2.07842C1.52736 0.00121795 0.999061 0.260236 0.609412 0.720794C0.219763 1.18135 0.000583009 1.80583 0 2.45714V29.1964C0.000111661 29.5647 0.0704199 29.9282 0.205679 30.2599C0.340937 30.5917 0.537676 30.8831 0.781306 31.1127L5.61035 36.8201C5.80463 37.1096 6.05175 37.3435 6.33327 37.5043C6.61478 37.6651 6.92341 37.7487 7.23607 37.7487H12.6931V39.4429C12.6909 39.7844 12.7497 40.1227 12.8658 40.4354C12.9819 40.7482 13.1527 41.0283 13.3669 41.2576L18.363 47.1623C18.5614 47.4245 18.8042 47.6345 19.0756 47.7789C19.347 47.9233 19.641 47.9989 19.9386 48.0008C20.4634 47.9991 20.9678 47.7601 21.3484 47.333L29.8916 37.8905C29.9741 37.7992 30.0829 37.7485 30.1959 37.7487H95.1735C95.7246 37.7479 96.2528 37.4889 96.6425 37.0284C97.0321 36.5679 97.2513 35.9435 97.252 35.2922V8.55234C97.2521 8.22061 97.1951 7.89231 97.0847 7.58737C96.9742 7.28243 96.8124 7.0072 96.6092 6.77838V6.77838ZM12.2479 29.7218H2.0783C1.96029 29.7216 1.84716 29.6662 1.7637 29.5676C1.68025 29.469 1.63326 29.3353 1.63309 29.1958V2.45647C1.63319 2.31695 1.68014 2.18319 1.76361 2.08454C1.84708 1.98589 1.96025 1.9304 2.0783 1.93028H90.0158C90.1338 1.9304 90.247 1.98588 90.3304 2.08454C90.4139 2.18319 90.4608 2.31697 90.4608 2.45647V29.1958C90.4607 29.3353 90.4138 29.469 90.3303 29.5676C90.2469 29.6662 90.1338 29.7216 90.0158 29.7218H25.0386C24.5113 29.7209 24.0036 29.9578 23.6189 30.3841L15.0756 39.8265C15.0123 39.8966 14.9329 39.9432 14.8474 39.9607C14.7619 39.9782 14.6739 39.9657 14.5943 39.9249C14.5147 39.884 14.4469 39.8166 14.3993 39.7308C14.3517 39.6451 14.3263 39.5447 14.3264 39.4421V32.1783C14.3257 31.527 14.1066 30.9026 13.7169 30.4421C13.3273 29.9815 12.799 29.7225 12.2479 29.7218V29.7218Z" fill="black"/>
</g>
<defs>
<clipPath id="clip0">
<rect width="97.2519" height="48" fill="white"/>
</clipPath>
</defs>
</svg>
