<svg width="166" height="113" viewBox="0 0 166 113" fill="none" xmlns="http://www.w3.org/2000/svg">
<path fill-rule="evenodd" clip-rule="evenodd" d="M31.7814 52.9932C31.4666 53.3172 30.7919 54.0113 30.0706 54.7537C29.5613 55.2777 29.0289 55.8258 28.583 56.2845C31.2231 58.1772 33.6024 58.3264 34.7595 57.1358C35.2199 56.6618 35.9857 55.8738 36.8038 55.0317C37.5622 54.2513 38.9577 52.8153 40.3213 51.4121C40.3213 51.4121 38.4937 51.8123 36.3605 51.8123C34.4535 51.8123 32.5678 52.1839 31.7814 52.9932Z" fill="#F4B400"/>
<path fill-rule="evenodd" clip-rule="evenodd" d="M40.577 56.1516C40.577 53.9563 40.9659 52.0757 40.9659 52.0757C39.6025 53.4789 38.207 54.915 37.4486 55.6954L35.4041 57.7993C34.2471 58.9899 34.392 61.4385 36.2313 64.1553L37.7189 62.6245L39.4296 60.8641C40.216 60.0547 40.577 58.1141 40.577 56.1516Z" fill="#F4B400"/>
<path fill-rule="evenodd" clip-rule="evenodd" d="M38.8829 48.1198C36.4068 48.1198 33.9585 48.6021 32.9372 49.6531C32.24 50.3705 30.1833 52.4871 28.7847 53.9264C29.2196 54.2384 29.6493 54.5136 30.0707 54.7536C30.792 54.0113 31.4666 53.3171 31.7815 52.9932C32.5678 52.1839 34.4534 51.8123 36.3605 51.8123C38.4937 51.8123 40.3214 51.4121 40.3214 51.4121C42.2038 49.4748 44.0256 47.6001 44.0256 47.6001C44.0256 47.6001 41.6526 48.1198 38.8829 48.1198Z" fill="#003580"/>
<path fill-rule="evenodd" clip-rule="evenodd" d="M40.966 52.0758C40.966 52.0758 40.5771 53.9564 40.5771 56.1517C40.5771 58.1142 40.2162 60.0548 39.4296 60.8642L37.719 62.6246C37.9523 63.0584 38.2197 63.5004 38.5229 63.9482C39.9215 62.5086 41.9782 60.3922 42.6755 59.6748C43.6966 58.6238 44.1656 56.1041 44.1656 53.556C44.1656 50.7057 44.6705 48.2637 44.6705 48.2637C44.6705 48.2637 42.8489 50.1385 40.966 52.0758Z" fill="#003580"/>
<path fill-rule="evenodd" clip-rule="evenodd" d="M56.0385 63.2327C54.6633 63.2327 53.4307 62.9065 52.3408 62.2537L52.8547 60.5285C53.3425 60.8069 53.8732 61.0315 54.4466 61.2025C55.0201 61.3739 55.5792 61.4595 56.1242 61.4595C56.7937 61.4595 57.2996 61.3109 57.6422 61.0141C57.9848 60.7171 58.156 60.2907 58.156 59.7343C58.156 58.996 57.6785 58.4853 56.7235 58.2017C56.6561 58.1805 56.4666 58.1227 56.1553 58.0292C55.8439 57.9356 55.552 57.8446 55.2795 57.7563C55.0071 57.668 54.8112 57.5999 54.6918 57.5517C53.1608 56.9954 52.3954 55.9577 52.3954 54.4384C52.3954 53.374 52.7626 52.5529 53.4968 51.9751C54.231 51.3973 55.2057 51.1084 56.42 51.1084C57.7951 51.1084 58.981 51.4001 59.9775 51.983L59.3392 53.5719C58.322 53.1012 57.3775 52.8656 56.5055 52.8656C55.8777 52.8656 55.4041 52.9794 55.085 53.2067C54.7657 53.4341 54.5958 53.8126 54.575 54.3421C54.575 54.9948 54.8891 55.4201 55.517 55.618C55.6416 55.666 55.9477 55.7705 56.4355 55.9309C56.9233 56.0915 57.2399 56.1958 57.3853 56.2438C58.4283 56.5968 59.1742 57.0356 59.6234 57.5597C60.0721 58.084 60.2966 58.8142 60.2966 59.7503C60.2966 60.8685 59.9126 61.7283 59.1447 62.3301C58.3764 62.9319 57.3412 63.2327 56.0385 63.2327Z" fill="#003580"/>
<path fill-rule="evenodd" clip-rule="evenodd" d="M65.6445 63.2406C64.3367 63.2406 63.3181 62.8394 62.5891 62.037C61.8598 61.2346 61.4954 60.0872 61.4954 58.5947C61.4954 57.1504 61.878 56.0299 62.6436 55.2327C63.4091 54.4357 64.417 54.0371 65.6678 54.0371C66.6694 54.0371 67.5152 54.2591 68.2056 54.7031L67.723 56.2036C67.0171 55.8238 66.3606 55.6339 65.7535 55.6339C65.0632 55.6339 64.5196 55.888 64.1227 56.3961C63.7257 56.9045 63.5273 57.6453 63.5273 58.6189C63.5273 59.603 63.723 60.352 64.115 60.8656C64.5068 61.379 65.0608 61.6358 65.7768 61.6358C66.5241 61.6358 67.243 61.4084 67.9331 60.9538L68.1278 62.5506C67.7696 62.7966 67.3986 62.9732 67.0146 63.0802C66.6304 63.187 66.1739 63.2406 65.6445 63.2406Z" fill="#003580"/>
<path fill-rule="evenodd" clip-rule="evenodd" d="M72.5571 61.7482C73.0292 61.7482 73.4406 61.6318 73.791 61.399C74.1412 61.1664 74.3915 60.8844 74.5422 60.5526V58.8515C74.5264 58.8515 74.3904 58.8623 74.1335 58.8836C73.8765 58.905 73.7378 58.9157 73.717 58.9157C72.892 58.9907 72.2872 59.1511 71.9031 59.3972C71.5191 59.6432 71.3273 60.039 71.3273 60.5846C71.3273 60.9592 71.4334 61.2468 71.6464 61.4472C71.859 61.6478 72.1626 61.7482 72.5571 61.7482ZM72.0044 63.2406C71.2103 63.2406 70.5682 63.0148 70.0776 62.5626C69.5873 62.1106 69.342 61.4594 69.342 60.6088C69.342 59.6942 69.6326 59.0161 70.2141 58.5747C70.7952 58.1335 71.6723 57.8539 72.8451 57.7363C73.0059 57.7148 73.1798 57.6934 73.3668 57.6719C73.5535 57.6507 73.7636 57.6293 73.9972 57.6078C74.2308 57.5866 74.4149 57.5676 74.5499 57.5517V57.0862C74.5499 56.5514 74.4304 56.1622 74.1918 55.9188C73.9531 55.6754 73.5897 55.5536 73.1021 55.5536C72.4065 55.5536 71.5477 55.7543 70.5252 56.1554C70.5202 56.1394 70.4345 55.896 70.2685 55.4253C70.1023 54.9546 70.0166 54.7139 70.0116 54.7031C71.0183 54.2591 72.1082 54.0371 73.2811 54.0371C74.4331 54.0371 75.2714 54.2952 75.7955 54.8114C76.3197 55.3278 76.5816 56.1635 76.5816 57.3189V63.0722H75.0716C75.0663 63.0508 75.0092 62.8716 74.9003 62.5344C74.7911 62.1976 74.7367 62.0184 74.7367 61.9968C74.3113 62.425 73.8948 62.739 73.4874 62.9398C73.0799 63.1402 72.5857 63.2406 72.0044 63.2406Z" fill="#003580"/>
<path fill-rule="evenodd" clip-rule="evenodd" d="M81.6338 63.1923C81.0473 63.1923 80.5609 63.1215 80.1743 62.9797C79.7876 62.8381 79.4826 62.6119 79.2595 62.3017C79.0364 61.9915 78.8807 61.6225 78.7925 61.1943C78.7041 60.7665 78.6602 60.2343 78.6602 59.5976V51.839C78.6602 51.3779 79.0236 51.0039 79.4717 51.0039H80.6998V59.5574C80.6998 60.3493 80.7904 60.8853 80.9721 61.1663C81.1536 61.4473 81.5065 61.5875 82.0309 61.5875C82.2903 61.5875 82.6198 61.5583 83.0195 61.4993L83.074 62.9999C83.0689 62.9999 83.0051 63.0131 82.8831 63.0399C82.7612 63.0667 82.6444 63.0895 82.5331 63.1081C82.4213 63.1269 82.28 63.1455 82.1088 63.1643C81.9374 63.1829 81.779 63.1923 81.6338 63.1923Z" fill="#003580"/>
<path fill-rule="evenodd" clip-rule="evenodd" d="M85.7286 57.7683H89.4653C89.4653 57.0515 89.3067 56.5004 88.9903 56.1153C88.6737 55.7302 88.2351 55.5377 87.6748 55.5377C87.1504 55.5377 86.7081 55.7249 86.3474 56.0994C85.9867 56.4738 85.7803 57.0302 85.7286 57.7683ZM87.9937 63.2407C86.6185 63.2407 85.5482 62.8329 84.7827 62.0171C84.0172 61.2013 83.6345 60.0739 83.6345 58.6348C83.6345 57.2335 83.9952 56.1181 84.7164 55.2889C85.4379 54.4598 86.4213 54.0425 87.6668 54.0371C88.8449 54.0371 89.7595 54.417 90.411 55.1766C91.0621 55.9362 91.388 56.9446 91.388 58.2017C91.388 58.2926 91.3866 58.4397 91.3841 58.6429C91.3814 58.8463 91.3802 58.996 91.3802 59.0924H85.6897C85.7103 59.9163 85.9296 60.5541 86.3474 61.0059C86.7651 61.4581 87.3399 61.6841 88.0718 61.6841C89.0059 61.6841 89.9036 61.4325 90.7651 60.9297L91.0533 62.4223C90.1968 62.9679 89.1771 63.2407 87.9937 63.2407Z" fill="#003580"/>
<path fill-rule="evenodd" clip-rule="evenodd" d="M93.5907 63.0725V55.6501H92.2363V54.254H93.5907V53.7646C93.5907 53.2296 93.6387 52.7723 93.7347 52.3924C93.8307 52.0126 93.9878 51.6876 94.2058 51.4175C94.4237 51.1474 94.7158 50.9468 95.0816 50.8157C95.4475 50.6847 95.8976 50.6191 96.4321 50.6191C96.9512 50.6191 97.4804 50.6701 98.0203 50.7716L97.8411 52.3363C97.4157 52.2775 97.0808 52.248 96.8369 52.248C96.401 52.248 96.0908 52.3563 95.9068 52.5729C95.7225 52.7896 95.6302 53.1495 95.6302 53.6522V54.254H97.6388V55.6501H95.6302V63.0725H93.5907Z" fill="#003580"/>
<path fill-rule="evenodd" clip-rule="evenodd" d="M105.135 62.3781C104.455 62.9533 103.56 63.2407 102.45 63.2407C101.339 63.2407 100.445 62.9547 99.7678 62.3821C99.0905 61.8099 98.752 60.9701 98.752 59.8627V54.2539H100.799V59.7823C100.799 60.4403 100.933 60.9165 101.2 61.2105C101.468 61.5049 101.892 61.6519 102.473 61.6519C103.044 61.6519 103.46 61.5063 103.722 61.2145C103.984 60.9231 104.116 60.4457 104.116 59.7823V54.2539H106.155V59.8627C106.155 60.9647 105.815 61.8031 105.135 62.3781Z" fill="#003580"/>
<path fill-rule="evenodd" clip-rule="evenodd" d="M110.748 63.2326C109.487 63.2326 108.478 63.0106 107.72 62.5666L107.93 60.9858C108.272 61.1784 108.708 61.351 109.238 61.5034C109.767 61.656 110.25 61.732 110.686 61.732C111.137 61.732 111.489 61.6452 111.74 61.4714C111.992 61.2976 112.121 61.042 112.126 60.705C112.126 60.4002 112.008 60.1594 111.771 59.983C111.535 59.8064 111.085 59.5869 110.421 59.325C110.192 59.2394 110.045 59.1831 109.977 59.1563C109.188 58.8408 108.62 58.4891 108.272 58.1012C107.925 57.7135 107.751 57.1878 107.751 56.5244C107.751 55.7221 108.032 55.1071 108.595 54.679C109.159 54.251 109.943 54.0371 110.95 54.0371C112.04 54.0371 112.998 54.2485 113.823 54.6709L113.317 56.1233C112.502 55.7329 111.726 55.5375 110.989 55.5375C110.579 55.5375 110.259 55.6084 110.028 55.7501C109.797 55.892 109.682 56.1073 109.682 56.396C109.682 56.669 109.793 56.8817 110.016 57.034C110.239 57.1864 110.675 57.3858 111.324 57.6318C111.345 57.6372 111.412 57.6613 111.526 57.7041C111.641 57.7469 111.729 57.7817 111.791 57.8083C112.575 58.1027 113.151 58.4542 113.519 58.8634C113.888 59.2727 114.072 59.8064 114.072 60.4644C114.067 61.347 113.776 62.029 113.2 62.5106C112.624 62.992 111.807 63.2326 110.748 63.2326Z" fill="#003580"/>
<path fill-rule="evenodd" clip-rule="evenodd" d="M115.73 63.0721H117.77V54.2537H115.73V63.0721ZM115.73 52.9698V52.0075C115.73 51.5463 116.093 51.1724 116.542 51.1724H117.777V52.9698H115.73Z" fill="#003580"/>
<path fill-rule="evenodd" clip-rule="evenodd" d="M123.624 61.6439C124.314 61.6439 124.833 61.3845 125.18 60.8657C125.528 60.3469 125.702 59.6031 125.702 58.6348C125.702 57.656 125.528 56.9097 125.18 56.3961C124.833 55.8827 124.309 55.6259 123.608 55.6259C122.918 55.6259 122.397 55.884 122.047 56.4001C121.697 56.9166 121.522 57.664 121.522 58.6429C121.522 59.6059 121.698 60.3469 122.051 60.8657C122.404 61.3845 122.928 61.6439 123.624 61.6439ZM123.569 63.2407C122.303 63.2407 121.306 62.8183 120.58 61.9729C119.853 61.1277 119.49 60.0151 119.49 58.6348C119.49 57.2121 119.853 56.09 120.58 55.2688C121.306 54.4477 122.331 54.0371 123.655 54.0371C124.932 54.0371 125.932 54.4558 126.656 55.2928C127.38 56.1302 127.742 57.2441 127.742 58.6348C127.742 60.0419 127.376 61.1613 126.644 61.9929C125.912 62.8247 124.887 63.2407 123.569 63.2407Z" fill="#003580"/>
<path fill-rule="evenodd" clip-rule="evenodd" d="M129.407 63.0722V54.2537H131.05L131.276 55.369C132.148 54.4811 133.115 54.0371 134.179 54.0371C135.176 54.0371 135.922 54.3328 136.417 54.9237C136.913 55.5149 137.161 56.3721 137.161 57.4954V63.0722H135.114V57.7522C135.108 57.0408 134.997 56.5084 134.779 56.1554C134.561 55.8023 134.169 55.6258 133.603 55.6258C133.162 55.6258 132.759 55.7422 132.393 55.9748C132.027 56.2076 131.761 56.5004 131.595 56.8535C131.496 57.2706 131.447 57.9127 131.447 58.7792V63.0722H129.407Z" fill="#003580"/>
</svg>
